<!-- Generated by IcoMoon.io -->
<svg version="1.1" xmlns="http://www.w3.org/2000/svg" width="20" height="20" viewBox="0 0 20 20">
<title>arc-comment</title>
<path fill="#22437b" d="M16.046 4.178l-4.047-3.954h8.093z"></path>
<path fill="#22437b" d="M15.128 2.918l2.153 2.087-14.971 14.771-2.153-2.087z"></path>
<path fill="#00284a" d="M16.040 4.197l1.052 0.995-14.781 14.626-0.983-0.968 4.324-4.146 10.389-10.506z"></path>
<path fill="#00284a" d="M16.046 4.178l4.047-3.954v7.908z"></path>
<path fill="#4b4b4b" d="M8.603 5.604c-3.337 0-6.044 2.708-6.044 6.044s2.708 6.044 6.044 6.044c3.337 0 6.044-2.708 6.044-6.044s-2.708-6.044-6.044-6.044zM8.603 6.534c2.823 0 5.115 2.291 5.115 5.115s-2.291 5.115-5.115 5.115c-2.823 0-5.115-2.291-5.115-5.115s2.291-5.115 5.115-5.115z"></path>
<path fill="#4b4b4b" d="M9.533 8.975c0 0.578-0.468 1.046-1.046 1.046s-1.046-0.468-1.046-1.046v0c0-0 0-0 0-0 0-0.578 0.468-1.046 1.046-1.046s1.046 0.468 1.046 1.046c0 0 0 0 0 0v-0z"></path>
<path fill="#4b4b4b" d="M9.595 14.528c-0.006 0.254 0.113 0.325 0.402 0.355l0.466 0.009v0.476h-3.633v-0.476l0.512-0.009c0.306-0.009 0.38-0.128 0.402-0.355v-2.865c0.003-0.454-0.585-0.382-1-0.369v-0.472l2.852-0.103z"></path>
<path fill="#fff" d="M7.369 16.581c-1.821-0.477-3.199-1.856-3.689-3.69-0.171-0.639-0.188-1.75-0.036-2.379 0.495-2.050 2.159-3.571 4.266-3.899 1.161-0.181 2.514 0.137 3.542 0.831 0.996 0.672 1.764 1.76 2.078 2.941 0.184 0.693 0.183 1.813-0.003 2.506-0.496 1.848-1.879 3.224-3.714 3.693-0.638 0.163-1.816 0.162-2.443-0.003v0zM10.494 15.137v-0.244l-0.343-0.028c-0.571-0.047-0.54 0.079-0.54-2.17v-1.978l-0.457 0c-0.251 0-0.904 0.019-1.45 0.041l-0.993 0.041v0.562l0.22-0.041c0.272-0.051 0.7 0.058 0.751 0.191 0.021 0.054 0.038 0.79 0.038 1.635 0 1.516-0.002 1.537-0.14 1.634-0.084 0.059-0.274 0.098-0.473 0.098h-0.333v0.504h3.72v-0.244zM9.045 9.88c0.303-0.206 0.45-0.436 0.486-0.758 0.063-0.557-0.262-1.036-0.802-1.181-0.92-0.248-1.663 0.843-1.118 1.641 0.299 0.438 1.010 0.586 1.433 0.297z"></path>
<path fill="#fff" d="M7.343 16.575c-2.463-0.645-4.118-3.069-3.785-5.545 0.314-2.338 2.118-4.131 4.452-4.425 2.489-0.314 4.861 1.311 5.521 3.784 0.2 0.748 0.185 1.882-0.035 2.617-0.541 1.812-1.878 3.118-3.658 3.573-0.676 0.173-1.828 0.172-2.495-0.003v0zM10.494 15.137v-0.244l-0.343-0.028c-0.571-0.047-0.54 0.079-0.54-2.17v-1.978h-0.4c-0.22 0-0.872 0.019-1.45 0.041l-1.050 0.041v0.553l0.211-0.040c0.264-0.050 0.71 0.066 0.76 0.197 0.021 0.054 0.038 0.79 0.038 1.635 0 1.516-0.002 1.537-0.14 1.634-0.084 0.059-0.274 0.098-0.473 0.098h-0.333v0.504h3.72zM8.96 9.919c0.638-0.303 0.782-1.136 0.287-1.656-0.901-0.947-2.327 0.187-1.641 1.304 0.251 0.409 0.886 0.574 1.354 0.352z"></path>
</svg>
