<!-- Generated by IcoMoon.io -->
<svg version="1.1" xmlns="http://www.w3.org/2000/svg" width="20" height="20" viewBox="0 0 20 20">
<title>automation</title>
<path d="M17.5 15c0 1.381-1.119 2.5-2.5 2.5s-2.5-1.119-2.5-2.5c0-1.381 1.119-2.5 2.5-2.5s2.5 1.119 2.5 2.5z"></path>
<path d="M14.625 20v0c-1 0-2-0.25-2.875-0.875l-7.75-4.125c-0.625-0.5-1.125-0.75-1.625-1.25-1.5-1.5-2.375-3.625-2.375-5.75s0.875-4.125 2.375-5.625c1.5-1.5 3.5-2.375 5.625-2.375s4.125 0.875 5.75 2.375c0.5 0.5 0.75 0.875 1.25 1.5l4.375 8c1.25 2.125 0.875 4.75-0.875 6.5-1.125 1.125-2.375 1.625-3.875 1.625zM8 1.25c-1.75 0-3.5 0.75-4.75 2s-2 3-2 4.75c0 1.875 0.75 3.5 2 4.75 0.375 0.375 0.75 0.625 1.375 1l7.875 4.25c0.75 0.5 1.5 0.625 2.25 0.625v0c1.125 0 2.125-0.375 2.875-1.25 1.375-1.375 1.625-3.375 0.625-5l-4.375-8c-0.375-0.5-0.625-0.875-1-1.25-1.375-1.125-3-1.875-4.875-1.875z"></path>
<path d="M13.75 8.75v-1.25l-1.75-0.625c-0.125-0.25-0.125-0.375-0.25-0.625l0.75-1.625-0.875-0.875-1.625 0.75c-0.25-0.125-0.375-0.125-0.625-0.25l-0.625-1.75h-1.25l-0.625 1.75c-0.25 0.125-0.375 0.125-0.625 0.25l-1.625-0.75-0.875 0.875 0.75 1.625c-0.125 0.25-0.125 0.375-0.25 0.625l-1.75 0.625v1.25l1.75 0.625c0.125 0.25 0.125 0.375 0.25 0.625l-0.75 1.625 0.875 0.875 1.625-0.75c0.25 0.125 0.375 0.25 0.625 0.25l0.625 1.75h1.25l0.625-1.75c0.25-0.125 0.375-0.125 0.625-0.25l1.625 0.75 0.875-0.875-0.75-1.625c0.125-0.25 0.25-0.375 0.25-0.625l1.75-0.625zM8.125 10c-1 0-1.875-0.875-1.875-1.875s0.875-1.875 1.875-1.875 1.875 0.875 1.875 1.875-0.875 1.875-1.875 1.875z"></path>
</svg>
