<!-- Generated by IcoMoon.io -->
<svg version="1.1" xmlns="http://www.w3.org/2000/svg" width="20" height="20" viewBox="0 0 20 20">
<title>barred-note</title>
<path fill="#fedb41" d="M19.94 0.764v13.107l-6.12 6.12h-13.005c-0.428 0-0.765-0.337-0.765-0.765v-18.462c0-0.428 0.337-0.765 0.765-0.765h18.36c0.428 0 0.765 0.337 0.765 0.765z"></path>
<path fill="#fcbf29" d="M19.94 0.764v13.107l-6.12 6.12h-3.825v-19.992h9.18c0.428 0 0.765 0.337 0.765 0.765z"></path>
<path fill="#fe9923" d="M14.585 19.991c0.211 0 0.402-0.085 0.543-0.226l4.586-4.586c0.139-0.138 0.225-0.329 0.226-0.541v-0.767h-5.355c-0.422 0-0.765 0.343-0.765 0.765v5.355h0.765z"></path>
<path fill="#5c5c5c" d="M0.251 1.535l18.172 18.172c0.354 0.355 0.93 0.355 1.284 0 0.355-0.354 0.355-0.93 0-1.284l-18.172-18.172c-0.354-0.355-0.93-0.355-1.284 0-0.355 0.354-0.355 0.93 0 1.284z"></path>
</svg>
