<!-- Generated by IcoMoon.io -->
<svg version="1.1" xmlns="http://www.w3.org/2000/svg" width="20" height="20" viewBox="0 0 20 20">
<title>barred-variation</title>
<path fill="#868080" d="M8.212 16.551l-7.697-5.773c-0.511-0.384-0.513-1.154 0-1.54l7.697-5.773c0.635-0.477 1.54-0.037 1.54 0.77v1.924h9.3c0.531 0 0.962 0.431 0.962 0.962v5.766c0 0.531-0.431 0.962-0.962 0.962h-9.3v1.931c0 0.797-0.911 1.241-1.54 0.77z"></path>
<path fill="#5c5c5c" d="M19.052 6.16h-4.169v7.69h4.169c0.531 0 0.962-0.431 0.962-0.962v-5.766c0-0.531-0.431-0.962-0.962-0.962z"></path>
<path fill="#5c5c5c" d="M0.57 1.811l17.559 17.559c0.342 0.343 0.899 0.343 1.241 0 0.343-0.342 0.343-0.899 0-1.241l-17.559-17.559c-0.342-0.343-0.899-0.343-1.241 0-0.343 0.342-0.343 0.899 0 1.241z"></path>
</svg>
