<!-- Generated by IcoMoon.io -->
<svg version="1.1" xmlns="http://www.w3.org/2000/svg" width="20" height="20" viewBox="0 0 20 20">
<title>barred-information</title>
<path fill="#3897ff" d="M0.001 10.005c0 5.516 4.488 10.004 10.004 10.004l1.053-10.004-1.053-10.004c-5.516 0-10.004 4.488-10.004 10.004z"></path>
<path fill="#2d79cc" d="M9.991-0.002v19.985c5.51 0 9.992-4.483 9.992-9.992s-4.482-9.992-9.992-9.992z"></path>
<path fill="#fff" d="M8.413 4.732c0 0.871 0.706 1.578 1.578 1.578l0.526-1.578-0.526-1.578c-0.871 0-1.578 0.706-1.578 1.578z"></path>
<path fill="#bfdcff" d="M9.991 3.154v3.156c0.871 0 1.578-0.706 1.578-1.578s-0.706-1.578-1.578-1.578z"></path>
<path fill="#fff" d="M9.991 8.413h-1.578v8.415h1.578l0.526-4.207-0.526-4.207z"></path>
<path fill="#bfdcff" d="M9.991 8.413h1.578v8.415h-1.578v-8.415z"></path>
<path fill="#5c5c5c" d="M0.266 1.552l18.182 18.182c0.355 0.355 0.931 0.355 1.286 0s0.355-0.931 0-1.286l-18.182-18.182c-0.355-0.355-0.931-0.355-1.286 0s-0.355 0.931 0 1.286z"></path>
</svg>
