<!-- Generated by IcoMoon.io -->
<svg version="1.1" xmlns="http://www.w3.org/2000/svg" width="20" height="20" viewBox="0 0 20 20">
<title>barred-exclude</title>
<path fill="#c00" d="M20.025 10.012c0 5.53-4.483 10.012-10.012 10.012s-10.012-4.483-10.012-10.012c0-5.53 4.483-10.012 10.012-10.012s10.012 4.483 10.012 10.012z"></path>
<path fill="#fff" d="M3.56 8.344h12.904v3.337h-12.904v-3.338z"></path>
<path fill="#fff" d="M2.935 7.719h14.154v4.587h-14.154v-4.588zM4.185 8.969v2.087h11.654v-2.088h-11.654z"></path>
<path fill="#5c5c5c" d="M0.266 1.552l18.182 18.182c0.355 0.355 0.931 0.355 1.286 0s0.355-0.931 0-1.286l-18.182-18.182c-0.355-0.355-0.931-0.355-1.286 0s-0.355 0.931 0 1.286z"></path>
</svg>
