<!-- Generated by IcoMoon.io -->
<svg version="1.1" xmlns="http://www.w3.org/2000/svg" width="20" height="20" viewBox="0 0 20 20">
<title>barred-monitor</title>
<path fill="#32bea6" d="M18.429 3.074h-16.896c-0.845 0-1.536 0.691-1.536 1.536v10.752c0 0.845 0.691 1.536 1.536 1.536l16.896-0c0.845 0 1.536-0.691 1.536-1.536v-10.752c0-0.845-0.691-1.536-1.536-1.536z"></path>
<path fill="#fff" d="M2.627 5.48h14.841v1.953h-14.841v-1.953z"></path>
<path fill="#fff" d="M12.307 10.082c0-0.527-0.428-0.955-0.955-0.955h-7.769c-0.527 0-0.955 0.428-0.955 0.955s0.428 0.955 0.955 0.955h7.769c0.527 0 0.955-0.428 0.955-0.955z"></path>
<path fill="#fff" d="M2.585 12.732h11.94v1.911h-11.94v-1.911z"></path>
<path fill="#5c5c5c" d="M0.26 1.544l18.163 18.163c0.354 0.355 0.93 0.355 1.284 0 0.355-0.354 0.355-0.93 0-1.284l-18.163-18.163c-0.354-0.355-0.93-0.355-1.284 0-0.355 0.354-0.355 0.93 0 1.284z"></path>
</svg>
