<!-- Generated by IcoMoon.io -->
<svg version="1.1" xmlns="http://www.w3.org/2000/svg" width="21" height="20" viewBox="0 0 21 20">
<title>browse</title>
<path fill="#f18900" d="M8.22 2.69l-1.229-2.304h-6.606v16.207h17.237l0.122-13.902z"></path>
<path fill="#e17300" d="M17.622 16.592l0.122-13.902h-7.452v13.902z"></path>
<path fill="#ffda2d" d="M20.123 6.224h-16.104l-3.634 10.369h17.237z"></path>
<path fill="#fdbf00" d="M17.622 16.592l2.501-10.369h-9.83v10.369z"></path>
<path fill="#6790bf" d="M4.768 11.152c0 3 2.478 5.44 5.525 5.44l0.614-5.44-0.614-5.44c-3.046 0-5.525 2.44-5.525 5.44z"></path>
<path fill="#324860" d="M13.926 13.448l4.961 4.884-1.302 1.282-4.961-4.884 1.302-1.282z"></path>
<path fill="#446080" d="M10.293 5.712v10.88c3.046 0 5.525-2.44 5.525-5.44s-2.478-5.44-5.525-5.44z"></path>
<path fill="#fff" d="M5.996 11.152c0 2.333 1.928 4.231 4.297 4.231l0.614-4.231-0.614-4.231c-2.369 0-4.297 1.898-4.297 4.231z"></path>
<path fill="#bfdcff" d="M10.293 6.921v8.462c2.369 0 4.297-1.898 4.297-4.231s-1.928-4.231-4.297-4.231z"></path>
</svg>
