<!-- Generated by IcoMoon.io -->
<svg version="1.1" xmlns="http://www.w3.org/2000/svg" width="20" height="20" viewBox="0 0 20 20">
<title>center</title>
<path fill="#005ece" d="M9.991 4.717h4.729l-4.729-4.717z"></path>
<path fill="#005ece" d="M0 9.991l4.717 4.729v-4.729z"></path>
<path fill="#005ece" d="M20 9.991h-4.717v4.729z"></path>
<path fill="#005ece" d="M9.991 20l4.729-4.717h-4.729z"></path>
<path fill="#2488ff" d="M20 9.991l-4.717-4.704v3.916h-2.818c0.082 0.251 0.126 0.519 0.126 0.797s-0.045 0.546-0.126 0.797h2.818v-0.806h4.717z"></path>
<path fill="#2488ff" d="M10 7.408c0.278 0 0.546 0.045 0.797 0.126v-2.818h-0.806v-4.717l-4.704 4.717h3.916v2.818c-0.789 0.256-1.413 0.88-1.668 1.668h-2.818v-3.916l-4.717 4.704h4.717v0.806h2.818c0.256 0.789 0.88 1.413 1.668 1.668v2.818h-3.916l4.704 4.717v-4.717h0.806v-2.818c-0.251 0.082-0.519 0.126-0.797 0.126v-5.184z"></path>
<path fill="#005ece" d="M12.466 9.203c-0.256-0.789-0.88-1.413-1.668-1.668-0.251-0.082-0.519-0.126-0.798-0.126v5.184c0.278 0 0.546-0.045 0.798-0.126 0.789-0.256 1.413-0.88 1.668-1.668 0.082-0.251 0.126-0.519 0.126-0.797s-0.045-0.546-0.126-0.798z"></path>
</svg>
