<!-- Generated by IcoMoon.io -->
<svg version="1.1" xmlns="http://www.w3.org/2000/svg" width="20" height="20" viewBox="0 0 20 20">
<title>charts</title>
<path fill="#35495e" d="M5.503 12.629c-0.134-0-0.256-0.078-0.312-0.199s-0.038-0.264 0.048-0.367l3.822-4.569c0.122-0.146 0.34-0.165 0.486-0.043s0.165 0.34 0.043 0.486l-3.822 4.569c-0.066 0.078-0.162 0.124-0.265 0.124z"></path>
<path fill="#35495e" d="M14.77 11.178c-0.122-0-0.234-0.065-0.296-0.169s-0.064-0.235-0.006-0.341l3.563-6.494c0.092-0.165 0.301-0.225 0.467-0.134s0.228 0.299 0.138 0.466l-3.563 6.494c-0.061 0.111-0.177 0.179-0.303 0.179z"></path>
<path fill="#35495e" d="M14.21 11.523c-0.083 0-0.164-0.030-0.226-0.085l-4.282-3.736c-0.093-0.081-0.135-0.205-0.112-0.326s0.11-0.22 0.227-0.26c0.117-0.040 0.246-0.015 0.338 0.066l4.282 3.736c0.108 0.095 0.147 0.246 0.096 0.381s-0.179 0.224-0.323 0.224z"></path>
<path fill="#3b97d3" d="M2.414 16.897v-16.207c0-0.381-0.309-0.69-0.69-0.69h-1.034c-0.381 0-0.69 0.309-0.69 0.69v18.621c0 0.381 0.309 0.69 0.69 0.69h18.621c0.381 0 0.69-0.309 0.69-0.69v-1.034c0-0.381-0.309-0.69-0.69-0.69h-16.207c-0.381 0-0.69-0.309-0.69-0.69z"></path>
<path fill="#cc4b4c" d="M6.552 12.759c0 0.762-0.618 1.379-1.379 1.379s-1.379-0.618-1.379-1.379c0-0.762 0.618-1.379 1.379-1.379s1.379 0.618 1.379 1.379z"></path>
<path fill="#cc4b4c" d="M11.034 7.241c0 0.762-0.618 1.379-1.379 1.379s-1.379-0.618-1.379-1.379c0-0.762 0.618-1.379 1.379-1.379s1.379 0.618 1.379 1.379z"></path>
<path fill="#cc4b4c" d="M15.862 11.379c0 0.762-0.618 1.379-1.379 1.379s-1.379-0.618-1.379-1.379c0-0.762 0.618-1.379 1.379-1.379s1.379 0.618 1.379 1.379z"></path>
<path fill="#cc4b4c" d="M20 3.793c0 0.762-0.618 1.379-1.379 1.379s-1.379-0.618-1.379-1.379c0-0.762 0.618-1.379 1.379-1.379s1.379 0.618 1.379 1.379z"></path>
</svg>
