<!-- Generated by IcoMoon.io -->
<svg version="1.1" xmlns="http://www.w3.org/2000/svg" width="20" height="20" viewBox="0 0 20 20">
<title>checkbox-true</title>
<path d="M0.977 19.844h18.047c0.453 0 0.82-0.367 0.82-0.82v-18.047c0-0.453-0.367-0.82-0.82-0.82h-18.047c-0.453 0-0.82 0.367-0.82 0.82v18.047c0 0.453 0.367 0.82 0.82 0.82zM1.797 1.797h16.406v16.406h-16.406v-16.406z"></path>
<path d="M15.161 5.318l-7.622 7.624-2.7-2.7c-0.32-0.32-0.84-0.32-1.16 0s-0.32 0.84 0 1.16l3.281 3.281c0.159 0.159 0.369 0.24 0.579 0.24s0.42-0.080 0.581-0.24l8.203-8.203c0.32-0.32 0.32-0.84 0-1.16s-0.84-0.322-1.162-0.002z"></path>
</svg>
