<!-- Generated by IcoMoon.io -->
<svg version="1.1" xmlns="http://www.w3.org/2000/svg" width="20" height="20" viewBox="0 0 20 20">
<title>checkbox-false</title>
<path d="M0.977 19.844h18.047c0.453 0 0.82-0.367 0.82-0.82v-18.047c0-0.453-0.367-0.82-0.82-0.82h-18.047c-0.453 0-0.82 0.367-0.82 0.82v18.047c0 0.453 0.367 0.82 0.82 0.82zM1.797 1.797h16.406v16.406h-16.406v-16.406z"></path>
<path d="M14.682 5.318c-0.32-0.32-0.84-0.32-1.16 0l-3.522 3.522-3.521-3.522c-0.32-0.32-0.84-0.32-1.16 0s-0.32 0.84 0 1.16l3.521 3.522-3.521 3.521c-0.32 0.32-0.32 0.84 0 1.16 0.159 0.161 0.369 0.241 0.579 0.241s0.42-0.080 0.581-0.24l3.521-3.522 3.521 3.521c0.161 0.161 0.371 0.241 0.581 0.241s0.42-0.080 0.581-0.24c0.32-0.32 0.32-0.84 0-1.16l-3.522-3.522 3.521-3.521c0.322-0.322 0.322-0.84 0.002-1.162z"></path>
</svg>
