<!-- Generated by IcoMoon.io -->
<svg version="1.1" xmlns="http://www.w3.org/2000/svg" width="18" height="20" viewBox="0 0 18 20">
<title>classes</title>
<path fill="#fff" d="M16.937 9.579c-0.802 3.105-1.399 2.248-3.139 6.602-0.138 0.435-1.604 3.115-4.046 3.118-2.635 0.003-4.249-2.856-5.356-4.702-1.037-1.967-1.97-2.834-2.567-4.095-1.836-3.874-1.643-10.202 6.874-9.89 8.475 0.31 9.070 5.725 8.233 8.967z"></path>
<path fill="#41495b" d="M14.262 16.354c-0.095 0.269-0.524 1.11-1.264 1.889-0.773 0.813-1.876 1.549-3.245 1.551-1.18 0.001-2.181-0.499-3.032-1.245-1.18-1.035-2.062-2.552-2.749-3.698l-0.013-0.023c-1.042-1.975-1.977-2.848-2.576-4.113-1.177-2.484-1.528-5.909 0.309-8.182 1.218-1.507 3.409-2.547 7.031-2.414 3.561 0.13 5.788 1.146 7.133 2.503 2.060 2.077 2.099 4.997 1.56 7.082-0.422 1.633-0.791 2.224-1.282 2.979-0.455 0.7-1.024 1.553-1.871 3.673zM4.827 14.353c0.537 0.896 1.194 2.038 2.038 2.953 0.776 0.842 1.712 1.499 2.886 1.498 1.073-0.002 1.923-0.607 2.529-1.244 0.616-0.647 0.985-1.335 1.046-1.53l0.012-0.034c0.89-2.227 1.488-3.122 1.965-3.856 0.443-0.681 0.774-1.214 1.154-2.687 0.466-1.804 0.478-4.34-1.305-6.138-1.217-1.227-3.248-2.093-6.467-2.21-3.192-0.117-5.151 0.719-6.225 2.048-1.602 1.981-1.211 4.971-0.184 7.136 0.593 1.252 1.521 2.114 2.55 4.063z"></path>
<path fill="#0e358e" d="M12.324 14.848c0 1.411-1.144 2.556-2.556 2.556s-2.556-1.144-2.556-2.556c0-1.411 1.144-2.556 2.556-2.556s2.556 1.144 2.556 2.556z"></path>
<path fill="#397ba0" d="M11.487 14.815c0 0.956-0.775 1.731-1.731 1.731s-1.731-0.775-1.731-1.731c0-0.956 0.775-1.731 1.731-1.731s1.731 0.775 1.731 1.731z"></path>
<path fill="#0e358e" d="M7.829 6.142c0 1.411-1.144 2.556-2.556 2.556s-2.556-1.144-2.556-2.556c0-1.411 1.144-2.556 2.556-2.556s2.556 1.144 2.556 2.556z"></path>
<path fill="#397ba0" d="M6.992 6.109c0 0.956-0.775 1.731-1.731 1.731s-1.731-0.775-1.731-1.731c0-0.956 0.775-1.731 1.731-1.731s1.731 0.775 1.731 1.731z"></path>
<path fill="#0e358e" d="M14.861 6.757c0 1.411-1.144 2.556-2.556 2.556s-2.556-1.144-2.556-2.556c0-1.411 1.144-2.556 2.556-2.556s2.556 1.144 2.556 2.556z"></path>
<path fill="#397ba0" d="M14.024 6.724c0 0.956-0.775 1.731-1.731 1.731s-1.731-0.775-1.731-1.731c0-0.956 0.775-1.731 1.731-1.731s1.731 0.775 1.731 1.731z"></path>
</svg>
