<!-- Generated by IcoMoon.io -->
<svg version="1.1" xmlns="http://www.w3.org/2000/svg" width="20" height="20" viewBox="0 0 20 20">
<title>clear</title>
<path fill="#a8eaef" d="M19.436 6.378l-5.042-5.042c-0.752-0.752-1.971-0.752-2.724 0l-11.106 11.106c-0.752 0.752-0.752 1.971 0 2.724l4.062 4.062h4.685l10.126-10.126c0.752-0.752 0.752-1.971 0-2.724z"></path>
<path fill="#80cdd8" d="M19.436 6.378l-2.521-2.521-13.83 13.83 1.54 1.54h4.685l10.126-10.126c0.752-0.752 0.752-1.971 0-2.724z"></path>
<path fill="#e06b34" d="M0.564 12.443c-0.752 0.752-0.752 1.971 0 2.724l4.062 4.062h4.685l4.573-4.572-7.766-7.766-5.553 5.553z"></path>
<path fill="#d1393c" d="M3.085 17.687l1.54 1.541h4.685l4.573-4.573-3.883-3.883z"></path>
</svg>
