<!-- Generated by IcoMoon.io -->
<svg version="1.1" xmlns="http://www.w3.org/2000/svg" width="20" height="20" viewBox="0 0 20 20">
<title>cog</title>
<path d="M20 11.25v-2.5l-2.125-0.75c-0.25-0.75-0.5-1.5-0.875-2.25l1-2-1.75-1.75-2 1c-0.625-0.375-1.375-0.75-2.25-0.875l-0.75-2.125h-2.5l-0.75 2.125c-0.75 0.25-1.5 0.5-2.125 0.875l-2-1-1.875 1.875 1 2c-0.375 0.625-0.625 1.375-0.875 2.125l-2.125 0.75v2.5l2.125 0.75c0.25 0.75 0.5 1.5 0.875 2.25l-1 2 1.75 1.75 2-1c0.625 0.375 1.375 0.75 2.25 0.875l0.75 2.125h2.5l0.75-2.125c0.75-0.25 1.5-0.5 2.25-0.875l2 1 1.75-1.75-1-2c0.375-0.625 0.75-1.375 0.875-2.25l2.125-0.75zM10 15c-2.75 0-5-2.25-5-5s2.25-5 5-5 5 2.25 5 5-2.25 5-5 5z"></path>
<path d="M13.25 9.875c0 1.726-1.399 3.125-3.125 3.125s-3.125-1.399-3.125-3.125c0-1.726 1.399-3.125 3.125-3.125s3.125 1.399 3.125 3.125z"></path>
</svg>
