<!-- Generated by IcoMoon.io -->
<svg version="1.1" xmlns="http://www.w3.org/2000/svg" width="20" height="20" viewBox="0 0 20 20">
<title>coin</title>
<path fill="#fcc62d" d="M17.93 10.072v0.427c0 2.39-4.014 4.327-8.964 4.327-2.733 0-5.178-0.591-6.823-1.522 0.554 2.153 4.322 3.935 8.891 3.935 4.951 0 8.964-2.092 8.964-4.482 0-1.051-0.778-1.977-2.069-2.686z"></path>
<path fill="#e4af18" d="M11.034 17.239c-4.951 0-8.964-2.092-8.964-4.482v2.913c0 2.39 4.014 4.328 8.964 4.328s8.964-1.938 8.964-4.328v-2.913c0 2.39-4.014 4.482-8.964 4.482z"></path>
<path fill="#ce9912" d="M3.104 17.704c0.203 0.186 0.434 0.364 0.69 0.533v-2.859c-0.255-0.176-0.486-0.36-0.69-0.553v2.879z"></path>
<path fill="#ce9912" d="M18.275 15.378v2.859c0.255-0.169 0.486-0.347 0.69-0.533v-2.879c-0.203 0.192-0.434 0.377-0.69 0.553z"></path>
<path fill="#ce9912" d="M4.483 18.639c0.218 0.113 0.448 0.219 0.69 0.32v-2.825c-0.241-0.106-0.472-0.218-0.69-0.336v2.841z"></path>
<path fill="#ce9912" d="M16.896 18.959c0.241-0.101 0.472-0.208 0.69-0.32v-2.841c-0.218 0.118-0.448 0.23-0.69 0.336v2.825z"></path>
<path fill="#ce9912" d="M5.862 19.22c0.223 0.076 0.453 0.147 0.69 0.213v-2.798c-0.237-0.070-0.467-0.146-0.69-0.226v2.81z"></path>
<path fill="#ce9912" d="M15.516 19.434c0.237-0.066 0.467-0.137 0.69-0.213v-2.81c-0.223 0.080-0.453 0.156-0.69 0.226v2.798z"></path>
<path fill="#ce9912" d="M7.586 19.682c0.225 0.046 0.455 0.086 0.69 0.122v-2.773c-0.234-0.039-0.464-0.082-0.69-0.131v2.782z"></path>
<path fill="#ce9912" d="M13.792 19.804c0.234-0.037 0.464-0.077 0.69-0.122v-2.782c-0.225 0.048-0.455 0.092-0.69 0.131v2.773z"></path>
<path fill="#ce9912" d="M9.655 19.963c0.227 0.017 0.457 0.029 0.69 0.037v-2.759c-0.232-0.009-0.463-0.021-0.69-0.040v2.762z"></path>
<path fill="#ce9912" d="M11.724 20c0.232-0.009 0.463-0.020 0.69-0.037v-2.762c-0.227 0.018-0.457 0.031-0.69 0.040v2.759z"></path>
<path fill="#e4af18" d="M8.965 12.065c-4.951 0-8.964-2.092-8.964-4.482v2.913c0 2.39 4.014 4.328 8.964 4.328s8.964-1.938 8.964-4.328v-2.913c0 2.39-4.014 4.482-8.964 4.482z"></path>
<path fill="#ce9912" d="M1.035 12.53c0.203 0.186 0.434 0.364 0.69 0.533v-2.859c-0.255-0.176-0.486-0.36-0.69-0.552v2.878z"></path>
<path fill="#ce9912" d="M16.206 10.204v2.859c0.255-0.169 0.486-0.347 0.69-0.533v-2.879c-0.203 0.192-0.434 0.377-0.69 0.553z"></path>
<path fill="#ce9912" d="M2.415 13.465c0.218 0.113 0.448 0.219 0.69 0.32v-2.825c-0.241-0.106-0.472-0.218-0.69-0.336v2.841z"></path>
<path fill="#ce9912" d="M14.827 13.785c0.241-0.101 0.472-0.207 0.69-0.32v-2.841c-0.218 0.118-0.448 0.23-0.69 0.336v2.825z"></path>
<path fill="#ce9912" d="M3.794 14.046c0.223 0.076 0.453 0.147 0.69 0.213v-2.798c-0.237-0.070-0.467-0.146-0.69-0.226v2.81z"></path>
<path fill="#ce9912" d="M13.448 14.259c0.237-0.066 0.467-0.137 0.69-0.213v-2.81c-0.223 0.080-0.453 0.156-0.69 0.226v2.798z"></path>
<path fill="#ce9912" d="M5.518 14.508c0.225 0.046 0.455 0.086 0.69 0.122v-2.773c-0.234-0.039-0.464-0.082-0.69-0.131v2.782z"></path>
<path fill="#ce9912" d="M11.724 14.63c0.234-0.037 0.464-0.077 0.69-0.122v-2.782c-0.225 0.048-0.455 0.092-0.69 0.131v2.773z"></path>
<path fill="#ce9912" d="M7.586 14.789c0.227 0.017 0.457 0.029 0.69 0.037v-2.759c-0.232-0.009-0.463-0.021-0.69-0.040v2.762z"></path>
<path fill="#ce9912" d="M9.655 14.826c0.232-0.009 0.463-0.020 0.69-0.037v-2.762c-0.227 0.018-0.457 0.031-0.69 0.040v2.759z"></path>
<path fill="#ffd949" d="M17.694 11.482c-0.923 1.916-4.479 3.344-8.729 3.344-1.587 0-3.078-0.2-4.371-0.549 1.251 0.849 3.477 1.572 6.44 1.572 4.717 0 7.585-1.831 7.585-3.091 0-0.421-0.324-0.867-0.925-1.275z"></path>
<path fill="#ffd949" d="M10.689 11.378c-4.951 0-8.964-1.938-8.964-4.328v-1.949c-1.083 0.679-1.724 1.53-1.724 2.484 0 2.39 4.014 4.482 8.964 4.482 2.384 0 4.548-0.486 6.154-1.256-1.307 0.36-2.818 0.566-4.43 0.566z"></path>
<path fill="#e4af18" d="M10.689 8.617c-4.951 0-8.964-2.092-8.964-4.482v2.913c0 2.39 4.014 4.328 8.964 4.328s8.964-1.938 8.964-4.328v-2.913c0 2.39-4.014 4.482-8.964 4.482z"></path>
<path fill="#ce9912" d="M2.759 9.082c0.203 0.186 0.434 0.364 0.69 0.533v-2.859c-0.255-0.176-0.486-0.36-0.69-0.552v2.878z"></path>
<path fill="#ce9912" d="M17.93 6.756v2.859c0.255-0.169 0.486-0.347 0.69-0.533v-2.879c-0.203 0.192-0.434 0.377-0.69 0.553z"></path>
<path fill="#ce9912" d="M4.138 10.017c0.218 0.113 0.448 0.219 0.69 0.32v-2.825c-0.241-0.106-0.472-0.218-0.69-0.336v2.841z"></path>
<path fill="#ce9912" d="M16.551 10.337c0.241-0.101 0.472-0.207 0.69-0.32v-2.841c-0.218 0.118-0.448 0.23-0.69 0.336v2.825z"></path>
<path fill="#ce9912" d="M5.518 10.598c0.223 0.076 0.453 0.147 0.69 0.213v-2.798c-0.237-0.070-0.467-0.146-0.69-0.226v2.81z"></path>
<path fill="#ce9912" d="M15.172 10.811c0.237-0.066 0.467-0.137 0.69-0.213v-2.81c-0.223 0.080-0.453 0.156-0.69 0.226v2.798z"></path>
<path fill="#ce9912" d="M7.242 11.060c0.225 0.046 0.455 0.086 0.69 0.122v-2.773c-0.234-0.039-0.464-0.082-0.69-0.131v2.782z"></path>
<path fill="#ce9912" d="M13.448 11.182c0.234-0.037 0.464-0.077 0.69-0.122v-2.782c-0.225 0.048-0.455 0.092-0.69 0.131v2.773z"></path>
<path fill="#ce9912" d="M9.31 11.341c0.227 0.017 0.457 0.029 0.69 0.037v-2.759c-0.232-0.009-0.463-0.021-0.69-0.040v2.762z"></path>
<path fill="#ce9912" d="M11.379 11.378c0.232-0.009 0.463-0.020 0.69-0.037v-2.762c-0.227 0.018-0.457 0.031-0.69 0.040v2.759z"></path>
<path fill="#fcc62d" d="M19.654 4.137c0 2.39-4.014 4.482-8.964 4.482s-8.964-2.092-8.964-4.482c0-2.39 4.014-4.137 8.964-4.137s8.964 1.747 8.964 4.137z"></path>
<path fill="#ffd949" d="M10.689 7.229c-4.717 0-7.585-1.831-7.585-3.091s2.868-3.103 7.585-3.103 7.585 1.843 7.585 3.103c0 1.261-2.868 3.091-7.585 3.091z"></path>
<path fill="#f0c41b" d="M13.027 4.606c0.283-0.060 0.449-0.234 0.388-0.433l-0.066-0.212c-0.048-0.156-0.234-0.287-0.463-0.351-0.311-0.664-1.104-0.905-2.282-0.905-0.056 0-0.11 0.001-0.164 0.003-0.402 0.017-0.803-0.022-1.116-0.137-0.128-0.047-0.231-0.095-0.3-0.146-0.031-0.023-0.106-0.008-0.106 0.021 0 0.050 0.004 0.11 0.015 0.176 0.043 0.258-0.008 0.219-0.263 0.476-0.148 0.15-0.265 0.322-0.35 0.512-0.227 0.065-0.413 0.195-0.461 0.351l-0.066 0.212c-0.061 0.199 0.105 0.373 0.388 0.433 0.081 0.509 0.427 0.956 1.181 1.202l-0.041 0.358c-0.011 0.096-0.093 0.184-0.213 0.227l-1.521 0.549c0.888 0.186 1.9 0.299 3.018 0.299 1.102 0 2.101-0.109 2.981-0.29l-1.488-0.556c-0.118-0.044-0.198-0.132-0.209-0.225l-0.042-0.36c0.754-0.246 1.1-0.693 1.181-1.202z"></path>
</svg>
