<!-- Generated by IcoMoon.io -->
<svg version="1.1" xmlns="http://www.w3.org/2000/svg" width="18" height="20" viewBox="0 0 18 20">
<title>comment</title>
<path fill="#fff" d="M8.966 0.567c-4.608 0-8.399 3.016-8.399 6.681s3.792 6.681 8.399 6.681c0.409-0.002 0.818-0.028 1.223-0.077 0.211 2.612-0.865 4.549-0.865 4.549 3.58-2.039 3.606-4.538 3.463-5.204 2.806-1.14 4.578-3.443 4.579-5.949 0-3.665-3.792-6.681-8.399-6.681h0z"></path>
<path fill="#000" d="M8.966 0c0 0 0 0 0 0v0c4.95 0 8.966 3.311 8.966 7.248h-0.567l0.567 0c-0 2.598-1.729 5.017-4.539 6.305 0.032 1.112-0.435 3.431-3.788 5.341l-1.76 1.002 0.983-1.77c0 0 0.838-1.522 0.821-3.654-0.227 0.015-0.455 0.023-0.683 0.024-4.95 0-8.966-3.311-8.966-7.248v-0c0-3.937 4.016-7.248 8.966-7.248v0zM8.966 1.134c-4.266 0-7.832 2.721-7.832 6.114s3.567 6.114 7.83 6.114c0.387-0.002 0.774-0.026 1.157-0.073l0.586-0.072 0.048 0.589c0.097 1.205-0.063 2.276-0.276 3.104 1.801-1.55 1.86-3.104 1.755-3.593l-0.1-0.466 0.441-0.179c2.569-1.044 4.225-3.129 4.225-5.424 0-3.393-3.567-6.114-7.832-6.114z"></path>
<path fill="#000" d="M10.283 5.798v3.22c0 0.261 0.023 0.442 0.068 0.556 0.045 0.125 0.136 0.227 0.283 0.329 0.113 0.079 0.193 0.147 0.227 0.204 0.034 0.068 0.057 0.136 0.057 0.227 0 0.476-0.601 0.714-1.803 0.714-0.658 0-1.168-0.057-1.553-0.159-0.125-0.034-0.227-0.102-0.306-0.193s-0.125-0.193-0.125-0.317c0-0.102 0.023-0.17 0.068-0.227 0.034-0.057 0.136-0.147 0.306-0.272 0.113-0.079 0.193-0.215 0.238-0.408 0.057-0.193 0.079-0.488 0.079-0.862 0-0.125-0.011-0.352-0.023-0.68-0.023-0.34-0.034-0.533-0.045-0.59-0.023-0.147-0.125-0.261-0.306-0.352-0.227-0.091-0.34-0.238-0.34-0.442 0-0.227 0.147-0.408 0.442-0.522 0.42-0.159 0.862-0.283 1.338-0.397 0.465-0.113 0.828-0.17 1.088-0.17 0.204 0 0.306 0.113 0.306 0.34zM9.184 3.372c0.329 0 0.578 0.068 0.771 0.181 0.181 0.125 0.283 0.283 0.283 0.488 0 0.283-0.147 0.51-0.431 0.68-0.454 0.261-0.998 0.386-1.633 0.386-0.272 0-0.488-0.045-0.646-0.147-0.215-0.136-0.317-0.317-0.317-0.556 0-0.317 0.227-0.567 0.68-0.748 0.465-0.181 0.896-0.283 1.293-0.283l0-0z"></path>
</svg>
