<!-- Generated by IcoMoon.io -->
<svg version="1.1" xmlns="http://www.w3.org/2000/svg" width="21" height="20" viewBox="0 0 21 20">
<title>console-warning</title>
<path fill="#ffd42a" d="M0.314 17.741c-0.145 0.279-0.315 0.54-0.315 0.846l0.001 0.128c0 0.66 0.517 1.060 1.111 1.060h19.207c0.594 0 1.106-0.495 1.106-1.155l-0.006-0.128c0-0.306-0.15-0.572-0.315-0.846l-9.512-17.063c-0.42-0.467-1.102-0.467-1.522 0z"></path>
<path fill="#000" d="M12.454 16.036c0 0.837-0.679 1.516-1.516 1.516s-1.516-0.679-1.516-1.516c0-0.837 0.679-1.516 1.516-1.516s1.516 0.679 1.516 1.516z"></path>
<path fill="#000" d="M10.929 5.507c0.595 0 1.519 0.474 1.519 1.064l-0.445 6.124c0 0.589-0.479 1.064-1.075 1.064s-1.075-0.474-1.075-1.064l-0.519-6.124c0-0.589 0.998-1.064 1.593-1.064z"></path>
</svg>
