<!-- Generated by IcoMoon.io -->
<svg version="1.1" xmlns="http://www.w3.org/2000/svg" width="20" height="20" viewBox="0 0 20 20">
<title>console-information</title>
<path fill="#72a7cf" d="M10 1.731c-4.567 0-8.269 3.702-8.269 8.269v0c0 4.567 3.702 8.269 8.269 8.269v0c4.567 0 8.269-3.702 8.269-8.269v0c0-4.567-3.702-8.269-8.269-8.269v0zM10 4.29c0.403 0.009 0.746 0.146 1.030 0.412 0.261 0.279 0.396 0.62 0.405 1.023-0.009 0.403-0.145 0.735-0.405 0.996-0.284 0.293-0.627 0.439-1.030 0.439s-0.734-0.146-0.995-0.439c-0.293-0.261-0.44-0.593-0.44-0.996s0.147-0.744 0.44-1.023c0.261-0.265 0.592-0.403 0.995-0.412zM8.723 8.493h2.562v7.216h-2.562v-7.216z"></path>
</svg>
