<!-- Generated by IcoMoon.io -->
<svg version="1.1" xmlns="http://www.w3.org/2000/svg" width="20" height="20" viewBox="0 0 20 20">
<title>constants</title>
<path fill="#1f617b" d="M19.524 10c0 5.26-4.264 9.524-9.524 9.524s-9.524-4.264-9.524-9.524c0-5.26 4.264-9.524 9.524-9.524s9.524 4.264 9.524 9.524z"></path>
<path fill="#fff" d="M15.39 12.365q0 0.591-0.304 1.284-0.295 0.684-0.937 1.352-0.642 0.659-1.641 1.073t-2.326 0.414q-1.007 0-1.832-0.186t-1.502-0.575q-0.668-0.397-1.233-1.039-0.503-0.583-0.859-1.301-0.356-0.727-0.538-1.546-0.174-0.82-0.174-1.741 0-1.495 0.443-2.678 0.451-1.183 1.285-2.019 0.833-0.845 1.953-1.284t2.387-0.439q1.545 0 2.752 0.6t1.849 1.487q0.642 0.879 0.642 1.664 0 0.431-0.312 0.76t-0.755 0.33q-0.495 0-0.747-0.228-0.243-0.228-0.547-0.786-0.503-0.921-1.189-1.377-0.677-0.456-1.675-0.456-1.588 0-2.535 1.174-0.937 1.174-0.937 3.337 0 1.445 0.417 2.408 0.417 0.955 1.181 1.428t1.788 0.473q1.111 0 1.875-0.532 0.773-0.541 1.163-1.58 0.165-0.49 0.408-0.794 0.243-0.313 0.781-0.313 0.46 0 0.79 0.313t0.33 0.777z"></path>
</svg>
