<!-- Generated by IcoMoon.io -->
<svg version="1.1" xmlns="http://www.w3.org/2000/svg" width="20" height="20" viewBox="0 0 20 20">
<title>converge</title>
<path fill="#357180" d="M0.405 10c0-5.3 4.296-9.595 9.595-9.595s9.595 4.295 9.595 9.595c0 5.299-4.296 9.595-9.595 9.595s-9.595-4.296-9.595-9.595z"></path>
<path fill="#fff" d="M16.968 7.063c-0.4 0.001-0.8 0.002-1.201 0.003-0.9-2.018-2.667-3.476-4.898-3.826-2.486-0.389-4.866 0.765-6.285 2.797-0.63 0.902 0.851 1.747 1.476 0.852 1.946-2.786 6.102-2.534 7.809 0.181-0.37 0.001-0.739 0.002-1.109 0.003-0.103 0-0.177 0.046-0.222 0.111-0.074 0.080-0.103 0.196-0.025 0.317 0.704 1.092 1.408 2.185 2.112 3.278 0.118 0.184 0.374 0.182 0.491-0.002 0.699-1.096 1.397-2.192 2.096-3.288 0.116-0.181-0.037-0.426-0.244-0.426z"></path>
<path fill="#fff" d="M13.956 13.061c-1.946 2.787-6.101 2.534-7.809-0.181 0.37-0.001 0.739-0.002 1.109-0.003 0.103-0 0.177-0.046 0.222-0.111 0.074-0.080 0.102-0.196 0.025-0.317-0.704-1.093-1.408-2.185-2.112-3.278-0.118-0.184-0.374-0.182-0.491 0.002-0.699 1.096-1.397 2.192-2.096 3.288-0.116 0.181 0.037 0.427 0.244 0.426 0.4-0.001 0.8-0.002 1.201-0.003 0.9 2.018 2.667 3.476 4.899 3.826 2.486 0.389 4.866-0.765 6.285-2.797 0.63-0.902-0.851-1.747-1.476-0.852z"></path>
<path fill="#f7f7f7" d="M9.11 10.051c0-0.492 0.399-0.891 0.89-0.891s0.89 0.399 0.89 0.891c0 0.491-0.399 0.89-0.89 0.89s-0.89-0.399-0.89-0.89z"></path>
</svg>
