<!-- Generated by IcoMoon.io -->
<svg version="1.1" xmlns="http://www.w3.org/2000/svg" width="20" height="20" viewBox="0 0 20 20">
<title>cut</title>
<path fill="#46494b" d="M9.882 10.564l-1.31-0.595-4.763-9.56 6.675 9.018z"></path>
<path fill="#27a2db" d="M10.973 15.446l-1.031 0.293-1.371-5.769 1.31 0.595z"></path>
<path fill="#3a556a" d="M9.951 18.372c0.717 1.141 2.121 1.555 3.13 0.921s1.247-2.078 0.53-3.219c-0.717-1.141-2.121-1.555-3.13-0.921s-1.247 2.078-0.53 3.219zM10.494 18.031c-0.529-0.843-0.383-1.888 0.328-2.334s1.715-0.124 2.245 0.719c0.529 0.843 0.383 1.888-0.328 2.334s-1.715 0.124-2.245-0.719z"></path>
<path fill="#637380" d="M10.3 10.337l-0.539-1.334-9.351-5.161 8.729 7.048z"></path>
<path fill="#27a2db" d="M15.131 11.633l0.336-1.017-5.706-1.612 0.539 1.334z"></path>
<path fill="#3a556a" d="M14.859 11.128c-0.675 0.981-0.322 2.402 0.789 3.166s2.563 0.587 3.239-0.394 0.322-2.402-0.789-3.166c-1.11-0.764-2.563-0.587-3.239 0.394zM18.358 13.536c-0.475 0.691-1.526 0.794-2.346 0.229s-1.099-1.582-0.624-2.273c0.475-0.691 1.526-0.794 2.346-0.229s1.099 1.582 0.624 2.273z"></path>
<path fill="#3a556a" d="M9.414 9.646c0 0.26-0.211 0.471-0.471 0.471s-0.471-0.211-0.471-0.471c0-0.26 0.211-0.471 0.471-0.471s0.471 0.211 0.471 0.471z"></path>
</svg>
