<!-- Generated by IcoMoon.io -->
<svg version="1.1" xmlns="http://www.w3.org/2000/svg" width="19" height="20" viewBox="0 0 19 20">
<title>database-open</title>
<path fill="#424a60" d="M16.874 4.162v0c-0.231-1.408-3.526-2.524-7.559-2.524s-7.328 1.116-7.559 2.524v0h-0.014v11.675h0.014c0.231 1.408 3.526 2.524 7.559 2.524s7.328-1.117 7.559-2.524h0.014v-11.675z"></path>
<path fill="#424a60" d="M9.315 14.575c-4.183 0-7.573-1.201-7.573-2.682v3.944h0.014c0.231 1.408 3.526 2.524 7.559 2.524s7.328-1.117 7.559-2.524h0.014v-3.944c0 1.481-3.391 2.682-7.573 2.682z"></path>
<path fill="#424a60" d="M1.742 11.736v0.158c0-0.053 0.006-0.105 0.014-0.158z"></path>
<path fill="#424a60" d="M16.874 11.736c0.008 0.052 0.014 0.105 0.014 0.158v-0.158z"></path>
<path fill="#556080" d="M9.315 10.789c-4.183 0-7.573-1.201-7.573-2.682v3.944h0.014c0.231 1.408 3.526 2.524 7.559 2.524s7.328-1.117 7.559-2.524h0.014v-3.944c0 1.481-3.391 2.682-7.573 2.682z"></path>
<path fill="#556080" d="M1.742 7.949v0.158c0-0.053 0.006-0.105 0.014-0.158z"></path>
<path fill="#556080" d="M16.874 7.949c0.008 0.052 0.014 0.105 0.014 0.158v-0.158z"></path>
<path fill="#7fabda" d="M16.888 4.32c0 1.481-3.391 2.682-7.573 2.682s-7.573-1.201-7.573-2.682c0-1.481 3.391-2.682 7.573-2.682s7.573 1.201 7.573 2.682z"></path>
<path fill="#7383bf" d="M9.315 7.002c-4.183 0-7.573-1.201-7.573-2.682v3.944h0.014c0.231 1.408 3.526 2.524 7.559 2.524s7.328-1.117 7.559-2.524h0.014v-3.944c0 1.481-3.391 2.682-7.573 2.682z"></path>
<path fill="#7383bf" d="M1.742 4.162v0.158c0-0.053 0.006-0.105 0.014-0.158z"></path>
<path fill="#7383bf" d="M16.874 4.162c0.008 0.052 0.014 0.105 0.014 0.158v-0.158z"></path>
<path fill="#efce4a" d="M16.45 19.224h-8.163c-0.188 0-0.324-0.167-0.275-0.337l1.854-4.767c0.034-0.117 0.146-0.198 0.275-0.198h8.163c0.188 0 0.275 0.168 0.275 0.337l-1.854 4.767c-0.034 0.117-0.146 0.198-0.275 0.198z"></path>
<path fill="#ebba16" d="M17.169 12.383h-4.608l-0.912-1.197h-3.332c-0.174 0-0.316 0.133-0.316 0.296v7.308c0.013 0 0.025 0.001 0.037 0.002l1.826-4.672c0.034-0.117 0.146-0.198 0.275-0.198h7.344v-1.243c0-0.164-0.141-0.296-0.316-0.296z"></path>
</svg>
