<!-- Generated by IcoMoon.io -->
<svg version="1.1" xmlns="http://www.w3.org/2000/svg" width="20" height="20" viewBox="0 0 20 20">
<title>database-generate</title>
<path fill="#545e73" d="M17.937 2.91v0c-0.266-1.623-4.065-2.91-8.714-2.91s-8.448 1.287-8.714 2.91v0h-0.016v13.459h0.016c0.266 1.623 4.065 2.91 8.714 2.91s8.448-1.287 8.714-2.91h0.016v-13.459h-0.016z"></path>
<path fill="#38454f" d="M9.224 14.914c-4.822 0-8.73-1.384-8.73-3.092v4.547h0.016c0.266 1.623 4.065 2.91 8.714 2.91s8.448-1.287 8.714-2.91h0.016v-4.547c0 1.707-3.909 3.092-8.73 3.092z"></path>
<path fill="#38454f" d="M0.493 11.64v0.182c0-0.061 0.007-0.122 0.016-0.182h-0.016z"></path>
<path fill="#38454f" d="M17.937 11.64c0.010 0.060 0.016 0.121 0.016 0.182v-0.182h-0.016z"></path>
<path fill="#556080" d="M9.224 10.549c-4.822 0-8.73-1.384-8.73-3.092v4.547h0.016c0.266 1.623 4.065 2.91 8.714 2.91s8.448-1.287 8.714-2.91h0.016v-4.547c0 1.708-3.909 3.092-8.73 3.092z"></path>
<path fill="#556080" d="M0.493 7.275v0.182c0-0.061 0.007-0.122 0.016-0.182h-0.016z"></path>
<path fill="#556080" d="M17.937 7.275c0.010 0.060 0.016 0.121 0.016 0.182v-0.182h-0.016z"></path>
<path fill="#91bae1" d="M17.954 3.092c0 1.708-3.909 3.092-8.73 3.092s-8.73-1.384-8.73-3.092c0-1.708 3.909-3.092 8.73-3.092s8.73 1.384 8.73 3.092z"></path>
<path fill="#8697cb" d="M9.224 6.184c-4.822 0-8.73-1.384-8.73-3.092v4.547h0.016c0.266 1.623 4.065 2.91 8.714 2.91s8.448-1.287 8.714-2.91h0.016v-4.547c0 1.708-3.909 3.092-8.73 3.092z"></path>
<path fill="#8697cb" d="M0.493 2.91v0.182c0-0.061 0.007-0.122 0.016-0.182h-0.016z"></path>
<path fill="#8697cb" d="M17.937 2.91c0.010 0.060 0.016 0.121 0.016 0.182v-0.182h-0.016z"></path>
<path fill="#eddcc7" d="M11.71 16.547l-0.003 0.003-0.723 2.652 1.69-1.69z"></path>
<path fill="#d75a4a" d="M18.713 11.473l-0.454-0.454c-0.282-0.282-0.739-0.282-1.021 0l-1.303 1.303 0.964 0.964 1.813-1.814z"></path>
<path fill="#f29c21" d="M15.935 12.322l0.964 0.964-4.225 4.225-0.964-0.964 4.225-4.225z"></path>
<path fill="#d6c4b1" d="M13.765 18.608l0.003-0.003-1.093-1.093-1.69 1.69-0.048 0.178z"></path>
<path fill="#a34740" d="M17.992 14.38l1.303-1.303c0.282-0.282 0.282-0.739 0-1.021l-0.583-0.583-1.813 1.813 1.093 1.093z"></path>
<path fill="#e18c25" d="M13.768 18.605l-1.093-1.093 4.225-4.225 1.093 1.093-4.225 4.225z"></path>
<path fill="#5e5e5e" d="M10.679 20c-0.093 0-0.186-0.036-0.257-0.107-0.142-0.142-0.142-0.372 0-0.514l0.803-0.803c0.142-0.142 0.372-0.142 0.514 0s0.142 0.372 0 0.514l-0.803 0.803c-0.071 0.071-0.164 0.107-0.257 0.107z"></path>
</svg>
