<!-- Generated by IcoMoon.io -->
<svg version="1.1" xmlns="http://www.w3.org/2000/svg" width="19" height="20" viewBox="0 0 19 20">
<title>DatabaseIcons</title>
<path fill="#424a60" d="M18.354 3.019c-0.276-1.684-4.217-3.019-9.040-3.019s-8.764 1.335-9.040 3.019h-0.017v13.962h0.017c0.276 1.683 4.217 3.019 9.040 3.019s8.764-1.335 9.040-3.019h0.017v-13.962h-0.017z"></path>
<path fill="#424a60" d="M9.315 15.472c-5.002 0-9.057-1.436-9.057-3.208v4.717h0.017c0.276 1.683 4.217 3.019 9.040 3.019s8.764-1.335 9.040-3.019h0.017v-4.717c0 1.771-4.055 3.208-9.057 3.208h0z"></path>
<path fill="#424a60" d="M0.258 12.075v0.189c0-0.063 0.007-0.126 0.017-0.189h-0.017z"></path>
<path fill="#424a60" d="M18.354 12.075c0.010 0.063 0.017 0.125 0.017 0.189v-0.189h-0.017z"></path>
<path fill="#556080" d="M9.315 10.943c-5.002 0-9.057-1.436-9.057-3.208v4.717h0.017c0.276 1.683 4.217 3.019 9.040 3.019s8.764-1.335 9.040-3.019h0.017v-4.717c0 1.771-4.055 3.208-9.057 3.208h0z"></path>
<path fill="#556080" d="M0.258 7.547v0.189c0-0.063 0.007-0.126 0.017-0.189h-0.017z"></path>
<path fill="#556080" d="M18.354 7.547c0.010 0.063 0.017 0.125 0.017 0.189v-0.189h-0.017z"></path>
<path fill="#7fabda" d="M18.371 3.208c0 1.771-4.055 3.208-9.057 3.208s-9.057-1.436-9.057-3.208c0-1.771 4.055-3.208 9.057-3.208s9.057 1.436 9.057 3.208z"></path>
<path fill="#7383bf" d="M9.315 6.415c-5.002 0-9.057-1.436-9.057-3.208v4.717h0.017c0.276 1.683 4.217 3.019 9.040 3.019s8.764-1.335 9.040-3.019h0.017v-4.717c0 1.771-4.055 3.208-9.057 3.208h0z"></path>
<path fill="#7383bf" d="M0.258 3.019v0.189c0-0.063 0.007-0.126 0.017-0.189h-0.017z"></path>
<path fill="#7383bf" d="M18.354 3.019c0.010 0.063 0.017 0.125 0.017 0.189v-0.189h-0.017z"></path>
<path fill="#f4993a" d="M11.594 13.116h6.805v6.805h-6.805v-6.805z"></path>
<path fill="#000" d="M13.17 15.413c0-0.214 0.074-0.428 0.223-0.649s0.365-0.4 0.648-0.545c0.283-0.145 0.611-0.214 0.99-0.214 0.35 0 0.663 0.062 0.931 0.179 0.268 0.124 0.477 0.283 0.625 0.49 0.141 0.207 0.216 0.435 0.216 0.676 0 0.186-0.037 0.359-0.127 0.504-0.082 0.138-0.179 0.262-0.298 0.373-0.112 0.103-0.32 0.276-0.618 0.524-0.082 0.069-0.149 0.131-0.201 0.186-0.045 0.048-0.082 0.097-0.104 0.145-0.030 0.041-0.045 0.083-0.060 0.131-0.015 0.041-0.030 0.117-0.060 0.228-0.045 0.235-0.194 0.352-0.432 0.352-0.127 0-0.231-0.041-0.32-0.117-0.082-0.076-0.127-0.186-0.127-0.338 0-0.186 0.030-0.352 0.089-0.49 0.067-0.138 0.149-0.262 0.253-0.366s0.246-0.228 0.424-0.373c0.156-0.124 0.268-0.221 0.335-0.283s0.127-0.138 0.171-0.214c0.052-0.083 0.074-0.166 0.074-0.255 0-0.179-0.074-0.331-0.216-0.455s-0.328-0.186-0.558-0.186c-0.268 0-0.462 0.062-0.588 0.186s-0.231 0.31-0.32 0.552c-0.082 0.255-0.238 0.379-0.469 0.379-0.134 0-0.253-0.041-0.343-0.131-0.097-0.090-0.141-0.186-0.141-0.29h0zM14.942 19.104c-0.149 0-0.276-0.041-0.387-0.131s-0.164-0.214-0.164-0.373c0-0.145 0.052-0.262 0.156-0.359 0.112-0.097 0.238-0.145 0.395-0.145s0.283 0.048 0.387 0.145c0.104 0.097 0.156 0.214 0.156 0.359 0 0.159-0.052 0.283-0.164 0.373s-0.238 0.131-0.38 0.131v0z"></path>
<path fill="#38cc57" d="M1.102 12.993h5.273c0.46 0 0.833 0.373 0.833 0.833v5.273c0 0.46-0.373 0.833-0.833 0.833h-5.273c-0.46 0-0.833-0.373-0.833-0.833v-5.273c0-0.46 0.373-0.833 0.833-0.833z"></path>
<path fill="#000" d="M1.201 16.056h5.088v0.874h-5.088v-0.874z"></path>
<path fill="#000" d="M1.2 14.535h1.388v3.855h-1.388v-3.855z"></path>
<path fill="#000" d="M4.898 14.535h1.388v3.855h-1.388v-3.855z"></path>
<path fill="#f0f" d="M1.102 0.007h5.273c0.46 0 0.833 0.373 0.833 0.833v5.273c0 0.46-0.373 0.833-0.833 0.833h-5.273c-0.46 0-0.833-0.373-0.833-0.833v-5.273c0-0.46 0.373-0.833 0.833-0.833z"></path>
<path fill="#000" d="M1.201 0.942h5.088v0.874h-5.088v-0.874z"></path>
<path fill="#000" d="M1.201 3.069h5.088v0.874h-5.088v-0.874z"></path>
<path fill="#000" d="M1.14 5.165h5.088v0.874h-5.088v-0.874z"></path>
<path fill="#f4e925" d="M12.304 0.007h5.273c0.46 0 0.833 0.373 0.833 0.833v5.273c0 0.46-0.373 0.833-0.833 0.833h-5.273c-0.46 0-0.833-0.373-0.833-0.833v-5.273c0-0.46 0.373-0.833 0.833-0.833z"></path>
<path fill="#000" d="M12.628 1.394h4.626v0.925h-4.626v-0.925z"></path>
<path fill="#000" d="M14.555 1.548h0.925v3.855h-0.925v-3.855z"></path>
</svg>
