<!-- Generated by IcoMoon.io -->
<svg version="1.1" xmlns="http://www.w3.org/2000/svg" width="20" height="20" viewBox="0 0 20 20">
<title>database-missing-value</title>
<path fill="#f4993a" d="M0.099 0.098h19.688v19.688h-19.688v-19.688z"></path>
<path fill="#000" d="M4.658 6.744c0-0.619 0.215-1.238 0.646-1.876s1.056-1.158 1.874-1.577c0.819-0.419 1.766-0.619 2.865-0.619 1.012 0 1.917 0.18 2.693 0.519 0.776 0.359 1.379 0.818 1.81 1.417 0.409 0.599 0.625 1.258 0.625 1.956 0 0.539-0.108 1.038-0.366 1.457-0.237 0.399-0.517 0.759-0.862 1.078-0.323 0.299-0.926 0.798-1.788 1.517-0.237 0.2-0.431 0.379-0.582 0.539-0.129 0.14-0.237 0.279-0.302 0.419-0.086 0.12-0.129 0.24-0.172 0.379-0.043 0.12-0.086 0.339-0.172 0.659-0.129 0.679-0.56 1.018-1.249 1.018-0.366 0-0.668-0.12-0.926-0.339-0.237-0.22-0.366-0.539-0.366-0.978 0-0.539 0.086-1.018 0.259-1.417 0.194-0.399 0.431-0.759 0.732-1.058s0.711-0.659 1.228-1.078c0.452-0.359 0.776-0.639 0.969-0.818s0.366-0.399 0.495-0.619c0.151-0.24 0.215-0.479 0.215-0.739 0-0.519-0.215-0.958-0.625-1.317s-0.948-0.539-1.616-0.539c-0.776 0-1.336 0.18-1.702 0.539s-0.668 0.898-0.926 1.597c-0.237 0.739-0.689 1.098-1.357 1.098-0.388 0-0.732-0.12-0.991-0.379-0.28-0.259-0.409-0.539-0.409-0.838zM9.785 17.423c-0.431 0-0.797-0.12-1.12-0.379s-0.474-0.619-0.474-1.078c0-0.419 0.151-0.759 0.452-1.038 0.323-0.279 0.689-0.419 1.142-0.419s0.819 0.14 1.12 0.419c0.302 0.279 0.452 0.619 0.452 1.038 0 0.459-0.151 0.818-0.474 1.078s-0.689 0.379-1.099 0.379z"></path>
</svg>
