<!-- Generated by IcoMoon.io -->
<svg version="1.1" xmlns="http://www.w3.org/2000/svg" width="19" height="20" viewBox="0 0 19 20">
<title>database-associate</title>
<path fill="#424a60" d="M17.271 3.855v0c-0.243-1.482-3.711-2.657-7.956-2.657s-7.714 1.175-7.956 2.657v0h-0.015v12.289h0.015c0.243 1.482 3.712 2.657 7.956 2.657s7.714-1.175 7.956-2.657h0.015v-12.289z"></path>
<path fill="#424a60" d="M9.315 14.816c-4.403 0-7.972-1.264-7.972-2.823v4.152h0.015c0.243 1.482 3.712 2.657 7.956 2.657s7.714-1.175 7.956-2.657h0.015v-4.152c0 1.559-3.569 2.823-7.972 2.823z"></path>
<path fill="#424a60" d="M1.343 11.827v0.166c0-0.056 0.006-0.111 0.015-0.166z"></path>
<path fill="#424a60" d="M17.271 11.827c0.009 0.055 0.015 0.11 0.015 0.166v-0.166z"></path>
<path fill="#556080" d="M9.315 10.83c-4.403 0-7.972-1.264-7.972-2.823v4.152h0.015c0.243 1.482 3.712 2.657 7.956 2.657s7.714-1.175 7.956-2.657h0.015v-4.152c0 1.559-3.569 2.823-7.972 2.823z"></path>
<path fill="#556080" d="M1.343 7.841v0.166c0-0.056 0.006-0.111 0.015-0.166z"></path>
<path fill="#556080" d="M17.271 7.841c0.009 0.055 0.015 0.11 0.015 0.166v-0.166z"></path>
<path fill="#7fabda" d="M17.286 4.021c0 1.559-3.569 2.823-7.972 2.823s-7.972-1.264-7.972-2.823c0-1.559 3.569-2.823 7.972-2.823s7.972 1.264 7.972 2.823z"></path>
<path fill="#7383bf" d="M9.315 6.845c-4.403 0-7.972-1.264-7.972-2.823v4.152h0.015c0.243 1.482 3.712 2.657 7.956 2.657s7.714-1.175 7.956-2.657h0.015v-4.152c0 1.559-3.569 2.823-7.972 2.823z"></path>
<path fill="#7383bf" d="M1.343 3.855v0.166c0-0.056 0.006-0.111 0.015-0.166z"></path>
<path fill="#7383bf" d="M17.271 3.855c0.009 0.055 0.015 0.11 0.015 0.166v-0.166z"></path>
<path fill="#eed26a" d="M18.348 14.92c0 2.777-2.251 5.029-5.029 5.029s-5.029-2.251-5.029-5.029c0-2.777 2.251-5.029 5.029-5.029s5.029 2.251 5.029 5.029z"></path>
<path fill="#c4e15e" d="M18.348 14.92c0 2.777-2.251 5.029-5.029 5.029s-5.029-2.251-5.029-5.029c0-2.777 2.251-5.029 5.029-5.029s5.029 2.251 5.029 5.029z"></path>
<path fill="#b5d24f" opacity="0.37" d="M18.020 16.708l-1.12-1.315-2.797-0.783-2.66 0.803 3.617 4.225c1.361-0.502 2.444-1.576 2.96-2.93z"></path>
<path fill="#fff" d="M10.519 12.354c0.092 0.398 0.262 0.759 0.485 1.058s0.499 0.536 0.795 0.701c0.296 0.166 0.611 0.259 0.913 0.285 0.151 0.013 0.299 0.009 0.441-0.010 0.042-0.006 0.084-0.013 0.125-0.021v-1.065l3.622 2.091-3.622 2.091v-1.045c-0.039-0.010-0.078-0.019-0.117-0.030-0.13-0.036-0.258-0.078-0.382-0.126-0.249-0.096-0.484-0.216-0.7-0.355-0.434-0.279-0.793-0.637-1.060-1.034s-0.443-0.834-0.524-1.271c-0.082-0.437-0.068-0.872 0.025-1.269z"></path>
</svg>
