<!-- Generated by IcoMoon.io -->
<svg version="1.1" xmlns="http://www.w3.org/2000/svg" width="19" height="20" viewBox="0 0 19 20">
<title>database-stratification-tag</title>
<path fill="#424a60" d="M18.354 3.019c-0.276-1.684-4.217-3.019-9.040-3.019s-8.764 1.335-9.040 3.019h-0.017v13.962h0.017c0.276 1.683 4.217 3.019 9.040 3.019s8.764-1.335 9.040-3.019h0.017v-13.962h-0.017z"></path>
<path fill="#424a60" d="M9.315 15.472c-5.002 0-9.057-1.436-9.057-3.208v4.717h0.017c0.276 1.683 4.217 3.019 9.040 3.019s8.764-1.335 9.040-3.019h0.017v-4.717c0 1.771-4.055 3.208-9.057 3.208h0z"></path>
<path fill="#424a60" d="M0.258 12.075v0.189c0-0.063 0.007-0.126 0.017-0.189h-0.017z"></path>
<path fill="#424a60" d="M18.354 12.075c0.010 0.063 0.017 0.125 0.017 0.189v-0.189h-0.017z"></path>
<path fill="#556080" d="M9.315 10.943c-5.002 0-9.057-1.436-9.057-3.208v4.717h0.017c0.276 1.683 4.217 3.019 9.040 3.019s8.764-1.335 9.040-3.019h0.017v-4.717c0 1.771-4.055 3.208-9.057 3.208h0z"></path>
<path fill="#556080" d="M0.258 7.547v0.189c0-0.063 0.007-0.126 0.017-0.189h-0.017z"></path>
<path fill="#556080" d="M18.354 7.547c0.010 0.063 0.017 0.125 0.017 0.189v-0.189h-0.017z"></path>
<path fill="#7fabda" d="M18.371 3.208c0 1.771-4.055 3.208-9.057 3.208s-9.057-1.436-9.057-3.208c0-1.771 4.055-3.208 9.057-3.208s9.057 1.436 9.057 3.208z"></path>
<path fill="#7383bf" d="M9.315 6.415c-5.002 0-9.057-1.436-9.057-3.208v4.717h0.017c0.276 1.683 4.217 3.019 9.040 3.019s8.764-1.335 9.040-3.019h0.017v-4.717c0 1.771-4.055 3.208-9.057 3.208h0z"></path>
<path fill="#7383bf" d="M0.258 3.019v0.189c0-0.063 0.007-0.126 0.017-0.189h-0.017z"></path>
<path fill="#7383bf" d="M18.354 3.019c0.010 0.063 0.017 0.125 0.017 0.189v-0.189h-0.017z"></path>
<path fill="#f0f" d="M1.054 0h6.678c0.582 0 1.054 0.442 1.054 0.987v6.252c0 0.545-0.472 0.987-1.054 0.987h-6.678c-0.582 0-1.054-0.442-1.054-0.987v-6.252c0-0.545 0.472-0.987 1.054-0.987z"></path>
<path fill="#000" d="M1.181 1.109h6.443v1.036h-6.443v-1.036z"></path>
<path fill="#000" d="M1.181 3.631h6.443v1.036h-6.443v-1.036z"></path>
<path fill="#000" d="M1.103 6.115h6.443v1.036h-6.443v-1.036z"></path>
</svg>
