<!-- Generated by IcoMoon.io -->
<svg version="1.1" xmlns="http://www.w3.org/2000/svg" width="20" height="20" viewBox="0 0 20 20">
<title>default</title>
<path fill="#32bea6" d="M0 10c0-5.523 4.477-10 10-10s10 4.477 10 10c0 5.523-4.477 10-10 10s-10-4.477-10-10z"></path>
<path fill="#fff" d="M17.262 6.939c-0.417 0.001-0.834 0.002-1.251 0.003-0.938-2.103-2.779-3.623-5.105-3.987-2.591-0.406-5.072 0.798-6.551 2.915-0.657 0.94 0.887 1.821 1.538 0.888 2.028-2.904 6.359-2.641 8.139 0.189-0.385 0.001-0.771 0.002-1.156 0.003-0.108 0-0.184 0.048-0.232 0.116-0.077 0.083-0.107 0.204-0.026 0.33 0.734 1.139 1.468 2.277 2.202 3.416 0.123 0.191 0.39 0.19 0.512-0.002 0.728-1.142 1.456-2.285 2.184-3.427 0.12-0.189-0.038-0.445-0.254-0.444z"></path>
<path fill="#fff" d="M14.123 13.19c-2.013 2.882-6.293 2.646-8.098-0.123 0.369-0.001 0.739-0.002 1.108-0.003 0.107-0 0.184-0.048 0.231-0.115 0.078-0.083 0.107-0.204 0.026-0.33-0.734-1.139-1.467-2.277-2.201-3.416-0.123-0.192-0.389-0.19-0.512 0.002-0.728 1.142-1.456 2.284-2.185 3.427-0.12 0.189 0.038 0.445 0.254 0.444 0.43-0.001 0.86-0.002 1.29-0.003 0.947 2.069 2.772 3.561 5.074 3.921 2.591 0.406 5.072-0.797 6.55-2.915 0.657-0.94-0.887-1.821-1.538-0.888z"></path>
</svg>
