<!-- Generated by IcoMoon.io -->
<svg version="1.1" xmlns="http://www.w3.org/2000/svg" width="20" height="20" viewBox="0 0 20 20">
<title>draw-arc</title>
<path fill="#1a3c5a" d="M19.674 13.954l-2.34 2.287-12.389-12.576-1.193 1.166 12.389 12.576 0.601-0.587 2.933 2.866z"></path>
<path fill="#00284a" d="M19.674 19.685l-2.933-2.866-2.933 2.866z"></path>
<path fill="#0e358e" d="M8.066 3.271c0.45 2.045-0.901 4.080-3.017 4.545s-4.195-0.816-4.645-2.861c-0.45-2.045 0.901-4.080 3.017-4.545s4.195 0.816 4.645 2.861z"></path>
<path fill="#397ba0" d="M6.801 3.498c0.304 1.386-0.611 2.764-2.044 3.079s-2.842-0.553-3.147-1.938c-0.304-1.386 0.611-2.764 2.044-3.079s2.842 0.553 3.147 1.938z"></path>
</svg>
