<!-- Generated by IcoMoon.io -->
<svg version="1.1" xmlns="http://www.w3.org/2000/svg" width="20" height="20" viewBox="0 0 20 20">
<title>edit</title>
<path d="M20 5c0 0 0-1.25-1.25-2.5s-2.375-1.25-2.375-1.25l-1.375 1.375v-2.625h-15v20h15v-10l5-5zM7.875 14.25l-0.75-0.75 0.375-1.375 1.875 1.875-1.5 0.25zM9 11.875l-0.75-0.75 6.5-6.5c0.25 0.125 0.5 0.375 0.75 0.625zM17.625 3.125l-1.125 1.25c-0.25-0.25-0.5-0.375-0.75-0.625l1.125-1.125c0.125 0.125 0.375 0.25 0.75 0.5zM13.75 18.75h-12.5v-17.5h12.5v2.625l-7.375 7.375-1.375 5.125 5.125-1.375 3.625-3.75v7.5z"></path>
</svg>
