<!-- Generated by IcoMoon.io -->
<svg version="1.1" xmlns="http://www.w3.org/2000/svg" width="19" height="20" viewBox="0 0 19 20">
<title>entering-force</title>
<path fill="#fff" opacity="0.0137615" d="M0.123-0h18.962v20h-18.962v-20z"></path>
<path fill="#1a3c5a" d="M10.030 2.698l-1.859 1.816-4.287-4.436-0.948 0.926 4.287 4.436 0.477-0.466 2.329 2.276z"></path>
<path fill="#00284a" d="M7.701 4.974l-2.329 2.276h4.658z"></path>
<path fill="#1a3c5a" d="M5.592 12.768l1.816 1.859-4.436 4.287 0.926 0.948 4.436-4.287-0.466-0.477 2.276-2.329z"></path>
<path fill="#00284a" d="M10.144 17.427v-4.658l-2.276 2.329z"></path>
<path fill="#0e358e" d="M16.613 9.073c0.452 2.12-0.906 4.229-3.032 4.711s-4.217-0.846-4.669-2.966c-0.452-2.12 0.906-4.229 3.032-4.711s4.217 0.846 4.669 2.966z"></path>
<path fill="#397ba0" d="M15.341 9.308c0.306 1.436-0.614 2.865-2.054 3.191s-2.857-0.573-3.163-2.009c-0.306-1.436 0.614-2.865 2.054-3.191s2.857 0.573 3.163 2.009z"></path>
</svg>
