<!-- Generated by IcoMoon.io -->
<svg version="1.1" xmlns="http://www.w3.org/2000/svg" width="20" height="20" viewBox="0 0 20 20">
<title>eraser</title>
<path d="M10.125 17.5l8-9c0.75-0.875 0.75-2.25-0.125-3.125l-3.375-3.375c-0.375-0.5-1-0.75-1.625-0.75h-2.25c-0.625 0-1.25 0.25-1.75 0.75l-8.375 9.5c-0.75 0.875-0.75 2.375 0.125 3.125l3.375 3.375c0.375 0.5 1 0.75 1.625 0.75h14.25v-1.25h-9.875zM8.5 17.375c0 0 0-0.125 0 0l-3.375-3.375c-0.5-0.5-0.5-1.125 0-1.625l4.25-4.875h-1.25l-3.75 4.125c-0.75 0.875-0.75 2.125 0.125 3l2.875 2.875h-1.625c-0.25 0-0.5-0.125-0.75-0.25l-3.5-3.5c-0.375-0.375-0.375-1 0-1.375l4.375-4.875h2.25l4.375-5h1.25l-4.375 5 3.875 4.625-4.375 5c-0.125 0.125-0.25 0.125-0.375 0.25z"></path>
</svg>
