<!-- Generated by IcoMoon.io -->
<svg version="1.1" xmlns="http://www.w3.org/2000/svg" width="20" height="20" viewBox="0 0 20 20">
<title>evidence-file</title>
<path fill="#ffb22d" d="M18.566 19.546h-17.338c-0.427 0-0.774-0.347-0.774-0.774v-17.545c0-0.427 0.347-0.774 0.774-0.774h17.338c0.427 0 0.774 0.347 0.774 0.774v17.545c0 0.428-0.347 0.774-0.774 0.774z"></path>
<path fill="#f90" d="M18.566 0.454h-8.669v19.093h8.669c0.427 0 0.774-0.347 0.774-0.774v-17.545c-0-0.427-0.347-0.774-0.774-0.774z"></path>
<path fill="#ff6800" d="M15.573 10.052h-11.353c-0.427 0-0.774-0.347-0.774-0.774s0.347-0.774 0.774-0.774h11.353c0.427 0 0.774 0.347 0.774 0.774s-0.347 0.774-0.774 0.774z"></path>
<path fill="#ff6800" d="M15.573 13.096h-11.353c-0.427 0-0.774-0.347-0.774-0.774s0.347-0.774 0.774-0.774h11.353c0.427 0 0.774 0.347 0.774 0.774s-0.347 0.774-0.774 0.774z"></path>
<path fill="#ff6800" d="M15.573 16.141h-11.353c-0.427 0-0.774-0.347-0.774-0.774s0.347-0.774 0.774-0.774h11.353c0.427 0 0.774 0.347 0.774 0.774s-0.347 0.774-0.774 0.774z"></path>
<path fill="#ff6800" d="M15.573 6.955h-11.353c-0.427 0-0.774-0.347-0.774-0.774s0.347-0.774 0.774-0.774h11.353c0.427 0 0.774 0.347 0.774 0.774s-0.347 0.774-0.774 0.774z"></path>
<path fill="#ff4f19" d="M15.573 8.504h-5.676v1.548h5.676c0.427 0 0.774-0.347 0.774-0.774s-0.347-0.774-0.774-0.774z"></path>
<path fill="#ff4f19" d="M15.573 11.548h-5.676v1.548h5.676c0.427 0 0.774-0.347 0.774-0.774s-0.347-0.774-0.774-0.774z"></path>
<path fill="#ff4f19" d="M15.573 14.593h-5.676v1.548h5.676c0.427 0 0.774-0.347 0.774-0.774s-0.347-0.774-0.774-0.774z"></path>
<path fill="#ff4f19" d="M15.573 5.407h-5.676v1.548h5.676c0.427 0 0.774-0.347 0.774-0.774s-0.347-0.774-0.774-0.774z"></path>
</svg>
