<!-- Generated by IcoMoon.io -->
<svg version="1.1" xmlns="http://www.w3.org/2000/svg" width="20" height="20" viewBox="0 0 20 20">
<title>expand</title>
<path fill="#2488ff" d="M16.909 4.67l-0.79-0.79 3.88-3.88h-7.761l3.091 3.091-5.33 5.33-5.33-5.33 3.091-3.091h-7.761l3.88 3.88-0.79 0.79 5.33 5.33-5.33 5.33-3.091-3.091v7.761l3.88-3.88 0.79 0.79 5.33-5.33 5.33 5.33 0.79-0.79 3.88 3.88v-7.761l-3.091 3.091-5.33-5.33z"></path>
<path fill="#005ece" d="M16.12 16.12l-3.88 3.88h7.761z"></path>
<path fill="#005ece" d="M3.88 3.88l-3.88-3.88v7.761z"></path>
<path fill="#005ece" d="M3.88 16.12l-3.88 3.88h7.761z"></path>
<path fill="#005ece" d="M16.12 3.88l3.88 3.88v-7.761z"></path>
</svg>
