<!-- Generated by IcoMoon.io -->
<svg version="1.1" xmlns="http://www.w3.org/2000/svg" width="20" height="20" viewBox="0 0 20 20">
<title>expertise</title>
<path fill="#4e69dd" d="M4.128 14.593v3.64h6.1l1.22-4.853-1.22-4.853c-3.367 0-6.1 2.718-6.1 6.067z"></path>
<path fill="#1433c2" d="M16.328 14.593c0-3.349-2.733-6.067-6.1-6.067v9.707h6.1c0-1.213 0-2.427 0-3.64z"></path>
<path fill="#edbba7" d="M5.958 6.707c0 2.338 1.919 4.247 4.27 4.247l1.22-4.247-1.22-4.247c-2.351 0-4.27 1.909-4.27 4.247z"></path>
<path fill="#e8a38b" d="M14.498 6.707c0-2.338-1.919-4.247-4.27-4.247v8.493c2.351 0 4.27-1.909 4.27-4.247z"></path>
</svg>
