<!-- Generated by IcoMoon.io -->
<svg version="1.1" xmlns="http://www.w3.org/2000/svg" width="20" height="20" viewBox="0 0 20 20">
<title>experts</title>
<path fill="#dd4e4e" d="M12.593 8.675l0.107 3.93h3.704l0.634-4.67-0.741-2.963c-2.044 0-3.704 1.659-3.704 3.704z"></path>
<path fill="#c21456" d="M20 8.675c-0.056-2.044-1.659-3.704-3.704-3.704l0.107 7.633h3.704z"></path>
<path fill="#edc3a7" d="M13.704 3.86c0 1.427 1.165 2.593 2.593 2.593l0.741-2.593-0.741-2.593c-1.427 0-2.593 1.165-2.593 2.593z"></path>
<path fill="#e8ae8b" d="M18.889 3.86c0-1.427-1.165-2.593-2.593-2.593v5.185c1.427 0 2.593-1.165 2.593-2.593z"></path>
<path fill="#f4d844" d="M0 8.675l0.107 3.823h3.704l0.634-4.564-0.741-2.963c-2.044 0-3.704 1.659-3.704 3.704z"></path>
<path fill="#ecbd2c" d="M7.407 8.675c-0.057-2.044-1.659-3.704-3.704-3.704l0.107 7.527h3.704z"></path>
<path fill="#edbba7" d="M1.111 3.86c0 1.427 1.16 2.593 2.593 2.593l0.741-2.593-0.741-2.593c-1.427 0-2.593 1.165-2.593 2.593z"></path>
<path fill="#e8a38b" d="M6.296 3.86c0-1.427-1.165-2.593-2.593-2.593v5.185c1.427 0 2.593-1.165 2.593-2.593z"></path>
<path fill="#8493fb" d="M5.336 16.147v2.961h4.824l0.965-3.948-0.965-3.948c-2.663 0-4.824 2.211-4.824 4.935z"></path>
<path fill="#6666fa" d="M14.984 16.147c0-2.724-2.161-4.935-4.824-4.935v7.896h4.824c0-0.987 0-1.974 0-2.961z"></path>
<path fill="#d86c41" d="M6.783 9.731c0 1.902 1.518 3.455 3.377 3.455l0.965-3.455-0.965-3.455c-1.859 0-3.377 1.553-3.377 3.455z"></path>
<path fill="#bc4e26" d="M13.537 9.731c0-1.902-1.518-3.455-3.377-3.455v6.909c1.859 0 3.377-1.553 3.377-3.455z"></path>
</svg>
