<!-- Generated by IcoMoon.io -->
<svg version="1.1" xmlns="http://www.w3.org/2000/svg" width="20" height="20" viewBox="0 0 20 20">
<title>exploration</title>
<path fill="#3f61ff" d="M9.576 1.356h10.678v8.898h-10.678v-8.898z"></path>
<path fill="#3f61ff" d="M0 8.889h8.889v4.444h-8.889v-4.444z"></path>
<path fill="#3f61ff" d="M6.667 6.667h3.588v2.994h-3.588v-2.994z"></path>
<path fill="#000" d="M0 0v8.889h2.222v-6.667h6.667v2.222h-4.444v11.111h6.667v-2.222h-4.444v-6.667h4.444v-4.444h6.667v4.444h2.222v-6.667z"></path>
<path fill="#000" d="M15.556 8.889v-4.444h-2.222v4.444h-4.444v2.222h4.444v4.444h2.222v-4.444h2.222v6.667h-15.556v-6.667h-2.222v8.889h20v-11.111z"></path>
<path fill="#3f61ff" d="M2.458 11.111h6.431v2.222h-6.431v-2.222z"></path>
</svg>
