<!-- Generated by IcoMoon.io -->
<svg version="1.1" xmlns="http://www.w3.org/2000/svg" width="20" height="20" viewBox="0 0 20 20">
<title>export</title>
<path fill="#d6d5d8" d="M12.693 0.671l0.001 0.001 0 0z"></path>
<path fill="#e0e0e2" d="M19.338 7.699c-0.012 0.471-0.396 0.849-0.87 0.849h-6.39c-0.481 0-0.871-0.39-0.871-0.871v-6.389c0-0.352 0.212-0.67 0.538-0.805 0.112-0.046 0.23-0.067 0.347-0.066-0.005-0-0.009-0.001-0.014-0.001h-7.551c-0.481-0-0.871 0.39-0.871 0.871v17.425c0 0.481 0.39 0.871 0.871 0.871h13.94c0.481 0 0.871-0.39 0.871-0.871z"></path>
<path fill="#424ede" d="M12.426 13.687c-0.001-0.007-0.002-0.015-0.003-0.022-0.005-0.025-0.011-0.049-0.018-0.073-0.001-0.003-0.001-0.006-0.002-0.009-0.007-0.024-0.016-0.048-0.026-0.072-0.001-0.003-0.002-0.005-0.003-0.008-0.009-0.022-0.020-0.044-0.031-0.066-0.002-0.004-0.004-0.008-0.006-0.011-0.011-0.020-0.022-0.039-0.035-0.058-0.003-0.005-0.006-0.011-0.010-0.016-0.012-0.018-0.025-0.035-0.038-0.052-0.004-0.005-0.008-0.011-0.012-0.017-0.018-0.022-0.037-0.043-0.057-0.063l-0-0-2.178-2.178c-0.34-0.34-0.892-0.34-1.232 0s-0.34 0.892 0 1.232l0.691 0.691-8.177-0c-0.481 0-0.871 0.39-0.871 0.871s0.39 0.871 0.871 0.871l8.177 0-0.691 0.691c-0.34 0.34-0.34 0.892 0 1.232 0.17 0.17 0.393 0.255 0.616 0.255s0.446-0.085 0.616-0.255l2.178-2.178c0.001-0.001 0.002-0.002 0.002-0.003 0.019-0.019 0.037-0.039 0.055-0.060 0.005-0.007 0.010-0.014 0.015-0.020 0.012-0.016 0.025-0.032 0.036-0.048 0.004-0.006 0.007-0.012 0.011-0.019 0.011-0.018 0.023-0.036 0.033-0.055 0.002-0.004 0.004-0.009 0.007-0.014 0.011-0.021 0.021-0.042 0.030-0.063 0.001-0.003 0.002-0.007 0.004-0.010 0.009-0.023 0.018-0.046 0.025-0.070 0.001-0.003 0.002-0.007 0.003-0.010 0.007-0.024 0.013-0.048 0.018-0.072 0.002-0.008 0.002-0.016 0.004-0.023 0.003-0.020 0.007-0.041 0.009-0.061 0.003-0.029 0.004-0.058 0.004-0.087s-0.002-0.058-0.004-0.087c-0.002-0.021-0.006-0.042-0.009-0.063z"></path>
<path fill="#c6c5ca" d="M11.206 1.288v6.389c0 0.481 0.39 0.871 0.871 0.871h6.389c0 0 0.001 0 0.001 0 0.474 0 0.858-0.378 0.87-0.849 0-0.008 0.001-0.015 0.001-0.022 0-0.21-0.075-0.401-0.198-0.551-0.001-0.001-0.002-0.003-0.003-0.004-0.016-0.019-0.033-0.038-0.051-0.056-0.002-0.002-0.005-0.005-0.007-0.007-0.008-0.008-0.015-0.016-0.023-0.023l-6.363-6.363c-0-0-0.001-0-0.001-0.001-0.018-0.018-0.036-0.034-0.055-0.050-0.006-0.005-0.012-0.010-0.018-0.015-0.014-0.011-0.028-0.022-0.043-0.032-0.007-0.005-0.015-0.010-0.022-0.015-0.015-0.010-0.031-0.019-0.046-0.028-0.007-0.004-0.013-0.008-0.020-0.011-0.021-0.011-0.042-0.021-0.064-0.031-0.009-0.004-0.018-0.007-0.028-0.011-0.014-0.006-0.029-0.011-0.043-0.016-0.010-0.003-0.021-0.007-0.031-0.010-0.016-0.005-0.033-0.009-0.050-0.013-0.008-0.002-0.016-0.004-0.024-0.006-0.024-0.005-0.049-0.008-0.073-0.011-0.008-0.001-0.016-0.001-0.024-0.002-0.020-0.002-0.040-0.003-0.060-0.003-0.117-0.002-0.235 0.019-0.347 0.066-0.325 0.135-0.538 0.453-0.538 0.805z"></path>
</svg>
