<!-- Generated by IcoMoon.io -->
<svg version="1.1" xmlns="http://www.w3.org/2000/svg" width="17" height="20" viewBox="0 0 17 20">
<title>file-icon</title>
<path fill="#dedde0" d="M8.488 2.44h3.226v2.581h2.753l0.069 0.065v12.474h-6.048z"></path>
<path fill="#eee" d="M8.488 2.44v15.12h-6.048v-15.12z"></path>
<path fill="#acabb1" d="M11.713 2.44l2.822 2.581h-2.822z"></path>
<path fill="#1a3d5a" d="M4.705 7.771l0.976 0.004-0.029 6.353-0.976-0.004z"></path>
<path fill="#0e358e" d="M6.912 6.372c0.21 0.986-0.421 1.966-1.41 2.19s-1.96-0.393-2.17-1.379c-0.21-0.986 0.421-1.966 1.41-2.19s1.96 0.393 2.17 1.379z"></path>
<path fill="#397ba0" d="M6.321 6.482c0.142 0.668-0.285 1.332-0.955 1.484s-1.328-0.266-1.47-0.934c-0.142-0.668 0.285-1.332 0.955-1.484s1.328 0.266 1.47 0.934z"></path>
<path fill="#1a3d5a" d="M10.758 8.944l0.654 0.725-4.719 4.254-0.654-0.725z"></path>
<path fill="#0e358e" d="M13.696 7.901c0.21 0.986-0.421 1.966-1.41 2.19s-1.96-0.393-2.17-1.379c-0.21-0.986 0.421-1.966 1.41-2.19s1.96 0.393 2.17 1.379z"></path>
<path fill="#397ba0" d="M13.105 8.011c0.142 0.668-0.285 1.332-0.955 1.484s-1.328-0.266-1.47-0.934c-0.142-0.668 0.285-1.332 0.955-1.484s1.328 0.266 1.47 0.934z"></path>
<path fill="#0e358e" d="M7.11 13.837c0.21 0.986-0.421 1.966-1.41 2.19s-1.96-0.393-2.17-1.379c-0.21-0.986 0.421-1.966 1.41-2.19s1.96 0.393 2.17 1.379z"></path>
<path fill="#397ba0" d="M6.519 13.946c0.142 0.668-0.285 1.332-0.955 1.484s-1.328-0.266-1.47-0.934c-0.142-0.668 0.285-1.332 0.955-1.484s1.328 0.266 1.47 0.934z"></path>
</svg>
