<!-- Generated by IcoMoon.io -->
<svg version="1.1" xmlns="http://www.w3.org/2000/svg" width="20" height="20" viewBox="0 0 20 20">
<title>film</title>
<path d="M0 0v20h1.25v-1.25h1.25v1.25h15v-1.25h1.25v1.25h1.25v-20h-20zM2.5 17.5h-1.25v-1.25h1.25v1.25zM2.5 15h-1.25v-1.25h1.25v1.25zM2.5 12.5h-1.25v-1.25h1.25v1.25zM2.5 10h-1.25v-1.25h1.25v1.25zM2.5 7.5h-1.25v-1.25h1.25v1.25zM2.5 5h-1.25v-1.25h1.25v1.25zM2.5 2.5h-1.25v-1.25h1.25v1.25zM16.25 18.75h-12.5v-7.5h12.5v7.5zM16.25 8.75h-12.5v-7.5h12.5v7.5zM18.75 17.5h-1.25v-1.25h1.25v1.25zM18.75 15h-1.25v-1.25h1.25v1.25zM18.75 12.5h-1.25v-1.25h1.25v1.25zM18.75 10h-1.25v-1.25h1.25v1.25zM18.75 7.5h-1.25v-1.25h1.25v1.25zM18.75 5h-1.25v-1.25h1.25v1.25zM18.75 2.5h-1.25v-1.25h1.25v1.25z"></path>
</svg>
