<!-- Generated by IcoMoon.io -->
<svg version="1.1" xmlns="http://www.w3.org/2000/svg" width="20" height="20" viewBox="0 0 20 20">
<title>first</title>
<path fill="#48a1af" d="M0 10c0-5.523 4.477-10 10-10s10 4.477 10 10c0 5.523-4.477 10-10 10s-10-4.477-10-10z"></path>
<path fill="#fff" d="M8.389 9.551l6.027-3.701c0.165-0.101 0.381-0.105 0.55-0.011 0.171 0.096 0.278 0.278 0.278 0.474v7.373c0 0.196-0.106 0.378-0.277 0.474-0.081 0.046-0.173 0.070-0.266 0.070-0.1 0-0.198-0.027-0.283-0.079l-6.027-3.672c-0.16-0.098-0.26-0.275-0.261-0.463s0.099-0.366 0.259-0.464z"></path>
<path fill="#fff" d="M5.102 5.605h2.076c0.191 0 0.346 0.155 0.346 0.346v8.097c0 0.191-0.155 0.346-0.346 0.346h-2.076c-0.191 0-0.346-0.155-0.346-0.346v-8.097c0-0.191 0.155-0.346 0.346-0.346z"></path>
</svg>
