<!-- Generated by IcoMoon.io -->
<svg version="1.1" xmlns="http://www.w3.org/2000/svg" width="20" height="20" viewBox="0 0 20 20">
<title>France</title>
<path fill="#fff" d="M19.8 10c0 5.412-4.388 9.8-9.8 9.8s-9.8-4.388-9.8-9.8c0-5.412 4.388-9.8 9.8-9.8s9.8 4.388 9.8 9.8z"></path>
<path fill="#171796" d="M6.668 19.218v-18.436c-3.772 1.364-6.468 4.976-6.468 9.218s2.696 7.854 6.468 9.218z"></path>
<path fill="#da000c" d="M13.332 0.782v18.436c3.772-1.364 6.468-4.976 6.468-9.218s-2.696-7.854-6.468-9.218z"></path>
<path fill="#666" d="M10 20c-5.514 0-10-4.486-10-10s4.486-10 10-10 10 4.486 10 10-4.486 10-10 10zM10 0.4c-5.293 0-9.6 4.307-9.6 9.6s4.307 9.6 9.6 9.6c5.294 0 9.6-4.306 9.6-9.6s-4.306-9.6-9.6-9.6z"></path>
</svg>
