<!-- Generated by IcoMoon.io -->
<svg version="1.1" xmlns="http://www.w3.org/2000/svg" width="33" height="20" viewBox="0 0 33 20">
<title>gauge</title>
<path fill="#6cdb77" d="M15.011 13.796c-0.994 0.575-1.663 1.648-1.663 2.879h-13.348c0-6.171 3.353-11.559 8.335-14.441z"></path>
<path fill="#ffe677" d="M25.011 2.233l-6.676 11.562c-1.024-0.594-2.301-0.594-3.325 0l-6.676-11.562c5.14-2.974 11.525-2.981 16.676 0z"></path>
<path fill="#ff7876" d="M33.347 16.675h-13.348c0-0.074-0.002-0.147-0.007-0.22l4.103-3.923-5.495 1.434c-0.085-0.061-0.174-0.117-0.265-0.17l6.676-11.562c4.983 2.882 8.335 8.271 8.335 14.441z"></path>
<path fill="#5c5c5c" d="M24.095 12.532l-4.103 3.923c-0.068-1.027-0.601-1.926-1.392-2.489z"></path>
<path fill="#5c5c5c" d="M16.673 20c-1.824 0-3.325-1.477-3.325-3.325 0-1.231 0.669-2.305 1.663-2.879 1.024-0.594 2.301-0.594 3.325 0 0.091 0.053 0.179 0.109 0.265 0.17 2.639 1.878 1.289 6.034-1.927 6.034z"></path>
</svg>
