<!-- Generated by IcoMoon.io -->
<svg version="1.1" xmlns="http://www.w3.org/2000/svg" width="40" height="20" viewBox="0 0 40 20">
<title>gauge-gr</title>
<path fill="#3ed500" d="M4.854 7.009c-3.054 3.584-4.772 8.257-4.854 12.991h7.073c0.099-2.993 1.138-5.961 2.966-8.279z"></path>
<path fill="#ffe515" d="M19.7 0c-5.369 0.093-10.503 2.353-14.198 6.289l5.151 4.681c2.366-2.591 5.609-4.117 9.048-4.251z"></path>
<path fill="#f06b06" d="M20.657 0l0.003 6.719c3.449 0.128 6.827 1.897 8.967 4.131l4.855-4.585c-3.63-3.853-8.566-6.1-13.825-6.265z"></path>
<path fill="#cb1a0a" d="M35.129 6.985l-4.879 4.608c1.907 2.36 2.992 5.327 3.075 8.407h6.675c-0.112-4.714-1.838-9.451-4.871-13.015z"></path>
</svg>
