<!-- Generated by IcoMoon.io -->
<svg version="1.1" xmlns="http://www.w3.org/2000/svg" width="19" height="20" viewBox="0 0 19 20">
<title>global-force</title>
<path fill="#1a3c5a" d="M7.343 2.785l-1.85 1.807-4.266-4.414-0.943 0.922 4.266 4.414 0.475-0.464 2.318 2.265z"></path>
<path fill="#00284a" d="M7.343 7.315l-2.318-2.265-2.318 2.265z"></path>
<path fill="#1a3c5a" d="M2.926 12.807l1.807 1.85-4.414 4.266 0.922 0.943 4.414-4.266-0.464-0.475 2.265-2.318z"></path>
<path fill="#00284a" d="M5.191 15.124l2.265 2.318v-4.636z"></path>
<path fill="#1a3c5a" d="M14.288 0.98l1.807 1.85-4.414 4.266 0.922 0.943 4.414-4.266-0.464-0.475 2.265-2.318z"></path>
<path fill="#00284a" d="M16.553 3.298l2.265 2.318v-4.636z"></path>
<path fill="#1a3c5a" d="M18.676 14.6l-1.85 1.807-4.266-4.414-0.943 0.922 4.266 4.414 0.475-0.464 2.318 2.265z"></path>
<path fill="#00284a" d="M18.676 19.13l-2.318-2.265-2.318 2.265z"></path>
<path fill="#0e358e" d="M13.893 9.129c0.45 2.11-0.901 4.209-3.018 4.688s-4.196-0.842-4.646-2.951c-0.45-2.11 0.901-4.209 3.018-4.688s4.196 0.842 4.646 2.951z"></path>
<path fill="#397ba0" d="M12.628 9.363c0.305 1.429-0.611 2.851-2.044 3.176s-2.843-0.57-3.147-1.999c-0.305-1.429 0.611-2.851 2.044-3.176s2.843 0.57 3.147 1.999z"></path>
</svg>
