<!-- Generated by IcoMoon.io -->
<svg version="1.1" xmlns="http://www.w3.org/2000/svg" width="20" height="20" viewBox="0 0 20 20">
<title>grid</title>
<path fill="#3db39e" d="M19.375 7.5h-3.75c-0.346 0-0.625 0.279-0.625 0.625v3.75c0 0.346 0.279 0.625 0.625 0.625h3.75c0.346 0 0.625-0.279 0.625-0.625v-3.75c0-0.346-0.279-0.625-0.625-0.625zM19.375 0h-3.75c-0.346 0-0.625 0.28-0.625 0.625v3.75c0 0.346 0.279 0.625 0.625 0.625h3.75c0.346 0 0.625-0.279 0.625-0.625v-3.75c0-0.345-0.279-0.625-0.625-0.625zM4.375 0h-3.75c-0.345 0-0.625 0.28-0.625 0.625v3.75c0 0.346 0.28 0.625 0.625 0.625h3.75c0.345 0 0.625-0.279 0.625-0.625v-3.75c0-0.345-0.28-0.625-0.625-0.625zM4.375 7.5h-3.75c-0.345 0-0.625 0.279-0.625 0.625v3.75c0 0.346 0.28 0.625 0.625 0.625h3.75c0.345 0 0.625-0.279 0.625-0.625v-3.75c0-0.346-0.28-0.625-0.625-0.625zM19.375 15h-3.75c-0.346 0-0.625 0.279-0.625 0.625v3.75c0 0.346 0.279 0.625 0.625 0.625h3.75c0.346 0 0.625-0.279 0.625-0.625v-3.75c0-0.346-0.279-0.625-0.625-0.625zM4.375 15h-3.75c-0.345 0-0.625 0.279-0.625 0.625v3.75c0 0.346 0.28 0.625 0.625 0.625h3.75c0.345 0 0.625-0.279 0.625-0.625v-3.75c0-0.346-0.28-0.625-0.625-0.625zM11.875 7.5h-3.75c-0.345 0-0.625 0.279-0.625 0.625v3.75c0 0.346 0.28 0.625 0.625 0.625h3.75c0.346 0 0.625-0.279 0.625-0.625v-3.75c0-0.346-0.279-0.625-0.625-0.625zM11.875 0h-3.75c-0.345 0-0.625 0.28-0.625 0.625v3.75c0 0.346 0.28 0.625 0.625 0.625h3.75c0.346 0 0.625-0.279 0.625-0.625v-3.75c0-0.345-0.279-0.625-0.625-0.625zM11.875 15h-3.75c-0.345 0-0.625 0.279-0.625 0.625v3.75c0 0.346 0.28 0.625 0.625 0.625h3.75c0.346 0 0.625-0.279 0.625-0.625v-3.75c0-0.346-0.279-0.625-0.625-0.625z"></path>
</svg>
