<!-- Generated by IcoMoon.io -->
<svg version="1.1" xmlns="http://www.w3.org/2000/svg" width="20" height="20" viewBox="0 0 20 20">
<title>hierarchy</title>
<path d="M3.246 10.454h6.371v1.729h0.767v-1.729h6.371v1.729h0.767v-2.112c0-0.213-0.171-0.383-0.383-0.383h-6.754v-1.871h-0.767v1.871h-6.754c-0.212 0-0.383 0.171-0.383 0.383v2.112h0.767v-1.729zM8.392 7.433h3.217c0.633 0 1.15-0.517 1.15-1.15v-2.987c0-0.633-0.517-1.15-1.15-1.15h-3.217c-0.633 0-1.15 0.517-1.15 1.15v2.987c0 0.633 0.517 1.15 1.15 1.15zM11.608 12.567h-3.217c-0.633 0-1.15 0.517-1.15 1.15v2.988c0 0.633 0.517 1.15 1.15 1.15h3.217c0.633 0 1.15-0.517 1.15-1.15v-2.988c0-0.633-0.517-1.15-1.15-1.15zM4.471 12.567h-3.217c-0.633 0-1.15 0.517-1.15 1.15v2.988c0 0.633 0.517 1.15 1.15 1.15h3.217c0.633 0 1.15-0.517 1.15-1.15v-2.988c0-0.633-0.517-1.15-1.15-1.15zM18.746 12.567h-3.217c-0.633 0-1.15 0.517-1.15 1.15v2.988c0 0.633 0.517 1.15 1.15 1.15h3.217c0.633 0 1.15-0.517 1.15-1.15v-2.988c0-0.633-0.517-1.15-1.15-1.15z"></path>
</svg>
