<!-- Generated by IcoMoon.io -->
<svg version="1.1" xmlns="http://www.w3.org/2000/svg" width="30" height="20" viewBox="0 0 30 20">
<title>horizontal-tree</title>
<path fill="#122b85" d="M19.957 4.556l-11.575 3.822 0.318 0.965 11.575-3.822-0.318-0.965z"></path>
<path fill="#122b85" d="M19.941 15.467l-11.575-3.822 0.318-0.965 11.575 3.822-0.318 0.965z"></path>
<path fill="#fcca4e" d="M11.819 7.495h-10.756v5.019h10.756v-5.019z"></path>
<path fill="#112a82" d="M0.787 7.219h11.307v5.571h-11.307v-5.571zM1.339 7.77v4.468h10.205v-4.468h-10.205z"></path>
<path fill="#fcca4e" d="M28.366 1.063h-10.756v5.019h10.756v-5.019z"></path>
<path fill="#112a82" d="M17.335 0.787h11.307v5.571h-11.307v-5.571zM17.886 1.339v4.468h10.205v-4.468h-10.205z"></path>
<path fill="#fcca4e" d="M28.366 13.861h-10.756v5.019h10.756v-5.019z"></path>
<path fill="#112a82" d="M17.335 13.586h11.307v5.571h-11.307v-5.571zM17.886 14.137v4.468h10.205v-4.468h-10.205z"></path>
</svg>
