<!-- Generated by IcoMoon.io -->
<svg version="1.1" xmlns="http://www.w3.org/2000/svg" width="53" height="20" viewBox="0 0 53 20">
<title>hyperlink</title>
<path fill="#37474f" d="M17.591 1.141l-8.86 0.001c-4.194 0.001-7.594 3.401-7.593 7.596l0 2.531c0.001 4.194 3.401 7.594 7.596 7.593l8.86-0.001c4.194-0.001 7.594-3.401 7.593-7.596l-0-2.531c-0.001-4.194-3.401-7.594-7.596-7.593zM20.124 11.267c0 1.396-1.135 2.532-2.531 2.532l-8.86 0.001c-1.396 0-2.532-1.135-2.532-2.531l-0-2.531c-0-1.396 1.135-2.532 2.531-2.532l8.86-0.001c1.396-0 2.532 1.135 2.532 2.531z"></path>
<path fill="#263238" d="M44.171 1.137l-8.86 0.001c-4.194 0.001-7.594 3.401-7.593 7.596l0 2.531c0.001 4.194 3.401 7.594 7.596 7.593l8.86-0.001c4.194-0.001 7.594-3.401 7.593-7.596l-0-2.531c-0.001-4.194-3.401-7.594-7.596-7.593zM46.704 11.263c0 1.396-1.135 2.532-2.531 2.532l-8.86 0.001c-1.396 0-2.532-1.135-2.532-2.531l-0-2.531c-0-1.396 1.135-2.532 2.531-2.532l8.86-0.001c1.396-0 2.532 1.135 2.532 2.531z"></path>
<path fill="#455a64" d="M35.945 7.467l-9.493 0.001-3.435 2.532 3.436 2.531 9.493-0.001c1.398-0 2.531-1.134 2.531-2.532s-1.134-2.531-2.532-2.531z"></path>
<path fill="#607d8b" d="M16.959 7.47c-1.398 0-2.531 1.134-2.531 2.532s1.134 2.531 2.532 2.531l9.493-0.001-0.001-5.063z"></path>
</svg>
