<!-- Generated by IcoMoon.io -->
<svg version="1.1" xmlns="http://www.w3.org/2000/svg" width="20" height="20" viewBox="0 0 20 20">
<title>idea</title>
<path fill="#e5aa17" d="M20 10c0-5.523-4.477-10-10-10s-10 4.477-10 10c0 5.523 4.477 10 10 10s10-4.477 10-10z"></path>
<path fill="#fff" d="M11.915 14.576c0-0.703-0.932-1.272-2.082-1.272s-2.082 0.57-2.082 1.272c0 0.241 0.109 0.466 0.299 0.658-0.037 0.089-0.057 0.183-0.057 0.279 0 0.245 0.129 0.472 0.347 0.657-0.004 0.026-0.006 0.053-0.006 0.080 0 0.506 0.671 0.916 1.499 0.916s1.499-0.41 1.499-0.916c0-0.027-0.002-0.054-0.006-0.080 0.218-0.185 0.347-0.412 0.347-0.657 0-0.096-0.020-0.19-0.057-0.279 0.19-0.192 0.299-0.417 0.299-0.658z"></path>
<path fill="#e5aa17" d="M11.929 14.475c0 0-0.456 0.401-2.107 0.401s-2.085-0.401-2.085-0.401v-1.089h4.191v1.089h-0z"></path>
<path fill="#fff" d="M13.928 10.124c0-2.262-1.833-4.095-4.095-4.095s-4.095 1.833-4.095 4.095c0 1.495 0.802 2.803 1.999 3.518v0.497c0 0 0.434 0.401 2.085 0.401s2.107-0.401 2.107-0.401v-0.497c1.197-0.715 1.999-2.023 1.999-3.518z"></path>
<path fill="#fff" d="M10 5.333c-0.178 0-0.322-0.144-0.322-0.322v-2.177c0-0.178 0.144-0.322 0.322-0.322s0.322 0.144 0.322 0.322v2.177c0 0.178-0.144 0.322-0.322 0.322z"></path>
<path fill="#fff" d="M17.316 10.473h-2.177c-0.178 0-0.322-0.144-0.322-0.322s0.144-0.322 0.322-0.322h2.177c0.178 0 0.322 0.144 0.322 0.322s-0.144 0.322-0.322 0.322z"></path>
<path fill="#fff" d="M4.861 10.473h-2.177c-0.178 0-0.322-0.144-0.322-0.322s0.144-0.322 0.322-0.322h2.177c0.178 0 0.322 0.144 0.322 0.322s-0.144 0.322-0.322 0.322z"></path>
<path fill="#fff" d="M13.634 6.839c-0.083 0-0.165-0.031-0.228-0.094-0.126-0.126-0.126-0.33 0-0.456l1.539-1.539c0.126-0.126 0.33-0.126 0.456 0s0.126 0.33 0 0.456l-1.539 1.539c-0.063 0.063-0.145 0.094-0.228 0.094z"></path>
<path fill="#fff" d="M6.366 6.839c-0.083 0-0.165-0.031-0.228-0.094l-1.539-1.539c-0.126-0.126-0.126-0.33 0-0.456s0.33-0.126 0.456 0l1.539 1.539c0.126 0.126 0.126 0.33 0 0.456-0.063 0.063-0.145 0.094-0.228 0.094z"></path>
</svg>
