<!-- Generated by IcoMoon.io -->
<svg version="1.1" xmlns="http://www.w3.org/2000/svg" width="20" height="20" viewBox="0 0 20 20">
<title>include-not-observable</title>
<path fill="#394b9f" d="M20 10c0 5.523-4.477 10-10 10s-10-4.477-10-10c0-5.523 4.477-10 10-10s10 4.477 10 10z"></path>
<path fill="#e9f0ff" d="M18.227 10c0 4.543-3.683 8.226-8.227 8.226s-8.227-3.683-8.227-8.226c0-4.543 3.683-8.226 8.227-8.226s8.227 3.683 8.227 8.226z"></path>
<path fill="#6b9dff" d="M10 1.774c4.543 0.001 8.227 3.684 8.227 8.226s-3.683 8.225-8.227 8.226v-16.453z"></path>
<path fill="#d02b2b" d="M9.658 6.72v1.649h-3.558c-0.327 0-0.593 0.265-0.593 0.593v2.371c0 0.328 0.266 0.593 0.593 0.593h3.558v1.649c0 0.644 0.429 0.906 0.951 0.585l3.389-3.427c0.523-0.322 0.523-0.848 0-1.17l-3.389-3.427c-0.522-0.322-0.951-0.058-0.951 0.585z"></path>
</svg>
