<!-- Generated by IcoMoon.io -->
<svg version="1.1" xmlns="http://www.w3.org/2000/svg" width="20" height="20" viewBox="0 0 20 20">
<title>incremental-save</title>
<path fill="#72a3fc" d="M19.828 3.297l-3.125-3.125c-0.11-0.11-0.259-0.172-0.414-0.172h-15.703c-0.324 0-0.586 0.262-0.586 0.586v18.828c0 0.324 0.262 0.586 0.586 0.586h18.828c0.324 0 0.586-0.262 0.586-0.586v-15.703c0-0.155-0.062-0.304-0.172-0.414z"></path>
<path fill="#2892fc" d="M19.828 3.297l-3.125-3.125c-0.11-0.11-0.259-0.172-0.414-0.172h-6.289v20h9.414c0.324 0 0.586-0.262 0.586-0.586v-15.703c0-0.155-0.062-0.304-0.172-0.414z"></path>
<path fill="#f9f9f9" d="M15.859 9.453h-11.719c-0.324 0-0.586 0.262-0.586 0.586v9.961h12.891v-9.961c0-0.324-0.262-0.586-0.586-0.586z"></path>
<path fill="#dfe4ea" d="M16.445 10.039c0-0.324-0.262-0.586-0.586-0.586h-5.859v10.547h6.445v-9.961z"></path>
<path fill="#5458ea" d="M14.102 0h-10.547v5.664c0 0.324 0.262 0.586 0.586 0.586h9.375c0.324 0 0.586-0.262 0.586-0.586v-5.664z"></path>
<path fill="#3545e3" d="M10 0v6.25h3.516c0.324 0 0.586-0.262 0.586-0.586v-5.664h-4.102z"></path>
<path fill="#32a62c" d="M5.083 14.825c0-2.697 2.186-4.883 4.883-4.883s4.883 2.186 4.883 4.883c0 2.697-2.186 4.883-4.883 4.883s-4.883-2.186-4.883-4.883z"></path>
<path fill="#fff" d="M12.632 14.008h-1.859v-1.849c0-0.078-0.063-0.142-0.142-0.142h-1.341c-0.078 0-0.142 0.063-0.142 0.142v1.849h-1.849c-0.078 0-0.142 0.063-0.142 0.142v1.362c0 0.078 0.063 0.142 0.142 0.142h1.849v1.839c0 0.078 0.063 0.142 0.142 0.142h1.341c0.078 0 0.142-0.063 0.142-0.142v-1.839h1.859c0.078 0 0.142-0.063 0.142-0.142v-1.362c0-0.078-0.063-0.142-0.142-0.142z"></path>
</svg>
