<!-- Generated by IcoMoon.io -->
<svg version="1.1" xmlns="http://www.w3.org/2000/svg" width="20" height="20" viewBox="0 0 20 20">
<title>indicator_reference_state</title>
<path fill="#fcfcfc" d="M0.519 0.519h18.963v18.963h-18.963v-18.963z"></path>
<path fill="#4f4f4f" d="M0.296 0.296h19.407v19.407h-19.407v-19.407zM0.741 0.741v18.519h18.519v-18.519h-18.519z"></path>
<path fill="#39b29d" d="M5.554 4.841h8.873c0.245 0 0.444-0.206 0.444-0.461v-1.382c0-0.254-0.198-0.461-0.444-0.461h-8.873c-0.245 0-0.444 0.206-0.444 0.461v1.382c0 0.254 0.199 0.461 0.444 0.461zM14.427 13.131c0.245 0 0.444-0.206 0.444-0.461v-1.382c0-0.255-0.198-0.461-0.444-0.461h-8.873c-0.245 0-0.444 0.206-0.444 0.461v1.382c0 0.255 0.199 0.461 0.444 0.461h8.873zM14.405 14.91h-8.843c-0.245 0-0.444 0.206-0.444 0.461v1.382c0 0.255 0.199 0.461 0.444 0.461h8.843c0.245 0 0.444-0.206 0.444-0.461v-1.382c0-0.255-0.198-0.461-0.444-0.461z"></path>
<path fill="#bc2f36" d="M16.65 6.665h-13.309c-0.245 0-0.444 0.206-0.444 0.461v1.382c0 0.255 0.199 0.461 0.444 0.461h13.309c0.245 0 0.444-0.206 0.444-0.461v-1.382c0-0.254-0.198-0.461-0.444-0.461z"></path>
</svg>
