<!-- Generated by IcoMoon.io -->
<svg version="1.1" xmlns="http://www.w3.org/2000/svg" width="20" height="20" viewBox="0 0 20 20">
<title>indicator_prior</title>
<path fill="#fcfcfc" d="M0.519 0.519h18.963v18.963h-18.963v-18.963z"></path>
<path fill="#4f4f4f" d="M19.704 0.296v19.407h-19.407v-19.407h19.407zM0.741 0.741v18.519h18.519v-18.519h-18.519z"></path>
<path fill="#fab000" d="M4.791 11.17c-0.496-2.133 1.318-4.011 3.607-4.011h0.527v1.422c0 0.19 0.127 0.36 0.327 0.436s0.422 0.038 0.57-0.104l3.164-2.844c0.211-0.18 0.211-0.484 0-0.664l-3.164-2.844c-0.148-0.142-0.369-0.18-0.57-0.104s-0.327 0.247-0.327 0.436v1.422h-0.527c-4.071 0-7.34 3.224-6.792 6.978 0.21 1.468 1.008 2.734 2.167 3.671 0.205 0.166 0.525 0.147 0.72-0.028l1.466-1.318c0.21-0.189 0.212-0.501-0.012-0.676-0.578-0.451-0.995-1.059-1.157-1.772z"></path>
<path fill="#fab000" d="M18.354 8.715c-0.21-1.468-1.008-2.734-2.167-3.671-0.205-0.166-0.525-0.147-0.72 0.028l-1.466 1.318c-0.21 0.189-0.212 0.501 0.012 0.676 0.577 0.452 0.995 1.060 1.157 1.772 0.496 2.133-1.318 4.011-3.607 4.011h-0.527v-1.422c0-0.19-0.127-0.36-0.327-0.436s-0.422-0.038-0.57 0.104l-3.164 2.844c-0.211 0.18-0.211 0.484 0 0.664l3.164 2.844c0.148 0.142 0.369 0.18 0.57 0.104s0.327-0.247 0.327-0.436v-1.422h0.527c4.071 0 7.34-3.224 6.792-6.978z"></path>
</svg>
