<!-- Generated by IcoMoon.io -->
<svg version="1.1" xmlns="http://www.w3.org/2000/svg" width="20" height="20" viewBox="0 0 20 20">
<title>indicator_tree_estimation</title>
<path fill="#fcfcfc" d="M0.519 0.519h18.963v18.963h-18.963v-18.963z"></path>
<path fill="#4f4f4f" d="M0.296 0.296h19.407v19.407h-19.407v-19.407zM0.741 0.741v18.519h18.519v-18.519h-18.519z"></path>
<path fill="#129b12" d="M16.838 9.633c0-1.061-0.645-1.971-1.564-2.359 0.162-0.314 0.255-0.67 0.255-1.047 0-1.261-1.022-2.283-2.283-2.283-0.359 0-0.699 0.083-1.001 0.231-0.269-0.962-1.151-1.668-2.199-1.668s-1.93 0.706-2.199 1.668c-0.302-0.148-0.642-0.231-1.001-0.231-1.261 0-2.283 1.022-2.283 2.283 0 0.378 0.092 0.734 0.255 1.047-0.919 0.389-1.564 1.299-1.564 2.359 0 1.375 1.084 2.495 2.443 2.556 0.19 0.687 0.921 1.198 1.796 1.198 0.496 0 0.945-0.165 1.277-0.432 0.331 0.267 0.781 0.432 1.277 0.432s0.945-0.165 1.277-0.432c0.331 0.267 0.781 0.432 1.277 0.432 0.875 0 1.607-0.512 1.796-1.198 1.359-0.061 2.443-1.181 2.443-2.556h-0z"></path>
<path fill="#097c09" d="M9.908 2.51c-0.028 0.002-0.056 0.004-0.084 0.006-0.009 0.001-0.017 0.002-0.025 0.003-0.030 0.003-0.060 0.007-0.089 0.011-0.006 0.001-0.011 0.002-0.017 0.002-0.035 0.005-0.070 0.012-0.105 0.019-0 0-0 0-0 0 0.599 0.122 1.161 0.539 1.516 1.066 0.252 0.373 0.682 0.587 1.131 0.557 0.003-0 0.006-0 0.009-0.001-0.269-0.962-1.151-1.668-2.199-1.668-0.037 0-0.073 0.001-0.11 0.003-0.009 0-0.018 0.001-0.027 0.002v-0z"></path>
<path fill="#097c09" d="M15.274 7.274c0.162-0.314 0.255-0.67 0.255-1.047 0-1.261-1.022-2.283-2.283-2.283-0.157 0-0.309 0.016-0.457 0.046 1.042 0.212 1.826 1.133 1.826 2.237 0 0.378-0.092 0.734-0.255 1.047 0.919 0.389 1.564 1.299 1.564 2.359 0 1.375-1.084 2.495-2.443 2.556-0.155 0.563-0.675 1.008-1.339 1.15 0.146 0.031 0.299 0.048 0.457 0.048 0.875 0 1.607-0.512 1.796-1.198 1.359-0.061 2.443-1.181 2.443-2.556 0-1.061-0.645-1.971-1.564-2.359v0z"></path>
<path fill="#009000" d="M8.41 12.577c-0.206 0.349-1.059 0.74-1.376 0.762 0.035 0.007 0.070 0.014 0.106 0.020 0.003 0 0.006 0.001 0.009 0.001 0.036 0.006 0.072 0.011 0.109 0.015 0.001 0 0.002 0 0.003 0 0.033 0.003 0.067 0.006 0.1 0.008 0.008 0 0.016 0.001 0.025 0.001 0.035 0.002 0.070 0.003 0.106 0.003 0.452 0 0.866-0.137 1.186-0.364l0.056-0.041-0.286-0.47-0.037 0.065z"></path>
<path fill="#bf6101" d="M11.187 13.16l0.978-1.544c0.077-0.122 0.054-0.282-0.055-0.377-0.116-0.101-0.292-0.095-0.4 0.015l-0.72 0.729c-0.096 0.097-0.259 0.016-0.241-0.118l0.212-1.57c0.023-0.168-0.101-0.32-0.27-0.331l-0.198-0.013c-0.149-0.010-0.282 0.094-0.308 0.241l-0.378 2.149c-0.021 0.119-0.173 0.159-0.249 0.065l-1.184-1.457c-0.082-0.101-0.221-0.135-0.34-0.085l-0.207 0.087c-0.164 0.069-0.229 0.267-0.138 0.42l1.217 2.029c0.176 0.294 0.249 0.638 0.205 0.978-0.158 1.217-0.354 2.364-1.155 3.298h4.184c-0.858-1-1.070-2.245-1.184-3.557-0.029-0.337 0.053-0.674 0.234-0.96h0z"></path>
<path fill="#9a4d01" d="M12.165 11.616c0.077-0.122 0.054-0.282-0.055-0.377-0.116-0.101-0.292-0.095-0.4 0.015l-0.72 0.729c-0.096 0.097-0.259 0.016-0.241-0.118l0.212-1.57c0.022-0.163-0.095-0.312-0.258-0.329l-0.596 3.703c-0.010 0.048-0.018 0.096-0.023 0.145-0.011 0.101-0.013 0.204-0.004 0.306 0.114 1.312 0.325 2.556 1.184 3.557h0.874c-0.858-1-1.070-2.245-1.184-3.557-0.029-0.337 0.052-0.674 0.233-0.96l0.978-1.544z"></path>
<path fill="#28a528" d="M9.611 4.298c-0.641 0-1.192 0.38-1.442 0.927-0.258-0.182-0.573-0.29-0.914-0.29-0.875 0-1.585 0.71-1.585 1.585 0 0.289 0.078 0.559 0.213 0.793-0.76 0.117-1.342 0.774-1.342 1.567 0 0.875 0.71 1.585 1.585 1.585s5.070-3.706 5.070-4.582c0-0.875-0.71-1.585-1.585-1.585v0z"></path>
</svg>
