<!-- Generated by IcoMoon.io -->
<svg version="1.1" xmlns="http://www.w3.org/2000/svg" width="20" height="20" viewBox="0 0 20 20">
<title>indicator_latent</title>
<path fill="#fcfcfc" d="M0.519 0.519h18.963v18.963h-18.963v-18.963z"></path>
<path fill="#4f4f4f" d="M0.296 0.296h19.407v19.407h-19.407v-19.407zM0.741 0.741v18.519h18.519v-18.519h-18.519z"></path>
<path fill="#57c3d9" d="M16.787 17.878c-0.166 0-0.328-0.074-0.431-0.208l-1.186-1.522-1.186 1.522c-0.204 0.261-0.659 0.261-0.863 0l-1.186-1.522-1.186 1.522c-0.204 0.261-0.659 0.261-0.863 0l-1.186-1.522-1.186 1.522c-0.204 0.261-0.659 0.261-0.863 0l-1.186-1.522-1.186 1.522c-0.139 0.179-0.382 0.252-0.602 0.181s-0.369-0.269-0.369-0.492v-8.646c0-3.719 3.145-6.744 7.009-6.744s7.009 3.025 7.009 6.744v8.646c0 0.223-0.148 0.422-0.369 0.492-0.056 0.018-0.114 0.027-0.171 0.027v0z"></path>
<path fill="#3db1cc" d="M10.749 17.671l1.186-1.522 1.186 1.522c0.204 0.261 0.659 0.261 0.863 0l1.186-1.522 1.186 1.522c0.104 0.133 0.265 0.208 0.431 0.208 0.057 0 0.114-0.009 0.171-0.027 0.22-0.071 0.369-0.269 0.369-0.492v-8.646c-0-3.719-3.145-6.744-7.009-6.744v15.898c0.165 0 0.33-0.065 0.431-0.196z"></path>
<path fill="#edf0f2" d="M7.621 11.307c-1.189 0-2.157-0.931-2.157-2.075s0.967-2.075 2.157-2.075c1.189 0 2.157 0.931 2.157 2.075s-0.967 2.075-2.157 2.075z"></path>
<path fill="#dae1e6" d="M13.013 11.307c-1.189 0-2.157-0.931-2.157-2.075s0.967-2.075 2.157-2.075c1.189 0 2.157 0.931 2.157 2.075s-0.967 2.075-2.157 2.075z"></path>
<path fill="#736056" d="M8.699 9.751c0 0.287-0.241 0.519-0.539 0.519s-0.539-0.232-0.539-0.519c0-0.287 0.241-0.519 0.539-0.519s0.539 0.232 0.539 0.519z"></path>
<path fill="#665247" d="M14.091 9.751c0 0.287-0.241 0.519-0.539 0.519s-0.539-0.232-0.539-0.519c0-0.287 0.241-0.519 0.539-0.519s0.539 0.232 0.539 0.519z"></path>
</svg>
