<!-- Generated by IcoMoon.io -->
<svg version="1.1" xmlns="http://www.w3.org/2000/svg" width="20" height="20" viewBox="0 0 20 20">
<title>indicator_discount</title>
<path fill="#fcfcfc" d="M0.519 0.519h18.963v18.963h-18.963v-18.963z"></path>
<path fill="#4f4f4f" d="M19.704 0.296v19.407h-19.407v-19.407h19.407zM0.741 0.741v18.519h18.519v-18.519h-18.519z"></path>
<path fill="#a336f4" d="M17.588 9.973l0.73-1.927c0.080-0.213 0.018-0.454-0.158-0.598l-1.584-1.299-0.32-2.039c-0.035-0.225-0.21-0.401-0.433-0.437l-2.016-0.324-1.283-1.603c-0.142-0.178-0.385-0.241-0.59-0.16l-1.906 0.74-1.905-0.739c-0.211-0.082-0.447-0.017-0.59 0.16l-1.284 1.603-2.016 0.324c-0.222 0.036-0.396 0.213-0.432 0.437l-0.321 2.039-1.585 1.299c-0.175 0.143-0.238 0.384-0.158 0.597l0.73 1.927-0.73 1.927c-0.081 0.213-0.017 0.454 0.158 0.597l1.585 1.298 0.321 2.039c0.035 0.225 0.209 0.402 0.432 0.438l2.016 0.324 1.284 1.602c0.143 0.179 0.381 0.242 0.591 0.16l1.904-0.738 1.905 0.739c0.060 0.023 0.123 0.035 0.186 0.035 0.153 0 0.304-0.068 0.405-0.196l1.283-1.602 2.016-0.324c0.223-0.036 0.398-0.213 0.433-0.438l0.32-2.039 1.584-1.298c0.176-0.144 0.238-0.384 0.158-0.597l-0.73-1.927z"></path>
<path fill="#fafafa" d="M7.705 8.944c-1.245 0-2.258-0.844-2.258-1.88s1.013-1.88 2.258-1.88c1.245 0 2.258 0.844 2.258 1.88s-1.013 1.88-2.258 1.88zM7.705 6.437c-0.415 0-0.753 0.281-0.753 0.627s0.337 0.627 0.753 0.627c0.415 0 0.753-0.281 0.753-0.627s-0.337-0.627-0.753-0.627z"></path>
<path fill="#fafafa" d="M12.22 15.211c-1.245 0-2.258-0.844-2.258-1.88s1.013-1.88 2.258-1.88c1.245 0 2.258 0.844 2.258 1.88s-1.013 1.88-2.258 1.88zM12.22 12.704c-0.414 0-0.753 0.282-0.753 0.627s0.339 0.627 0.753 0.627c0.414 0 0.753-0.282 0.753-0.627s-0.339-0.627-0.753-0.627z"></path>
<path fill="#fafafa" d="M6.2 15.211c-0.152 0-0.304-0.038-0.437-0.117-0.339-0.202-0.417-0.593-0.175-0.875l7.526-8.774c0.242-0.282 0.712-0.347 1.051-0.145 0.339 0.201 0.415 0.593 0.175 0.874l-7.526 8.774c-0.149 0.172-0.379 0.263-0.614 0.263z"></path>
</svg>
