<!-- Generated by IcoMoon.io -->
<svg version="1.1" xmlns="http://www.w3.org/2000/svg" width="20" height="20" viewBox="0 0 20 20">
<title>indicator_cost</title>
<path fill="#fcfcfc" d="M0.519 0.519h18.963v18.963h-18.963v-18.963z"></path>
<path fill="#4f4f4f" d="M0.296 0.296h19.407v19.407h-19.407v-19.407zM0.741 0.741v18.519h18.519v-18.519h-18.519z"></path>
<path fill="#fcc62d" d="M15.954 10.123v0.326c0 1.826-3.016 3.307-6.735 3.307-2.053 0-3.891-0.452-5.126-1.163 0.417 1.645 3.247 3.007 6.68 3.007 3.72 0 6.735-1.599 6.735-3.425 0-0.803-0.584-1.511-1.554-2.052h-0z"></path>
<path fill="#e4af18" d="M10.773 15.6c-3.72 0-6.735-1.599-6.735-3.425v2.226c0 1.826 3.016 3.307 6.735 3.307s6.735-1.481 6.735-3.307v-2.226c0 1.826-3.016 3.425-6.735 3.425z"></path>
<path fill="#ce9912" d="M4.815 15.956c0.153 0.142 0.326 0.278 0.518 0.407v-2.184c-0.192-0.134-0.365-0.275-0.518-0.422v2.2z"></path>
<path fill="#ce9912" d="M16.213 14.178v2.184c0.192-0.129 0.365-0.265 0.518-0.407v-2.2c-0.153 0.147-0.326 0.288-0.518 0.422z"></path>
<path fill="#ce9912" d="M5.851 16.67c0.164 0.086 0.337 0.168 0.518 0.245v-2.158c-0.181-0.081-0.354-0.167-0.518-0.257v2.171z"></path>
<path fill="#ce9912" d="M15.177 16.914c0.181-0.077 0.354-0.159 0.518-0.245v-2.171c-0.164 0.090-0.337 0.176-0.518 0.257v2.158z"></path>
<path fill="#ce9912" d="M6.887 17.114c0.167 0.058 0.34 0.113 0.518 0.163v-2.138c-0.178-0.054-0.351-0.111-0.518-0.173v2.147z"></path>
<path fill="#ce9912" d="M14.14 17.277c0.178-0.051 0.351-0.105 0.518-0.163v-2.147c-0.167 0.061-0.34 0.119-0.518 0.173v2.138z"></path>
<path fill="#ce9912" d="M8.182 17.466c0.169 0.035 0.342 0.066 0.518 0.094v-2.119c-0.176-0.030-0.349-0.063-0.518-0.1v2.126z"></path>
<path fill="#ce9912" d="M12.845 17.56c0.176-0.028 0.349-0.059 0.518-0.094v-2.126c-0.169 0.037-0.342 0.070-0.518 0.1v2.119z"></path>
<path fill="#ce9912" d="M9.737 17.681c0.17 0.013 0.343 0.022 0.518 0.028v-2.108c-0.175-0.007-0.348-0.016-0.518-0.030v2.111z"></path>
<path fill="#ce9912" d="M11.291 17.71c0.175-0.007 0.348-0.015 0.518-0.028v-2.111c-0.17 0.014-0.343 0.023-0.518 0.031v2.108z"></path>
<path fill="#e4af18" d="M9.219 11.647c-3.72 0-6.735-1.599-6.735-3.425v2.226c0 1.826 3.016 3.307 6.735 3.307s6.735-1.481 6.735-3.307v-2.226c0 1.826-3.016 3.425-6.735 3.425z"></path>
<path fill="#ce9912" d="M3.261 12.002c0.153 0.142 0.326 0.278 0.518 0.407v-2.184c-0.192-0.134-0.365-0.275-0.518-0.422v2.199z"></path>
<path fill="#ce9912" d="M14.659 10.225v2.184c0.192-0.129 0.365-0.265 0.518-0.407v-2.2c-0.153 0.147-0.326 0.288-0.518 0.422z"></path>
<path fill="#ce9912" d="M4.297 12.716c0.164 0.086 0.337 0.168 0.518 0.245v-2.158c-0.181-0.081-0.354-0.167-0.518-0.257v2.171z"></path>
<path fill="#ce9912" d="M13.622 12.961c0.181-0.077 0.354-0.158 0.518-0.245v-2.171c-0.164 0.090-0.337 0.176-0.518 0.257v2.158z"></path>
<path fill="#ce9912" d="M5.333 13.16c0.167 0.058 0.34 0.112 0.518 0.163v-2.138c-0.178-0.054-0.351-0.111-0.518-0.173v2.147z"></path>
<path fill="#ce9912" d="M12.586 13.323c0.178-0.051 0.351-0.105 0.518-0.163v-2.147c-0.167 0.061-0.34 0.119-0.518 0.173v2.138z"></path>
<path fill="#ce9912" d="M6.628 13.513c0.169 0.035 0.342 0.066 0.518 0.094v-2.119c-0.176-0.030-0.349-0.063-0.518-0.1v2.126z"></path>
<path fill="#ce9912" d="M11.291 13.607c0.176-0.028 0.349-0.059 0.518-0.094v-2.126c-0.169 0.037-0.342 0.070-0.518 0.1v2.119z"></path>
<path fill="#ce9912" d="M8.182 13.728c0.17 0.013 0.343 0.022 0.518 0.028v-2.108c-0.175-0.007-0.348-0.016-0.518-0.030v2.111z"></path>
<path fill="#ce9912" d="M9.737 13.756c0.175-0.007 0.348-0.015 0.518-0.028v-2.111c-0.17 0.014-0.343 0.023-0.518 0.031v2.108z"></path>
<path fill="#ffd949" d="M15.777 11.201c-0.693 1.464-3.365 2.555-6.558 2.555-1.193 0-2.312-0.153-3.284-0.42 0.94 0.649 2.612 1.201 4.838 1.201 3.544 0 5.699-1.399 5.699-2.362 0-0.321-0.243-0.662-0.695-0.974z"></path>
<path fill="#ffd949" d="M10.514 11.121c-3.72 0-6.735-1.481-6.735-3.307v-1.489c-0.814 0.519-1.295 1.169-1.295 1.898 0 1.826 3.016 3.425 6.735 3.425 1.791 0 3.417-0.371 4.624-0.959-0.982 0.275-2.117 0.433-3.328 0.433v-0z"></path>
<path fill="#e4af18" d="M10.514 9.012c-3.72 0-6.735-1.599-6.735-3.425v2.226c0 1.826 3.016 3.307 6.735 3.307s6.735-1.481 6.735-3.307v-2.226c0 1.826-3.016 3.425-6.735 3.425z"></path>
<path fill="#ce9912" d="M4.556 9.367c0.153 0.142 0.326 0.278 0.518 0.407v-2.184c-0.192-0.134-0.365-0.275-0.518-0.422v2.199z"></path>
<path fill="#ce9912" d="M15.954 7.59v2.184c0.192-0.129 0.365-0.265 0.518-0.407v-2.2c-0.153 0.147-0.326 0.288-0.518 0.422z"></path>
<path fill="#ce9912" d="M5.592 10.082c0.164 0.086 0.337 0.168 0.518 0.245v-2.158c-0.181-0.081-0.354-0.167-0.518-0.257v2.171z"></path>
<path fill="#ce9912" d="M14.918 10.326c0.181-0.077 0.354-0.158 0.518-0.245v-2.171c-0.164 0.090-0.337 0.176-0.518 0.257v2.158z"></path>
<path fill="#ce9912" d="M6.628 10.526c0.167 0.058 0.34 0.113 0.518 0.163v-2.138c-0.178-0.054-0.351-0.111-0.518-0.173v2.147z"></path>
<path fill="#ce9912" d="M13.881 10.689c0.178-0.051 0.351-0.105 0.518-0.163v-2.147c-0.167 0.061-0.34 0.119-0.518 0.173v2.138z"></path>
<path fill="#ce9912" d="M7.923 10.878c0.169 0.035 0.342 0.066 0.518 0.094v-2.119c-0.176-0.030-0.349-0.063-0.518-0.1v2.126z"></path>
<path fill="#ce9912" d="M12.586 10.972c0.176-0.028 0.349-0.059 0.518-0.094v-2.126c-0.169 0.037-0.342 0.070-0.518 0.1v2.119z"></path>
<path fill="#ce9912" d="M9.478 11.093c0.17 0.013 0.343 0.022 0.518 0.028v-2.108c-0.175-0.007-0.348-0.016-0.518-0.030v2.111z"></path>
<path fill="#ce9912" d="M11.032 11.121c0.175-0.007 0.348-0.015 0.518-0.028v-2.111c-0.17 0.014-0.343 0.023-0.518 0.031v2.108z"></path>
<path fill="#fcc62d" d="M17.249 5.589c0 1.826-3.016 3.425-6.735 3.425s-6.735-1.599-6.735-3.425c0-1.826 3.016-3.161 6.735-3.161s6.735 1.335 6.735 3.161z"></path>
<path fill="#ffd949" d="M10.514 7.951c-3.544 0-5.699-1.399-5.699-2.362s2.155-2.371 5.699-2.371 5.699 1.408 5.699 2.371c0 0.963-2.155 2.362-5.699 2.362z"></path>
<path fill="#f0c41b" d="M12.27 5.947c0.212-0.046 0.337-0.179 0.291-0.331l-0.049-0.162c-0.036-0.119-0.176-0.219-0.348-0.268-0.234-0.508-0.829-0.692-1.714-0.692-0.042 0-0.083 0.001-0.123 0.003-0.302 0.013-0.603-0.017-0.838-0.104-0.096-0.036-0.174-0.073-0.225-0.111-0.023-0.017-0.080-0.006-0.080 0.016 0 0.038 0.003 0.084 0.011 0.135 0.032 0.197-0.006 0.167-0.197 0.364-0.111 0.114-0.199 0.246-0.263 0.391-0.171 0.050-0.31 0.149-0.346 0.268l-0.049 0.162c-0.046 0.152 0.079 0.285 0.291 0.331 0.061 0.389 0.32 0.73 0.887 0.918l-0.031 0.273c-0.008 0.073-0.070 0.14-0.16 0.174l-1.143 0.419c0.667 0.142 1.428 0.228 2.267 0.228 0.828 0 1.579-0.084 2.239-0.222l-1.118-0.425c-0.088-0.034-0.149-0.101-0.157-0.172l-0.031-0.275c0.567-0.188 0.826-0.53 0.887-0.919l0 0z"></path>
</svg>
