<!-- Generated by IcoMoon.io -->
<svg version="1.1" xmlns="http://www.w3.org/2000/svg" width="20" height="20" viewBox="0 0 20 20">
<title>indicator_stratification</title>
<path fill="#fcfcfc" d="M0.519 0.519h18.963v18.963h-18.963v-18.963z"></path>
<path fill="#4f4f4f" d="M0.296 0.296h19.407v19.407h-19.407v-19.407zM0.741 0.741v18.519h18.519v-18.519h-18.519z"></path>
<path fill="#4f2f59" d="M4.528 6.397h11.173c0.157 0 0.284-0.204 0.284-0.455s-0.127-0.455-0.284-0.455h-11.173c-0.157 0-0.284 0.204-0.284 0.455s0.127 0.455 0.284 0.455z"></path>
<path fill="#4f2f59" d="M15.701 8.155h-11.173c-0.157 0-0.284 0.204-0.284 0.455s0.127 0.455 0.284 0.455h11.173c0.157 0 0.284-0.204 0.284-0.455s-0.127-0.455-0.284-0.455z"></path>
<path fill="#4f2f59" d="M15.701 10.823h-11.173c-0.157 0-0.284 0.204-0.284 0.455s0.127 0.455 0.284 0.455h11.173c0.157 0 0.284-0.204 0.284-0.455s-0.127-0.455-0.284-0.455z"></path>
<path fill="#4f2f59" d="M15.701 13.491h-11.173c-0.157 0-0.284 0.204-0.284 0.455s0.127 0.455 0.284 0.455h11.173c0.157 0 0.284-0.204 0.284-0.455s-0.127-0.455-0.284-0.455z"></path>
<path fill="#4f2f59" d="M15.701 16.158h-11.173c-0.157 0-0.284 0.204-0.284 0.455s0.127 0.455 0.284 0.455h11.173c0.157 0 0.284-0.204 0.284-0.455s-0.127-0.455-0.284-0.455z"></path>
<path fill="#4f2f59" d="M15.707 2.743h-11.173c-0.157 0-0.284 0.204-0.284 0.455s0.127 0.455 0.284 0.455h11.173c0.157 0 0.284-0.204 0.284-0.455s-0.127-0.455-0.284-0.455z"></path>
</svg>
