<!-- Generated by IcoMoon.io -->
<svg version="1.1" xmlns="http://www.w3.org/2000/svg" width="20" height="20" viewBox="0 0 20 20">
<title>indicator_local_structural_coefficient</title>
<path fill="#fcfcfc" d="M0.519 0.519h18.963v18.963h-18.963v-18.963z"></path>
<path fill="#4f4f4f" d="M0.296 0.296h19.407v19.407h-19.407v-19.407zM0.741 0.741v18.519h18.519v-18.519h-18.519z"></path>
<path fill="#3a2c51" d="M12.644 13.705l1.796-4.288 1.827 4.288h0.728c0.108 0 0.217 0.031 0.31 0.093l-2.446-5.712v-0.015c0 0 0-0.015-0.015-0.015-0.015-0.015-0.015-0.031-0.031-0.046l-0.077-0.077c-0.015-0.015-0.046-0.031-0.062-0.046 0 0-0.015 0-0.015-0.015-0.015-0.015-0.031-0.015-0.046-0.031 0 0-0.015 0-0.015-0.015-0.031-0.015-0.046-0.015-0.077-0.015l-3.050-0.449c0.015 0.077 0.015 0.155 0.015 0.232 0 0.248-0.062 0.464-0.17 0.666l2.492 0.372-2.214 5.17c0.093-0.062 0.186-0.093 0.31-0.093-0-0 0.743-0 0.743-0h-0z"></path>
<path fill="#3a2c51" d="M10.554 6.29v-1.424c0-0.248-0.201-0.449-0.449-0.449s-0.449 0.201-0.449 0.449v1.424c0.139-0.046 0.294-0.077 0.449-0.077s0.31 0.031 0.449 0.077v0z"></path>
<path fill="#3a2c51" d="M8.867 7.002l-3.189-0.464h-0.108c-0.015 0-0.031 0-0.046 0.015h-0.031c-0.031 0-0.046 0.015-0.077 0.031 0 0-0.015 0-0.015 0.015-0.015 0.015-0.031 0.015-0.046 0.031l-0.015 0.015c-0.015 0.015-0.031 0.031-0.046 0.031l-0.015 0.015c-0.015 0.015-0.031 0.046-0.046 0.062 0 0 0 0.015-0.015 0.015-0.015 0.015-0.015 0.031-0.015 0.046l-2.446 5.619c0.093-0.062 0.201-0.108 0.31-0.108h0.743l1.827-4.211 1.827 4.211h0.697c0.124 0 0.232 0.046 0.325 0.108l-2.121-4.876 2.415 0.356c-0.031-0.108-0.046-0.217-0.046-0.325 0-0.217 0.046-0.418 0.139-0.588l-0-0z"></path>
<path fill="#7f7fa5" d="M11.53 7.342c-0.077-0.511-0.449-0.96-0.96-1.115-0.139-0.046-0.31-0.077-0.464-0.077s-0.325 0.031-0.464 0.077c-0.356 0.124-0.666 0.387-0.82 0.743-0.093 0.201-0.139 0.402-0.139 0.619 0 0.108 0.015 0.232 0.046 0.341 0.139 0.635 0.728 1.099 1.393 1.099 0.526 0 1.022-0.31 1.269-0.743 0.108-0.217 0.17-0.433 0.17-0.697-0.015-0.077-0.031-0.155-0.031-0.248h0z"></path>
<path fill="#44a8d1" d="M17.489 14.030c-0.031-0.093-0.108-0.186-0.186-0.232-0.093-0.062-0.201-0.093-0.31-0.093h-5.093c-0.108 0-0.217 0.031-0.31 0.093-0.077 0.062-0.139 0.139-0.186 0.232-0.077 0.201-0.031 0.433 0.108 0.573l0.387 0.387c0.681 0.681 1.579 1.053 2.539 1.053s1.858-0.372 2.539-1.053l0.387-0.387c0.155-0.139 0.201-0.372 0.124-0.573h-0z"></path>
<path fill="#44a8d1" d="M8.155 12.327h-5.093c-0.124 0-0.232 0.031-0.31 0.108-0.077 0.062-0.139 0.124-0.186 0.217-0.077 0.201-0.031 0.433 0.108 0.573l0.387 0.387c0.681 0.681 1.579 1.053 2.539 1.053s1.858-0.372 2.539-1.053l0.387-0.387c0.155-0.155 0.201-0.387 0.108-0.573-0.031-0.093-0.077-0.155-0.155-0.217-0.093-0.062-0.201-0.108-0.325-0.108z"></path>
</svg>
