<!-- Generated by IcoMoon.io -->
<svg version="1.1" xmlns="http://www.w3.org/2000/svg" width="20" height="20" viewBox="0 0 20 20">
<title>indicator_temporal_index</title>
<path fill="#fcfcfc" d="M0.519 0.519h18.963v18.963h-18.963v-18.963z"></path>
<path fill="#4f4f4f" d="M0.296 0.296h19.407v19.407h-19.407v-19.407zM0.741 0.741v18.519h18.519v-18.519h-18.519z"></path>
<path fill="#7dd2f0" d="M17.742 10.165c0 4.189-3.396 7.585-7.585 7.585s-7.585-3.396-7.585-7.585c0-4.189 3.396-7.585 7.585-7.585s7.585 3.396 7.585 7.585z"></path>
<path fill="#000" opacity="0.1" d="M3.265 10.858c0-4.189 3.396-7.585 7.585-7.585 1.918 0 3.67 0.712 5.005 1.886-1.39-1.581-3.428-2.58-5.699-2.58-4.189 0-7.585 3.396-7.585 7.585 0 2.271 0.998 4.309 2.58 5.699-1.174-1.336-1.886-3.087-1.886-5.005v-0z"></path>
<path fill="#fff" d="M10.156 15.843c-3.131 0-5.678-2.547-5.678-5.678s2.547-5.678 5.678-5.678c3.131 0 5.678 2.547 5.678 5.678s-2.547 5.678-5.678 5.678z"></path>
<path fill="#000" opacity="0.1" d="M5.172 10.858c0-3.131 2.547-5.678 5.678-5.678 1.389 0 2.663 0.502 3.651 1.333-1.042-1.238-2.603-2.027-4.345-2.027-3.131 0-5.678 2.547-5.678 5.678 0 1.742 0.788 3.302 2.027 4.345-0.832-0.988-1.333-2.262-1.333-3.651v0z"></path>
<path fill="#515262" d="M10.156 4.487c-0.087 0-0.174 0.002-0.26 0.006v1.514c0 0.144 0.116 0.26 0.26 0.26s0.26-0.116 0.26-0.26v-1.514c-0.086-0.004-0.173-0.006-0.26-0.006z"></path>
<path fill="#515262" d="M13.982 5.972l-1.069 1.069c-0.102 0.102-0.102 0.266 0 0.368 0.051 0.051 0.117 0.076 0.184 0.076s0.133-0.025 0.184-0.076l1.069-1.069c-0.117-0.128-0.24-0.251-0.368-0.368z"></path>
<path fill="#515262" d="M15.829 9.905h-1.514c-0.144 0-0.26 0.116-0.26 0.26s0.116 0.26 0.26 0.26h1.514c0.004-0.086 0.006-0.173 0.006-0.26s-0.002-0.174-0.006-0.26z"></path>
<path fill="#515262" d="M14.349 13.99l-1.069-1.069c-0.102-0.102-0.266-0.102-0.368 0s-0.102 0.266 0 0.368l1.069 1.069c0.128-0.117 0.251-0.24 0.368-0.368z"></path>
<path fill="#515262" d="M10.156 14.063c-0.144 0-0.26 0.116-0.26 0.26v1.514c0.086 0.004 0.173 0.006 0.26 0.006s0.174-0.002 0.26-0.006v-1.514c0-0.144-0.116-0.26-0.26-0.26z"></path>
<path fill="#515262" d="M7.032 12.921l-1.069 1.069c0.117 0.128 0.24 0.251 0.368 0.368l1.069-1.069c0.102-0.102 0.102-0.266 0-0.368s-0.266-0.102-0.368-0v0z"></path>
<path fill="#515262" d="M5.998 9.905h-1.514c-0.004 0.086-0.006 0.173-0.006 0.26s0.002 0.174 0.006 0.26h1.514c0.144 0 0.26-0.116 0.26-0.26s-0.116-0.26-0.26-0.26z"></path>
<path fill="#515262" d="M5.964 6.34l1.069 1.069c0.051 0.051 0.117 0.076 0.184 0.076s0.133-0.025 0.184-0.076c0.102-0.102 0.102-0.266 0-0.368l-1.069-1.069c-0.128 0.117-0.251 0.24-0.368 0.368z"></path>
<path fill="#515262" d="M11.562 12.091c-0.133 0-0.266-0.051-0.368-0.152l-1.406-1.406c-0.098-0.098-0.152-0.23-0.152-0.368v-2.618c0-0.287 0.233-0.52 0.52-0.52s0.52 0.233 0.52 0.52v2.403l1.253 1.253c0.203 0.203 0.203 0.532 0 0.735-0.102 0.102-0.235 0.152-0.368 0.152z"></path>
</svg>
