<!-- Generated by IcoMoon.io -->
<svg version="1.1" xmlns="http://www.w3.org/2000/svg" width="20" height="20" viewBox="0 0 20 20">
<title>indicator_virtual_states</title>
<path fill="#fcfcfc" d="M0.519 0.519h18.963v18.963h-18.963v-18.963z"></path>
<path fill="#4f4f4f" d="M0.296 0.296h19.407v19.407h-19.407v-19.407zM0.741 0.741v18.519h18.519v-18.519h-18.519z"></path>
<path fill="#2488ff" d="M3.983 13.518c-0.073 0.051-0.171 0.109-0.295 0.176s-0.278 0.15-0.463 0.252c-0.173 0.098-0.317 0.197-0.431 0.299s-0.205 0.212-0.271 0.331c-0.067 0.119-0.114 0.251-0.142 0.396s-0.041 0.309-0.041 0.492h2.938v-0.844h-1.605c0.035-0.039 0.087-0.083 0.156-0.132s0.144-0.098 0.224-0.147c0.081-0.049 0.162-0.097 0.245-0.144s0.153-0.088 0.212-0.123c0.086-0.051 0.171-0.106 0.254-0.167s0.157-0.131 0.224-0.211c0.067-0.080 0.121-0.171 0.162-0.273s0.062-0.217 0.062-0.346c0-0.313-0.113-0.561-0.339-0.744s-0.552-0.275-0.977-0.275c-0.173 0-0.339 0.016-0.499 0.047s-0.306 0.073-0.44 0.126c-0.134 0.053-0.254 0.112-0.36 0.179s-0.191 0.135-0.254 0.205l0.602 0.692c0.114-0.129 0.232-0.233 0.354-0.313s0.266-0.12 0.431-0.12c0.145 0 0.258 0.033 0.336 0.1s0.118 0.154 0.118 0.264c0 0.055-0.016 0.103-0.047 0.144s-0.084 0.087-0.156 0.138l0-0z"></path>
<path fill="#2488ff" d="M3.126 5.907c0.092-0.041 0.176-0.086 0.251-0.135s0.13-0.097 0.165-0.144v1.494h-0.838v0.844h2.549v-0.844h-0.749v-2.502h-0.962c-0.020 0.039-0.069 0.090-0.148 0.152s-0.167 0.124-0.266 0.185c-0.098 0.061-0.198 0.112-0.298 0.155s-0.182 0.064-0.245 0.064v0.867c0.075 0 0.16-0.013 0.257-0.038s0.191-0.059 0.283-0.1l0-0z"></path>
<path fill="#005ece" d="M6.282 7.229h10.924v1.938h-10.924v-1.938z"></path>
<path fill="#005ece" d="M6.282 3.352h10.924v1.938h-10.924v-1.938z"></path>
<path fill="#005ece" d="M6.282 14.983h10.924v1.938h-10.924v-1.938z"></path>
<path fill="#005ece" d="M6.282 11.106h10.924v1.938h-10.924v-1.938z"></path>
</svg>
