<!-- Generated by IcoMoon.io -->
<svg version="1.1" xmlns="http://www.w3.org/2000/svg" width="20" height="20" viewBox="0 0 20 20">
<title>indicator_not_observable</title>
<path fill="#fcfcfc" d="M0.519 0.519h18.963v18.963h-18.963v-18.963z"></path>
<path fill="#4f4f4f" d="M0.296 0.296h19.407v19.407h-19.407v-19.407zM0.741 0.741v18.519h18.519v-18.519h-18.519z"></path>
<path fill="#e7eced" d="M18.632 10.3l-2.217 2.217c-3.529 3.53-9.251 3.53-12.78 0l-2.277-2.278 2.217-2.217c3.529-3.53 9.251-3.53 12.78 0l2.277 2.278z"></path>
<path fill="#444" d="M18.957 10.625c0 0-2.217 2.217-2.217 2.217-3.709 3.71-9.721 3.71-13.43 0l-2.277-2.278c-0.179-0.18-0.179-0.47 0-0.65 0 0 2.217-2.217 2.217-2.217 3.709-3.71 9.721-3.71 13.43 0l2.277 2.278c0.179 0.18 0.179 0.47 0 0.65zM17.982 10.3l-1.952-1.953c-3.349-3.35-8.78-3.35-12.129 0l-1.892 1.892 1.952 1.953c3.349 3.35 8.78 3.35 12.129 0l1.892-1.892z"></path>
<path fill="#3083c9" d="M13.664 10.261c0 2.031-1.646 3.678-3.677 3.678s-3.677-1.647-3.677-3.678c0-2.031 1.646-3.678 3.677-3.678s3.677 1.647 3.677 3.678z"></path>
<path fill="#c00044" d="M6.56 17.215l8.894-13.089c0.236-0.347 0.146-0.821-0.202-1.057s-0.821-0.146-1.057 0.202l-8.894 13.089c-0.236 0.347-0.146 0.821 0.202 1.057s0.821 0.146 1.057-0.202z"></path>
<path fill="#fff" d="M7.702 10.759c-0.221 0-0.4-0.179-0.4-0.4 0-1.544 1.255-2.8 2.799-2.8 0.221 0 0.4 0.179 0.4 0.4s-0.179 0.4-0.4 0.4c-1.102 0-1.999 0.897-1.999 2 0 0.221-0.179 0.4-0.4 0.4h-0z"></path>
</svg>
