<!-- Generated by IcoMoon.io -->
<svg version="1.1" xmlns="http://www.w3.org/2000/svg" width="20" height="20" viewBox="0 0 20 20">
<title>indicator_expertise</title>
<path fill="#4f4f4f" d="M19.704 0.296v19.407h-19.407v-19.407h19.407zM0.741 0.741v18.519h18.519v-18.519h-18.519z"></path>
<path fill="#fff" d="M0.741 0.741h18.519v18.519h-18.519v-18.519z"></path>
<path fill="#155a8e" d="M12.137 6.14l0-0.001-4.046 0c-0.531 0.004-0.96 0.435-0.96 0.966v4.437c0 0.3 0.243 0.543 0.543 0.543h0.706l0.197 4.048c0.040 0.828 0.724 1.479 1.553 1.479 0.812 0 1.48-0.637 1.52-1.448l0.198-4.079h0.662c0.3 0 0.543-0.243 0.543-0.543v-4.437c0-0.517-0.405-0.939-0.916-0.965z"></path>
<path fill="#124d7a" d="M12.137 6.142l0-0.001h-2.045v11.472c0.013 0 0.025 0.001 0.038 0.001 0.812 0 1.48-0.637 1.52-1.448l0.198-4.079h0.662c0.3 0 0.543-0.243 0.543-0.543v-4.437c0-0.517-0.406-0.939-0.916-0.965z"></path>
<path fill="#1a6faf" d="M11.675 4.039c0 0.855-0.693 1.549-1.549 1.549s-1.549-0.693-1.549-1.549c0-0.855 0.693-1.549 1.549-1.549s1.549 0.693 1.549 1.549z"></path>
<path fill="#17649d" d="M10.13 2.493v3.098c0.855 0 1.549-0.693 1.549-1.549s-0.693-1.549-1.549-1.549z"></path>
</svg>
