<!-- Generated by IcoMoon.io -->
<svg version="1.1" xmlns="http://www.w3.org/2000/svg" width="20" height="20" viewBox="0 0 20 20">
<title>indicator_missing_value</title>
<path fill="#fcfcfc" d="M0.519 0.519h18.963v18.963h-18.963v-18.963z"></path>
<path fill="#4f4f4f" d="M0.296 0.296h19.407v19.407h-19.407v-19.407zM0.741 0.741v18.519h18.519v-18.519h-18.519z"></path>
<path fill="#0c8234" d="M4.3 6.469c0-0.652 0.239-1.311 0.718-1.976 0.479-0.672 1.178-1.228 2.096-1.667s1.99-0.659 3.215-0.659c1.138 0 2.143 0.185 3.015 0.556 0.872 0.364 1.543 0.861 2.014 1.492 0.479 0.631 0.718 1.317 0.718 2.059 0 0.583-0.137 1.094-0.412 1.534-0.267 0.439-0.589 0.82-0.966 1.143-0.369 0.316-1.036 0.851-2.002 1.606-0.267 0.213-0.483 0.401-0.648 0.566-0.157 0.158-0.275 0.305-0.353 0.443-0.079 0.13-0.141 0.264-0.188 0.401-0.039 0.13-0.102 0.364-0.188 0.7-0.149 0.714-0.616 1.070-1.401 1.070-0.408 0-0.754-0.117-1.036-0.35-0.275-0.233-0.412-0.58-0.412-1.040 0-0.576 0.102-1.074 0.306-1.492 0.204-0.425 0.475-0.796 0.813-1.112 0.338-0.323 0.793-0.703 1.366-1.143 0.502-0.384 0.864-0.672 1.083-0.865 0.228-0.199 0.416-0.419 0.565-0.659 0.157-0.24 0.236-0.501 0.236-0.782 0-0.549-0.236-1.012-0.707-1.39-0.463-0.377-1.064-0.566-1.802-0.566-0.864 0-1.5 0.192-1.908 0.576-0.408 0.377-0.754 0.937-1.036 1.678-0.267 0.775-0.773 1.163-1.519 1.163-0.44 0-0.813-0.134-1.119-0.401-0.298-0.274-0.448-0.57-0.448-0.885l0-0zM10.047 17.75c-0.479 0-0.899-0.134-1.26-0.401-0.353-0.274-0.53-0.655-0.53-1.143 0-0.432 0.173-0.796 0.518-1.091s0.769-0.443 1.272-0.443c0.495 0 0.911 0.148 1.248 0.443s0.506 0.659 0.506 1.091c0 0.48-0.177 0.858-0.53 1.132s-0.762 0.412-1.225 0.412z"></path>
<path fill="#12ae46" d="M4.3 6.469c0-0.652 0.239-1.311 0.718-1.976 0.479-0.672 1.178-1.228 2.096-1.667s1.99-0.659 3.215-0.659c1.138 0 2.143 0.185 3.015 0.556 0.872 0.364 1.543 0.861 2.014 1.492 0.479 0.631 0.718 1.317 0.718 2.059 0 0.583-0.137 1.094-0.412 1.534-0.267 0.439-0.589 0.82-0.966 1.143-0.369 0.316-1.036 0.851-2.002 1.606-0.267 0.213-0.483 0.401-0.648 0.566-0.157 0.158-0.275 0.305-0.353 0.443-0.079 0.13-0.141 0.264-0.188 0.401-0.039 0.13-0.102 0.364-0.188 0.7-0.149 0.714-0.616 1.070-1.401 1.070-0.408 0-0.754-0.117-1.036-0.35-0.275-0.233-0.412-0.58-0.412-1.040 0-0.576 0.102-1.074 0.306-1.492 0.204-0.425 0.475-0.796 0.813-1.112 0.338-0.323 0.793-0.703 1.366-1.143 0.502-0.384 0.864-0.672 1.083-0.865 0.228-0.199 0.416-0.419 0.565-0.659 0.157-0.24 0.236-0.501 0.236-0.782 0-0.549-0.236-1.012-0.707-1.39-0.463-0.377-1.064-0.566-1.802-0.566-0.864 0-1.5 0.192-1.908 0.576-0.408 0.377-0.754 0.937-1.036 1.678-0.267 0.775-0.773 1.163-1.519 1.163-0.44 0-0.813-0.134-1.119-0.401-0.298-0.274-0.448-0.57-0.448-0.885l0-0zM10.047 17.75c-0.479 0-0.899-0.134-1.26-0.401-0.353-0.274-0.53-0.655-0.53-1.143 0-0.432 0.173-0.796 0.518-1.091s0.769-0.443 1.272-0.443c0.495 0 0.911 0.148 1.248 0.443s0.506 0.659 0.506 1.091c0 0.48-0.177 0.858-0.53 1.132s-0.762 0.412-1.225 0.412z"></path>
</svg>
