<!-- Generated by IcoMoon.io -->
<svg version="1.1" xmlns="http://www.w3.org/2000/svg" width="20" height="20" viewBox="0 0 20 20">
<title>indicator_formula</title>
<path fill="#fcfcfc" d="M0.519 0.519h18.963v18.963h-18.963v-18.963z"></path>
<path fill="#4f4f4f" d="M19.704 0.296v19.407h-19.407v-19.407h19.407zM0.741 0.741v18.519h18.519v-18.519h-18.519z"></path>
<path fill="#000" d="M5.749 8.218c0.106 0.004 0.207 0.008 0.305 0.010 0.099 0.002 0.191 0.004 0.276 0.007 0.087 0 0.164 0.001 0.232 0.003h0.178c0.097 0 0.189-0.003 0.276-0.010s0.161-0.013 0.222-0.020c0.023 0.083 0.035 0.148 0.035 0.196 0 0.096-0.039 0.159-0.117 0.19-0.076 0.030-0.187 0.046-0.333 0.046s-0.309-0.008-0.489-0.023c-0.18-0.017-0.378-0.034-0.593-0.049-0.008 0.259-0.019 0.542-0.032 0.847s-0.030 0.621-0.051 0.948c-0.019 0.327-0.043 0.659-0.073 0.997-0.030 0.336-0.067 0.664-0.111 0.984-0.042 0.32-0.093 0.625-0.152 0.915-0.059 0.292-0.128 0.557-0.206 0.794-0.125 0.373-0.266 0.683-0.422 0.932-0.157 0.251-0.324 0.451-0.501 0.602-0.176 0.153-0.358 0.26-0.546 0.324-0.19 0.065-0.38 0.098-0.568 0.098-0.163 0-0.313-0.018-0.451-0.056-0.14-0.037-0.26-0.087-0.362-0.15s-0.181-0.137-0.238-0.222c-0.059-0.083-0.089-0.171-0.089-0.265 0-0.052 0.012-0.105 0.035-0.157 0.023-0.050 0.056-0.095 0.098-0.134 0.040-0.039 0.089-0.072 0.146-0.098 0.055-0.024 0.115-0.036 0.181-0.036 0.061 0.113 0.129 0.209 0.203 0.288 0.074 0.081 0.153 0.146 0.238 0.196 0.085 0.052 0.172 0.090 0.263 0.114s0.183 0.036 0.276 0.036c0.243 0 0.45-0.082 0.619-0.245 0.171-0.161 0.314-0.391 0.428-0.69 0.116-0.296 0.207-0.655 0.273-1.076s0.115-0.888 0.149-1.403c0.036-0.517 0.059-1.073 0.070-1.671 0.013-0.599 0.021-1.227 0.025-1.883-0.199 0.002-0.383 0.010-0.552 0.023s-0.311 0.041-0.425 0.085c-0.008-0.020-0.013-0.040-0.013-0.062 0-0.052 0.024-0.1 0.073-0.144 0.049-0.046 0.116-0.086 0.203-0.121 0.089-0.035 0.195-0.063 0.317-0.085 0.125-0.022 0.262-0.036 0.413-0.042 0.008-0.205 0.019-0.4 0.032-0.585 0.013-0.187 0.029-0.372 0.048-0.553 0.021-0.183 0.047-0.366 0.076-0.549s0.067-0.373 0.111-0.569c0.057-0.255 0.131-0.484 0.222-0.687 0.091-0.205 0.194-0.386 0.308-0.543 0.116-0.159 0.241-0.295 0.374-0.409 0.135-0.113 0.274-0.206 0.416-0.278 0.142-0.074 0.286-0.127 0.432-0.16 0.146-0.035 0.289-0.052 0.428-0.052 0.205 0 0.387 0.028 0.546 0.085 0.161 0.054 0.296 0.127 0.406 0.219 0.112 0.089 0.197 0.191 0.254 0.304 0.059 0.113 0.089 0.229 0.089 0.347 0 0.092-0.015 0.173-0.044 0.245-0.028 0.072-0.067 0.133-0.117 0.183-0.049 0.048-0.106 0.085-0.171 0.111s-0.135 0.039-0.209 0.039c-0.097 0-0.2-0.025-0.308-0.075l-0.013-0.036c0.040-0.096 0.070-0.18 0.089-0.252 0.021-0.072 0.032-0.146 0.032-0.222 0-0.105-0.021-0.194-0.063-0.268-0.040-0.076-0.094-0.138-0.162-0.186-0.066-0.048-0.14-0.083-0.222-0.105-0.080-0.022-0.161-0.033-0.241-0.033-0.237 0-0.438 0.054-0.603 0.163-0.163 0.109-0.299 0.259-0.409 0.451-0.108 0.19-0.194 0.414-0.257 0.673-0.063 0.257-0.112 0.535-0.146 0.834-0.032 0.299-0.055 0.611-0.070 0.938-0.013 0.325-0.024 0.649-0.035 0.974v0z"></path>
<path fill="#000" d="M10.211 14.799c-0.059 0.074-0.121 0.127-0.184 0.16s-0.13 0.049-0.2 0.049c-0.104 0-0.206-0.027-0.308-0.082-0.102-0.052-0.209-0.134-0.324-0.245-0.163-0.163-0.315-0.354-0.457-0.572s-0.271-0.454-0.387-0.709c-0.114-0.253-0.217-0.521-0.308-0.804-0.089-0.283-0.165-0.573-0.228-0.87-0.061-0.296-0.108-0.595-0.14-0.896-0.032-0.303-0.048-0.599-0.048-0.889 0-0.558 0.047-1.111 0.14-1.658 0.095-0.547 0.236-1.079 0.422-1.595 0.188-0.519 0.421-1.017 0.698-1.494 0.279-0.48 0.604-0.932 0.974-1.357l0.225 0.183c-0.305 0.386-0.573 0.799-0.806 1.239-0.231 0.44-0.424 0.899-0.581 1.376s-0.275 0.969-0.355 1.475c-0.078 0.503-0.117 1.011-0.117 1.523 0 0.303 0.015 0.612 0.044 0.929 0.032 0.314 0.080 0.627 0.146 0.938s0.15 0.619 0.254 0.922c0.104 0.303 0.228 0.593 0.374 0.87 0.148 0.279 0.317 0.542 0.508 0.788 0.193 0.246 0.409 0.469 0.651 0.667l0.006 0.052z"></path>
<path fill="#000" d="M10.579 8.319c0.146-0.050 0.285-0.096 0.416-0.137s0.251-0.076 0.359-0.105c0.108-0.031 0.201-0.053 0.279-0.069 0.080-0.015 0.143-0.023 0.187-0.023 0.066 0 0.127 0.010 0.184 0.029 0.059 0.020 0.115 0.058 0.168 0.114 0.055 0.057 0.108 0.135 0.159 0.235 0.053 0.1 0.106 0.23 0.159 0.389 0.063 0.192 0.127 0.374 0.19 0.546 0.063 0.17 0.125 0.34 0.184 0.51 0.135-0.277 0.27-0.529 0.403-0.755 0.135-0.229 0.271-0.423 0.406-0.582 0.137-0.161 0.276-0.286 0.416-0.373 0.142-0.089 0.287-0.134 0.435-0.134 0.095 0 0.179 0.015 0.251 0.046 0.072 0.028 0.132 0.066 0.181 0.114 0.051 0.048 0.088 0.105 0.111 0.17 0.025 0.063 0.038 0.129 0.038 0.196 0 0.092-0.022 0.183-0.067 0.275-0.044 0.089-0.112 0.166-0.203 0.229h-0.025c-0.038-0.048-0.078-0.086-0.121-0.114-0.040-0.030-0.081-0.053-0.124-0.069-0.042-0.017-0.085-0.028-0.127-0.033-0.040-0.007-0.079-0.010-0.117-0.010-0.125 0-0.245 0.037-0.362 0.111-0.114 0.072-0.225 0.173-0.333 0.304-0.108 0.129-0.214 0.281-0.317 0.458-0.102 0.177-0.203 0.369-0.305 0.579 0.099 0.281 0.19 0.529 0.273 0.742 0.085 0.214 0.164 0.399 0.238 0.556 0.074 0.155 0.146 0.284 0.216 0.389s0.141 0.189 0.213 0.252c0.072 0.063 0.147 0.108 0.225 0.134s0.164 0.039 0.257 0.039c0.063 0 0.122-0.002 0.175-0.007 0.055-0.004 0.108-0.011 0.159-0.020 0.053-0.011 0.108-0.025 0.165-0.042s0.121-0.039 0.19-0.065l0.063 0.186c-0.102 0.072-0.211 0.138-0.327 0.199-0.116 0.059-0.234 0.109-0.352 0.15-0.118 0.044-0.235 0.076-0.349 0.098-0.112 0.024-0.217 0.036-0.314 0.036-0.138 0-0.261-0.035-0.371-0.105-0.108-0.068-0.212-0.175-0.311-0.324-0.097-0.15-0.196-0.341-0.295-0.572-0.099-0.233-0.209-0.513-0.33-0.84-0.15 0.275-0.299 0.526-0.447 0.755-0.146 0.229-0.293 0.426-0.441 0.592-0.148 0.163-0.297 0.291-0.447 0.383-0.148 0.092-0.298 0.137-0.451 0.137-0.093 0-0.175-0.013-0.244-0.039s-0.128-0.061-0.175-0.105c-0.047-0.044-0.081-0.094-0.105-0.15-0.025-0.059-0.038-0.12-0.038-0.183 0-0.074 0.016-0.149 0.048-0.226s0.079-0.149 0.143-0.219c0.114 0.044 0.216 0.074 0.305 0.092 0.091 0.017 0.174 0.026 0.248 0.026 0.135 0 0.266-0.035 0.39-0.105s0.246-0.168 0.365-0.294c0.118-0.129 0.236-0.283 0.352-0.464s0.234-0.382 0.352-0.605c-0.038-0.105-0.077-0.213-0.117-0.324-0.038-0.111-0.079-0.228-0.124-0.35-0.044-0.124-0.091-0.255-0.14-0.392-0.049-0.139-0.1-0.288-0.156-0.445-0.049-0.133-0.097-0.241-0.146-0.324-0.047-0.085-0.097-0.151-0.152-0.199-0.053-0.048-0.111-0.081-0.175-0.098-0.061-0.017-0.13-0.026-0.206-0.026-0.068 0-0.148 0.009-0.241 0.026-0.091 0.015-0.19 0.035-0.298 0.059l-0.048-0.232z"></path>
<path fill="#000" d="M15.244 4.049c0.059-0.074 0.121-0.127 0.184-0.16s0.13-0.049 0.2-0.049c0.104 0 0.206 0.027 0.308 0.082 0.102 0.052 0.209 0.134 0.324 0.245 0.163 0.166 0.314 0.357 0.454 0.575 0.142 0.216 0.27 0.451 0.384 0.706 0.116 0.253 0.22 0.521 0.311 0.804s0.167 0.573 0.228 0.87c0.061 0.294 0.108 0.593 0.14 0.896 0.034 0.301 0.051 0.597 0.051 0.889 0 0.56-0.048 1.114-0.143 1.661-0.093 0.545-0.234 1.077-0.422 1.595-0.186 0.517-0.419 1.013-0.698 1.491-0.277 0.48-0.601 0.932-0.971 1.357l-0.225-0.183c0.305-0.386 0.572-0.799 0.803-1.239 0.233-0.44 0.427-0.899 0.584-1.376s0.274-0.968 0.352-1.471c0.080-0.506 0.121-1.015 0.121-1.527 0-0.303-0.016-0.611-0.048-0.925-0.030-0.316-0.077-0.63-0.143-0.942s-0.151-0.618-0.257-0.919c-0.104-0.303-0.228-0.593-0.375-0.87-0.146-0.279-0.315-0.542-0.508-0.788-0.19-0.246-0.406-0.47-0.647-0.67l-0.006-0.052z"></path>
</svg>
