<!-- Generated by IcoMoon.io -->
<svg version="1.1" xmlns="http://www.w3.org/2000/svg" width="20" height="20" viewBox="0 0 20 20">
<title>information</title>
<path fill="#3897ff" d="M2.5 10c0 4.136 3.364 7.5 7.5 7.5l0.789-7.5-0.789-7.5c-4.136 0-7.5 3.364-7.5 7.5z"></path>
<path fill="#2d79cc" d="M10 2.5v15c4.136 0 7.5-3.364 7.5-7.5s-3.364-7.5-7.5-7.5z"></path>
<path fill="#fff" d="M8.816 6.053c0 0.654 0.53 1.184 1.184 1.184l0.395-1.184-0.395-1.184c-0.654 0-1.184 0.53-1.184 1.184z"></path>
<path fill="#bfdcff" d="M10 4.868v2.368c0.654 0 1.184-0.53 1.184-1.184s-0.53-1.184-1.184-1.184z"></path>
<path fill="#fff" d="M10 8.816h-1.184v6.316h1.184l0.395-3.158z"></path>
<path fill="#bfdcff" d="M10 8.816h1.184v6.316h-1.184v-6.316z"></path>
</svg>
