<!-- Generated by IcoMoon.io -->
<svg version="1.1" xmlns="http://www.w3.org/2000/svg" width="20" height="20" viewBox="0 0 20 20">
<title>information-icon</title>
<path fill="#4b4b4b" d="M10 0.156c-5.434 0-9.844 4.41-9.844 9.844s4.41 9.844 9.844 9.844c5.434 0 9.844-4.41 9.844-9.844s-4.41-9.844-9.844-9.844zM10 1.671c4.598 0 8.329 3.732 8.329 8.329s-3.732 8.329-8.329 8.329c-4.598 0-8.329-3.732-8.329-8.329s3.732-8.329 8.329-8.329z"></path>
<path fill="#4b4b4b" d="M11.514 5.646c0 0.941-0.763 1.704-1.704 1.704s-1.704-0.763-1.704-1.704v0c0-0 0-0 0-0 0-0.941 0.763-1.704 1.704-1.704s1.704 0.763 1.704 1.704c0 0 0 0 0 0v-0z"></path>
<path fill="#4b4b4b" d="M11.615 14.689c-0.011 0.413 0.183 0.53 0.655 0.578l0.758 0.015v0.775h-5.917v-0.775l0.833-0.015c0.498-0.015 0.618-0.209 0.655-0.578v-4.666c0.005-0.739-0.953-0.623-1.629-0.601v-0.768l4.644-0.167z"></path>
<path fill="#fff" d="M7.99 18.033c-2.965-0.778-5.21-3.023-6.008-6.010-0.278-1.041-0.305-2.85-0.058-3.875 0.806-3.338 3.516-5.816 6.947-6.349 1.891-0.294 4.094 0.223 5.768 1.353 1.622 1.095 2.873 2.866 3.385 4.79 0.3 1.128 0.298 2.953-0.004 4.081-0.807 3.010-3.061 5.25-6.049 6.015-1.038 0.266-2.957 0.263-3.979-0.005v0zM13.080 15.68v-0.398l-0.558-0.046c-0.93-0.077-0.879 0.129-0.879-3.534v-3.222l-0.744 0c-0.409 0-1.472 0.031-2.361 0.067l-1.617 0.067v0.915l0.358-0.067c0.443-0.083 1.14 0.094 1.223 0.31 0.034 0.089 0.062 1.287 0.062 2.663 0 2.468-0.003 2.503-0.228 2.661-0.137 0.096-0.446 0.16-0.77 0.16h-0.542v0.821h6.058v-0.398zM10.72 7.12c0.493-0.335 0.733-0.71 0.792-1.234 0.102-0.907-0.427-1.686-1.305-1.923-1.498-0.403-2.709 1.373-1.821 2.673 0.487 0.714 1.644 0.954 2.334 0.484z"></path>
<path fill="#fff" d="M7.949 18.022c-4.011-1.050-6.706-4.998-6.164-9.031 0.512-3.807 3.449-6.727 7.25-7.207 4.053-0.512 7.917 2.136 8.991 6.162 0.325 1.219 0.3 3.064-0.057 4.262-0.881 2.95-3.058 5.077-5.957 5.818-1.102 0.282-2.977 0.28-4.063-0.005v0zM13.080 15.68v-0.398l-0.558-0.046c-0.93-0.077-0.879 0.129-0.879-3.534v-3.222h-0.651c-0.358 0-1.421 0.030-2.361 0.068l-1.71 0.067v0.901l0.343-0.064c0.43-0.081 1.156 0.107 1.238 0.321 0.034 0.089 0.062 1.287 0.062 2.663 0 2.468-0.003 2.503-0.228 2.661-0.137 0.096-0.446 0.16-0.77 0.16h-0.542v0.821h6.058zM10.581 7.183c1.038-0.493 1.273-1.85 0.467-2.696-1.468-1.541-3.79 0.304-2.672 2.123 0.409 0.666 1.443 0.935 2.205 0.573z"></path>
</svg>
