<!-- Generated by IcoMoon.io -->
<svg version="1.1" xmlns="http://www.w3.org/2000/svg" width="24" height="20" viewBox="0 0 24 20">
<title>junction-tree</title>
<path fill="#112a82" d="M10.98 2.776h1.49v7.672h-1.49v-7.672z"></path>
<path fill="#112a82" d="M11.344 9.473l1.127 0.975-5.021 5.801-1.127-0.975 5.021-5.801z"></path>
<path fill="#112a82" d="M12.107 9.473l-1.127 0.975 5.021 5.801 1.127-0.975-5.021-5.801z"></path>
<path fill="#fcca4e" d="M15.8 1.091h-8.299v3.935h8.299v-3.935z"></path>
<path fill="#112a82" d="M7.138 0.727h9.026v4.662h-9.026v-4.662zM7.865 1.455v3.208h7.571v-3.208h-7.571z"></path>
<path fill="#fcca4e" d="M15.847 7.984h-8.299v3.935h8.299v-3.935z"></path>
<path fill="#112a82" d="M7.185 7.62h9.026v4.662h-9.026v-4.662zM7.912 8.347v3.208h7.571v-3.208h-7.571z"></path>
<path fill="#fcca4e" d="M9.39 14.938h-8.299v3.935h8.299v-3.935z"></path>
<path fill="#112a82" d="M0.727 14.574h9.026v4.662h-9.026v-4.662zM1.455 15.301v3.208h7.571v-3.208h-7.571z"></path>
<path fill="#fcca4e" d="M22.47 14.938h-8.299v3.935h8.299v-3.935z"></path>
<path fill="#112a82" d="M13.808 14.574h9.026v4.662h-9.026v-4.662zM14.535 15.301v3.208h7.571v-3.208h-7.571z"></path>
</svg>
