<!-- Generated by IcoMoon.io -->
<svg version="1.1" xmlns="http://www.w3.org/2000/svg" width="20" height="20" viewBox="0 0 20 20">
<title>learning</title>
<path fill="#a3b1c4" d="M7.391 6.957v6.087h4.13l-0.435-4.783z"></path>
<path fill="#8799b3" d="M14.783 9.565l-3.696-1.304v4.783h4.13z"></path>
<path fill="#a3b1c4" d="M0 6.957v6.087h4.13l-0.435-4.783z"></path>
<path fill="#8799b3" d="M7.391 9.565l-3.696-1.304v4.783h3.696z"></path>
<path fill="#6b81a1" d="M14.783 0v12.609h-14.783v7.391h17.391l0.435-10-0.435-10z"></path>
<path fill="#354a67" d="M10.87 13.913h3.913v6.087h-3.913v-6.087z"></path>
<path fill="#fff" d="M1.304 13.913v3.913h4.13l0.435-1.957-0.435-1.957z"></path>
<path fill="#ffeac3" d="M5.435 13.913h4.13v3.913h-4.13v-3.913z"></path>
<path fill="#466289" d="M17.391 0h2.609v20h-2.609v-20z"></path>
</svg>
