<!-- Generated by IcoMoon.io -->
<svg version="1.1" xmlns="http://www.w3.org/2000/svg" width="20" height="20" viewBox="0 0 20 20">
<title>lens</title>
<path fill="#334a5e" d="M15.899 14.141l-1.802 1.791-1.439-1.448 1.802-1.791 1.439 1.448z"></path>
<path fill="#40596b" d="M14.033 2.411c-3.207-3.207-8.373-3.207-11.58-0.042s-3.207 8.373-0.042 11.58 8.373 3.207 11.58 0.042 3.208-8.373 0.042-11.58z"></path>
<path fill="#f2f2f2" d="M3.661 12.7c-2.499-2.499-2.499-6.582 0.042-9.081 2.499-2.499 6.582-2.499 9.081 0.042 2.499 2.499 2.499 6.582-0.042 9.081-2.499 2.499-6.582 2.499-9.081-0.042z"></path>
<path fill="#54c0eb" d="M12.075 12.075c-2.124 2.083-5.624 2.083-7.706-0.042-2.124-2.124-2.124-5.582 0.042-7.706s5.54-2.124 7.665 0c2.124 2.166 2.124 5.624-0 7.748z"></path>
<path fill="#40596b" d="M10.742 10.742c-1.375 1.375-3.624 1.375-5.040 0-1.375-1.375-1.375-3.624 0-5.040 1.375-1.375 3.624-1.375 5.040 0 1.416 1.416 1.416 3.666 0 5.040z"></path>
<path fill="#ff7058" d="M19.24 15.824l-2.583-2.583c-0.167-0.167-0.417-0.167-0.583 0l-2.874 2.874c-0.167 0.167-0.167 0.417 0 0.583l2.583 2.583c0.958 0.958 2.499 0.958 3.457 0s0.958-2.499 0-3.457z"></path>
<path fill="#fff" d="M7.701 5.827c0 0.621-0.504 1.125-1.125 1.125s-1.125-0.504-1.125-1.125c0-0.621 0.504-1.125 1.125-1.125s1.125 0.504 1.125 1.125z"></path>
<path fill="#fff" d="M8.743 7.285c0 0.368-0.298 0.667-0.667 0.667s-0.667-0.298-0.667-0.667c0-0.368 0.298-0.667 0.667-0.667s0.667 0.298 0.667 0.667z"></path>
</svg>
