<!-- Generated by IcoMoon.io -->
<svg version="1.1" xmlns="http://www.w3.org/2000/svg" width="20" height="20" viewBox="0 0 20 20">
<title>link</title>
<path d="M18.625 1.375c-1.75-1.75-4.625-1.75-6.375 0l-5.5 5.375c-1.75 1.875-1.75 4.625 0 6.5 0.125 0.125 0.375 0.25 0.5 0.375l1.875-1.875c-0.125-0.125-0.375-0.25-0.5-0.375-0.75-0.75-0.75-2 0-2.75l5.5-5.5c0.75-0.75 2-0.75 2.75 0s0.75 2 0 2.75l-1.625 1.625c0.5 1 0.625 2.125 0.5 3.125l2.875-2.875c1.875-1.75 1.875-4.625 0-6.375z"></path>
<path d="M12.75 6.375l-1.875 1.875c0 0 0.375 0.25 0.5 0.375 0.75 0.75 0.75 2 0 2.75l-5.5 5.5c-0.75 0.75-2 0.75-2.75 0s-0.75-2 0-2.75l1.625-1.625c-0.5-1-0.125-1.625-0.5-3.125l-2.875 2.875c-1.75 1.75-1.75 4.625 0 6.375s4.625 1.75 6.375 0l5.5-5.5c1.75-1.75 1.75-4.625 0-6.375-0.25-0.125-0.5-0.375-0.5-0.375z"></path>
</svg>
