<!-- Generated by IcoMoon.io -->
<svg version="1.1" xmlns="http://www.w3.org/2000/svg" width="16" height="20" viewBox="0 0 16 20">
<title>local-structural-coefficient</title>
<path fill="#3a2c51" d="M10.895 17.237l1.879-4.487 1.912 4.487h0.761c0.113 0 0.227 0.032 0.324 0.097l-2.56-5.978v-0.016c0 0 0-0.016-0.016-0.016-0.016-0.016-0.016-0.032-0.032-0.049l-0.081-0.081c-0.016-0.016-0.049-0.032-0.065-0.049 0 0-0.016 0-0.016-0.016-0.016-0.016-0.032-0.016-0.049-0.032 0 0-0.016 0-0.016-0.016-0.032-0.016-0.049-0.016-0.081-0.016l-3.191-0.47c0.016 0.081 0.016 0.162 0.016 0.243 0 0.259-0.065 0.486-0.178 0.697l2.608 0.389-2.317 5.411c0.097-0.065 0.194-0.097 0.324-0.097-0-0 0.778-0 0.778-0z"></path>
<path fill="#3a2c51" d="M8.708 9.477v-1.49c0-0.259-0.211-0.47-0.47-0.47s-0.47 0.211-0.47 0.47v1.49c0.146-0.049 0.308-0.081 0.47-0.081s0.324 0.032 0.47 0.081z"></path>
<path fill="#3a2c51" d="M6.942 10.222l-3.337-0.486h-0.113c-0.016 0-0.032 0-0.049 0.016h-0.032c-0.032 0-0.049 0.016-0.081 0.032 0 0-0.016 0-0.016 0.016-0.016 0.016-0.032 0.016-0.049 0.032l-0.016 0.016c-0.016 0.016-0.032 0.032-0.049 0.032l-0.016 0.016c-0.016 0.016-0.032 0.049-0.049 0.065 0 0 0 0.016-0.016 0.016-0.016 0.016-0.016 0.032-0.016 0.049l-2.56 5.881c0.097-0.065 0.211-0.113 0.324-0.113h0.778l1.912-4.406 1.912 4.406h0.729c0.13 0 0.243 0.049 0.34 0.113l-2.219-5.103 2.527 0.373c-0.032-0.113-0.049-0.227-0.049-0.34 0-0.227 0.049-0.437 0.146-0.616z"></path>
<path fill="#7f7fa5" d="M9.729 10.578c-0.081-0.535-0.47-1.004-1.004-1.166-0.146-0.049-0.324-0.081-0.486-0.081s-0.34 0.032-0.486 0.081c-0.373 0.13-0.697 0.405-0.859 0.778-0.097 0.211-0.146 0.421-0.146 0.648 0 0.113 0.016 0.243 0.049 0.356 0.146 0.664 0.761 1.15 1.458 1.15 0.551 0 1.069-0.324 1.328-0.778 0.113-0.227 0.178-0.454 0.178-0.729-0.016-0.081-0.032-0.162-0.032-0.259z"></path>
<path fill="#44a8d1" d="M15.966 17.577c-0.032-0.097-0.113-0.194-0.194-0.243-0.097-0.065-0.211-0.097-0.324-0.097h-5.33c-0.113 0-0.227 0.032-0.324 0.097-0.081 0.065-0.146 0.146-0.194 0.243-0.081 0.211-0.032 0.454 0.113 0.599l0.405 0.405c0.713 0.713 1.652 1.102 2.657 1.102s1.944-0.389 2.657-1.102l0.405-0.405c0.162-0.146 0.211-0.389 0.13-0.599z"></path>
<path fill="#44a8d1" d="M6.197 15.795h-5.33c-0.13 0-0.243 0.032-0.324 0.113-0.081 0.065-0.146 0.13-0.194 0.227-0.081 0.211-0.032 0.454 0.113 0.599l0.405 0.405c0.713 0.713 1.652 1.102 2.657 1.102s1.944-0.389 2.657-1.102l0.405-0.405c0.162-0.162 0.211-0.405 0.113-0.599-0.032-0.097-0.081-0.162-0.162-0.227-0.097-0.065-0.211-0.113-0.34-0.113z"></path>
<path fill="#397ba0" d="M12.243 4.651c0 2.18-1.767 3.946-3.946 3.946s-3.946-1.767-3.946-3.946c0-2.18 1.767-3.946 3.946-3.946s3.946 1.767 3.946 3.946z"></path>
<path fill="#0e358e" d="M8.297 0.31c-2.396 0-4.341 1.945-4.341 4.341s1.945 4.341 4.341 4.341c2.396 0 4.341-1.945 4.341-4.341s-1.945-4.341-4.341-4.341zM8.297 1.099c1.96 0 3.552 1.592 3.552 3.552s-1.592 3.552-3.552 3.552c-1.96 0-3.552-1.592-3.552-3.552s1.592-3.552 3.552-3.552z"></path>
</svg>
