<!-- Generated by IcoMoon.io -->
<svg version="1.1" xmlns="http://www.w3.org/2000/svg" width="18" height="20" viewBox="0 0 18 20">
<title>mapping</title>
<path fill="#ff7852" d="M8.34 4.005c0 2.212-1.805 4.005-4.032 4.005s-4.032-1.793-4.032-4.005c0-2.212 1.805-4.005 4.032-4.005s4.032 1.793 4.032 4.005z"></path>
<path fill="#5275ff" d="M17.995 8.090c0 3.091-2.541 5.597-5.676 5.597s-5.676-2.506-5.676-5.597c0-3.091 2.541-5.597 5.676-5.597s5.676 2.506 5.676 5.597z"></path>
<path fill="#d152ff" d="M10.197 15.809c0 2.315-1.924 4.191-4.297 4.191s-4.297-1.876-4.297-4.191c0-2.315 1.924-4.191 4.297-4.191s4.297 1.876 4.297 4.191z"></path>
<path fill="#15b851" d="M15.927 15.836c0 1.685-1.425 3.050-3.183 3.050s-3.183-1.366-3.183-3.050c0-1.685 1.425-3.050 3.183-3.050s3.183 1.366 3.183 3.050z"></path>
</svg>
