<!-- Generated by IcoMoon.io -->
<svg version="1.1" xmlns="http://www.w3.org/2000/svg" width="20" height="20" viewBox="0 0 20 20">
<title>media</title>
<path fill="#6dafe0" d="M17.466 17.784c-2.932 2.393-12.085 2.393-14.957 0-2.932-2.393-2.632-12.624 0-15.316s12.325-2.692 14.957 0c2.632 2.692 2.932 12.923 0 15.316z"></path>
<path fill="#fff" opacity="0.2" d="M10.047 13.596c-2.632 2.094-5.564 3.171-8.316 3.231-2.034-3.47-1.615-11.906 0.778-14.359 2.154-2.214 8.914-2.632 12.803-1.256 0.957 3.949-1.017 8.974-5.265 12.385z"></path>
<path fill="#fff" d="M8.432 5.46l6.043 3.889c0.538 0.299 0.538 0.957 0 1.316l-6.043 3.889c-0.658 0.419-1.496 0-1.496-0.658v-7.778c-0.060-0.658 0.838-1.077 1.496-0.658z"></path>
</svg>
