<!-- Generated by IcoMoon.io -->
<svg version="1.1" xmlns="http://www.w3.org/2000/svg" width="20" height="20" viewBox="0 0 20 20">
<title>min-max-variation</title>
<path fill="#7bcc29" d="M19.739 5.565l-5.217-3.913c-0.43-0.322-1.043-0.013-1.043 0.522v1.304h-6.304c-0.361 0-0.652 0.291-0.652 0.652v3.909c0 0.361 0.291 0.652 0.652 0.652h6.304v1.309c0 0.539 0.613 0.843 1.043 0.522l5.217-3.913c0.348-0.261 0.348-0.783 0-1.044z"></path>
<path fill="#ff6767" d="M5.478 18.348l-5.217-3.913c-0.346-0.26-0.348-0.782 0-1.044l5.217-3.913c0.43-0.323 1.044-0.025 1.044 0.522v1.304h6.304c0.36 0 0.652 0.292 0.652 0.652v3.909c0 0.36-0.292 0.652-0.652 0.652h-6.304v1.309c0 0.54-0.617 0.841-1.044 0.522z"></path>
<path fill="#e64848" d="M12.826 11.304h-2.826v5.213h2.826c0.36 0 0.652-0.292 0.652-0.652v-3.909c0-0.36-0.292-0.652-0.652-0.652z"></path>
<path fill="#6eb825" d="M19.739 6.609l-5.217 3.913c-0.43 0.322-1.043 0.017-1.043-0.522v-1.309h-3.478v-5.213h3.478v-1.304c0-0.535 0.613-0.843 1.043-0.522l5.217 3.913c0.348 0.261 0.348 0.783 0 1.044z"></path>
</svg>
