<!-- Generated by IcoMoon.io -->
<svg version="1.1" xmlns="http://www.w3.org/2000/svg" width="25" height="20" viewBox="0 0 25 20">
<title>modeling</title>
<path fill="#1a3c5a" d="M16.564 8.068l-1.705 2.599-8.985-6.001-0.87 1.326 8.985 6.001 0.438-0.668 3.306 2.061z"></path>
<path fill="#00284a" d="M12.29 14.583l5.443-1.196-3.306-2.061z"></path>
<path fill="#0e358e" d="M24.265 14.722c0.427 1.943-0.856 3.877-2.867 4.319s-3.986-0.775-4.413-2.719c-0.427-1.943 0.856-3.877 2.867-4.319s3.986 0.775 4.413 2.719z"></path>
<path fill="#397ba0" d="M23.063 14.938c0.289 1.316-0.58 2.626-1.942 2.926s-2.7-0.525-2.99-1.842c-0.289-1.316 0.58-2.626 1.942-2.926s2.7 0.525 2.99 1.842z"></path>
<path fill="#0e358e" d="M7.571 3.678c0.427 1.943-0.856 3.877-2.867 4.319s-3.986-0.775-4.413-2.719c-0.427-1.943 0.856-3.877 2.867-4.319s3.986 0.775 4.413 2.719z"></path>
<path fill="#397ba0" d="M6.369 3.893c0.289 1.316-0.58 2.626-1.942 2.926s-2.7-0.525-2.99-1.842c-0.289-1.316 0.58-2.626 1.942-2.926s2.7 0.525 2.99 1.842z"></path>
</svg>
