<!-- Generated by IcoMoon.io -->
<svg version="1.1" xmlns="http://www.w3.org/2000/svg" width="26" height="20" viewBox="0 0 26 20">
<title>Modeling-Mode-Icon</title>
<path fill="#c0dcf3" d="M0 0h25.685v19.96h-25.685v-19.96z"></path>
<path fill="#90c8f6" d="M25.685 0v19.96h-25.685v-19.96h25.685zM0.978 0.978v18.004h23.729v-18.004h-23.729z"></path>
<path fill="#1a3c5a" d="M15.5 8.783l-1.057 1.611-5.568-3.719-0.539 0.822 5.568 3.719 0.271-0.414 2.049 1.277-0.724-3.296z"></path>
<path fill="#00284a" d="M12.852 12.82l3.373-0.741-2.049-1.277-1.324 2.019z"></path>
<path fill="#0e358e" d="M20.272 12.907c0.265 1.204-0.531 2.403-1.777 2.676s-2.47-0.481-2.735-1.685 0.531-2.403 1.777-2.676c1.246-0.274 2.47 0.481 2.735 1.685z"></path>
<path fill="#397ba0" d="M19.527 13.040c0.179 0.816-0.359 1.628-1.203 1.813s-1.673-0.326-1.853-1.141 0.36-1.628 1.203-1.813c0.844-0.185 1.673 0.326 1.853 1.141z"></path>
<path fill="#0e358e" d="M9.927 6.062c0.265 1.204-0.531 2.403-1.777 2.676s-2.47-0.481-2.735-1.685c-0.265-1.204 0.531-2.403 1.777-2.676s2.47 0.481 2.735 1.685z"></path>
<path fill="#397ba0" d="M9.183 6.196c0.179 0.816-0.36 1.628-1.203 1.813s-1.673-0.326-1.853-1.141c-0.179-0.816 0.36-1.628 1.203-1.813s1.673 0.326 1.853 1.141z"></path>
</svg>
