<!-- Generated by IcoMoon.io -->
<svg version="1.1" xmlns="http://www.w3.org/2000/svg" width="27" height="20" viewBox="0 0 27 20">
<title>monitor</title>
<path fill="#32bea6" d="M22.999 2.2h-19.066c-0.953 0-1.733 0.78-1.733 1.733v12.133c0 0.953 0.78 1.733 1.733 1.733l19.066-0c0.953-0 1.733-0.78 1.733-1.733v-12.132c0-0.953-0.78-1.733-1.733-1.733z"></path>
<path fill="#fff" d="M5.165 4.913h16.747v2.204h-16.747v-2.204z"></path>
<path fill="#fff" d="M5.213 9.029h10.827c0.026 0 0.048 0.021 0.048 0.048v2.060c0 0.026-0.021 0.048-0.048 0.048h-10.827c-0.026 0-0.048-0.021-0.048-0.048v-2.060c0-0.026 0.021-0.048 0.048-0.048z"></path>
<path fill="#fff" d="M5.117 13.097h13.474v2.156h-13.474v-2.156z"></path>
</svg>
