<!-- Generated by IcoMoon.io -->
<svg version="1.1" xmlns="http://www.w3.org/2000/svg" width="35" height="20" viewBox="0 0 35 20">
<title>MouseRightClick</title>
<path fill="#000" d="M24.897 4.073c-2.798 0.152-5.044 2.446-5.121 5.263h5.121v-5.263zM33.915 9.384c-0.966-4.787-3.978-7.885-8.433-8.666v1.813c3.579 0.676 6.168 3.15 6.634 6.853h1.799zM25.482 9.336h5.121c-0.076-2.812-2.327-5.111-5.121-5.263v5.263zM19.772 9.921v4.635c0 2.979 2.437 5.416 5.416 5.416s5.416-2.437 5.416-5.416v-4.635h-10.831z"></path>
<path fill="#6b9dff" d="M12.94 6.689c0 3.127-2.559 5.686-5.686 5.686-3.148 0-5.686-2.559-5.686-5.686 0-3.148 2.539-5.686 5.686-5.686 3.127 0 5.686 2.539 5.686 5.686z"></path>
<path fill="#384ba9" d="M13.346 6.689c0-3.373-2.742-6.092-6.092-6.092-3.373 0-6.092 2.72-6.092 6.092 0 3.351 2.72 6.092 6.092 6.092 3.351 0 6.092-2.742 6.092-6.092zM12.533 6.689c0 2.904-2.376 5.28-5.28 5.28-2.923 0-5.28-2.376-5.28-5.28 0-2.923 2.357-5.28 5.28-5.28 2.904 0 5.28 2.357 5.28 5.28z"></path>
<path fill="#000" d="M7.228 6.799l7.773 7.255-3.757 0.324 2.138 4.728-1.425 0.648-2.073-4.793-2.656 2.526v-10.688z"></path>
</svg>
