<!-- Generated by IcoMoon.io -->
<svg version="1.1" xmlns="http://www.w3.org/2000/svg" width="20" height="20" viewBox="0 0 20 20">
<title>N1-Continous</title>
<path fill="#6b9dff" d="M18.839 9.744c0 5.002-4.093 9.094-9.094 9.094-5.034 0-9.094-4.093-9.094-9.094 0-5.034 4.060-9.094 9.094-9.094 5.002 0 9.094 4.060 9.094 9.094z"></path>
<path fill="#384ba9" d="M14.297 16.847c-1.316 0.848-2.879 1.342-4.552 1.342-0.413 0-0.818-0.030-1.215-0.087l-0.643-0.093-0.185 1.286 0.643 0.093c0.457 0.066 0.925 0.1 1.4 0.1 1.932 0 3.737-0.57 5.257-1.549l0.546-0.352-0.704-1.092-0.546 0.352zM6.224 17.422c-1.844-0.848-3.329-2.341-4.169-4.185l-0.269-0.591-1.182 0.539 0.269 0.591c0.969 2.127 2.682 3.848 4.809 4.826l0.59 0.271 0.543-1.18-0.59-0.271zM19.466 10.394c-0.145 2.18-1.015 4.17-2.371 5.729l-0.426 0.49-0.981-0.852 0.426-0.49c1.29-1.484 2.074-3.418 2.074-5.526 0-0.82-0.117-1.612-0.334-2.36l-0.181-0.624 1.247-0.363 0.181 0.624c0.193 0.664 0.318 1.358 0.364 2.073h0.022v1.299h-0.022zM1.382 10.93c-0.055-0.388-0.083-0.784-0.083-1.186 0-1.691 0.493-3.265 1.344-4.583l0.352-0.546-1.092-0.705-0.352 0.546c-0.982 1.522-1.552 3.336-1.552 5.288 0 0.464 0.033 0.92 0.096 1.367l0.091 0.643 1.286-0.181-0.091-0.643zM12.139 1.645c1.964 0.582 3.635 1.86 4.72 3.551l0.351 0.547 1.094-0.701-0.351-0.547c-1.251-1.951-3.179-3.425-5.445-4.096l-0.623-0.184-0.369 1.246 0.623 0.184zM4.222 3.346c1.479-1.277 3.408-2.047 5.522-2.047l0.666 0.001 0.002-1.299-0.668-0.001c-2.439 0-4.664 0.89-6.371 2.363l-0.492 0.424 0.849 0.983 0.492-0.425z"></path>
</svg>
