<!-- Generated by IcoMoon.io -->
<svg version="1.1" xmlns="http://www.w3.org/2000/svg" width="20" height="20" viewBox="0 0 20 20">
<title>N10-Translucent</title>
<path fill="#c2c8e4" d="M19.323 10.348c-0.008-5.546-4.151-9.509-8.963-9.671-2.658-0.090-4.974 0.789-6.881 2.647-1.85 1.802-2.793 4.028-2.817 6.607-0.022 2.426 0.798 4.568 2.442 6.358 1.844 2.008 4.164 3.031 6.882 3.041 2.53 0.009 4.741-0.898 6.545-2.677 1.839-1.814 2.754-4.047 2.791-6.304zM0 9.988c-0.016-5.482 4.445-10.032 10.083-9.988 2.711 0.021 5.057 1.014 6.978 2.936 1.942 1.943 2.928 4.319 2.928 7.055-0 2.746-0.985 5.129-2.943 7.077-1.952 1.942-4.319 2.915-7.070 2.923-5.499 0.016-10.009-4.501-9.975-10.004z"></path>
<path fill="#a4b4e4" d="M18.648 10.002c-0.023-2.289-0.791-4.288-2.369-5.953-1.703-1.796-3.822-2.709-6.286-2.712-2.333-0.003-4.375 0.824-6.048 2.466-1.722 1.691-2.596 3.762-2.609 6.181-0.026 4.778 3.865 8.664 8.632 8.677 4.791 0.013 8.704-3.891 8.68-8.659zM19.323 10.348c-0.037 2.258-0.952 4.49-2.791 6.304-1.804 1.78-4.015 2.686-6.545 2.677-2.717-0.010-5.037-1.033-6.882-3.041-1.644-1.79-2.464-3.932-2.442-6.358 0.023-2.578 0.967-4.804 2.817-6.607 1.907-1.858 4.223-2.737 6.881-2.647 4.812 0.163 8.955 4.125 8.963 9.671z"></path>
<path fill="#d1e0fe" d="M18.648 10.002c0.024 4.768-3.89 8.672-8.68 8.659-4.766-0.013-8.658-3.899-8.632-8.677 0.013-2.418 0.887-4.489 2.609-6.181 1.673-1.643 3.715-2.47 6.048-2.466 2.464 0.004 4.583 0.916 6.286 2.712 1.578 1.664 2.346 3.664 2.369 5.953z"></path>
</svg>
