<!-- Generated by IcoMoon.io -->
<svg version="1.1" xmlns="http://www.w3.org/2000/svg" width="20" height="20" viewBox="0 0 20 20">
<title>N11-Excluded</title>
<path fill="#c2c8e4" d="M9.998 0.67c-5.211 0.003-9.198 4.16-9.33 9.027-0.078 2.874 0.97 5.312 3.102 7.246 1.758 1.595 3.862 2.393 6.229 2.384 2.528-0.009 4.727-0.906 6.537-2.693 1.813-1.789 2.755-3.976 2.785-6.511 0.062-5.3-4.198-9.458-9.322-9.453zM-0 10.009c0.022-2.726 0.965-5.086 2.878-7.028 1.93-1.96 4.304-2.966 7.046-2.981 5.63-0.029 10.020 4.499 10.062 9.921 0.043 5.565-4.484 10.071-9.986 10.075-5.537 0.005-10.030-4.527-10.001-9.987z"></path>
<path fill="#bbc1e4" d="M1.335 9.993c0.015 2.372 0.841 4.426 2.511 6.103 1.829 1.837 4.080 2.695 6.663 2.553 4.346-0.238 8.118-3.829 8.141-8.624 0.023-4.804-3.849-8.689-8.647-8.695-4.821-0.007-8.691 3.913-8.667 8.662zM9.998 0.67c5.124-0.005 9.384 4.153 9.322 9.453-0.030 2.536-0.972 4.722-2.785 6.511-1.81 1.786-4.008 2.684-6.537 2.693-2.367 0.008-4.471-0.789-6.229-2.384-2.132-1.934-3.18-4.372-3.102-7.246 0.132-4.867 4.119-9.024 9.33-9.027z"></path>
<path fill="#f3f3fe" d="M5.327 9.992c-0.005 2.571 2.079 4.662 4.653 4.668 2.582 0.007 4.663-2.067 4.676-4.659 0.012-2.568-2.097-4.68-4.666-4.674-2.574 0.007-4.657 2.091-4.662 4.664zM1.335 9.993c-0.024-4.749 3.847-8.669 8.667-8.662 4.798 0.007 8.67 3.891 8.647 8.695-0.023 4.795-3.795 8.386-8.141 8.624-2.582 0.142-4.834-0.716-6.663-2.553-1.67-1.678-2.496-3.732-2.511-6.104z"></path>
<path fill="#cb0000" d="M9.994 9.219c-0.957 0-1.915 0.002-2.872-0.003-0.111-0.001-0.142 0.029-0.14 0.14 0.006 0.434 0.005 0.869 0.001 1.303-0.001 0.087 0.017 0.119 0.113 0.118 1.929-0.003 3.859-0.003 5.788-0 0.092 0 0.116-0.023 0.115-0.114-0.005-0.434-0.007-0.869 0.001-1.303 0.002-0.121-0.036-0.145-0.149-0.144-0.952 0.004-1.905 0.002-2.857 0.002zM5.327 9.992c0.005-2.573 2.089-4.657 4.662-4.664 2.569-0.007 4.678 2.106 4.666 4.674-0.012 2.592-2.094 4.665-4.676 4.659-2.574-0.006-4.658-2.097-4.653-4.668z"></path>
<path fill="#fefefe" d="M9.994 9.219c0.952 0 1.905 0.002 2.857-0.002 0.113-0.001 0.151 0.023 0.149 0.144-0.008 0.434-0.006 0.869-0.001 1.303 0.001 0.091-0.023 0.115-0.115 0.114-1.929-0.003-3.859-0.003-5.788 0-0.096 0-0.114-0.032-0.113-0.118 0.004-0.434 0.006-0.869-0.001-1.303-0.002-0.111 0.029-0.141 0.14-0.14 0.957 0.004 1.915 0.003 2.872 0.003z"></path>
</svg>
