<!-- Generated by IcoMoon.io -->
<svg version="1.1" xmlns="http://www.w3.org/2000/svg" width="20" height="20" viewBox="0 0 20 20">
<title>N13-Not-Observable</title>
<path fill="#dcdcff" d="M18.839 9.744c0 5.002-4.093 9.094-9.094 9.094-5.034 0-9.094-4.093-9.094-9.094 0-5.034 4.060-9.094 9.094-9.094 5.002 0 9.094 4.060 9.094 9.094z"></path>
<path fill="#384ba9" d="M19.488 9.744c0-5.394-4.385-9.744-9.744-9.744-5.394 0-9.744 4.35-9.744 9.744 0 5.359 4.35 9.744 9.744 9.744 5.359 0 9.744-4.385 9.744-9.744zM18.189 9.744c0 4.645-3.8 8.445-8.445 8.445-4.675 0-8.445-3.8-8.445-8.445 0-4.675 3.77-8.445 8.445-8.445 4.645 0 8.445 3.77 8.445 8.445z"></path>
</svg>
