<!-- Generated by IcoMoon.io -->
<svg version="1.1" xmlns="http://www.w3.org/2000/svg" width="20" height="20" viewBox="0 0 20 20">
<title>N4-Hard-Evidence</title>
<path fill="#39ff39" d="M18.693 9.986c0 4.811-3.936 8.746-8.746 8.746-4.842 0-8.746-3.936-8.746-8.746 0-4.842 3.905-8.746 8.746-8.746 4.811 0 8.746 3.905 8.746 8.746z"></path>
<path fill="#384ba9" d="M19.318 9.986c0-5.188-4.217-9.371-9.371-9.371-5.188 0-9.371 4.184-9.371 9.371 0 5.154 4.184 9.371 9.371 9.371 5.154 0 9.371-4.217 9.371-9.371zM18.068 9.986c0 4.467-3.655 8.122-8.122 8.122-4.496 0-8.122-3.655-8.122-8.122 0-4.496 3.626-8.122 8.122-8.122 4.467 0 8.122 3.626 8.122 8.122z"></path>
</svg>
