<!-- Generated by IcoMoon.io -->
<svg version="1.1" xmlns="http://www.w3.org/2000/svg" width="20" height="20" viewBox="0 0 20 20">
<title>N6-Target</title>
<path fill="#6b9dff" d="M18.659 9.986c0 4.811-3.936 8.746-8.746 8.746-4.842 0-8.746-3.936-8.746-8.746 0-4.842 3.905-8.746 8.746-8.746 4.811 0 8.746 3.905 8.746 8.746z"></path>
<path fill="#384ba9" d="M19.283 9.986c0-5.188-4.217-9.371-9.371-9.371-5.188 0-9.371 4.184-9.371 9.371 0 5.154 4.184 9.371 9.371 9.371 5.154 0 9.371-4.217 9.371-9.371zM18.034 9.986c0 4.467-3.655 8.122-8.122 8.122-4.496 0-8.122-3.655-8.122-8.122 0-4.496 3.626-8.122 8.122-8.122 4.467 0 8.122 3.626 8.122 8.122z"></path>
<path fill="#384ba9" d="M11.412 9.986c0-0.857-0.696-1.499-1.499-1.499-0.857 0-1.499 0.643-1.499 1.499 0 0.803 0.643 1.499 1.499 1.499 0.803 0 1.499-0.696 1.499-1.499zM10.162 9.986c0 0.134-0.116 0.25-0.25 0.25-0.143 0-0.25-0.116-0.25-0.25 0-0.143 0.107-0.25 0.25-0.25 0.134 0 0.25 0.107 0.25 0.25z"></path>
<path fill="#384ba9" d="M14.036 9.986c0-2.281-1.879-4.155-4.123-4.155-2.279 0-4.155 1.875-4.155 4.155 0 2.244 1.874 4.123 4.155 4.123 2.246 0 4.123-1.878 4.123-4.123zM12.786 9.986c0 1.565-1.309 2.874-2.874 2.874-1.592 0-2.905-1.307-2.905-2.874 0-1.594 1.311-2.905 2.905-2.905 1.567 0 2.874 1.313 2.874 2.905z"></path>
<path fill="#384ba9" d="M16.628 9.986c0-3.753-2.997-6.747-6.716-6.747-3.752 0-6.747 2.995-6.747 6.747 0 3.719 2.994 6.716 6.747 6.716 3.72 0 6.716-2.996 6.716-6.716zM15.379 9.986c0 3.028-2.439 5.466-5.466 5.466-3.057 0-5.498-2.438-5.498-5.466 0-3.057 2.44-5.498 5.498-5.498 3.028 0 5.466 2.441 5.466 5.498z"></path>
</svg>
