<!-- Generated by IcoMoon.io -->
<svg version="1.1" xmlns="http://www.w3.org/2000/svg" width="22" height="20" viewBox="0 0 22 20">
<title>negative-correlation</title>
<path fill="#e30011" d="M16.543 19.792h-5.017l-3.016-4.949q-0.338-0.563-0.649-1.006t-0.636-0.751q-0.311-0.322-0.663-0.483-0.338-0.174-0.744-0.174h-1.177v7.363h-4.368v-19.232h6.924q7.059 0 7.059 5.23 0 1.006-0.311 1.864-0.311 0.845-0.879 1.529t-1.379 1.18q-0.798 0.496-1.785 0.778v0.054q0.433 0.134 0.838 0.443 0.406 0.295 0.784 0.697t0.717 0.872q0.352 0.456 0.636 0.899zM4.643 3.806v5.351h1.893q1.406 0 2.258-0.805 0.865-0.818 0.865-2.025 0-2.521-3.043-2.521z"></path>
<path fill="#e30011" d="M14.541 12.54v-2.193h7.98v2.193z"></path>
</svg>
