<!-- Generated by IcoMoon.io -->
<svg version="1.1" xmlns="http://www.w3.org/2000/svg" width="16" height="20" viewBox="0 0 16 20">
<title>new</title>
<path fill="#59c9ff" d="M15.226 19.624h-14.286c-0.311 0-0.564-0.252-0.564-0.564v-18.12c0-0.311 0.252-0.564 0.564-0.564h8.647c0.15 0 0.293 0.059 0.399 0.165l5.639 5.639c0.106 0.106 0.165 0.249 0.165 0.399v12.481c-0 0.311-0.252 0.564-0.564 0.564z"></path>
<path fill="#4ba9ef" d="M15.624 6.18l-5.639-5.639c-0.106-0.106-0.249-0.165-0.399-0.165h-1.504v19.248h7.143c0.311 0 0.564-0.252 0.564-0.564v-12.481c0-0.15-0.059-0.293-0.165-0.399z"></path>
<path fill="#fff3db" d="M11.128 9.53h-2.118v-2.206c0-0.522-0.406-0.945-0.908-0.945s-0.908 0.423-0.908 0.945v2.206h-2.118c-0.501 0-0.908 0.423-0.908 0.945s0.406 0.945 0.908 0.945h2.118v2.206c0 0.522 0.406 0.945 0.908 0.945s0.908-0.423 0.908-0.945v-2.206h2.118c0.501 0 0.908-0.423 0.908-0.945s-0.406-0.945-0.908-0.945z"></path>
<path fill="#f1efe3" d="M11.128 9.53h-2.118v-2.206c0-0.522-0.406-0.945-0.908-0.945v8.193c0.501 0 0.908-0.423 0.908-0.945v-2.206h2.118c0.501 0 0.908-0.423 0.908-0.945s-0.406-0.945-0.908-0.945z"></path>
</svg>
