<!-- Generated by IcoMoon.io -->
<svg version="1.1" xmlns="http://www.w3.org/2000/svg" width="20" height="20" viewBox="0 0 20 20">
<title>next</title>
<path fill="#88c057" d="M10 19.63v0c-5.318 0-9.63-4.311-9.63-9.63v0c0-5.318 4.311-9.63 9.63-9.63v0c5.318 0 9.63 4.311 9.63 9.63v0c0 5.318-4.311 9.63-9.63 9.63z"></path>
<path fill="#88c057" d="M10 20c-5.514 0-10-4.486-10-10s4.486-10 10-10 10 4.486 10 10-4.486 10-10 10zM10 0.741c-5.106 0-9.259 4.154-9.259 9.259s4.154 9.259 9.259 9.259 9.259-4.154 9.259-9.259-4.154-9.259-9.259-9.259z"></path>
<path fill="#fff" d="M13.387 10.377l-5.593 3.229c-0.172 0.099-0.386-0.025-0.386-0.223v-6.459c0-0.198 0.214-0.322 0.386-0.223l5.593 3.229c0.172 0.099 0.172 0.347 0 0.446z"></path>
<path fill="#fff" d="M7.666 14.011c-0.347 0-0.629-0.282-0.629-0.628v-6.459c0-0.346 0.282-0.628 0.629-0.628 0.109 0 0.218 0.029 0.313 0.084l5.593 3.229c0.197 0.114 0.314 0.317 0.314 0.544s-0.117 0.43-0.314 0.544l-5.593 3.229c-0.096 0.055-0.204 0.084-0.313 0.084zM7.778 7.12v6.068l5.254-3.034-5.254-3.034z"></path>
</svg>
