<!-- Generated by IcoMoon.io -->
<svg version="1.1" xmlns="http://www.w3.org/2000/svg" width="20" height="20" viewBox="0 0 20 20">
<title>node-color</title>
<path fill="#394b9f" d="M19.531 10c0 5.264-4.267 9.531-9.531 9.531s-9.531-4.267-9.531-9.531c0-5.264 4.267-9.531 9.531-9.531s9.531 4.267 9.531 9.531z"></path>
<path fill="#6b9dff" d="M17.82 10.003c0 4.32-3.502 7.823-7.823 7.823s-7.823-3.502-7.823-7.823c0-4.32 3.502-7.823 7.823-7.823s7.823 3.502 7.823 7.823z"></path>
<path fill="#ff4d74" d="M15.702 9.987c0 3.142-2.547 5.689-5.689 5.689s-5.689-2.547-5.689-5.689c0-3.142 2.547-5.689 5.689-5.689s5.689 2.547 5.689 5.689z"></path>
</svg>
