<!-- Generated by IcoMoon.io -->
<svg version="1.1" xmlns="http://www.w3.org/2000/svg" width="31" height="20" viewBox="0 0 31 20">
<title>NodeDoubleClick</title>
<path fill="#000" d="M26.218 6.225c2.405 0.129 4.335 2.103 4.404 4.523h-4.404v-4.523zM15.495 10.788c1.173-5.814 4.83-9.57 10.239-10.516v2.197c-4.34 0.816-7.482 3.825-8.046 8.318h-2.192zM18.464 10.788c0.831-4.117 3.419-6.779 7.249-7.448v1.559c-3.073 0.579-5.3 2.707-5.701 5.894h-1.549v-0.005zM25.713 10.748h-4.404c0.064-2.42 1.999-4.394 4.404-4.523v4.523zM30.622 11.253v3.983c0 2.558-2.093 4.657-4.657 4.657-2.558 0-4.657-2.093-4.657-4.657v-3.983h9.313z"></path>
<path fill="#6b9dff" d="M12.778 6.427c0 3.194-2.613 5.807-5.807 5.807-3.215 0-5.807-2.613-5.807-5.807 0-3.215 2.592-5.807 5.807-5.807 3.194 0 5.807 2.592 5.807 5.807z"></path>
<path fill="#384ba9" d="M13.193 6.427c0-3.444-2.8-6.222-6.222-6.222-3.444 0-6.222 2.778-6.222 6.222 0 3.422 2.778 6.222 6.222 6.222 3.422 0 6.222-2.8 6.222-6.222zM12.364 6.427c0 2.966-2.427 5.392-5.392 5.392-2.985 0-5.392-2.427-5.392-5.392 0-2.985 2.407-5.392 5.392-5.392 2.966 0 5.392 2.407 5.392 5.392z"></path>
<path fill="#000" d="M6.946 6.539l7.938 7.409-3.837 0.331 2.183 4.829-1.455 0.661-2.117-4.895-2.712 2.58v-10.915z"></path>
</svg>
