<!-- Generated by IcoMoon.io -->
<svg version="1.1" xmlns="http://www.w3.org/2000/svg" width="20" height="20" viewBox="0 0 20 20">
<title>note</title>
<path fill="#fedb41" d="M19.597 1.054v12.702l-5.931 5.931h-12.604c-0.415 0-0.741-0.326-0.741-0.741v-17.892c0-0.415 0.326-0.741 0.741-0.741h17.793c0.415 0 0.741 0.326 0.741 0.741z"></path>
<path fill="#fcbf29" d="M19.597 1.054v12.702l-5.931 5.931h-3.707v-19.375h8.897c0.415 0 0.741 0.326 0.741 0.741z"></path>
<path fill="#fe9923" d="M14.407 19.687c0.204 0 0.39-0.082 0.526-0.219l4.445-4.445c0.135-0.134 0.218-0.319 0.219-0.524v-0.744h-5.19c-0.409 0-0.741 0.332-0.741 0.741v5.19h0.736c0.002 0 0.004 0 0.006 0z"></path>
</svg>
