<!-- Generated by IcoMoon.io -->
<svg version="1.1" xmlns="http://www.w3.org/2000/svg" width="20" height="20" viewBox="0 0 20 20">
<title>number_14</title>
<path fill="#e21b1b" d="M10 0c-5.514 0-10 4.486-10 10s4.486 10 10 10 10-4.486 10-10c0-5.514-4.486-10-10-10v0z"></path>
<path fill="#fff" d="M8.202 5.516v7.909h1.031v1.020h-3.411v-1.020h1.035v-6.094l-1.109 0.978-0.586-0.685 2.029-2.113h1.010v0.005z"></path>
<path fill="#fff" d="M9.793 12.133l2.605-6.622h1.617v6.272h0.827v1.062h-0.827v1.601h-1.261v-1.601h-2.961v-0.711zM12.754 11.782v-1.318l0.125-3.369h-0.157l-1.548 4.687h1.58z"></path>
</svg>
