<!-- Generated by IcoMoon.io -->
<svg version="1.1" xmlns="http://www.w3.org/2000/svg" width="20" height="20" viewBox="0 0 20 20">
<title>number_5</title>
<path fill="#e21b1b" d="M20 10c0 5.523-4.477 10-10 10s-10-4.477-10-10c0-5.523 4.477-10 10-10s10 4.477 10 10z"></path>
<path fill="#fff" d="M7.804 12.884c0-0.342 0.047-0.715 0.141-1.118h1.14v0.79c0 0.459 0.067 0.789 0.201 0.991s0.353 0.302 0.657 0.302c0.309 0 0.527-0.111 0.655-0.333s0.192-0.542 0.192-0.959v-1.863c0-0.241-0.021-0.436-0.062-0.584s-0.098-0.266-0.169-0.35c-0.072-0.085-0.155-0.142-0.251-0.173s-0.201-0.045-0.313-0.045c-0.211 0-0.392 0.059-0.542 0.178s-0.275 0.261-0.373 0.426h-1.078v-4.923h4.144v1.293h-2.925v2.383c0.158-0.181 0.357-0.322 0.596-0.423s0.488-0.152 0.748-0.152c0.598 0 1.037 0.202 1.315 0.604s0.418 0.996 0.418 1.778v1.637c0 0.497-0.064 0.912-0.192 1.245s-0.297 0.6-0.508 0.802-0.454 0.345-0.731 0.432c-0.277 0.087-0.562 0.13-0.855 0.13-0.357 0-0.673-0.048-0.948-0.144s-0.505-0.234-0.692-0.415c-0.186-0.181-0.328-0.398-0.423-0.652s-0.145-0.539-0.145-0.855z"></path>
</svg>
