<!-- Generated by IcoMoon.io -->
<svg version="1.1" xmlns="http://www.w3.org/2000/svg" width="20" height="20" viewBox="0 0 20 20">
<title>number_9</title>
<path fill="#e21b1b" d="M20 10c0 5.523-4.477 10-10 10s-10-4.477-10-10c0-5.523 4.477-10 10-10s10 4.477 10 10z"></path>
<path fill="#fff" d="M12.284 12.030c0 0.444-0.040 0.825-0.118 1.141s-0.185 0.582-0.316 0.799c-0.132 0.217-0.282 0.388-0.449 0.514s-0.342 0.223-0.522 0.291-0.358 0.111-0.534 0.13c-0.175 0.019-0.336 0.028-0.482 0.028-0.399 0-0.74-0.050-1.022-0.15s-0.512-0.233-0.689-0.401-0.307-0.362-0.389-0.584c-0.083-0.222-0.124-0.455-0.124-0.7 0-0.132 0.012-0.277 0.037-0.435s0.063-0.316 0.116-0.474h1.112v0.209c0 0.293 0.019 0.532 0.057 0.717s0.096 0.331 0.175 0.438c0.079 0.107 0.179 0.181 0.299 0.22s0.263 0.059 0.429 0.059c0.301 0 0.533-0.11 0.697-0.33s0.246-0.573 0.246-1.059v-1.773c-0.143 0.158-0.328 0.291-0.553 0.398s-0.491 0.161-0.796 0.161c-0.218 0-0.441-0.035-0.667-0.105s-0.431-0.194-0.615-0.372c-0.184-0.178-0.335-0.422-0.452-0.728s-0.175-0.699-0.175-1.178v-0.937c0-0.512 0.054-0.946 0.161-1.302s0.261-0.644 0.46-0.864c0.199-0.22 0.439-0.379 0.72-0.477s0.596-0.147 0.946-0.147c0.395 0 0.744 0.050 1.047 0.15s0.559 0.262 0.768 0.488c0.209 0.226 0.367 0.523 0.474 0.892s0.161 0.823 0.161 1.361v4.020zM10.804 7.361c0-0.218-0.019-0.404-0.057-0.556s-0.095-0.275-0.172-0.367c-0.077-0.092-0.176-0.159-0.297-0.2s-0.263-0.062-0.429-0.062c-0.29 0-0.502 0.103-0.638 0.311s-0.203 0.517-0.203 0.931v1.479c0 0.233 0.021 0.429 0.062 0.587s0.099 0.285 0.175 0.381c0.075 0.096 0.166 0.164 0.271 0.206s0.224 0.062 0.356 0.062c0.102 0 0.199-0.015 0.291-0.045s0.178-0.070 0.257-0.118 0.15-0.105 0.215-0.169 0.121-0.128 0.169-0.192v-2.247z"></path>
</svg>
