<!-- Generated by IcoMoon.io -->
<svg version="1.1" xmlns="http://www.w3.org/2000/svg" width="20" height="20" viewBox="0 0 20 20">
<title>number_6</title>
<path fill="#e21b1b" d="M20 10c0 5.523-4.477 10-10 10s-10-4.477-10-10c0-5.523 4.477-10 10-10s10 4.477 10 10z"></path>
<path fill="#fff" d="M7.646 8.023c0-0.444 0.040-0.825 0.122-1.141s0.188-0.582 0.322-0.799 0.287-0.387 0.46-0.514c0.173-0.126 0.351-0.223 0.533-0.291s0.364-0.111 0.545-0.13 0.346-0.028 0.497-0.028c0.388 0 0.719 0.050 0.994 0.15s0.5 0.233 0.674 0.401c0.175 0.168 0.302 0.362 0.381 0.584s0.119 0.455 0.119 0.7c0 0.132-0.013 0.277-0.037 0.435s-0.063 0.316-0.116 0.474h-1.112v-0.293c0-0.293-0.018-0.533-0.054-0.717s-0.090-0.33-0.164-0.438c-0.073-0.107-0.166-0.181-0.279-0.22s-0.248-0.059-0.407-0.059c-0.324 0-0.571 0.11-0.743 0.331s-0.257 0.573-0.257 1.059v1.857c0.143-0.158 0.33-0.291 0.562-0.398s0.5-0.161 0.804-0.161c0.218 0 0.439 0.035 0.663 0.105s0.427 0.194 0.61 0.373c0.183 0.179 0.331 0.422 0.446 0.728s0.172 0.699 0.172 1.177v0.937c0 0.516-0.054 0.951-0.161 1.304s-0.261 0.641-0.46 0.861c-0.199 0.22-0.439 0.379-0.72 0.477s-0.596 0.147-0.946 0.147c-0.395 0-0.744-0.053-1.047-0.158s-0.559-0.275-0.768-0.508c-0.209-0.233-0.367-0.537-0.474-0.912s-0.161-0.831-0.161-1.369v-3.963zM9.125 12.534c0 0.444 0.076 0.772 0.228 0.982s0.394 0.316 0.726 0.316c0.29 0 0.502-0.103 0.638-0.311s0.203-0.517 0.203-0.931v-1.434c0-0.233-0.021-0.429-0.062-0.587s-0.099-0.285-0.175-0.381c-0.075-0.096-0.166-0.164-0.271-0.206s-0.224-0.062-0.356-0.062c-0.102 0-0.199 0.015-0.291 0.045s-0.178 0.070-0.257 0.118-0.15 0.105-0.215 0.169-0.121 0.128-0.169 0.192v2.088z"></path>
</svg>
