<!-- Generated by IcoMoon.io -->
<svg version="1.1" xmlns="http://www.w3.org/2000/svg" width="20" height="20" viewBox="0 0 20 20">
<title>number_25</title>
<path fill="#e21b1b" d="M10 0c-5.514 0-10 4.486-10 10s4.486 10 10 10 10-4.486 10-10c0-5.514-4.486-10-10-10v0z"></path>
<path fill="#fff" d="M5.262 13.668l1.972-3.798c0.722-1.387 0.879-2.009 0.879-2.474 0-0.733-0.262-0.962-0.769-0.962-0.612 0-0.873 0.528-0.873 1.47v0.507h-1.047c-0.073-0.387-0.141-0.685-0.141-1.067 0-0.905 0.612-1.894 2.061-1.894 1.559 0 2.197 0.748 2.197 2.024 0 0.727-0.251 1.349-0.963 2.573l-1.763 3.348h2.61v1.067h-4.164v-0.795z"></path>
<path fill="#fff" d="M10.708 11.592h1.057v0.732c0 0.848 0.235 1.198 0.795 1.198 0.57 0 0.785-0.429 0.785-1.198v-1.726c0-0.889-0.324-1.067-0.738-1.067-0.392 0-0.664 0.251-0.848 0.56h-0.999v-4.562h3.839v1.198h-2.71v2.207c0.293-0.329 0.764-0.533 1.245-0.533 1.109 0 1.606 0.758 1.606 2.207v1.517c0 1.836-1.025 2.417-2.118 2.417-1.329 0-2.045-0.743-2.045-1.914 0-0.324 0.042-0.653 0.131-1.035z"></path>
</svg>
