<!-- Generated by IcoMoon.io -->
<svg version="1.1" xmlns="http://www.w3.org/2000/svg" width="20" height="20" viewBox="0 0 20 20">
<title>number_10</title>
<path fill="#e21b1b" d="M20 10c0 5.523-4.477 10-10 10s-10-4.477-10-10c0-5.523 4.477-10 10-10s10 4.477 10 10z"></path>
<path fill="#fff" d="M5.56 13.748h1.118v-6.577l-1.197 1.056-0.632-0.74 2.191-2.281h1.090l-0.006 0.011 0.006-0.006v8.536h1.112v1.101h-3.681v-1.101z"></path>
<path fill="#fff" d="M9.98 7.961c0-0.422 0.039-0.786 0.116-1.092s0.178-0.565 0.305-0.773c0.126-0.209 0.272-0.377 0.437-0.505s0.336-0.227 0.511-0.296c0.175-0.070 0.35-0.116 0.525-0.138s0.336-0.034 0.483-0.034c0.139 0 0.294 0.011 0.466 0.031s0.345 0.064 0.519 0.13c0.175 0.066 0.345 0.162 0.508 0.288s0.308 0.294 0.435 0.505c0.126 0.211 0.228 0.471 0.305 0.779s0.116 0.678 0.116 1.107v4.076c0 0.422-0.039 0.786-0.116 1.093s-0.18 0.567-0.307 0.782c-0.128 0.215-0.275 0.389-0.441 0.522s-0.335 0.237-0.508 0.311c-0.173 0.073-0.345 0.123-0.517 0.15s-0.325 0.040-0.46 0.040c-0.15 0-0.314-0.013-0.491-0.040s-0.354-0.076-0.531-0.15c-0.177-0.073-0.347-0.176-0.511-0.307s-0.308-0.305-0.432-0.519c-0.124-0.215-0.224-0.476-0.299-0.785s-0.113-0.674-0.113-1.095v-4.076zM11.477 12.653c0 0.399 0.072 0.688 0.217 0.869s0.366 0.271 0.663 0.271c0.29 0 0.506-0.090 0.649-0.271s0.215-0.47 0.215-0.869v-5.223c0-0.422-0.072-0.728-0.215-0.92s-0.359-0.288-0.649-0.288c-0.297 0-0.518 0.096-0.663 0.288s-0.217 0.499-0.217 0.92v5.223z"></path>
</svg>
