<!-- Generated by IcoMoon.io -->
<svg version="1.1" xmlns="http://www.w3.org/2000/svg" width="20" height="20" viewBox="0 0 20 20">
<title>number_16</title>
<path fill="#e21b1b" d="M10 0c-5.514 0-10 4.486-10 10s4.486 10 10 10 10-4.486 10-10c0-5.514-4.486-10-10-10v0z"></path>
<path fill="#fff" d="M8.461 5.536v7.909h1.031v1.020h-3.411v-1.020h1.035v-6.094l-1.109 0.978-0.586-0.685 2.029-2.113h1.010v0.005z"></path>
<path fill="#fff" d="M10.193 8.141c0-2.474 1.465-2.689 2.297-2.689 1.444 0 2.009 0.795 2.009 1.7 0 0.246-0.047 0.554-0.141 0.842h-1.031v-0.272c0-1.083-0.256-1.329-0.837-1.329-0.596 0-0.926 0.387-0.926 1.287v1.721c0.267-0.288 0.706-0.518 1.266-0.518 0.811 0 1.752 0.439 1.752 2.207v0.868c0 1.904-0.827 2.584-2.118 2.584-1.459 0-2.27-0.738-2.27-2.73v-3.672zM12.448 13.523c0.533 0 0.779-0.387 0.779-1.151v-1.329c0-0.863-0.314-1.146-0.801-1.146-0.382 0-0.685 0.246-0.863 0.487v1.935c0 0.816 0.272 1.203 0.884 1.203z"></path>
</svg>
