<!-- Generated by IcoMoon.io -->
<svg version="1.1" xmlns="http://www.w3.org/2000/svg" width="20" height="20" viewBox="0 0 20 20">
<title>number_19</title>
<path fill="#e21b1b" d="M10 0c-5.514 0-10 4.486-10 10s4.486 10 10 10 10-4.486 10-10c0-5.514-4.486-10-10-10v0z"></path>
<path fill="#fff" d="M8.521 5.542v7.909h1.031v1.020h-3.411v-1.020h1.036v-6.094l-1.109 0.978-0.586-0.685 2.030-2.113h1.009v0.005z"></path>
<path fill="#fff" d="M14.522 11.861c0 2.474-1.433 2.689-2.244 2.689-1.48 0-2.061-0.795-2.061-1.7 0-0.246 0.047-0.554 0.141-0.842h1.031v0.193c0 1.083 0.272 1.329 0.889 1.329 0.56 0 0.873-0.387 0.873-1.287v-1.643c-0.267 0.288-0.69 0.518-1.25 0.518-0.811 0-1.768-0.439-1.768-2.207v-0.868c0-1.904 0.827-2.584 2.118-2.584 1.459 0 2.27 0.685 2.27 2.678v3.724zM12.267 6.437c-0.533 0-0.779 0.387-0.779 1.151v1.371c0 0.863 0.314 1.146 0.801 1.146 0.382 0 0.685-0.246 0.863-0.487v-2.082c-0-0.816-0.272-1.099-0.884-1.099z"></path>
</svg>
