<!-- Generated by IcoMoon.io -->
<svg version="1.1" xmlns="http://www.w3.org/2000/svg" width="20" height="20" viewBox="0 0 20 20">
<title>number_8</title>
<path fill="#e21b1b" d="M20 10c0 5.523-4.477 10-10 10s-10-4.477-10-10c0-5.523 4.477-10 10-10s10 4.477 10 10z"></path>
<path fill="#fff" d="M7.55 11.919c0-0.282 0.030-0.532 0.090-0.751s0.144-0.41 0.251-0.576c0.107-0.166 0.234-0.307 0.381-0.426s0.305-0.221 0.474-0.308v-0.045c-0.124-0.068-0.25-0.152-0.376-0.254s-0.24-0.227-0.342-0.376-0.184-0.323-0.248-0.525-0.096-0.432-0.096-0.692v-0.678c0-0.312 0.038-0.583 0.113-0.813s0.174-0.425 0.296-0.587c0.122-0.162 0.264-0.293 0.426-0.392s0.328-0.178 0.5-0.234c0.171-0.057 0.342-0.094 0.514-0.113s0.328-0.028 0.472-0.028c0.147 0 0.305 0.009 0.474 0.028s0.341 0.057 0.514 0.113c0.173 0.057 0.34 0.135 0.5 0.234s0.302 0.229 0.426 0.389c0.124 0.16 0.224 0.355 0.299 0.584s0.113 0.501 0.113 0.813v0.678c0 0.26-0.032 0.49-0.096 0.692s-0.147 0.377-0.248 0.525c-0.101 0.149-0.215 0.274-0.342 0.375s-0.251 0.187-0.375 0.254v0.045c0.173 0.086 0.332 0.189 0.477 0.307s0.271 0.261 0.378 0.426c0.107 0.166 0.191 0.358 0.251 0.576s0.090 0.468 0.090 0.751v0.592c0 0.332-0.034 0.621-0.102 0.87s-0.161 0.463-0.28 0.643c-0.118 0.181-0.257 0.33-0.415 0.446s-0.328 0.21-0.511 0.28-0.373 0.118-0.57 0.147c-0.198 0.028-0.394 0.043-0.59 0.043s-0.391-0.014-0.587-0.043c-0.196-0.028-0.385-0.076-0.567-0.144s-0.353-0.161-0.511-0.28c-0.158-0.118-0.294-0.267-0.409-0.446s-0.206-0.393-0.274-0.641-0.101-0.538-0.101-0.869v-0.593zM9.034 12.63c0 0.244 0.027 0.445 0.082 0.601s0.126 0.279 0.215 0.367c0.088 0.088 0.191 0.15 0.308 0.184s0.237 0.051 0.361 0.051c0.124 0 0.246-0.017 0.364-0.051s0.223-0.096 0.313-0.187 0.164-0.214 0.22-0.37c0.057-0.156 0.085-0.357 0.085-0.601v-1.061c0-0.211-0.022-0.39-0.065-0.539s-0.105-0.271-0.183-0.367c-0.079-0.096-0.175-0.166-0.288-0.209s-0.237-0.065-0.372-0.065h-0.141c-0.275 0-0.493 0.095-0.655 0.285s-0.242 0.49-0.242 0.901v1.062zM10.073 9.339c0.109 0 0.212-0.018 0.307-0.054s0.18-0.097 0.251-0.183 0.128-0.203 0.17-0.35c0.041-0.147 0.062-0.331 0.062-0.553v-0.796c0-0.399-0.067-0.702-0.201-0.909s-0.353-0.311-0.658-0.311c-0.305 0-0.522 0.106-0.652 0.316s-0.195 0.516-0.195 0.915v0.79c0 0.214 0.018 0.394 0.054 0.539s0.087 0.262 0.155 0.35c0.068 0.088 0.15 0.152 0.246 0.189s0.204 0.057 0.325 0.057h0.136z"></path>
</svg>
