<!-- Generated by IcoMoon.io -->
<svg version="1.1" xmlns="http://www.w3.org/2000/svg" width="20" height="20" viewBox="0 0 20 20">
<title>number_3</title>
<path fill="#e21b1b" d="M20 10c0 5.523-4.477 10-10 10s-10-4.477-10-10c0-5.523 4.477-10 10-10s10 4.477 10 10z"></path>
<path fill="#fff" d="M7.643 12.901c0-0.162 0.011-0.34 0.034-0.533s0.058-0.394 0.107-0.601h1.141v0.491c0 0.301 0.025 0.553 0.076 0.757s0.12 0.367 0.206 0.491c0.087 0.124 0.19 0.212 0.311 0.265s0.252 0.079 0.395 0.079c0.139 0 0.265-0.020 0.378-0.059s0.209-0.104 0.288-0.195 0.139-0.206 0.181-0.347c0.042-0.141 0.062-0.313 0.062-0.517v-1.067c0-0.203-0.018-0.384-0.054-0.542s-0.093-0.291-0.172-0.398c-0.079-0.107-0.183-0.189-0.311-0.245s-0.286-0.085-0.474-0.085h-0.615v-1.044h0.615c0.121 0 0.233-0.020 0.339-0.059s0.198-0.103 0.277-0.192c0.079-0.088 0.141-0.202 0.187-0.342s0.068-0.308 0.068-0.508v-1.011c0-0.357-0.070-0.62-0.209-0.787s-0.346-0.252-0.621-0.252c-0.305 0-0.539 0.137-0.703 0.41s-0.245 0.665-0.245 1.177v0.548h-1.129c-0.042-0.188-0.077-0.376-0.107-0.562s-0.045-0.383-0.045-0.59c0-0.245 0.045-0.488 0.136-0.731s0.227-0.462 0.409-0.658c0.182-0.196 0.414-0.354 0.695-0.474s0.611-0.181 0.991-0.181c0.41 0 0.762 0.047 1.056 0.141s0.533 0.232 0.72 0.415c0.186 0.182 0.323 0.407 0.412 0.672s0.133 0.567 0.133 0.906v0.593c0 0.275-0.035 0.518-0.104 0.731s-0.16 0.398-0.271 0.556c-0.111 0.158-0.237 0.293-0.378 0.404s-0.285 0.201-0.432 0.268v0.045c0.188 0.064 0.363 0.148 0.525 0.251s0.302 0.236 0.421 0.398c0.118 0.162 0.212 0.358 0.279 0.587s0.102 0.502 0.102 0.819v0.638c0 0.444-0.064 0.818-0.192 1.124s-0.301 0.55-0.519 0.737c-0.218 0.186-0.473 0.321-0.765 0.403s-0.599 0.124-0.923 0.124c-0.737 0-1.3-0.179-1.688-0.537-0.389-0.358-0.582-0.862-0.582-1.513z"></path>
</svg>
