<!-- Generated by IcoMoon.io -->
<svg version="1.1" xmlns="http://www.w3.org/2000/svg" width="20" height="20" viewBox="0 0 20 20">
<title>number_18</title>
<path fill="#e21b1b" d="M10 0c-5.514 0-10 4.486-10 10s4.486 10 10 10 10-4.486 10-10c0-5.514-4.486-10-10-10v0z"></path>
<path fill="#fff" d="M8.432 5.534v7.909h1.031v1.020h-3.411v-1.020h1.035v-6.094l-1.109 0.978-0.586-0.685 2.029-2.113h1.010v0.005z"></path>
<path fill="#fff" d="M10.054 11.749c0-1.051 0.476-1.595 1.109-1.909v-0.042c-0.465-0.246-0.983-0.743-0.983-1.711v-0.628c0-1.747 1.349-2.009 2.15-2.009 0.806 0 2.155 0.256 2.155 2.003v0.628c0 0.968-0.518 1.465-0.983 1.711v0.042c0.638 0.314 1.109 0.858 1.109 1.909v0.549c0 1.841-1.203 2.249-2.286 2.249s-2.27-0.403-2.27-2.244v-0.549zM12.324 13.522c0.461 0 0.91-0.209 0.91-1.119v-0.983c0-0.779-0.335-1.093-0.842-1.093h-0.131c-0.508 0-0.832 0.34-0.832 1.098v0.983c0 0.91 0.434 1.114 0.894 1.114zM12.393 9.358c0.408 0 0.732-0.236 0.732-1.057v-0.737c0-0.733-0.236-1.13-0.795-1.13s-0.785 0.403-0.785 1.14v0.732c0 0.79 0.277 1.052 0.722 1.052h0.125z"></path>
</svg>
