<!-- Generated by IcoMoon.io -->
<svg version="1.1" xmlns="http://www.w3.org/2000/svg" width="20" height="20" viewBox="0 0 20 20">
<title>number_15</title>
<path fill="#e21b1b" d="M10 0c-5.514 0-10 4.486-10 10s4.486 10 10 10 10-4.486 10-10c0-5.514-4.486-10-10-10v0z"></path>
<path fill="#fff" d="M8.527 5.537v7.909h1.031v1.020h-3.411v-1.020h1.035v-6.094l-1.109 0.978-0.586-0.685 2.029-2.113h1.010v0.005z"></path>
<path fill="#fff" d="M10.483 11.594h1.057v0.732c0 0.848 0.235 1.198 0.795 1.198 0.57 0 0.785-0.429 0.785-1.198v-1.726c0-0.889-0.324-1.067-0.738-1.067-0.392 0-0.664 0.251-0.847 0.56h-0.999v-4.561h3.839v1.198h-2.709v2.207c0.293-0.329 0.764-0.533 1.245-0.533 1.109 0 1.606 0.758 1.606 2.207v1.517c0 1.836-1.025 2.417-2.118 2.417-1.329 0-2.045-0.743-2.045-1.914-0-0.324 0.042-0.653 0.13-1.035z"></path>
</svg>
