<!-- Generated by IcoMoon.io -->
<svg version="1.1" xmlns="http://www.w3.org/2000/svg" width="20" height="20" viewBox="0 0 20 20">
<title>number_23</title>
<path fill="#e21b1b" d="M10 0c-5.514 0-10 4.486-10 10s4.486 10 10 10 10-4.486 10-10c0-5.514-4.486-10-10-10v0z"></path>
<path fill="#fff" d="M5.249 13.672l1.972-3.797c0.722-1.387 0.879-2.009 0.879-2.474 0-0.733-0.262-0.963-0.769-0.963-0.612 0-0.873 0.528-0.873 1.47v0.507h-1.047c-0.073-0.387-0.141-0.685-0.141-1.067 0-0.905 0.612-1.894 2.061-1.894 1.559 0 2.197 0.748 2.197 2.024 0 0.727-0.251 1.349-0.963 2.573l-1.763 3.348h2.61v1.067h-4.164v-0.795z"></path>
<path fill="#fff" d="M10.559 11.595h1.057v0.455c0 1.114 0.393 1.475 0.916 1.475 0.518 0 0.842-0.283 0.842-1.036v-0.989c0-0.758-0.241-1.177-0.936-1.177h-0.57v-0.968h0.57c0.45 0 0.806-0.283 0.806-1.020v-0.936c0-0.659-0.262-0.963-0.769-0.963-0.56 0-0.879 0.528-0.879 1.47v0.507h-1.046c-0.073-0.345-0.141-0.685-0.141-1.067 0-0.905 0.659-1.894 2.066-1.894 1.522 0 2.15 0.717 2.15 1.977v0.549c0 1.015-0.56 1.559-1.099 1.815v0.042c0.696 0.235 1.229 0.732 1.229 1.904v0.591c0 1.647-1.020 2.212-2.223 2.212-1.365 0-2.103-0.696-2.103-1.899-0-0.298 0.042-0.67 0.131-1.052z"></path>
</svg>
