<!-- Generated by IcoMoon.io -->
<svg version="1.1" xmlns="http://www.w3.org/2000/svg" width="20" height="20" viewBox="0 0 20 20">
<title>number_2</title>
<path fill="#e21b1b" d="M20 10c0 5.523-4.477 10-10 10s-10-4.477-10-10c0-5.523 4.477-10 10-10s10 4.477 10 10z"></path>
<path fill="#fff" d="M7.776 14.007l2.129-4.099c0.196-0.373 0.355-0.698 0.477-0.977s0.218-0.522 0.288-0.731c0.070-0.209 0.118-0.391 0.144-0.545s0.040-0.293 0.040-0.418c0-0.196-0.018-0.36-0.054-0.494s-0.088-0.241-0.158-0.322c-0.070-0.081-0.156-0.138-0.26-0.172s-0.223-0.051-0.358-0.051c-0.331 0-0.571 0.137-0.72 0.41s-0.223 0.665-0.223 1.177v0.548h-1.129c-0.041-0.211-0.077-0.404-0.107-0.579s-0.045-0.366-0.045-0.573c0-0.245 0.042-0.488 0.127-0.731s0.218-0.462 0.398-0.658 0.411-0.354 0.692-0.474c0.28-0.12 0.616-0.181 1.008-0.181 0.422 0 0.782 0.049 1.081 0.147s0.545 0.241 0.737 0.429 0.332 0.418 0.421 0.688 0.133 0.578 0.133 0.92c0 0.196-0.018 0.389-0.054 0.579s-0.095 0.393-0.177 0.61c-0.083 0.217-0.19 0.453-0.322 0.709s-0.293 0.55-0.486 0.881l-1.902 3.613h2.817v1.152h-4.494v-0.858z"></path>
</svg>
