<!-- Generated by IcoMoon.io -->
<svg version="1.1" xmlns="http://www.w3.org/2000/svg" width="20" height="20" viewBox="0 0 20 20">
<title>number_21</title>
<path fill="#e21b1b" d="M10 0c-5.514 0-10 4.486-10 10s4.486 10 10 10 10-4.486 10-10c0-5.514-4.486-10-10-10v0z"></path>
<path fill="#fff" d="M5.571 13.67l1.972-3.798c0.722-1.387 0.879-2.009 0.879-2.474 0-0.733-0.262-0.963-0.769-0.963-0.612 0-0.873 0.528-0.873 1.47v0.507h-1.046c-0.073-0.387-0.141-0.685-0.141-1.067 0-0.905 0.612-1.894 2.061-1.894 1.559 0 2.197 0.748 2.197 2.024 0 0.727-0.251 1.349-0.963 2.573l-1.763 3.348h2.61v1.067h-4.164v-0.795z"></path>
<path fill="#fff" d="M13.402 5.536v7.909h1.031v1.020h-3.411v-1.020h1.036v-6.094l-1.109 0.978-0.586-0.685 2.029-2.113h1.009v0.005z"></path>
</svg>
