<!-- Generated by IcoMoon.io -->
<svg version="1.1" xmlns="http://www.w3.org/2000/svg" width="20" height="20" viewBox="0 0 20 20">
<title>number_20</title>
<path fill="#e21b1b" d="M10 0c-5.514 0-10 4.486-10 10s4.486 10 10 10 10-4.486 10-10c0-5.514-4.486-10-10-10v0z"></path>
<path fill="#fff" d="M5.21 13.67l1.972-3.798c0.722-1.387 0.879-2.009 0.879-2.474 0-0.733-0.262-0.962-0.769-0.962-0.612 0-0.874 0.528-0.874 1.47v0.507h-1.046c-0.073-0.387-0.141-0.685-0.141-1.067 0-0.905 0.612-1.894 2.061-1.894 1.559 0 2.197 0.748 2.197 2.024 0 0.727-0.251 1.349-0.963 2.573l-1.763 3.348h2.611v1.067h-4.164v-0.795z"></path>
<path fill="#fff" d="M10.416 8.083c0-2.354 1.386-2.631 2.202-2.631 0.785 0 2.176 0.235 2.176 2.631v3.777c0 2.343-1.412 2.683-2.176 2.683-0.848 0-2.202-0.335-2.202-2.683v-3.777zM12.617 13.487c0.533 0 0.8-0.319 0.8-1.057v-4.838c0-0.774-0.267-1.119-0.8-1.119-0.549 0-0.816 0.345-0.816 1.119v4.838c0 0.738 0.267 1.057 0.816 1.057z"></path>
</svg>
