<!-- Generated by IcoMoon.io -->
<svg version="1.1" xmlns="http://www.w3.org/2000/svg" width="19" height="20" viewBox="0 0 19 20">
<title>outgoing-force</title>
<path fill="#1a3c5a" d="M11.578 0.060l1.992 2.038-4.864 4.701 1.016 1.039 4.864-4.701-0.512-0.524 2.496-2.554z"></path>
<path fill="#00284a" d="M16.57 5.169v-5.108l-2.496 2.554z"></path>
<path fill="#1a3c5a" d="M16.413 15.069l-2.038 1.992-4.701-4.864-1.039 1.016 4.701 4.864 0.524-0.512 2.554 2.496z"></path>
<path fill="#00284a" d="M13.859 17.565l-2.554 2.496h5.108z"></path>
<path fill="#0e358e" d="M11.143 9.040c0.495 2.325-0.993 4.638-3.325 5.166s-4.624-0.928-5.12-3.252c-0.495-2.325 0.993-4.638 3.325-5.166s4.624 0.928 5.12 3.252z"></path>
<path fill="#397ba0" d="M9.749 9.298c0.336 1.575-0.673 3.142-2.253 3.5s-3.133-0.628-3.468-2.203c-0.336-1.575 0.673-3.142 2.253-3.5s3.133 0.628 3.468 2.203z"></path>
</svg>
