<!-- Generated by IcoMoon.io -->
<svg version="1.1" xmlns="http://www.w3.org/2000/svg" width="20" height="20" viewBox="0 0 20 20">
<title>page-properties</title>
<path d="M18.97 7.778h-1.871c-0.301 0-0.549-0.166-0.664-0.443s-0.057-0.57 0.156-0.783l1.323-1.323c0.194-0.194 0.301-0.453 0.301-0.728s-0.107-0.534-0.301-0.729l-1.686-1.686c-0.389-0.389-1.067-0.39-1.457 0l-1.323 1.323c-0.213 0.212-0.506 0.271-0.783 0.156s-0.443-0.363-0.443-0.664v-1.871c0-0.568-0.462-1.030-1.030-1.030h-2.385c-0.568 0-1.030 0.462-1.030 1.030v1.871c0 0.301-0.166 0.549-0.443 0.664s-0.57 0.056-0.783-0.156l-1.323-1.323c-0.39-0.39-1.068-0.389-1.457 0l-1.686 1.686c-0.194 0.194-0.301 0.453-0.301 0.729s0.107 0.533 0.301 0.728l1.323 1.323c0.212 0.213 0.27 0.505 0.156 0.783s-0.363 0.443-0.664 0.443h-1.871c-0.568 0-1.030 0.462-1.030 1.030v2.385c0 0.568 0.462 1.030 1.030 1.030h1.871c0.301 0 0.549 0.166 0.664 0.443s0.057 0.57-0.156 0.783l-1.323 1.323c-0.194 0.194-0.301 0.453-0.301 0.728s0.107 0.534 0.301 0.729l1.686 1.686c0.389 0.389 1.067 0.39 1.457 0l1.323-1.323c0.213-0.212 0.505-0.271 0.783-0.156s0.443 0.363 0.443 0.664v1.871c0 0.568 0.462 1.030 1.030 1.030h2.385c0.568 0 1.030-0.462 1.030-1.030v-1.871c0-0.301 0.166-0.549 0.443-0.664s0.57-0.057 0.783 0.156l1.323 1.323c0.39 0.39 1.068 0.389 1.457 0l1.686-1.686c0.194-0.194 0.301-0.453 0.301-0.729s-0.107-0.533-0.301-0.728l-1.323-1.323c-0.212-0.213-0.27-0.505-0.156-0.783s0.363-0.443 0.664-0.443h1.871c0.568 0 1.030-0.462 1.030-1.030v-2.385c0-0.568-0.462-1.030-1.030-1.030zM19.259 11.193c0 0.159-0.13 0.289-0.289 0.289h-1.871c-0.601 0-1.118 0.345-1.348 0.901s-0.109 1.165 0.316 1.59l1.323 1.323c0.113 0.113 0.113 0.296 0 0.409l-1.686 1.686c-0.113 0.113-0.296 0.113-0.409 0l-1.323-1.323c-0.426-0.426-1.035-0.546-1.59-0.316s-0.901 0.747-0.901 1.348v1.871c0 0.159-0.13 0.289-0.289 0.289h-2.385c-0.159 0-0.289-0.13-0.289-0.289v-1.871c0-0.601-0.345-1.118-0.901-1.348-0.186-0.077-0.378-0.115-0.568-0.115-0.376 0-0.74 0.148-1.023 0.431l-1.323 1.323c-0.113 0.113-0.297 0.113-0.409 0l-1.686-1.686c-0.113-0.113-0.113-0.296 0-0.409l1.323-1.323c0.425-0.425 0.547-1.035 0.316-1.59s-0.747-0.9-1.348-0.9h-1.871c-0.159 0-0.289-0.13-0.289-0.289v-2.385c0-0.159 0.13-0.289 0.289-0.289h1.871c0.601 0 1.118-0.345 1.348-0.901s0.109-1.165-0.316-1.59l-1.323-1.323c-0.113-0.113-0.113-0.296 0-0.409l1.686-1.686c0.113-0.113 0.296-0.113 0.409 0l1.323 1.323c0.425 0.425 1.034 0.547 1.59 0.316s0.901-0.746 0.901-1.348v-1.871c0-0.159 0.13-0.289 0.289-0.289h2.385c0.16 0 0.289 0.13 0.289 0.289v1.871c0 0.601 0.345 1.118 0.901 1.348s1.165 0.109 1.59-0.316l1.323-1.323c0.113-0.113 0.297-0.113 0.409 0l1.686 1.686c0.113 0.113 0.113 0.296 0 0.409l-1.323 1.323c-0.425 0.425-0.547 1.035-0.316 1.59s0.747 0.901 1.348 0.901h1.871c0.159-0 0.289 0.129 0.289 0.289v2.385z"></path>
<path d="M10 6.667c-1.838 0-3.333 1.495-3.333 3.333s1.495 3.333 3.333 3.333 3.333-1.495 3.333-3.333-1.495-3.333-3.333-3.333zM10 12.593c-1.429 0-2.593-1.163-2.593-2.593s1.163-2.593 2.593-2.593 2.593 1.163 2.593 2.593-1.163 2.593-2.593 2.593z"></path>
</svg>
