<!-- Generated by IcoMoon.io -->
<svg version="1.1" xmlns="http://www.w3.org/2000/svg" width="20" height="20" viewBox="0 0 20 20">
<title>paste-format</title>
<path fill="#6d6d6d" d="M19.236 0.764c-0.812-0.812-2.787-0.154-4.411 1.47-1.325 1.325-2.436 2.655-3.235 3.823l-2.941-2.941c-0.077-0.077-0.183-0.124-0.288-0.128s-0.207 0.035-0.278 0.106c-0.407 0.407-0.814 0.814-1.221 1.221-0.071 0.071-0.11 0.174-0.106 0.278s0.052 0.21 0.129 0.287l8.234 8.234c0.077 0.077 0.182 0.124 0.287 0.129s0.207-0.035 0.278-0.106c0.407-0.407 0.814-0.814 1.221-1.221 0.071-0.071 0.11-0.174 0.106-0.278s-0.051-0.211-0.128-0.288l-2.941-2.941c1.168-0.798 2.498-1.91 3.823-3.235 1.624-1.624 2.282-3.599 1.47-4.411z"></path>
<path fill="#2db395" d="M0.416 11.35l0.948 0.948c0.933-0.968 2.433-2.486 2.538-2.334 0.098 0.141-1.237 1.616-2.212 2.66l0.969 0.969c0.717-0.67 1.693-1.539 1.831-1.446s-0.735 1.104-1.418 1.859l1.628 1.627c0.826-0.914 2.093-2.27 2.228-2.141 0.138 0.132-1.079 1.601-1.856 2.512l1.125 1.125c1.317-1.373 4.074-4.204 4.26-4.058 0.177 0.139-2.436 2.871-3.919 4.399l1.060 1.060c0.563-0.459 1.149-0.896 1.22-0.796 0.061 0.085-0.326 0.632-0.788 1.229l0.619 0.619 5.881-5.881-8.234-8.234z"></path>
</svg>
