<!-- Generated by IcoMoon.io -->
<svg version="1.1" xmlns="http://www.w3.org/2000/svg" width="20" height="20" viewBox="0 0 20 20">
<title>paste</title>
<path fill="#fff" d="M11.313 4.855c0.026 0.003 0.051 0.007 0.077 0.012 0.008 0.002 0.016 0.004 0.024 0.006 0.018 0.004 0.035 0.008 0.053 0.014 0.011 0.003 0.021 0.007 0.032 0.010 0.015 0.005 0.031 0.011 0.046 0.017 0.009 0.004 0.019 0.007 0.028 0.011 0.023 0.010 0.045 0.021 0.067 0.032 0.007 0.004 0.013 0.008 0.020 0.012 0.016 0.009 0.033 0.019 0.049 0.030 0.008 0.005 0.015 0.010 0.023 0.016 0.015 0.011 0.030 0.022 0.045 0.033 0.006 0.005 0.013 0.010 0.019 0.015 0.020 0.017 0.039 0.034 0.058 0.053 0 0 0.001 0.001 0.001 0.001l1.478 1.478v-4.169h-1.871c-0.125 0.353-0.461 0.606-0.856 0.606h-4.848c-0.396 0-0.731-0.253-0.856-0.606h-1.871v13.333h1.818v-10c0-0.502 0.407-0.909 0.909-0.909h5.455c0.005 0 0.009 0.001 0.014 0.001 0.021 0 0.043 0.001 0.064 0.003 0.008 0.001 0.016 0.001 0.024 0.002z"></path>
<path fill="#a78966" d="M9.644 1.212h0.962c0.269 0 0.51 0.117 0.676 0.303 0.144 0.161 0.233 0.373 0.233 0.606 0 0.106-0.019 0.208-0.053 0.303h1.871v4.169l1.818 1.818v-6.896c0-0.502-0.407-0.909-0.909-0.909h-4.598c0.034 0.095 0.053 0.197 0.053 0.303s-0.019 0.208-0.053 0.303z"></path>
<path fill="#806749" d="M4.848 15.758h-1.818v-13.333h1.871c-0.034-0.095-0.053-0.197-0.053-0.303 0-0.233 0.089-0.445 0.233-0.606 0.166-0.186 0.407-0.303 0.676-0.303h0.962c-0.034-0.095-0.053-0.197-0.053-0.303s0.019-0.208 0.053-0.303h-4.598c-0.502 0-0.909 0.407-0.909 0.909v15.152c0 0.502 0.407 0.909 0.909 0.909h2.727v-1.818z"></path>
<path fill="#e0e0e2" d="M5.757 20h12.121c0.502 0 0.909-0.407 0.909-0.909v-6.643c-0.013 0.491-0.414 0.886-0.908 0.886-0 0-0.001 0-0.001 0h-6.667c-0.495 0-0.897-0.396-0.908-0.888-0-0.007-0.001-0.014-0.001-0.021v-6.667c0-0.368 0.221-0.699 0.561-0.84 0.117-0.048 0.24-0.070 0.362-0.068-0.005-0-0.009-0.001-0.014-0.001h-5.455c-0.502 0-0.909 0.407-0.909 0.909v13.333c0 0.502 0.407 0.909 0.909 0.909z"></path>
<path fill="#d6d5d8" d="M11.854 5.115l0 0c-0-0-0.001-0.001-0.001-0.001s0.001 0 0.001 0.001z"></path>
<path fill="#ffb655" d="M6.719 1.212h-0.962c-0.269 0-0.51 0.117-0.676 0.303-0.144 0.161-0.233 0.373-0.233 0.606 0 0.106 0.019 0.208 0.053 0.303 0.125 0.353 0.461 0.606 0.856 0.606h4.849c0.396 0 0.731-0.253 0.856-0.606 0.034-0.095 0.053-0.197 0.053-0.303 0-0.233-0.089-0.445-0.233-0.606-0.166-0.186-0.407-0.303-0.676-0.303h-0.962c0.034-0.095 0.053-0.197 0.053-0.303s-0.019-0.208-0.053-0.303c-0.125-0.353-0.461-0.606-0.856-0.606h-1.212c-0.396 0-0.731 0.253-0.856 0.606-0.034 0.095-0.053 0.197-0.053 0.303s0.019 0.208 0.053 0.303z"></path>
<path fill="#c6c5ca" d="M13.333 6.593l-1.478-1.478c-0-0-0.001-0-0.001-0.001-0.019-0.019-0.038-0.036-0.058-0.053-0.006-0.005-0.013-0.010-0.019-0.015-0.015-0.012-0.029-0.023-0.045-0.033-0.008-0.005-0.015-0.010-0.023-0.016-0.016-0.010-0.032-0.020-0.049-0.030-0.007-0.004-0.013-0.008-0.020-0.012-0.022-0.012-0.044-0.022-0.067-0.032-0.009-0.004-0.019-0.008-0.028-0.011-0.015-0.006-0.030-0.012-0.046-0.017-0.011-0.004-0.021-0.007-0.032-0.010-0.017-0.005-0.035-0.010-0.053-0.014-0.008-0.002-0.016-0.004-0.024-0.006-0.025-0.005-0.051-0.009-0.077-0.012-0.008-0.001-0.016-0.001-0.024-0.002-0.021-0.002-0.043-0.003-0.064-0.003-0.122-0.002-0.245 0.020-0.362 0.068-0.34 0.141-0.561 0.472-0.561 0.84v6.667c0 0.007 0.001 0.014 0.001 0.021 0.011 0.492 0.413 0.888 0.908 0.888h6.667c0 0 0.001 0 0.001 0 0.494 0 0.895-0.395 0.908-0.886 0-0.008 0.001-0.016 0.001-0.023 0-0.219-0.078-0.419-0.207-0.575-0.001-0.001-0.002-0.003-0.004-0.004-0.017-0.020-0.035-0.040-0.053-0.059-0.003-0.003-0.005-0.005-0.007-0.008-0.008-0.008-0.016-0.017-0.024-0.024l-5.161-5.161z"></path>
<path fill="#a9a8ae" d="M11.313 4.855c0.026 0.003 0.051 0.007 0.077 0.012 0.008 0.002 0.016 0.004 0.024 0.006 0.018 0.004 0.035 0.008 0.053 0.014 0.011 0.003 0.021 0.007 0.032 0.010 0.015 0.005 0.031 0.011 0.046 0.017 0.009 0.004 0.019 0.007 0.028 0.011 0.023 0.010 0.045 0.021 0.067 0.032 0.007 0.004 0.013 0.008 0.020 0.012 0.016 0.009 0.033 0.019 0.049 0.030 0.008 0.005 0.015 0.010 0.023 0.016 0.015 0.011 0.030 0.022 0.045 0.033 0.006 0.005 0.013 0.010 0.019 0.015 0.020 0.017 0.039 0.034 0.058 0.053 0 0 0.001 0.001 0.001 0.001l1.478 1.478v-4.169h-1.871c-0.125 0.353-0.461 0.606-0.856 0.606h-4.848c-0.396 0-0.731-0.253-0.856-0.606h-1.871v13.333h1.818v-10c0-0.502 0.407-0.909 0.909-0.909h5.455c0.005 0 0.009 0.001 0.014 0.001 0.021 0 0.043 0.001 0.064 0.003 0.008 0.001 0.016 0.001 0.024 0.002z"></path>
<path fill="#ee8700" d="M7.575 0c-0.396 0-0.731 0.253-0.856 0.606-0.034 0.095-0.053 0.197-0.053 0.303s0.019 0.208 0.053 0.303h-0.962c-0.269 0-0.51 0.117-0.676 0.303-0.144 0.161-0.233 0.373-0.233 0.606 0 0.106 0.019 0.208 0.053 0.303 0.125 0.353 0.461 0.606 0.856 0.606h2.425v-3.030h-0.607z"></path>
</svg>
