<!-- Generated by IcoMoon.io -->
<svg version="1.1" xmlns="http://www.w3.org/2000/svg" width="18" height="20" viewBox="0 0 18 20">
<title>pdf</title>
<path fill="#fff" d="M14.696 15.283h2.348c0.325 0 0.587 0.263 0.587 0.587s-0.262 0.587-0.587 0.587h-2.348c-0.325 0-0.587-0.262-0.587-0.587s0.262-0.587 0.587-0.587z"></path>
<path fill="#e2574c" d="M17.044 18.219v-12.344l-5.287-5.267h-9.976c-0.648 0-1.174 0.525-1.174 1.174v16.437c0 0.649 0.526 1.174 1.174 1.174h14.089c0.757 0 1.174-0.522 1.174-1.174z"></path>
<path fill="#b53629" d="M17.027 5.891h-4.092c-0.648 0-1.174-0.526-1.174-1.174v-4.098z"></path>
<path fill="#fff" d="M12.64 9.509c0.197 0 0.293-0.171 0.293-0.338 0-0.172-0.1-0.338-0.293-0.338h-1.12c-0.219 0-0.341 0.181-0.341 0.382v2.753c0 0.245 0.14 0.382 0.329 0.382 0.188 0 0.328-0.136 0.328-0.382v-0.755h0.677c0.21 0 0.315-0.172 0.315-0.343 0-0.167-0.105-0.333-0.315-0.333h-0.677v-1.027c0 0 0.804 0 0.804 0zM8.855 8.833h-0.82c-0.222 0-0.38 0.153-0.38 0.379v2.757c0 0.281 0.227 0.369 0.39 0.369h0.86c1.018 0 1.69-0.67 1.69-1.704-0.001-1.093-0.633-1.802-1.74-1.802zM8.894 11.659h-0.5v-2.146h0.45c0.682 0 0.978 0.457 0.978 1.088 0 0.591-0.291 1.058-0.929 1.058zM5.892 8.833h-0.812c-0.23 0-0.358 0.151-0.358 0.382v2.753c0 0.245 0.147 0.382 0.344 0.382s0.344-0.136 0.344-0.382v-0.804h0.509c0.628 0 1.146-0.445 1.146-1.161 0-0.7-0.5-1.17-1.174-1.17zM5.878 10.518h-0.468v-1.038h0.468c0.289 0 0.473 0.225 0.473 0.52s-0.184 0.519-0.473 0.519z"></path>
</svg>
