<!-- Generated by IcoMoon.io -->
<svg version="1.1" xmlns="http://www.w3.org/2000/svg" width="22" height="20" viewBox="0 0 22 20">
<title>positive-correlation</title>
<path fill="#2b31e3" d="M15.436 19.378h-4.73l-2.843-4.666q-0.319-0.531-0.612-0.948t-0.599-0.708q-0.293-0.303-0.625-0.455-0.319-0.164-0.701-0.164h-1.109v6.942h-4.118v-18.133h6.528q6.656 0 6.656 4.931 0 0.948-0.293 1.758-0.293 0.797-0.829 1.442t-1.301 1.113q-0.752 0.468-1.683 0.733v0.051q0.408 0.126 0.791 0.417 0.382 0.278 0.74 0.658t0.676 0.822q0.332 0.43 0.599 0.847zM4.216 4.306v5.045h1.785q1.326 0 2.129-0.759 0.816-0.771 0.816-1.909 0-2.377-2.869-2.377z"></path>
<path fill="#2b31e3" d="M18.776 12.603v3.699h-2.153v-3.699h-3.568v-1.911h3.568v-3.68h2.153v3.68h3.568v1.911z"></path>
</svg>
