<!-- Generated by IcoMoon.io -->
<svg version="1.1" xmlns="http://www.w3.org/2000/svg" width="20" height="20" viewBox="0 0 20 20">
<title>print</title>
<path fill="#57555c" d="M4.102 8.203h-2.344c-0.324 0-0.586-0.262-0.586-0.586v-2.344c0-0.969 0.789-1.758 1.758-1.758h1.172c0.324 0 0.586 0.262 0.586 0.586v3.516c0 0.324-0.262 0.586-0.586 0.586z"></path>
<path fill="#3c3a41" d="M18.828 7.617c0 0.324-0.262 0.586-0.586 0.586h-2.344c-0.324 0-0.586-0.262-0.586-0.586l-1.172-3.516c0-0.324 0.262-0.586 0.586-0.586h2.344c0.969 0 1.758 0.789 1.758 1.758v2.344z"></path>
<path fill="#e5e5e5" d="M16.484 4.688v2.93c0 0.328-0.258 0.586-0.586 0.586h-11.797c-0.328 0-0.586-0.258-0.586-0.586v-7.031c0-0.328 0.258-0.586 0.586-0.586h7.695l1.172 3.516 3.516 1.172z"></path>
<path fill="#d9d9d9" d="M15.898 8.203h-5.898v-8.203h1.797l1.172 3.516 3.516 1.172v2.93c0 0.328-0.258 0.586-0.586 0.586z"></path>
<path fill="#1ba9ef" d="M18.242 7.031h-16.484c-0.973 0-1.758 0.785-1.758 1.758v7.109c0 0.973 0.785 1.758 1.758 1.758h16.484c0.973 0 1.758-0.785 1.758-1.758v-7.109c0-0.973-0.785-1.758-1.758-1.758z"></path>
<path fill="#fe9923" d="M11.797 4.102c0 0.328 0.258 0.586 0.586 0.586h4.102l-4.688-4.688v4.102z"></path>
<path fill="#1689fc" d="M20 8.789v7.109c0 0.973-0.785 1.758-1.758 1.758h-8.242v-10.625h8.242c0.973 0 1.758 0.785 1.758 1.758z"></path>
<path fill="#e1e4fb" d="M4.102 10.547h-1.172c-0.324 0-0.586-0.262-0.586-0.586s0.262-0.586 0.586-0.586h1.172c0.324 0 0.586 0.262 0.586 0.586s-0.262 0.586-0.586 0.586z"></path>
<path fill="#e5e5e5" d="M16.484 12.5v6.914c0 0.328-0.258 0.586-0.586 0.586h-11.797c-0.328 0-0.586-0.258-0.586-0.586v-6.914h12.969z"></path>
<path fill="#d9d9d9" d="M16.484 12.5v6.914c0 0.328-0.258 0.586-0.586 0.586h-5.898v-7.5h6.484z"></path>
<path fill="#aeadb3" d="M14.141 14.727c0 0.328-0.258 0.586-0.586 0.586h-7.109c-0.328 0-0.586-0.258-0.586-0.586s0.258-0.586 0.586-0.586h7.109c0.328 0 0.586 0.258 0.586 0.586z"></path>
<path fill="#aeadb3" d="M14.141 17.070c0 0.328-0.258 0.586-0.586 0.586h-7.109c-0.328 0-0.586-0.258-0.586-0.586s0.258-0.586 0.586-0.586h7.109c0.328 0 0.586 0.258 0.586 0.586z"></path>
<path fill="#8b8892" d="M14.141 17.070c0 0.328-0.258 0.586-0.586 0.586h-3.555v-1.172h3.555c0.328 0 0.586 0.258 0.586 0.586z"></path>
<path fill="#8b8892" d="M14.141 14.727c0 0.328-0.258 0.586-0.586 0.586h-3.555v-1.172h3.555c0.328 0 0.586 0.258 0.586 0.586z"></path>
<path fill="#57555c" d="M17.656 12.383c0 0.328-0.258 0.586-0.586 0.586h-14.141c-0.328 0-0.586-0.258-0.586-0.586s0.258-0.586 0.586-0.586h14.141c0.328 0 0.586 0.258 0.586 0.586z"></path>
<path fill="#3c3a41" d="M17.656 12.383c0 0.328-0.258 0.586-0.586 0.586h-7.070v-1.172h7.070c0.328 0 0.586 0.258 0.586 0.586z"></path>
</svg>
