<!-- Generated by IcoMoon.io -->
<svg version="1.1" xmlns="http://www.w3.org/2000/svg" width="20" height="20" viewBox="0 0 20 20">
<title>progress</title>
<path fill="#b1361c" d="M13.11 5.205l4.556-3.189 0.637 0.91-5.086 3.56-4.512-2.141-3.015 5.689-3.623 2.249-0.586-0.944 3.368-2.090 3.373-6.363 4.889 2.319z"></path>
<path fill="#529a3c" d="M8.725 15.188l4.063-4.541 5.378 2.592-0.482 1.001-4.625-2.229-4.133 4.619-3.682-2.332-3.608 2.831-0.686-0.874 4.226-3.316 3.55 2.248z"></path>
<path fill="#0f657f" d="M2.222 17.751h17.39v2.222h-18.501c-0.614 0-1.111-0.497-1.111-1.111v-18.863h2.222v17.751z"></path>
</svg>
