<!-- Generated by IcoMoon.io -->
<svg version="1.1" xmlns="http://www.w3.org/2000/svg" width="20" height="20" viewBox="0 0 20 20">
<title>redo</title>
<path fill="#26b99a" d="M11.854 6.11v-4.59l7.609 7.65-7.609 7.65v-4.59c0 0-6.757-1.635-11.372 6.12 0 0-1.151-5.919 4.004-10.208 0-0 2.335-2.184 7.368-2.032z"></path>
<path fill="#26b99a" d="M0.298 19.403l-0.19-0.98c-0.012-0.061-1.133-6.191 4.134-10.574 0.077-0.073 2.33-2.128 7.115-2.128 0.039 0 0.077 0 0.116 0v-5.125l8.527 8.574-8.527 8.574v-5.196c-0.252-0.037-0.657-0.081-1.17-0.081-2.195 0-6.346 0.79-9.493 6.078l-0.511 0.858zM11.357 6.484c-4.487 0-6.59 1.918-6.611 1.937-3.637 3.027-4.030 6.923-3.982 8.781 4.709-6.88 11.096-5.361 11.18-5.341l0.291 0.070v3.966l6.691-6.727-6.691-6.727v4.059l-0.392-0.011c-0.165-0.005-0.327-0.007-0.486-0.007z"></path>
</svg>
