<!-- Generated by IcoMoon.io -->
<svg version="1.1" xmlns="http://www.w3.org/2000/svg" width="20" height="20" viewBox="0 0 20 20">
<title>reference-state</title>
<path fill="#39b29d" d="M4.168 3.588h11.73c0.324 0 0.586-0.262 0.586-0.586v-1.759c0-0.324-0.262-0.586-0.586-0.586h-11.73c-0.324 0-0.586 0.263-0.586 0.586v1.759c0 0.324 0.263 0.586 0.586 0.586zM15.898 14.145c0.324 0 0.586-0.262 0.586-0.586v-1.759c0-0.324-0.262-0.586-0.586-0.586h-11.73c-0.324 0-0.586 0.262-0.586 0.586v1.759c0 0.324 0.263 0.586 0.586 0.586zM15.868 16.412h-11.69c-0.324 0-0.586 0.262-0.586 0.586v1.759c0 0.324 0.263 0.586 0.586 0.586h11.69c0.324 0 0.586-0.262 0.586-0.586v-1.759c0-0.324-0.262-0.586-0.586-0.586z"></path>
<path fill="#bc2f36" d="M18.837 5.911h-17.594c-0.324 0-0.586 0.263-0.586 0.586v1.759c0 0.324 0.263 0.586 0.586 0.586h17.594c0.324 0 0.586-0.262 0.586-0.586v-1.759c0-0.324-0.262-0.586-0.586-0.586z"></path>
</svg>
