<!-- Generated by IcoMoon.io -->
<svg version="1.1" xmlns="http://www.w3.org/2000/svg" width="22" height="20" viewBox="0 0 22 20">
<title>reference-variation</title>
<path fill="#868080" d="M11.027 9.925l4.23-3.172c0.281-0.211 0.282-0.634 0-0.846l-4.23-3.172c-0.349-0.262-0.846-0.020-0.846 0.423v1.057h-5.111c-0.292 0-0.529 0.237-0.529 0.529v3.169c0 0.292 0.237 0.529 0.529 0.529h5.111v1.061c0 0.438 0.5 0.682 0.846 0.423z"></path>
<path fill="#5c5c5c" d="M5.070 4.215h2.291v4.226h-2.291c-0.292 0-0.529-0.237-0.529-0.529v-3.169c0-0.292 0.237-0.529 0.529-0.529z"></path>
<path fill="#868080" d="M15.729 17.822l4.23-3.172c0.281-0.211 0.282-0.634 0-0.846l-4.23-3.172c-0.349-0.262-0.846-0.020-0.846 0.423v1.057h-9.783c-0.292 0-0.529 0.237-0.529 0.529v3.169c0 0.292 0.237 0.529 0.529 0.529h9.783v1.061c0 0.438 0.5 0.682 0.846 0.423z"></path>
<path fill="#5c5c5c" d="M5.099 12.112h2.291v4.226h-2.291c-0.292 0-0.529-0.237-0.529-0.529v-3.169c0-0.292 0.237-0.529 0.529-0.529z"></path>
<path fill="#d72f2f" d="M1.996 1.583h0.824c0.228 0 0.412 0.185 0.412 0.412v16.009c0 0.228-0.185 0.412-0.412 0.412h-0.824c-0.228 0-0.412-0.185-0.412-0.412v-16.009c0-0.228 0.185-0.412 0.412-0.412z"></path>
</svg>
