<!-- Generated by IcoMoon.io -->
<svg version="1.1" xmlns="http://www.w3.org/2000/svg" width="19" height="20" viewBox="0 0 19 20">
<title>reference-structure</title>
<path fill="#1a3d5a" d="M10.295 9.998l5.698 6.513-1.075 0.941-5.698-6.513z"></path>
<path fill="#1a3d5a" d="M8.514 9.255l1.149 0.849-5.525 7.482-1.149-0.849z"></path>
<path fill="#1a3d5a" d="M3.356 2.132l6.342 7.201-1.072 0.944-6.342-7.201z"></path>
<path fill="#0e358e" d="M5.604 2.219c0.308 1.443-0.617 2.878-2.064 3.207s-2.87-0.576-3.177-2.019c-0.307-1.443 0.617-2.878 2.064-3.207s2.87 0.576 3.178 2.019z"></path>
<path fill="#397ba0" d="M4.739 2.379c0.208 0.977-0.418 1.95-1.398 2.172s-1.944-0.39-2.153-1.367c-0.208-0.977 0.418-1.95 1.398-2.172s1.944 0.39 2.153 1.367z"></path>
<path fill="#1a3d5a" d="M16.429 3.779l0.806 1.18-7.681 5.245-0.806-1.18z"></path>
<path fill="#0e358e" d="M18.639 4.302c0.308 1.443-0.617 2.878-2.064 3.207s-2.87-0.576-3.178-2.019c-0.308-1.443 0.617-2.878 2.064-3.207s2.87 0.576 3.178 2.019z"></path>
<path fill="#397ba0" d="M17.774 4.462c0.208 0.977-0.418 1.95-1.398 2.172s-1.944-0.39-2.153-1.367c-0.208-0.977 0.418-1.95 1.398-2.172s1.944 0.39 2.153 1.367z"></path>
<path fill="#0e358e" d="M6.748 16.017c0.308 1.443-0.617 2.878-2.064 3.207s-2.87-0.576-3.177-2.019c-0.308-1.443 0.617-2.878 2.064-3.207s2.87 0.576 3.177 2.019z"></path>
<path fill="#397ba0" d="M5.882 16.177c0.208 0.977-0.418 1.95-1.398 2.172s-1.944-0.39-2.153-1.367c-0.208-0.977 0.418-1.95 1.398-2.172s1.944 0.39 2.153 1.367z"></path>
<path fill="#0e358e" d="M18.58 16.547c0.308 1.443-0.617 2.878-2.064 3.207s-2.87-0.576-3.177-2.019c-0.308-1.443 0.617-2.878 2.064-3.207s2.87 0.576 3.177 2.019z"></path>
<path fill="#397ba0" d="M17.715 16.707c0.208 0.977-0.418 1.95-1.398 2.172s-1.944-0.39-2.153-1.367c-0.208-0.977 0.418-1.95 1.398-2.172s1.944 0.39 2.153 1.367z"></path>
<path fill="#0e358e" d="M11.634 9.012c0.308 1.443-0.617 2.878-2.064 3.207s-2.87-0.576-3.177-2.019c-0.308-1.443 0.617-2.878 2.064-3.207s2.87 0.576 3.177 2.019z"></path>
<path fill="#397ba0" d="M10.768 9.172c0.208 0.977-0.418 1.95-1.398 2.172s-1.944-0.39-2.153-1.367c-0.208-0.977 0.418-1.95 1.398-2.172s1.944 0.39 2.153 1.367z"></path>
</svg>
