<!-- Generated by IcoMoon.io -->
<svg version="1.1" xmlns="http://www.w3.org/2000/svg" width="20" height="20" viewBox="0 0 20 20">
<title>refresh</title>
<path fill="#17ace8" d="M17.453 6.519c-0.187-0.293-0.574-0.352-0.855-0.152l-1.898 1.43c-0.234 0.176-0.305 0.504-0.152 0.762 0.48 0.82 0.727 1.699 0.727 2.613 0 2.906-2.367 5.273-5.273 5.273s-5.273-2.367-5.273-5.273c0-2.707 2.051-4.945 4.688-5.238v1.723c0 0.352 0.281 0.574 0.586 0.586 0.117 0 0.246-0.035 0.352-0.117l4.688-3.516c0.316-0.234 0.316-0.703 0-0.938l-4.688-3.555c-0.105-0.082-0.234-0.117-0.352-0.117-0.305 0-0.586 0.246-0.586 0.586v1.82c-4.57 0.293-8.203 4.113-8.203 8.766 0 4.852 3.938 8.828 8.789 8.828s8.789-3.977 8.789-8.828c0-1.641-0.469-3.246-1.336-4.652z"></path>
<path fill="#1689fc" d="M10.352 8.125c-0.105 0.082-0.234 0.117-0.352 0.117v-8.242c0.117 0 0.246 0.035 0.352 0.117l4.688 3.555c0.316 0.234 0.316 0.703 0 0.938l-4.688 3.516z"></path>
<path fill="#1689fc" d="M18.789 11.172c0 4.852-3.938 8.828-8.789 8.828v-3.555c2.906 0 5.273-2.367 5.273-5.273 0-0.914-0.246-1.793-0.727-2.613-0.152-0.258-0.082-0.586 0.152-0.762l1.898-1.43c0.281-0.199 0.668-0.141 0.855 0.152 0.867 1.406 1.336 3.012 1.336 4.652z"></path>
</svg>
