<!-- Generated by IcoMoon.io -->
<svg version="1.1" xmlns="http://www.w3.org/2000/svg" width="20" height="20" viewBox="0 0 20 20">
<title>removeEvidence</title>
<path fill="#44c936" d="M19.261 9.776c0 5.236-4.245 9.481-9.481 9.481s-9.481-4.245-9.481-9.481c0-5.236 4.245-9.481 9.481-9.481s9.481 4.245 9.481 9.481z"></path>
<path fill="#000" d="M9.779-0.001c-5.397 0-9.778 4.381-9.778 9.778s4.381 9.778 9.778 9.778c5.396 0 9.778-4.381 9.778-9.778s-4.381-9.778-9.778-9.778zM9.779 0.591c5.069 0 9.185 4.116 9.185 9.185s-4.116 9.185-9.185 9.185c-5.070 0-9.185-4.116-9.185-9.185s4.116-9.185 9.185-9.185z"></path>
<path fill="#fff" d="M15.243 13.609l-3.841-3.841 3.824-3.841-1.613-1.613-3.824 3.841-3.825-3.825-1.613 1.613 3.809 3.825-3.825 3.824 1.613 1.613 3.841-3.824 3.825 3.825 1.63-1.597z"></path>
<path fill="#000" d="M9.788 7.734l3.824-3.841 2.033 2.032-3.825 3.841 3.844 3.844-2.053 2.012-3.823-3.823-3.841 3.824-2.032-2.032 3.825-3.825-3.809-3.825 2.032-2.032 3.825 3.824zM9.789 8.573l-3.826-3.825-1.195 1.194 3.809 3.825-3.824 3.824 1.195 1.195 3.841-3.824 3.827 3.827 1.206-1.182-3.839-3.839 3.824-3.841-1.194-1.195-3.824 3.841z"></path>
<path fill="#000" d="M9.779-0.001c-5.396 0-9.778 4.381-9.778 9.778s4.381 9.778 9.778 9.778 9.778-4.381 9.778-9.778c0-5.397-4.381-9.778-9.778-9.778zM9.779 0.591c5.069 0 9.185 4.116 9.185 9.185s-4.116 9.185-9.185 9.185c-5.070 0-9.185-4.116-9.185-9.185s4.116-9.185 9.185-9.185z"></path>
<path fill="#000" d="M9.788 7.735l3.825-3.841 2.032 2.032-3.825 3.841 3.844 3.844-2.053 2.012-3.823-3.823-3.841 3.825-2.032-2.032 3.826-3.825-3.809-3.825 2.032-2.032 3.825 3.825zM9.789 8.574l-3.826-3.826-1.195 1.195 3.809 3.825-3.825 3.825 1.195 1.195 3.841-3.825 3.827 3.827 1.206-1.182-3.839-3.839 3.825-3.841-1.194-1.194-3.825 3.841z"></path>
</svg>
