<!-- Generated by IcoMoon.io -->
<svg version="1.1" xmlns="http://www.w3.org/2000/svg" width="20" height="20" viewBox="0 0 20 20">
<title>reset</title>
<path fill="#357180" d="M0 10c0-5.524 4.477-10 10-10s10 4.477 10 10c0 5.522-4.477 10-10 10s-10-4.477-10-10z"></path>
<path fill="#fff" d="M13.648 5.676c-0.845-0.232-1.907-0.075-2.767-0.075-0.721 0-1.442 0-2.163 0 0-0.394 0-0.788 0-1.182 0-0.109-0.049-0.186-0.118-0.234-0.083-0.076-0.204-0.104-0.328-0.024-1.141 0.731-2.281 1.462-3.421 2.193-0.192 0.123-0.189 0.389 0.002 0.512 1.14 0.731 2.281 1.462 3.421 2.193 0.189 0.121 0.444-0.039 0.444-0.254 0-0.476 0-0.951 0-1.427 1.392 0 2.785 0 4.177 0 0.9 0 1.119 0.67 1.119 1.424 0 0.918 0 1.836 0 2.753 0 0.782-0.568 1.099-1.263 1.099-0.819 0-1.639 0-2.459 0-1.584 0-3.168 0-4.752 0-1.147 0-1.157 1.777-0.013 1.777 1.83 0 3.659 0 5.489 0 0.66 0 1.32 0 1.98 0 1.541 0 2.794-1.284 2.794-2.816 0-2.143 0.545-5.2-2.142-5.939z"></path>
</svg>
