<!-- Generated by IcoMoon.io -->
<svg version="1.1" xmlns="http://www.w3.org/2000/svg" width="20" height="20" viewBox="0 0 20 20">
<title>rotate-right</title>
<path fill="#2488ff" d="M19 6.764l-1.879 0.794c0.389 0.922 0.587 1.901 0.587 2.911 0 4.131-3.36 7.491-7.491 7.491s-7.491-3.36-7.491-7.491c0-2.11 0.899-4.121 2.441-5.532l-0.297-0.298 4.639-4.639h-9.256l3.474 3.491c-0.792 0.738-1.46 1.61-1.961 2.567-0.707 1.351-1.080 2.877-1.080 4.411 0 5.255 4.276 9.531 9.531 9.531s9.531-4.276 9.531-9.531c0-1.284-0.251-2.531-0.747-3.705z"></path>
<path fill="#005ece" d="M5.166 4.937l4.343 4.364v-9.301l-4.639 4.639z"></path>
</svg>
