<!-- Generated by IcoMoon.io -->
<svg version="1.1" xmlns="http://www.w3.org/2000/svg" width="20" height="20" viewBox="0 0 20 20">
<title>rotate3d-auto</title>
<path fill="#2488ff" d="M19.474 9.6l-1.901 0.004c0.007 0.051 0.010 0.111 0.010 0.171 0 0.933-0.898 1.775-2.341 2.373l-0.003 0.001 0.797 0.795c2.112-0.759 3.447-1.895 3.447-3.167 0-0.063-0.003-0.125-0.010-0.187l0.001 0.009z"></path>
<path fill="#2488ff" d="M9.912 5.669c-1.337 0.006-2.604 0.13-3.751 0.349l0.061-0.010c-3.291 0.631-5.571 2.009-5.698 3.623l-0 0.007 1.895-0.004c0.131-1.285 1.948-2.373 4.511-2.865l0.048-0.008c0.891-0.172 1.93-0.271 3.023-0.271 3.102 0 5.769 0.804 6.949 1.957l0.019 0.021c0.339 0.334 0.557 0.721 0.604 1.128l0.001 0.008 1.901-0.004c-0.050-0.532-0.326-1.030-0.787-1.485l0.024 0.026c-1.498-1.467-4.833-2.473-8.71-2.473-0.031 0-0.062 0-0.093 0l0.005-0z"></path>
<path fill="#4ba5b2" d="M6.82 2.164c-0.183 0.183-0.275 0.4-0.275 0.651v12.954c0 0.251 0.092 0.468 0.275 0.651s0.4 0.275 0.651 0.275c0.251 0 0.467-0.092 0.651-0.275l6.477-6.477c0.183-0.183 0.275-0.4 0.275-0.651s-0.092-0.468-0.275-0.651l-6.477-6.477c-0.183-0.183-0.4-0.275-0.651-0.275s-0.467 0.092-0.651 0.275z"></path>
<path fill="#2488ff" d="M2.418 9.634l-1.895 0.004c-0.004 0.044-0.006 0.097-0.006 0.149 0 0.587 0.285 1.145 0.797 1.65l-0.024-0.026c1.5 1.466 4.833 2.47 8.707 2.47 0.303 0 0.603-0.006 0.899-0.018l-0.038 0.001-0.807-0.805c-0.016 0-0.035 0-0.055 0-3.099 0-5.764-0.803-6.945-1.954l-0.019-0.021c-0.393-0.384-0.622-0.832-0.622-1.303 0-0.052 0.003-0.103 0.008-0.154l-0.001 0.007z"></path>
<path fill="#2488ff" d="M9.712 16.159l3.109-2.653h-3.093z"></path>
<path fill="#005ece" d="M9.712 11.052v2.454h3.109z"></path>
</svg>
