<!-- Generated by IcoMoon.io -->
<svg version="1.1" xmlns="http://www.w3.org/2000/svg" width="20" height="20" viewBox="0 0 20 20">
<title>rotate3d</title>
<path fill="#2488ff" d="M8.389 18.711c0.481 0.495 1.043 0.783 1.633 0.783 1.273 0 2.411-1.339 3.165-3.441l0.005-0.016-0.795-0.797c-0.6 1.451-1.443 2.353-2.378 2.353-0.471 0-0.92-0.229-1.325-0.643l0.021 0.019c-1.174-1.199-1.978-3.866-1.978-6.968 0-1.093 0.1-2.132 0.28-3.071l-0.008 0.049c0.519-2.713 1.673-4.573 3.015-4.573 0.473 0 0.922 0.231 1.329 0.647l-0.021-0.019c1.172 1.201 1.975 3.866 1.975 6.965 0 0.019-0 0.038-0 0.057v-0.003l0.805 0.807c0.011-0.258 0.017-0.558 0.017-0.861 0-3.875-1.004-7.207-2.444-8.683l-0.026-0.024c-0.482-0.496-1.044-0.784-1.635-0.784-1.677 0-3.12 2.324-3.758 5.655l-0.010 0.061c-0.214 1.113-0.339 2.412-0.339 3.779 0 3.877 1.005 7.212 2.447 8.686l0.026 0.024z"></path>
<path fill="#2488ff" d="M10.941 9.001l2.653 3.109v-3.093z"></path>
<path fill="#005ece" d="M16.048 9.001h-2.454v3.109z"></path>
<path fill="#2488ff" d="M18.711 8.141c0.495 0.481 0.783 1.043 0.783 1.633 0 1.273-1.339 2.411-3.441 3.165l-0.016 0.005-0.797-0.795c1.451-0.6 2.353-1.443 2.353-2.378 0-0.471-0.229-0.92-0.643-1.325l0.019 0.021c-1.199-1.174-3.866-1.978-6.968-1.978-1.093 0-2.132 0.1-3.071 0.28l0.049-0.008c-2.713 0.519-4.573 1.673-4.573 3.015 0 0.473 0.231 0.922 0.647 1.329l-0.019-0.021c1.201 1.172 3.866 1.975 6.965 1.975 0.019 0 0.038-0 0.057-0h-0.003l0.807 0.805c-0.258 0.011-0.558 0.017-0.861 0.017-3.875 0-7.207-1.004-8.683-2.444l-0.024-0.026c-0.496-0.482-0.784-1.044-0.784-1.635 0-1.677 2.324-3.12 5.655-3.758l0.061-0.010c1.113-0.214 2.412-0.339 3.779-0.339 3.877 0 7.212 1.005 8.686 2.447l0.024 0.026z"></path>
<path fill="#2488ff" d="M9.712 16.159l3.109-2.653h-3.093z"></path>
<path fill="#005ece" d="M9.712 11.052v2.454h3.109z"></path>
</svg>
