<!-- Generated by IcoMoon.io -->
<svg version="1.1" xmlns="http://www.w3.org/2000/svg" width="20" height="20" viewBox="0 0 20 20">
<title>rotate-left</title>
<path fill="#2488ff" d="M16.273 3.491l3.474-3.491h-9.256l4.639 4.639-0.297 0.298c1.541 1.411 2.441 3.422 2.441 5.532 0 4.131-3.36 7.491-7.491 7.491s-7.491-3.36-7.491-7.491c0-1.010 0.197-1.99 0.587-2.911l-1.879-0.794c-0.496 1.174-0.747 2.421-0.747 3.705 0 5.255 4.276 9.531 9.531 9.531s9.531-4.276 9.531-9.531c0-1.534-0.374-3.060-1.080-4.411-0.501-0.957-1.169-1.829-1.961-2.567z"></path>
<path fill="#005ece" d="M10.491 0v9.301l4.639-4.662z"></path>
</svg>
