<!-- Generated by IcoMoon.io -->
<svg version="1.1" xmlns="http://www.w3.org/2000/svg" width="19" height="20" viewBox="0 0 19 20">
<title>rotate-90-right</title>
<path fill="#005ece" d="M12.293 18.3l5.336-5.322h-5.336z"></path>
<path fill="#2488ff" d="M13.203 1.7h-8.578v1.8h8.578z"></path>
<path fill="#005ece" d="M7.407 7.324c-0.288-0.89-0.992-1.594-1.882-1.882-0.284-0.092-0.586-0.142-0.9-0.142v5.849c0.314 0 0.616-0.050 0.9-0.142 0.89-0.289 1.594-0.992 1.882-1.882 0.092-0.284 0.142-0.586 0.142-0.9s-0.050-0.616-0.142-0.9z"></path>
<path fill="#2588ff" d="M1.843 7.324c0.288-0.89 0.993-1.594 1.882-1.882 0.284-0.092 0.586-0.142 0.9-0.142v5.849c-0.314 0-0.616-0.050-0.9-0.142-0.89-0.289-1.594-0.992-1.882-1.882-0.092-0.284-0.142-0.586-0.142-0.9s0.050-0.616 0.142-0.9z"></path>
<path fill="#2488ff" d="M12.293 18.3l-5.308-5.322h4.418v-11.277h1.8v11.277h-0.91z"></path>
</svg>
