<!-- Generated by IcoMoon.io -->
<svg version="1.1" xmlns="http://www.w3.org/2000/svg" width="20" height="20" viewBox="0 0 20 20">
<title>save</title>
<path fill="#72a3fc" d="M19.828 3.297l-3.125-3.125c-0.11-0.11-0.259-0.172-0.414-0.172h-15.703c-0.324 0-0.586 0.262-0.586 0.586v18.828c0 0.324 0.262 0.586 0.586 0.586h18.828c0.324 0 0.586-0.262 0.586-0.586v-15.703c0-0.155-0.062-0.304-0.172-0.414z"></path>
<path fill="#2892fc" d="M19.828 3.297l-3.125-3.125c-0.11-0.11-0.259-0.172-0.414-0.172h-6.289v20h9.414c0.324 0 0.586-0.262 0.586-0.586v-15.703c0-0.155-0.062-0.304-0.172-0.414z"></path>
<path fill="#f9f9f9" d="M15.859 9.453h-11.719c-0.324 0-0.586 0.262-0.586 0.586v9.961h12.891v-9.961c0-0.324-0.262-0.586-0.586-0.586z"></path>
<path fill="#dfe4ea" d="M16.445 10.039c0-0.324-0.262-0.586-0.586-0.586h-5.859v10.547h6.445v-9.961z"></path>
<path fill="#fad557" d="M13.516 17.656h-7.031c-0.324 0-0.586-0.262-0.586-0.586s0.262-0.586 0.586-0.586h7.031c0.324 0 0.586 0.262 0.586 0.586s-0.262 0.586-0.586 0.586z"></path>
<path fill="#fad557" d="M13.516 12.969h-7.031c-0.324 0-0.586-0.262-0.586-0.586s0.262-0.586 0.586-0.586h7.031c0.324 0 0.586 0.262 0.586 0.586s-0.262 0.586-0.586 0.586z"></path>
<path fill="#fad557" d="M13.516 15.313h-7.031c-0.324 0-0.586-0.262-0.586-0.586s0.262-0.586 0.586-0.586h7.031c0.324 0 0.586 0.262 0.586 0.586s-0.262 0.586-0.586 0.586z"></path>
<path fill="#5458ea" d="M14.102 0h-10.547v5.664c0 0.324 0.262 0.586 0.586 0.586h9.375c0.324 0 0.586-0.262 0.586-0.586v-5.664z"></path>
<path fill="#3545e3" d="M10 0v6.25h3.516c0.324 0 0.586-0.262 0.586-0.586v-5.664h-4.102z"></path>
<path fill="#fcb12b" d="M13.516 16.484h-3.516v1.172h3.516c0.324 0 0.586-0.262 0.586-0.586s-0.262-0.586-0.586-0.586z"></path>
<path fill="#fcb12b" d="M13.516 11.797h-3.516v1.172h3.516c0.324 0 0.586-0.262 0.586-0.586s-0.262-0.586-0.586-0.586z"></path>
<path fill="#fcb12b" d="M13.516 14.141h-3.516v1.172h3.516c0.324 0 0.586-0.262 0.586-0.586s-0.262-0.586-0.586-0.586z"></path>
</svg>
