<!-- Generated by IcoMoon.io -->
<svg version="1.1" xmlns="http://www.w3.org/2000/svg" width="20" height="20" viewBox="0 0 20 20">
<title>search</title>
<path fill="#707487" d="M18.966 20h-5.517c-0.381 0-0.69-0.309-0.69-0.69v-1.379h6.897v1.379c-0 0.381-0.309 0.69-0.69 0.69z"></path>
<path fill="#959cb3" d="M19.655 17.931h-6.897l0.69-9.655h5.517z"></path>
<path fill="#82889d" d="M19.039 9.31l-0.074-1.034h-5.517l-0.69 9.655h2.759l0.319-8.621z"></path>
<path fill="#5b5d6e" d="M15.517 19.31v-1.379h-2.759v1.379c0 0.381 0.309 0.69 0.69 0.69h2.759c-0.381 0-0.69-0.309-0.69-0.69z"></path>
<path fill="#707487" d="M6.552 20h-5.517c-0.381 0-0.69-0.309-0.69-0.69v-1.379h6.897v1.379c-0 0.381-0.309 0.69-0.69 0.69z"></path>
<path fill="#959cb3" d="M7.241 17.931h-6.897l0.69-9.655h5.517z"></path>
<path fill="#82889d" d="M6.626 9.31l-0.074-1.034h-5.517l-0.69 9.655h2.759l0.319-8.621z"></path>
<path fill="#5b5d6e" d="M3.103 19.31v-1.379h-2.759v1.379c0 0.381 0.309 0.69 0.69 0.69h2.759c-0.381 0-0.69-0.309-0.69-0.69z"></path>
<path fill="#959cb3" d="M13.103 0.69h3.103v2.069h-3.103v-2.069z"></path>
<path fill="#82889d" d="M13.103 0.69h1.034v2.069h-1.034v-2.069z"></path>
<path fill="#707487" d="M16.207 1.034h-3.103c-0.19 0-0.345-0.154-0.345-0.345v-0.345c0-0.19 0.154-0.345 0.345-0.345h3.103c0.19 0 0.345 0.154 0.345 0.345v0.345c-0 0.19-0.154 0.345-0.345 0.345z"></path>
<path fill="#5b5d6e" d="M13.793 0.69v-0.345c0-0.19 0.154-0.345 0.345-0.345h-1.034c-0.19 0-0.345 0.154-0.345 0.345v0.345c0 0.19 0.154 0.345 0.345 0.345h1.034c-0.19-0-0.345-0.154-0.345-0.345z"></path>
<path fill="#959cb3" d="M3.793 0.69h3.103v2.069h-3.103v-2.069z"></path>
<path fill="#82889d" d="M3.793 0.69h1.034v2.069h-1.034v-2.069z"></path>
<path fill="#a2aac2" d="M18.926 8.621h-17.852c-0.396 0-0.711-0.333-0.689-0.728l0.25-4.502c0.030-0.548 0.484-0.977 1.033-0.977h6.322c0.183 0 0.358 0.073 0.488 0.202l0.286 0.286c0.129 0.129 0.305 0.202 0.488 0.202h1.497c0.183 0 0.358-0.073 0.488-0.202l0.286-0.286c0.129-0.129 0.305-0.202 0.488-0.202h6.322c0.549 0 1.002 0.429 1.033 0.977l0.25 4.502c0.022 0.395-0.293 0.728-0.689 0.728z"></path>
<path fill="#959cb3" d="M11.724 7.241h-3.448c-0.19 0-0.345-0.154-0.345-0.345v-2.759c0-0.19 0.154-0.345 0.345-0.345h3.448c0.19 0 0.345 0.154 0.345 0.345v2.759c0 0.19-0.154 0.345-0.345 0.345z"></path>
<path fill="#464655" d="M10.345 8.966h-0.69c-0.19 0-0.345-0.154-0.345-0.345v-6.207c0-0.19 0.154-0.345 0.345-0.345h0.69c0.19 0 0.345 0.154 0.345 0.345v6.207c-0 0.19-0.154 0.345-0.345 0.345z"></path>
<path fill="#707487" d="M10.69 7.241h-1.379c-0.19 0-0.345-0.154-0.345-0.345v-2.759c0-0.19 0.154-0.345 0.345-0.345h1.379c0.19 0 0.345 0.154 0.345 0.345v2.759c0 0.19-0.154 0.345-0.345 0.345z"></path>
<path fill="#707487" d="M6.897 1.034h-3.103c-0.19 0-0.345-0.154-0.345-0.345v-0.345c0-0.19 0.154-0.345 0.345-0.345h3.103c0.19 0 0.345 0.154 0.345 0.345v0.345c0 0.19-0.154 0.345-0.345 0.345z"></path>
<path fill="#5b5d6e" d="M4.483 0.69v-0.345c0-0.19 0.154-0.345 0.345-0.345h-1.035c-0.19 0-0.345 0.154-0.345 0.345v0.345c0 0.19 0.154 0.345 0.345 0.345h1.034c-0.19-0-0.345-0.154-0.345-0.345z"></path>
<path fill="#707487" d="M10.69 2.414h-1.379c-0.19 0-0.345-0.154-0.345-0.345v0c0-0.19 0.154-0.345 0.345-0.345h1.379c0.19 0 0.345 0.154 0.345 0.345v0c0 0.19-0.154 0.345-0.345 0.345z"></path>
<path fill="#5b5d6e" d="M9.655 6.897v-2.759c0-0.19 0.154-0.345 0.345-0.345h-0.69c-0.19 0-0.345 0.154-0.345 0.345v2.759c0 0.19 0.154 0.345 0.345 0.345h0.69c-0.19-0-0.345-0.154-0.345-0.345z"></path>
<path fill="#5b5d6e" d="M9.655 2.069c0-0.19 0.154-0.345 0.345-0.345h-0.69c-0.19 0-0.345 0.154-0.345 0.345s0.154 0.345 0.345 0.345h0.69c-0.19-0-0.345-0.154-0.345-0.345z"></path>
<path fill="#707487" d="M10.69 8.966h-1.379c-0.19 0-0.345-0.154-0.345-0.345v0c0-0.19 0.154-0.345 0.345-0.345h1.379c0.19 0 0.345 0.154 0.345 0.345v0c0 0.19-0.154 0.345-0.345 0.345z"></path>
<path fill="#5b5d6e" d="M9.655 8.621c0-0.19 0.154-0.345 0.345-0.345h-0.69c-0.19 0-0.345 0.154-0.345 0.345s0.154 0.345 0.345 0.345h0.69c-0.19-0-0.345-0.154-0.345-0.345z"></path>
<path fill="#959cb3" d="M3.183 7.893l0.25-4.502c0.030-0.548 0.484-0.977 1.033-0.977h-2.798c-0.549 0-1.002 0.429-1.033 0.977l-0.25 4.502c-0.022 0.395 0.293 0.728 0.689 0.728h2.798c-0.396 0-0.711-0.333-0.689-0.728z"></path>
</svg>
