<!-- Generated by IcoMoon.io -->
<svg version="1.1" xmlns="http://www.w3.org/2000/svg" width="31" height="20" viewBox="0 0 31 20">
<title>selection-rectangle</title>
<path d="M8.526 18.527h2.703c0.373 0 0.676-0.303 0.676-0.676s-0.303-0.676-0.676-0.676h-2.703c-0.373 0-0.676 0.303-0.676 0.676s0.303 0.676 0.676 0.676zM13.932 18.527h2.703c0.373 0 0.676-0.303 0.676-0.676s-0.303-0.676-0.676-0.676h-2.703c-0.373 0-0.676 0.303-0.676 0.676s0.303 0.676 0.676 0.676zM19.337 18.527h2.703c0.373 0 0.676-0.303 0.676-0.676s-0.303-0.676-0.676-0.676h-2.703c-0.373 0-0.676 0.303-0.676 0.676s0.303 0.676 0.676 0.676zM24.743 18.527h2.703c0.373 0 0.676-0.303 0.676-0.676s-0.303-0.676-0.676-0.676h-2.703c-0.373 0-0.676 0.303-0.676 0.676s0.303 0.676 0.676 0.676zM3.121 18.527h2.703c0.373 0 0.676-0.303 0.676-0.676s-0.303-0.676-0.676-0.676h-2.703c-0.373 0-0.676 0.303-0.676 0.676s0.303 0.676 0.676 0.676zM1.351 13.54v2.703c0 0.373 0.303 0.676 0.676 0.676s0.676-0.303 0.676-0.676v-2.703c0-0.373-0.303-0.676-0.676-0.676s-0.676 0.303-0.676 0.676zM29.028 16.055v-2.703c0-0.373-0.303-0.676-0.676-0.676s-0.676 0.303-0.676 0.676v2.703c0 0.373 0.303 0.676 0.676 0.676s0.676-0.303 0.676-0.676zM1.351 8.134v2.703c0 0.373 0.303 0.676 0.676 0.676s0.676-0.303 0.676-0.676v-2.703c0-0.373-0.303-0.676-0.676-0.676s-0.676 0.303-0.676 0.676zM29.028 10.65v-2.703c0-0.373-0.303-0.676-0.676-0.676s-0.676 0.303-0.676 0.676v2.703c0 0.373 0.303 0.676 0.676 0.676s0.676-0.303 0.676-0.676zM1.351 2.729v2.703c0 0.373 0.303 0.676 0.676 0.676s0.676-0.303 0.676-0.676v-2.703c0-0.373-0.303-0.676-0.676-0.676s-0.676 0.303-0.676 0.676zM27.676 2.703h-2.027c-0.373 0-0.676-0.303-0.676-0.676s0.303-0.676 0.676-0.676h2.703c0.373 0 0.676 0.303 0.676 0.676 0 0.091-0.018 0.178-0.051 0.257 0.033 0.079 0.051 0.166 0.051 0.257v2.703c0 0.373-0.303 0.676-0.676 0.676s-0.676-0.303-0.676-0.676v-2.542zM22.947 1.351h-2.703c-0.373 0-0.676 0.303-0.676 0.676s0.303 0.676 0.676 0.676h2.703c0.373 0 0.676-0.303 0.676-0.676s-0.303-0.676-0.676-0.676zM17.541 1.351h-2.703c-0.373 0-0.676 0.303-0.676 0.676s0.303 0.676 0.676 0.676h2.703c0.373 0 0.676-0.303 0.676-0.676s-0.303-0.676-0.676-0.676zM12.136 1.351h-2.703c-0.373 0-0.676 0.303-0.676 0.676s0.303 0.676 0.676 0.676h2.703c0.373 0 0.676-0.303 0.676-0.676s-0.303-0.676-0.676-0.676zM6.73 1.351h-2.703c-0.373 0-0.676 0.303-0.676 0.676s0.303 0.676 0.676 0.676h2.703c0.373 0 0.676-0.303 0.676-0.676s-0.303-0.676-0.676-0.676z"></path>
</svg>
