<!-- Generated by IcoMoon.io -->
<svg version="1.1" xmlns="http://www.w3.org/2000/svg" width="20" height="20" viewBox="0 0 20 20">
<title>selection-circle</title>
<path d="M12.301 17.801c-0.52 0.164-1.061 0.276-1.62 0.332-0.24 0.024-0.415 0.238-0.392 0.478s0.238 0.415 0.478 0.392c0.619-0.061 1.22-0.186 1.796-0.368 0.23-0.072 0.358-0.318 0.285-0.548s-0.318-0.358-0.548-0.285zM9.026 18.128c-0.558-0.059-1.099-0.175-1.618-0.342-0.229-0.074-0.476 0.052-0.55 0.282s0.052 0.476 0.282 0.55c0.575 0.185 1.175 0.314 1.794 0.379 0.24 0.025 0.455-0.149 0.48-0.388s-0.149-0.455-0.389-0.48zM15.172 16.192c-0.417 0.361-0.87 0.681-1.354 0.952-0.21 0.118-0.285 0.384-0.167 0.594s0.384 0.285 0.594 0.167c0.535-0.3 1.037-0.654 1.499-1.054 0.182-0.158 0.202-0.434 0.044-0.616s-0.434-0.202-0.616-0.044zM5.894 17.119c-0.482-0.274-0.933-0.597-1.348-0.961-0.181-0.159-0.457-0.141-0.616 0.040s-0.141 0.457 0.040 0.616c0.459 0.403 0.959 0.76 1.492 1.064 0.209 0.119 0.476 0.046 0.596-0.163s0.046-0.476-0.163-0.596zM17.179 13.579c-0.244 0.5-0.536 0.972-0.872 1.408-0.147 0.191-0.111 0.466 0.080 0.612s0.466 0.111 0.612-0.080c0.371-0.483 0.694-1.004 0.964-1.557 0.106-0.217 0.015-0.478-0.201-0.584s-0.478-0.015-0.584 0.201zM3.419 14.946c-0.332-0.438-0.622-0.912-0.863-1.413-0.104-0.217-0.365-0.309-0.583-0.205s-0.309 0.365-0.205 0.583c0.266 0.555 0.587 1.078 0.954 1.563 0.146 0.192 0.42 0.23 0.612 0.084s0.23-0.42 0.084-0.612zM18 10.387c-0.029 0.563-0.113 1.11-0.249 1.638-0.060 0.233 0.081 0.472 0.314 0.532s0.472-0.081 0.532-0.314c0.15-0.583 0.243-1.188 0.275-1.81 0.012-0.241-0.173-0.446-0.414-0.458s-0.446 0.173-0.458 0.414zM1.994 11.975c-0.132-0.528-0.213-1.076-0.239-1.639-0.011-0.241-0.215-0.428-0.456-0.417s-0.428 0.215-0.417 0.456c0.028 0.622 0.118 1.228 0.264 1.812 0.059 0.234 0.296 0.376 0.53 0.318s0.376-0.296 0.318-0.53zM17.513 7.127c0.187 0.513 0.325 1.050 0.407 1.605 0.035 0.238 0.258 0.403 0.496 0.368s0.403-0.258 0.368-0.496c-0.091-0.614-0.243-1.208-0.45-1.776-0.083-0.226-0.333-0.343-0.56-0.261s-0.343 0.333-0.261 0.56zM1.845 8.681c0.086-0.554 0.227-1.090 0.417-1.602 0.084-0.226-0.031-0.477-0.257-0.561s-0.478 0.031-0.561 0.257c-0.21 0.566-0.366 1.159-0.461 1.773-0.037 0.238 0.126 0.461 0.365 0.498s0.461-0.126 0.498-0.365zM15.788 4.32c0.377 0.403 0.714 0.844 1.005 1.317 0.126 0.205 0.395 0.27 0.601 0.143s0.27-0.395 0.143-0.601c-0.322-0.523-0.694-1.011-1.111-1.456-0.165-0.176-0.441-0.185-0.617-0.020s-0.185 0.441-0.020 0.617zM2.992 5.593c0.294-0.471 0.633-0.91 1.013-1.31 0.166-0.175 0.158-0.452-0.017-0.617s-0.452-0.158-0.617 0.017c-0.42 0.443-0.795 0.928-1.12 1.449-0.128 0.205-0.065 0.474 0.14 0.602s0.474 0.065 0.602-0.14zM13.1 2.417c0.509 0.222 0.991 0.496 1.44 0.814 0.197 0.139 0.469 0.093 0.609-0.104s0.093-0.469-0.104-0.609c-0.497-0.352-1.032-0.655-1.596-0.902-0.221-0.096-0.479 0.005-0.575 0.225s0.005 0.479 0.225 0.575zM5.259 3.202c0.451-0.315 0.935-0.586 1.446-0.805 0.221-0.095 0.324-0.352 0.229-0.573s-0.352-0.324-0.573-0.229c-0.566 0.243-1.102 0.542-1.601 0.892-0.198 0.138-0.246 0.411-0.108 0.608s0.411 0.246 0.608 0.108zM9.777 1.747c-0.51 0.006-1.010 0.060-1.494 0.158-0.236 0.048-0.467-0.106-0.514-0.342s0.106-0.467 0.342-0.514c0.572-0.115 1.163-0.175 1.768-0.175l0.117 0.001c0.584 0.008 1.154 0.071 1.706 0.186 0.236 0.049 0.388 0.28 0.339 0.516s-0.28 0.388-0.516 0.339c-0.532-0.11-1.082-0.168-1.646-0.168l-0.102 0.001z"></path>
</svg>
