<!-- Generated by IcoMoon.io -->
<svg version="1.1" xmlns="http://www.w3.org/2000/svg" width="20" height="20" viewBox="0 0 20 20">
<title>selection-free</title>
<path d="M9.954 19.017c0.638-0.012 1.282-0.109 1.913-0.279 0.243-0.066 0.388-0.316 0.322-0.56s-0.316-0.388-0.56-0.322c-0.559 0.15-1.128 0.238-1.692 0.248-0.252 0.005-0.453 0.213-0.448 0.465s0.213 0.453 0.465 0.448zM6.207 18.34c0.594 0.23 1.216 0.402 1.839 0.515 0.248 0.045 0.486-0.12 0.531-0.368s-0.12-0.486-0.368-0.531c-0.567-0.103-1.133-0.259-1.673-0.468-0.235-0.091-0.5 0.026-0.591 0.261s0.026 0.5 0.261 0.591zM13.656 18.049c0.574-0.29 1.118-0.637 1.615-1.025 0.198-0.155 0.234-0.443 0.078-0.641s-0.442-0.234-0.641-0.078c-0.451 0.353-0.944 0.667-1.464 0.93-0.225 0.114-0.315 0.389-0.201 0.614s0.389 0.315 0.614 0.201zM3.053 16.131c0.401 0.506 0.892 0.947 1.444 1.322 0.208 0.142 0.493 0.087 0.634-0.121s0.087-0.493-0.121-0.634c-0.474-0.322-0.897-0.699-1.241-1.134-0.156-0.198-0.444-0.231-0.641-0.075s-0.231 0.444-0.075 0.641zM16.651 15.73c0.428-0.45 0.851-0.939 1.21-1.46 0.143-0.207 0.091-0.492-0.117-0.635s-0.492-0.091-0.635 0.117c-0.332 0.481-0.724 0.933-1.12 1.349-0.174 0.183-0.166 0.472 0.017 0.646s0.472 0.166 0.646-0.017zM1.086 12.861c0.171 0.648 0.463 1.18 0.871 1.771 0.143 0.207 0.428 0.26 0.635 0.117s0.26-0.428 0.117-0.635c-0.343-0.497-0.596-0.941-0.74-1.485-0.064-0.244-0.314-0.389-0.558-0.325s-0.389 0.314-0.325 0.558zM8.599 11.981c-0.205 0.008-0.43-0.097-0.713-0.302-0.186-0.134-0.356-0.278-0.51-0.429-0.18-0.177-0.469-0.174-0.646 0.005s-0.174 0.469 0.005 0.646c0.186 0.183 0.39 0.356 0.615 0.519 0.501 0.362 0.921 0.488 1.282 0.474 0.252-0.009 0.449-0.222 0.439-0.473s-0.222-0.449-0.473-0.439zM18.727 12.503c0.183-0.655 0.214-1.34 0.024-2.045-0.066-0.243-0.316-0.388-0.56-0.322s-0.388 0.316-0.322 0.56c0.145 0.539 0.118 1.062-0.022 1.562-0.068 0.243 0.074 0.495 0.317 0.563s0.495-0.074 0.563-0.317zM10.771 9.584c-0.459 0.51-0.818 1.036-1.144 1.481-0.149 0.203-0.105 0.489 0.098 0.638s0.489 0.105 0.638-0.098c0.31-0.423 0.65-0.924 1.086-1.41 0.169-0.187 0.153-0.476-0.034-0.645s-0.476-0.153-0.645 0.034zM1.142 9.046c-0.116 0.726-0.186 1.336-0.214 1.862-0.013 0.252 0.181 0.467 0.433 0.48s0.467-0.181 0.48-0.433c0.026-0.499 0.093-1.077 0.203-1.765 0.040-0.249-0.13-0.483-0.379-0.523s-0.483 0.13-0.523 0.379zM6.453 9.895c-0.226-0.524-0.348-1.077-0.395-1.625-0.021-0.251-0.242-0.438-0.494-0.416s-0.438 0.242-0.416 0.494c0.055 0.644 0.201 1.294 0.466 1.909 0.1 0.231 0.369 0.338 0.6 0.238s0.338-0.369 0.238-0.6zM17.831 8.67c-0.462-0.553-1.044-0.947-1.731-1.136-0.243-0.067-0.495 0.076-0.561 0.319s0.076 0.495 0.319 0.561c0.506 0.139 0.932 0.434 1.273 0.841 0.162 0.193 0.45 0.219 0.643 0.057s0.219-0.45 0.057-0.643zM14.061 7.553c-0.51 0.129-1.055 0.35-1.634 0.678-0.055 0.031-0.109 0.063-0.163 0.096-0.215 0.131-0.284 0.412-0.153 0.627s0.412 0.284 0.627 0.153c0.045-0.028 0.091-0.055 0.138-0.081 0.499-0.282 0.968-0.476 1.408-0.587 0.244-0.062 0.392-0.311 0.331-0.555s-0.311-0.392-0.555-0.33zM1.863 5.437c-0.146 0.653-0.275 1.249-0.386 1.794-0.050 0.247 0.109 0.488 0.356 0.539s0.488-0.109 0.539-0.356c0.11-0.54 0.237-1.13 0.382-1.777 0.055-0.246-0.1-0.49-0.346-0.545s-0.49 0.1-0.545 0.346zM6.139 6.568c0.024-0.134 0.051-0.265 0.081-0.392 0.086-0.364 0.255-0.764 0.485-1.169 0.124-0.219 0.047-0.498-0.172-0.622s-0.498-0.047-0.622 0.172c-0.276 0.487-0.475 0.97-0.579 1.408-0.034 0.144-0.065 0.293-0.092 0.445-0.044 0.248 0.122 0.485 0.371 0.529s0.485-0.122 0.529-0.371zM13.263 3.289c0.55 0.549 0.931 1.034 0.931 1.034 0.156 0.198 0.443 0.233 0.641 0.078s0.233-0.443 0.078-0.641c0 0-0.411-0.525-1.005-1.117-0.178-0.178-0.468-0.178-0.646 0.001s-0.178 0.468 0.001 0.646zM7.724 3.624c0.389-0.42 0.829-0.804 1.3-1.11 0.211-0.137 0.271-0.42 0.134-0.632s-0.42-0.271-0.632-0.134c-0.533 0.346-1.032 0.78-1.472 1.255-0.171 0.185-0.16 0.474 0.025 0.645s0.474 0.16 0.645-0.025zM10.531 1.874c0.121-0.023 0.243-0.038 0.365-0.045 0.327-0.019 0.684 0.144 1.041 0.367 0.214 0.133 0.496 0.067 0.629-0.146s0.067-0.496-0.146-0.629c-0.536-0.333-1.087-0.532-1.577-0.503-0.16 0.009-0.321 0.029-0.481 0.060-0.248 0.047-0.411 0.285-0.364 0.533s0.285 0.411 0.533 0.364z"></path>
</svg>
