<!-- Generated by IcoMoon.io -->
<svg version="1.1" xmlns="http://www.w3.org/2000/svg" width="20" height="20" viewBox="0 0 20 20">
<title>settings</title>
<path fill="#89a9ce" d="M5.652 10c0-2.401 1.947-4.348 4.348-4.348l0.87-2.826-0.87-2.826h-1.739v2.368c-0.874 0.198-1.691 0.543-2.427 1.006l-1.675-1.675-2.46 2.46 1.675 1.675c-0.463 0.736-0.808 1.553-1.006 2.427h-2.368v3.478h2.368c0.198 0.874 0.543 1.691 1.006 2.427l-1.675 1.675 2.459 2.46 1.675-1.675c0.736 0.463 1.553 0.808 2.427 1.006v2.368h1.739l0.87-2.826-0.87-2.826c-2.401 0-4.348-1.947-4.348-4.348z"></path>
<path fill="#5679a1" d="M20 11.739v-3.478h-2.368c-0.198-0.874-0.543-1.691-1.006-2.427l1.675-1.675-2.459-2.46-1.675 1.675c-0.736-0.463-1.553-0.808-2.427-1.006v-2.368h-1.739v5.652c2.401 0 4.348 1.947 4.348 4.348s-1.947 4.348-4.348 4.348v5.652h1.739v-2.368c0.874-0.198 1.691-0.543 2.427-1.006l1.675 1.675 2.46-2.46-1.675-1.675c0.463-0.736 0.808-1.553 1.006-2.427l2.368 0z"></path>
</svg>
