<!-- Generated by IcoMoon.io -->
<svg version="1.1" xmlns="http://www.w3.org/2000/svg" width="27" height="20" viewBox="0 0 27 20">
<title>shift</title>
<path fill="#868080" d="M11.397 16.804l-8.002-6.002c-0.531-0.399-0.534-1.2 0-1.601l8.002-6.002c0.66-0.495 1.601-0.039 1.601 0.8v2.001h9.669c0.552 0 1 0.448 1 1v5.995c0 0.552-0.448 1-1 1h-9.669v2.007c0 0.828-0.947 1.29-1.601 0.8z"></path>
<path fill="#5c5c5c" d="M22.667 6.001h-4.334v7.995h4.334c0.552 0 1-0.448 1-1v-5.995c0-0.552-0.448-1-1-1z"></path>
</svg>
