<!-- Generated by IcoMoon.io -->
<svg version="1.1" xmlns="http://www.w3.org/2000/svg" width="20" height="20" viewBox="0 0 20 20">
<title>simulate</title>
<path fill="#65a844" d="M20 10c0 5.523-4.477 10-10 10s-10-4.477-10-10c0-5.523 4.477-10 10-10s10 4.477 10 10z"></path>
<path fill="#fff" d="M17.027 9.502c-0.76-0.76-1.52-1.52-2.28-2.28-0.54-0.54-1.374 0.301-0.833 0.842 0.422 0.422 0.844 0.844 1.266 1.266-1.361 0-2.722 0-4.083 0-0.765 0-0.772 1.185-0.009 1.185 1.364 0 2.728 0 4.092 0-0.424 0.424-0.847 0.847-1.271 1.271-0.54 0.54 0.301 1.374 0.842 0.833 0.76-0.76 1.52-1.52 2.28-2.279 0.229-0.229 0.223-0.61-0.005-0.837z"></path>
<path fill="#fff" d="M8.968 9.501c-0.76-0.76-1.52-1.52-2.28-2.279-0.54-0.54-1.374 0.301-0.833 0.842 0.422 0.422 0.844 0.844 1.267 1.267-1.361 0-2.722 0-4.084 0-0.765 0-0.772 1.185-0.009 1.185 1.364 0 2.728 0 4.092 0-0.424 0.424-0.847 0.847-1.271 1.271-0.54 0.54 0.301 1.374 0.842 0.833 0.76-0.76 1.52-1.52 2.28-2.28 0.229-0.229 0.223-0.61-0.004-0.837z"></path>
</svg>
