<!-- Generated by IcoMoon.io -->
<svg version="1.1" xmlns="http://www.w3.org/2000/svg" width="20" height="20" viewBox="0 0 20 20">
<title>simulator</title>
<path fill="#298f34" d="M19.59 11.335v-2.669l-1.65-0.367c-0.209-0.98-0.595-1.894-1.123-2.708l0.908-1.428-1.888-1.888-1.428 0.908c-0.814-0.528-1.728-0.914-2.708-1.123l-0.367-1.65h-2.669l-0.367 1.65c-0.98 0.209-1.894 0.595-2.708 1.123l-1.428-0.908-1.888 1.887 0.908 1.428c-0.528 0.814-0.914 1.728-1.123 2.708l-1.65 0.367v2.669l1.65 0.367c0.209 0.98 0.595 1.894 1.123 2.708l-0.908 1.428 1.888 1.888 1.428-0.908c0.814 0.528 1.728 0.914 2.708 1.123l0.367 1.65h2.669l0.367-1.65c0.98-0.209 1.894-0.595 2.708-1.123l1.428 0.908 1.888-1.887-0.908-1.428c0.528-0.814 0.914-1.728 1.123-2.708z"></path>
<path fill="#d3e3e3" d="M10.409 12.287c0.752 0.041 1.48 0.198 2.167 0.459 0.153-0.701 0.249-1.486 0.273-2.337h-2.439v1.878z"></path>
<path fill="#d3e3e3" d="M10.409 16.328c0.756-0.27 1.493-1.268 1.958-2.784-0.619-0.246-1.278-0.391-1.958-0.433z"></path>
<path fill="#d3e3e3" d="M16.394 10.409h-2.723c-0.026 0.959-0.143 1.863-0.335 2.68 0.549 0.287 1.063 0.646 1.531 1.074 0.877-1.024 1.437-2.325 1.528-3.753z"></path>
<path fill="#d3e3e3" d="M12.433 15.927c0.097-0.040 0.194-0.083 0.289-0.127 0.085-0.040 0.168-0.082 0.251-0.125 0.090-0.047 0.179-0.097 0.267-0.149 0.074-0.044 0.148-0.089 0.22-0.136 0.108-0.070 0.215-0.142 0.32-0.219 0.038-0.028 0.076-0.057 0.114-0.085 0.137-0.106 0.272-0.216 0.402-0.334 0.001-0.001 0.002-0.002 0.003-0.002-0.365-0.332-0.765-0.611-1.187-0.847-0.281 0.876-0.656 1.619-1.099 2.179 0.070-0.023 0.14-0.044 0.209-0.070 0.072-0.027 0.142-0.055 0.213-0.084z"></path>
<path fill="#d3e3e3" d="M10.409 9.591h2.439c-0.024-0.852-0.12-1.636-0.272-2.337-0.687 0.262-1.415 0.418-2.167 0.46z"></path>
<path fill="#d3e3e3" d="M16.389 9.591c-0.087-1.391-0.619-2.696-1.526-3.75-0.466 0.426-0.979 0.785-1.527 1.071 0.192 0.817 0.309 1.72 0.335 2.679h2.718z"></path>
<path fill="#d3e3e3" d="M10.409 3.672v3.217c0.68-0.042 1.339-0.187 1.958-0.433-0.465-1.516-1.202-2.514-1.958-2.784z"></path>
<path fill="#d3e3e3" d="M13.852 4.88c-0.013-0.010-0.027-0.019-0.041-0.029-0.141-0.105-0.285-0.204-0.433-0.297-0.010-0.006-0.020-0.013-0.030-0.020-0.15-0.093-0.304-0.177-0.46-0.256-0.022-0.011-0.043-0.023-0.065-0.034-0.152-0.075-0.307-0.143-0.464-0.205-0.027-0.011-0.055-0.022-0.082-0.032-0.087-0.033-0.176-0.059-0.264-0.088 0.443 0.56 0.818 1.303 1.099 2.179 0.422-0.235 0.821-0.514 1.186-0.846-0.012-0.011-0.024-0.021-0.036-0.032-0.132-0.119-0.268-0.233-0.408-0.339z"></path>
<path fill="#d3e3e3" d="M9.591 7.713c-0.752-0.042-1.48-0.198-2.167-0.46-0.153 0.701-0.249 1.486-0.273 2.338h2.439v-1.878z"></path>
<path fill="#d3e3e3" d="M9.591 10.409h-2.439c0.024 0.852 0.12 1.637 0.273 2.338 0.687-0.261 1.415-0.418 2.167-0.46z"></path>
<path fill="#d3e3e3" d="M3.611 9.591h2.718c0.026-0.959 0.143-1.863 0.335-2.679-0.548-0.286-1.061-0.644-1.527-1.071-0.908 1.055-1.439 2.36-1.526 3.75z"></path>
<path fill="#d3e3e3" d="M9.591 16.328v-3.216c-0.68 0.043-1.339 0.187-1.958 0.433 0.465 1.516 1.202 2.513 1.958 2.783z"></path>
<path fill="#d3e3e3" d="M9.591 3.672c-0.756 0.27-1.493 1.268-1.958 2.784 0.619 0.246 1.278 0.391 1.958 0.433z"></path>
<path fill="#d3e3e3" d="M6.087 15.068c0.055 0.042 0.111 0.084 0.167 0.125 0.088 0.064 0.177 0.125 0.268 0.184 0.092 0.060 0.186 0.117 0.281 0.172 0.069 0.040 0.139 0.079 0.209 0.117 0.105 0.055 0.211 0.108 0.32 0.157 0.074 0.034 0.149 0.068 0.225 0.099 0.077 0.032 0.155 0.063 0.233 0.092 0.066 0.024 0.132 0.044 0.199 0.066-0.443-0.56-0.817-1.302-1.098-2.178-0.422 0.236-0.822 0.515-1.187 0.846 0.009 0.008 0.018 0.015 0.026 0.023 0.116 0.104 0.235 0.202 0.357 0.297z"></path>
<path fill="#d3e3e3" d="M7.988 3.919c-0.088 0.029-0.177 0.055-0.263 0.088-0.027 0.010-0.053 0.021-0.080 0.031-0.158 0.063-0.315 0.131-0.468 0.206-0.021 0.010-0.041 0.021-0.061 0.032-0.158 0.080-0.314 0.165-0.465 0.259-0.008 0.005-0.016 0.011-0.024 0.016-0.151 0.094-0.299 0.196-0.442 0.303-0.011 0.008-0.023 0.016-0.034 0.025-0.141 0.107-0.278 0.222-0.412 0.342-0.011 0.010-0.023 0.020-0.035 0.031 0.365 0.331 0.765 0.61 1.186 0.846 0.281-0.876 0.655-1.618 1.098-2.178z"></path>
<path fill="#d3e3e3" d="M5.134 14.162c0.467-0.428 0.981-0.787 1.53-1.073-0.192-0.817-0.309-1.72-0.335-2.68h-2.723c0.091 1.428 0.651 2.729 1.528 3.753z"></path>
</svg>
