<!-- Generated by IcoMoon.io -->
<svg version="1.1" xmlns="http://www.w3.org/2000/svg" width="20" height="20" viewBox="0 0 20 20">
<title>singapore</title>
<path fill="#ed2939" d="M10 0.2c-5.412 0-9.8 4.387-9.8 9.8h19.6c0-5.413-4.387-9.8-9.8-9.8z"></path>
<path fill="#fff" d="M19.8 10h-19.6c0 5.412 4.388 9.8 9.8 9.8s9.8-4.388 9.8-9.8z"></path>
<path fill="#fff" d="M7.374 5.296c0-1.875 1.482-3.404 3.338-3.48-0.381-0.133-0.79-0.206-1.217-0.206-2.035 0-3.685 1.65-3.685 3.685s1.65 3.685 3.685 3.685c0.426 0 0.836-0.073 1.217-0.206-1.857-0.076-3.338-1.605-3.338-3.48z"></path>
<path fill="#fff" d="M9.952 5.385l-0.501-0.384-0.501 0.384 0.193-0.619-0.502-0.382 0.62 0.001 0.19-0.62 0.19 0.62 0.62-0.001-0.502 0.382 0.193 0.619z"></path>
<path fill="#fff" d="M13.88 5.385l-0.501-0.384-0.501 0.384 0.193-0.619-0.502-0.382 0.62 0.001 0.19-0.62 0.19 0.62 0.62-0.001-0.502 0.382 0.193 0.619z"></path>
<path fill="#fff" d="M11.918 3.927l-0.501-0.384-0.501 0.384 0.193-0.619-0.502-0.382 0.62 0.001 0.19-0.62 0.191 0.62 0.619-0.002-0.502 0.382 0.193 0.619z"></path>
<path fill="#fff" d="M10.687 7.718l-0.5-0.384-0.501 0.384 0.193-0.619-0.502-0.382 0.62 0.001 0.19-0.62 0.19 0.62 0.62-0.002-0.502 0.382 0.193 0.619z"></path>
<path fill="#fff" d="M13.145 7.718l-0.501-0.384-0.501 0.384 0.193-0.619-0.502-0.382 0.62 0.001 0.19-0.62 0.19 0.62 0.62-0.002-0.502 0.382 0.193 0.619z"></path>
<path fill="#666" d="M10 20c-5.514 0-10-4.486-10-10s4.486-10 10-10 10 4.486 10 10-4.486 10-10 10zM10 0.4c-5.293 0-9.6 4.307-9.6 9.6s4.307 9.6 9.6 9.6c5.293 0 9.6-4.307 9.6-9.6s-4.307-9.6-9.6-9.6z"></path>
</svg>
