<!-- Generated by IcoMoon.io -->
<svg version="1.1" xmlns="http://www.w3.org/2000/svg" width="20" height="20" viewBox="0 0 20 20">
<title>skeleton</title>
<path fill="#1a3d5a" d="M5.147 2.264h9.723v1.605h-9.723v-1.605z"></path>
<path fill="#1a3d5a" d="M2.105 4.712h1.606v10.451h-1.606v-10.451z"></path>
<path fill="#1a3d5a" d="M4.846 3.577l7.62 7.627-1.136 1.135-7.62-7.627 1.136-1.135z"></path>
<path fill="#397ba0" d="M5.539 3.111c0 1.349-1.094 2.443-2.443 2.443s-2.443-1.094-2.443-2.443c0-1.349 1.094-2.443 2.443-2.443s2.443 1.094 2.443 2.443z"></path>
<path fill="#0e358e" d="M3.096 0.166c-1.625 0-2.944 1.319-2.944 2.944s1.319 2.944 2.944 2.944c1.625 0 2.944-1.319 2.944-2.944s-1.319-2.944-2.944-2.944zM3.096 1.17c1.071 0 1.941 0.87 1.941 1.941s-0.87 1.941-1.941 1.941c-1.071 0-1.941-0.87-1.941-1.941s0.87-1.941 1.941-1.941z"></path>
<path fill="#397ba0" d="M19.099 3.19c0 1.349-1.094 2.443-2.443 2.443s-2.443-1.094-2.443-2.443c0-1.349 1.094-2.443 2.443-2.443s2.443 1.094 2.443 2.443z"></path>
<path fill="#0e358e" d="M16.656 0.246c-1.625 0-2.944 1.319-2.944 2.944s1.319 2.944 2.944 2.944c1.625 0 2.944-1.319 2.944-2.944s-1.319-2.944-2.944-2.944zM16.656 1.249c1.071 0 1.941 0.87 1.941 1.941s-0.87 1.941-1.941 1.941c-1.071 0-1.941-0.87-1.941-1.941s0.87-1.941 1.941-1.941z"></path>
<path fill="#397ba0" d="M5.672 16.551c0 1.349-1.094 2.443-2.443 2.443s-2.443-1.094-2.443-2.443c0-1.349 1.094-2.443 2.443-2.443s2.443 1.094 2.443 2.443z"></path>
<path fill="#0e358e" d="M3.229 13.607c-1.625 0-2.944 1.319-2.944 2.944s1.319 2.944 2.944 2.944c1.625 0 2.944-1.319 2.944-2.944s-1.319-2.944-2.944-2.944zM3.229 14.61c1.071 0 1.941 0.87 1.941 1.941s-0.87 1.941-1.941 1.941c-1.071 0-1.941-0.87-1.941-1.941s0.87-1.941 1.941-1.941z"></path>
<path fill="#397ba0" d="M16.056 13.773c0 1.349-1.094 2.443-2.443 2.443s-2.443-1.094-2.443-2.443c0-1.349 1.094-2.443 2.443-2.443s2.443 1.094 2.443 2.443z"></path>
<path fill="#0e358e" d="M13.613 10.829c-1.625 0-2.944 1.319-2.944 2.944s1.319 2.944 2.944 2.944c1.625 0 2.944-1.319 2.944-2.944s-1.319-2.944-2.944-2.944zM13.613 11.832c1.071 0 1.941 0.87 1.941 1.941s-0.87 1.941-1.941 1.941c-1.071 0-1.941-0.87-1.941-1.941s0.87-1.941 1.941-1.941z"></path>
</svg>
