<!-- Generated by IcoMoon.io -->
<svg version="1.1" xmlns="http://www.w3.org/2000/svg" width="20" height="20" viewBox="0 0 20 20">
<title>smoothing</title>
<path fill="#3fc8f2" d="M18.847 19.044c-0.023-0.015-2.281-1.551-3.153-3.073-0.737-1.287-1.101-3.064-1.452-4.783-0.649-3.172-1.32-6.451-4.43-6.528-0.010-0.001-0.020-0.001-0.030-0.001h-0.082c-0.006 0-0.013 0-0.019 0.001s-0.013-0.001-0.019-0.001h-0.082c-0.010 0-0.020 0-0.030 0.001-3.109 0.077-3.781 3.356-4.43 6.528-0.352 1.719-0.716 3.497-1.452 4.783-0.871 1.52-3.13 3.058-3.153 3.074-0.115 0.078-0.167 0.222-0.126 0.356s0.164 0.224 0.303 0.224h17.976c0.139 0 0.263-0.091 0.303-0.224s-0.010-0.278-0.126-0.356z"></path>
<path fill="#0daace" d="M18.847 19.044c-0.023-0.015-2.281-1.551-3.153-3.073-0.737-1.287-1.101-3.064-1.452-4.783-0.649-3.172-1.32-6.451-4.43-6.528-0.010-0.001-0.020-0.001-0.030-0.001h-0.082c-0.006 0-0.013 0-0.019 0.001s-0.013-0.001-0.019-0.001h-0.082c-0.010 0-0.020 0-0.030 0.001-0.22 0.005-0.428 0.027-0.625 0.064 2.579 0.478 3.201 3.516 3.805 6.464 0.352 1.719 0.716 3.497 1.452 4.783 0.872 1.522 3.13 3.058 3.153 3.073 0.116 0.078 0.167 0.222 0.126 0.356s-0.164 0.224-0.303 0.224h1.512c0.139 0 0.263-0.091 0.303-0.224s-0.010-0.278-0.126-0.356z"></path>
<path fill="#0497af" d="M9.7 5.547c-0.175 0-0.317-0.142-0.317-0.317v-0.254c0-0.175 0.142-0.317 0.317-0.317s0.317 0.142 0.317 0.317v0.254c0 0.175-0.142 0.317-0.317 0.317z"></path>
<path fill="#0497af" d="M9.7 18.269c-0.175 0-0.317-0.142-0.317-0.317v-0.489c0-0.175 0.142-0.317 0.317-0.317s0.317 0.142 0.317 0.317v0.489c0 0.175-0.142 0.317-0.317 0.317zM9.7 16.679c-0.175 0-0.317-0.142-0.317-0.317v-0.489c0-0.175 0.142-0.317 0.317-0.317s0.317 0.142 0.317 0.317v0.489c0 0.175-0.142 0.317-0.317 0.317zM9.7 15.089c-0.175 0-0.317-0.142-0.317-0.317v-0.489c0-0.175 0.142-0.317 0.317-0.317s0.317 0.142 0.317 0.317v0.489c0 0.175-0.142 0.317-0.317 0.317zM9.7 13.498c-0.175 0-0.317-0.142-0.317-0.317v-0.489c0-0.175 0.142-0.317 0.317-0.317s0.317 0.142 0.317 0.317v0.489c0 0.175-0.142 0.317-0.317 0.317zM9.7 11.908c-0.175 0-0.317-0.142-0.317-0.317v-0.489c0-0.175 0.142-0.317 0.317-0.317s0.317 0.142 0.317 0.317v0.489c0 0.175-0.142 0.317-0.317 0.317zM9.7 10.318c-0.175 0-0.317-0.142-0.317-0.317v-0.489c0-0.175 0.142-0.317 0.317-0.317s0.317 0.142 0.317 0.317v0.489c0 0.175-0.142 0.317-0.317 0.317zM9.7 8.727c-0.175 0-0.317-0.142-0.317-0.317v-0.489c0-0.175 0.142-0.317 0.317-0.317s0.317 0.142 0.317 0.317v0.489c0 0.175-0.142 0.317-0.317 0.317zM9.7 7.137c-0.175 0-0.317-0.142-0.317-0.317v-0.489c0-0.175 0.142-0.317 0.317-0.317s0.317 0.142 0.317 0.317v0.489c0 0.175-0.142 0.317-0.317 0.317z"></path>
<path fill="#0497af" d="M9.7 19.624c-0.175 0-0.317-0.142-0.317-0.317v-0.254c0-0.175 0.142-0.317 0.317-0.317s0.317 0.142 0.317 0.317v0.254c0 0.175-0.142 0.317-0.317 0.317z"></path>
<path fill="#808080" d="M19.264 19.624h-18.571c-0.175 0-0.317-0.142-0.317-0.317v-18.613c0-0.175 0.142-0.317 0.317-0.317s0.317 0.142 0.317 0.317v18.296h18.254c0.175 0 0.317 0.142 0.317 0.317s-0.142 0.317-0.317 0.317z"></path>
</svg>
