<!-- Generated by IcoMoon.io -->
<svg version="1.1" xmlns="http://www.w3.org/2000/svg" width="20" height="20" viewBox="0 0 20 20">
<title>snapshot</title>
<path fill="#e4e5e6" d="M14.375 2.5h2.5c0.346 0 0.625 0.28 0.625 0.625v0.625h-3.75v-0.625c0-0.345 0.279-0.625 0.625-0.625z"></path>
<path fill="#51bba8" d="M1.25 3.75h17.5c0.69 0 1.25 0.56 1.25 1.25v10c0 0.69-0.56 1.25-1.25 1.25h-17.5c-0.69-0-1.25-0.56-1.25-1.25v-10c0-0.69 0.56-1.25 1.25-1.25z"></path>
<path fill="#e4e5e6" d="M8.75 2.5c4.142 0 7.5 3.358 7.5 7.5s-3.358 7.5-7.5 7.5-7.5-3.358-7.5-7.5 3.358-7.5 7.5-7.5z"></path>
<path fill="#5b717c" d="M8.75 4.375c3.107 0 5.625 2.518 5.625 5.625s-2.518 5.625-5.625 5.625-5.625-2.518-5.625-5.625c0-3.106 2.518-5.625 5.625-5.625z"></path>
<path fill="#2b414d" d="M8.75 6.25c2.071 0 3.75 1.679 3.75 3.75s-1.679 3.75-3.75 3.75c-2.071 0-3.75-1.68-3.75-3.75s1.679-3.75 3.75-3.75z"></path>
<path fill="#fff" d="M10.312 7.5c0.518 0 0.937 0.42 0.937 0.937s-0.42 0.937-0.937 0.937-0.937-0.419-0.937-0.937 0.42-0.937 0.937-0.937z"></path>
<path fill="#fff" d="M17.812 5c0.518 0 0.937 0.419 0.937 0.937s-0.42 0.937-0.937 0.937c-0.518 0-0.937-0.419-0.937-0.937s0.42-0.937 0.937-0.937z"></path>
<path fill="#cdcecf" d="M14.375 2.5h0.625v1.25h-0.625v-1.25z"></path>
<path fill="#cdcecf" d="M15.625 2.5h0.625v1.25h-0.625v-1.25z"></path>
<path fill="#cdcecf" d="M16.875 2.5v1.25h0.625v-0.625c0-0.345-0.279-0.625-0.625-0.625z"></path>
</svg>
