<!-- Generated by IcoMoon.io -->
<svg version="1.1" xmlns="http://www.w3.org/2000/svg" width="23" height="20" viewBox="0 0 23 20">
<title>state-virtual-number</title>
<path fill="#2488ff" d="M3.007 14.652c-0.104 0.070-0.244 0.151-0.42 0.242s-0.397 0.207-0.66 0.347c-0.247 0.134-0.451 0.271-0.614 0.411s-0.291 0.292-0.387 0.456c-0.095 0.164-0.163 0.345-0.202 0.544s-0.059 0.425-0.059 0.677h4.186v-1.161h-2.286c0.050-0.054 0.125-0.114 0.223-0.181s0.204-0.134 0.319-0.202c0.115-0.067 0.231-0.133 0.349-0.198s0.219-0.121 0.303-0.169c0.123-0.070 0.244-0.146 0.361-0.23s0.224-0.18 0.319-0.29c0.095-0.11 0.172-0.235 0.231-0.375s0.088-0.298 0.088-0.476c0-0.43-0.161-0.771-0.483-1.024s-0.786-0.379-1.391-0.379c-0.247 0-0.483 0.022-0.71 0.065s-0.436 0.101-0.626 0.173c-0.191 0.073-0.361 0.155-0.513 0.246s-0.272 0.185-0.361 0.282l0.857 0.951c0.162-0.177 0.331-0.321 0.504-0.431s0.378-0.165 0.614-0.165c0.207 0 0.367 0.046 0.479 0.137s0.168 0.212 0.168 0.363c0 0.075-0.022 0.141-0.067 0.198s-0.119 0.12-0.223 0.189z"></path>
<path fill="#2488ff" d="M1.787 4.182c0.132-0.056 0.251-0.118 0.357-0.185s0.185-0.133 0.235-0.198v2.056h-1.194v1.161h3.631v-1.161h-1.067v-3.443h-1.37c-0.028 0.054-0.098 0.124-0.21 0.21s-0.238 0.171-0.378 0.254c-0.14 0.083-0.282 0.155-0.424 0.214s-0.259 0.089-0.349 0.089v1.193c0.106 0 0.228-0.017 0.366-0.052s0.272-0.081 0.403-0.137z"></path>
<path fill="#005ece" d="M6.281 6h15.56v2.667h-15.56v-2.667z"></path>
<path fill="#005ece" d="M6.281 0.667h15.56v2.667h-15.56v-2.667z"></path>
<path fill="#005ece" d="M6.281 16.667h15.56v2.667h-15.56v-2.667z"></path>
<path fill="#005ece" d="M6.281 11.333h15.56v2.667h-15.56v-2.667z"></path>
</svg>
