<!-- Generated by IcoMoon.io -->
<svg version="1.1" xmlns="http://www.w3.org/2000/svg" width="20" height="20" viewBox="0 0 20 20">
<title>store-positions</title>
<path fill="#1a3d5a" d="M8.445 10.209l-5.59 6.389 1.055 0.923 5.59-6.389z"></path>
<path fill="#1a3d5a" d="M10.192 9.479l-1.128 0.833 5.42 7.34 1.128-0.833z"></path>
<path fill="#1a3d5a" d="M3.523 6.503l-1.402 0.010 0.065 9.124 1.402-0.010z"></path>
<path fill="#0e358e" d="M0.26 4.621c-0.302 1.415 0.605 2.824 2.025 3.146s2.815-0.565 3.117-1.98c0.302-1.415-0.605-2.824-2.025-3.146s-2.815 0.565-3.117 1.98z"></path>
<path fill="#397ba0" d="M1.109 4.778c-0.204 0.959 0.41 1.913 1.372 2.131s1.907-0.383 2.112-1.341c0.204-0.959-0.41-1.913-1.372-2.131s-1.907 0.383-2.112 1.341z"></path>
<path fill="#0e358e" d="M11.925 16.113c-0.302 1.415 0.605 2.824 2.025 3.146s2.815-0.565 3.117-1.98c0.302-1.415-0.605-2.824-2.025-3.146s-2.815 0.565-3.117 1.98z"></path>
<path fill="#397ba0" d="M12.774 16.27c-0.204 0.959 0.41 1.913 1.372 2.131s1.907-0.383 2.112-1.341c0.204-0.959-0.41-1.913-1.372-2.131s-1.907 0.383-2.112 1.341z"></path>
<path fill="#0e358e" d="M0.317 16.633c-0.302 1.415 0.605 2.824 2.025 3.146s2.815-0.565 3.117-1.98c0.302-1.415-0.605-2.824-2.025-3.146s-2.815 0.565-3.117 1.98z"></path>
<path fill="#397ba0" d="M1.166 16.79c-0.204 0.959 0.41 1.913 1.372 2.131s1.907-0.383 2.112-1.341c0.204-0.959-0.41-1.913-1.372-2.131s-1.907 0.383-2.112 1.341z"></path>
<path fill="#0e358e" d="M7.132 9.241c-0.302 1.415 0.605 2.824 2.025 3.146s2.815-0.565 3.117-1.98c0.302-1.415-0.605-2.824-2.025-3.146s-2.815 0.565-3.117 1.98z"></path>
<path fill="#397ba0" d="M7.981 9.398c-0.204 0.959 0.41 1.913 1.372 2.131s1.907-0.383 2.112-1.341c0.204-0.959-0.41-1.913-1.372-2.131s-1.907 0.383-2.112 1.341z"></path>
<path fill="#14604f" d="M16.918 6.127h2.613l-4.356 3.811-4.356-3.811h2.613c0 0 1.052-6.106-7.515-4.308 0 0 4.989-3.193 9.063-0.729 1.535 0.971 2.023 3.128 1.937 5.037z"></path>
</svg>
