<!-- Generated by IcoMoon.io -->
<svg version="1.1" xmlns="http://www.w3.org/2000/svg" width="20" height="20" viewBox="0 0 20 20">
<title>store-evidence</title>
<path fill="#ffb22d" d="M18.566 19.546h-17.338c-0.427 0-0.774-0.347-0.774-0.774v-17.545c0-0.427 0.347-0.774 0.774-0.774h17.338c0.427 0 0.774 0.347 0.774 0.774v17.545c0 0.428-0.347 0.774-0.774 0.774z"></path>
<path fill="#f90" d="M18.566 0.454h-8.669v19.093h8.669c0.427 0 0.774-0.347 0.774-0.774v-17.545c-0-0.427-0.347-0.774-0.774-0.774z"></path>
<path fill="#ff6800" d="M15.573 10.052h-11.353c-0.427 0-0.774-0.347-0.774-0.774s0.347-0.774 0.774-0.774h11.353c0.427 0 0.774 0.347 0.774 0.774s-0.347 0.774-0.774 0.774z"></path>
<path fill="#ff6800" d="M15.573 13.096h-11.353c-0.427 0-0.774-0.347-0.774-0.774s0.347-0.774 0.774-0.774h11.353c0.427 0 0.774 0.347 0.774 0.774s-0.347 0.774-0.774 0.774z"></path>
<path fill="#ff6800" d="M15.573 16.141h-11.353c-0.427 0-0.774-0.347-0.774-0.774s0.347-0.774 0.774-0.774h11.353c0.427 0 0.774 0.347 0.774 0.774s-0.347 0.774-0.774 0.774z"></path>
<path fill="#ff6800" d="M15.573 6.955h-11.353c-0.427 0-0.774-0.347-0.774-0.774s0.347-0.774 0.774-0.774h11.353c0.427 0 0.774 0.347 0.774 0.774s-0.347 0.774-0.774 0.774z"></path>
<path fill="#ff4f19" d="M15.573 8.504h-5.676v1.548h5.676c0.427 0 0.774-0.347 0.774-0.774s-0.347-0.774-0.774-0.774z"></path>
<path fill="#ff4f19" d="M15.573 11.548h-5.676v1.548h5.676c0.427 0 0.774-0.347 0.774-0.774s-0.347-0.774-0.774-0.774z"></path>
<path fill="#ff4f19" d="M15.573 14.593h-5.676v1.548h5.676c0.427 0 0.774-0.347 0.774-0.774s-0.347-0.774-0.774-0.774z"></path>
<path fill="#ff4f19" d="M15.573 5.407h-5.676v1.548h5.676c0.427 0 0.774-0.347 0.774-0.774s-0.347-0.774-0.774-0.774z"></path>
<path fill="#a94200" d="M12.524 1.041h4.105c0.865 0 1.566 0.701 1.566 1.566v3.896c0 0.865-0.701 1.566-1.566 1.566h-4.105c-0.865 0-1.566-0.701-1.566-1.566v-3.896c0-0.865 0.701-1.566 1.566-1.566z"></path>
<path fill="#fff" d="M12.323 3.776h4.552c0.451 0 0.816 0.366 0.816 0.816s-0.366 0.816-0.816 0.816h-4.552c-0.451 0-0.816-0.366-0.816-0.816s0.366-0.816 0.816-0.816z"></path>
<path fill="#fff" d="M15.459 2.283v4.542c0 0.451-0.366 0.816-0.816 0.816s-0.816-0.366-0.816-0.816v-4.542c0-0.451 0.366-0.816 0.816-0.816s0.816 0.366 0.816 0.816z"></path>
</svg>
