<!-- Generated by IcoMoon.io -->
<svg version="1.1" xmlns="http://www.w3.org/2000/svg" width="16" height="20" viewBox="0 0 16 20">
<title>stratification</title>
<path fill="#95a2e3" d="M15.655 1.479c0 0 0 11.362 0 17.043 0 0.579-0.374 1.049-0.835 1.049-4.519 0-13.557 0-13.557 0-0.461 0-0.835-0.47-0.835-1.049v-17.043c0-0.579 0.374-1.049 0.835-1.049h13.557c0.461 0 0.835 0.47 0.835 1.049z"></path>
<path fill="#4f2f59" d="M2.622 6.678h10.779c0.151 0 0.274-0.209 0.274-0.466s-0.123-0.466-0.274-0.466h-10.779c-0.151 0-0.274 0.209-0.274 0.466s0.123 0.466 0.274 0.466z"></path>
<path fill="#4f2f59" d="M13.402 8.482h-10.779c-0.151 0-0.274 0.209-0.274 0.466s0.123 0.466 0.274 0.466h10.779c0.151 0 0.274-0.209 0.274-0.466s-0.123-0.466-0.274-0.466z"></path>
<path fill="#4f2f59" d="M13.402 11.218h-10.779c-0.151 0-0.274 0.209-0.274 0.466s0.123 0.466 0.274 0.466h10.779c0.151 0 0.274-0.209 0.274-0.466s-0.123-0.466-0.274-0.466z"></path>
<path fill="#4f2f59" d="M13.402 13.954h-10.779c-0.151 0-0.274 0.209-0.274 0.466s0.123 0.466 0.274 0.466h10.779c0.151 0 0.274-0.209 0.274-0.466s-0.123-0.466-0.274-0.466z"></path>
<path fill="#4f2f59" d="M13.402 16.69h-10.779c-0.151 0-0.274 0.209-0.274 0.466s0.123 0.466 0.274 0.466h10.779c0.151 0 0.274-0.209 0.274-0.466s-0.123-0.466-0.274-0.466z"></path>
<path fill="#4f2f59" d="M13.407 2.93h-10.779c-0.151 0-0.274 0.209-0.274 0.466s0.123 0.466 0.274 0.466h10.779c0.151 0 0.274-0.209 0.274-0.466s-0.123-0.466-0.274-0.466z"></path>
</svg>
