<!-- Generated by IcoMoon.io -->
<svg version="1.1" xmlns="http://www.w3.org/2000/svg" width="20" height="20" viewBox="0 0 20 20">
<title>structural-priors</title>
<path fill="#1a3c5a" d="M16.046 4.178l4.047-3.954v7.908z"></path>
<path fill="#1a3c5a" d="M15.128 2.918l2.153 2.087-14.97 14.771-2.153-2.087z"></path>
<path fill="#005ccc" d="M16.3 10.251c0 3.324-2.695 6.018-6.018 6.018s-6.018-2.695-6.018-6.018c0-3.324 2.695-6.018 6.018-6.018s6.018 2.695 6.018 6.018z"></path>
<path fill="#00284a" d="M12 0.224h8.093l-4.047 3.954z"></path>
<path fill="#f2f2f2" d="M14.593 13.492h-1.972l-0.801-1.744q-0.982 1.878-2.828 1.878-1.43 0-2.341-0.968-0.903-0.974-0.903-2.368 0-1.541 0.966-2.451t2.498-0.91q1.712 0 2.608 1.566l0.636-1.432h1.862l-1.438 3.050zM11.341 10.188q-0.683-1.426-1.1-1.744-0.416-0.325-0.911-0.325-0.683 0-1.186 0.573-0.495 0.573-0.495 1.617 0 0.91 0.503 1.522 0.503 0.605 1.178 0.605 0.746 0 1.202-0.662t0.809-1.585z"></path>
</svg>
