<!-- Generated by IcoMoon.io -->
<svg version="1.1" xmlns="http://www.w3.org/2000/svg" width="22" height="20" viewBox="0 0 22 20">
<title>structural-coefficient</title>
<path fill="#1f7b5a" d="M20.635 6.955l0.006-0.004-2.934-5.114 0.063-0.014c0.265-0.057 0.454-0.292 0.454-0.563v-0.261c0-0.367-0.339-0.64-0.697-0.563l-13.529 2.918c-0.265 0.057-0.454 0.292-0.454 0.563v0.261c0 0.356 0.319 0.621 0.666 0.566l-3.082 5.372 0.006 0.004h-0.712c0 1.827 1.924 3.308 4.297 3.308s4.297-1.481 4.297-3.308h-0.61l0.006-0.004-3.204-5.585 4.955-1.069v14.853c-2.406 0.186-2.989 1.259-2.989 1.259h7.432c0 0-0.585-1.078-3.004-1.261v-15.162l4.485-0.967-2.733 4.765 0.006 0.004h-0.611c0 1.827 1.924 3.308 4.297 3.308s4.297-1.481 4.297-3.308zM2.122 10.121l2.649-4.618 2.649 4.618zM14.35 6.955l2.649-4.618 2.649 4.618z"></path>
</svg>
