<!-- Generated by IcoMoon.io -->
<svg version="1.1" xmlns="http://www.w3.org/2000/svg" width="19" height="20" viewBox="0 0 19 20">
<title>synthesis-structure</title>
<path fill="#120775" d="M5.806 13.491c0.368 1.181 1.832 1.997 3.551 1.943l0.009-0c0.052-0.002 0.112-0.005 0.173-0.009 1.675-0.114 3.031-1.019 3.38-2.15l0.005-0.019-1.425 0.047c-0.255 0.549-1.090 0.974-2.099 1.024-0.021 0.001-0.042 0.002-0.063 0.003l0.003-0c-1.028 0.033-1.9-0.336-2.158-0.875l-0.004-0.009z"></path>
<path fill="#af0a0a" d="M10.295 9.998l5.698 6.513-1.075 0.941-5.698-6.513z"></path>
<path fill="#af0a0a" d="M8.514 9.255l1.149 0.849-5.525 7.482-1.149-0.849z"></path>
<path fill="#af0a0a" d="M3.356 2.132l6.342 7.201-1.072 0.944-6.342-7.201z"></path>
<path fill="#0e358e" d="M5.646 2.26c0.308 1.443-0.617 2.878-2.064 3.207s-2.87-0.576-3.178-2.019c-0.307-1.443 0.617-2.878 2.064-3.207s2.87 0.576 3.178 2.019z"></path>
<path fill="#397ba0" d="M4.781 2.42c0.208 0.977-0.418 1.95-1.398 2.172s-1.944-0.39-2.153-1.367c-0.208-0.977 0.418-1.95 1.398-2.172s1.944 0.39 2.153 1.367z"></path>
<path fill="#af0a0a" d="M16.429 3.779l0.806 1.18-7.681 5.245-0.806-1.18z"></path>
<path fill="#0e358e" d="M18.681 4.343c0.308 1.443-0.617 2.878-2.064 3.207s-2.87-0.576-3.178-2.019c-0.308-1.443 0.617-2.878 2.064-3.207s2.87 0.576 3.178 2.019z"></path>
<path fill="#397ba0" d="M17.816 4.503c0.208 0.977-0.418 1.95-1.398 2.172s-1.944-0.39-2.153-1.367c-0.208-0.977 0.418-1.95 1.398-2.172s1.944 0.39 2.153 1.367z"></path>
<path fill="#0e358e" d="M6.79 16.058c0.307 1.443-0.617 2.878-2.064 3.207s-2.87-0.576-3.178-2.019c-0.308-1.443 0.617-2.878 2.064-3.207s2.87 0.576 3.178 2.019z"></path>
<path fill="#397ba0" d="M5.924 16.218c0.208 0.977-0.418 1.95-1.398 2.172s-1.944-0.39-2.153-1.367c-0.208-0.977 0.418-1.95 1.398-2.172s1.944 0.39 2.153 1.367z"></path>
<path fill="#0e358e" d="M18.622 16.588c0.308 1.443-0.617 2.878-2.064 3.207s-2.87-0.576-3.178-2.019c-0.308-1.443 0.617-2.878 2.064-3.207s2.87 0.576 3.178 2.019z"></path>
<path fill="#397ba0" d="M17.757 16.748c0.208 0.977-0.418 1.95-1.398 2.172s-1.944-0.39-2.153-1.367c-0.208-0.977 0.418-1.95 1.398-2.172s1.944 0.39 2.153 1.367z"></path>
<path fill="#0e358e" d="M11.676 9.053c0.307 1.443-0.617 2.878-2.064 3.207s-2.87-0.576-3.178-2.019c-0.308-1.443 0.617-2.878 2.064-3.207s2.87 0.576 3.178 2.019z"></path>
<path fill="#397ba0" d="M10.81 9.213c0.208 0.977-0.418 1.95-1.398 2.172s-1.944-0.39-2.153-1.367c-0.208-0.977 0.418-1.95 1.398-2.172s1.944 0.39 2.153 1.367z"></path>
</svg>
