<!-- Generated by IcoMoon.io -->
<svg version="1.1" xmlns="http://www.w3.org/2000/svg" width="20" height="20" viewBox="0 0 20 20">
<title>Target-State</title>
<path fill="#fff" d="M20 10c0 5.523-4.477 10-9.999 10s-9.999-4.477-9.999-10c0-5.523 4.477-10 9.999-10s9.999 4.477 9.999 10z"></path>
<path fill="#3348ab" d="M10 4c-3.292 0-6 2.708-6 6s2.708 6 6 6c3.292 0 6-2.708 6-6s-2.708-6-6-6zM10 14c-2.194 0-4-1.806-4-4s1.806-4 4-4c2.194 0 4 1.806 4 4s-1.806 4-4 4z"></path>
<path fill="#3348ab" d="M10 0c-5.486 0-10 4.514-10 10s4.514 10 10 10c5.486 0 10-4.514 10-10s-4.514-10-10-10zM10 18c-4.389 0-8-3.611-8-8s3.611-8 8-8c4.389 0 8 3.611 8 8s-3.611 8-8 8z"></path>
<path fill="#3348ab" d="M12 10c0 1.105-0.895 2-2 2s-2-0.895-2-2c0-1.105 0.895-2 2-2s2 0.895 2 2z"></path>
</svg>
