<!-- Generated by IcoMoon.io -->
<svg version="1.1" xmlns="http://www.w3.org/2000/svg" width="20" height="20" viewBox="0 0 20 20">
<title>temporal-index</title>
<path fill="#7dd2f0" d="M19.624 10c0 5.315-4.309 9.624-9.624 9.624s-9.624-4.309-9.624-9.624c0-5.315 4.309-9.624 9.624-9.624s9.624 4.309 9.624 9.624z"></path>
<path fill="#000" opacity="0.1" d="M1.256 10.88c0-5.315 4.309-9.624 9.624-9.624 2.434 0 4.656 0.904 6.351 2.393-1.764-2.007-4.349-3.273-7.231-3.273-5.315 0-9.624 4.309-9.624 9.624 0 2.882 1.267 5.467 3.273 7.231-1.49-1.695-2.394-3.917-2.394-6.351z"></path>
<path fill="#fff" d="M10 17.205c-3.973 0-7.205-3.232-7.205-7.205s3.232-7.205 7.205-7.205c3.973 0 7.205 3.232 7.205 7.205s-3.232 7.205-7.205 7.205z"></path>
<path fill="#000" opacity="0.1" d="M3.675 10.88c0-3.973 3.232-7.205 7.205-7.205 1.763 0 3.379 0.637 4.633 1.692-1.323-1.571-3.303-2.572-5.513-2.572-3.973 0-7.205 3.232-7.205 7.205 0 2.21 1 4.19 2.572 5.513-1.055-1.253-1.692-2.87-1.692-4.633z"></path>
<path fill="#515262" d="M10 2.795c-0.111 0-0.221 0.003-0.33 0.008v1.921c0 0.182 0.148 0.33 0.33 0.33s0.33-0.148 0.33-0.33v-1.921c-0.109-0.005-0.219-0.008-0.33-0.008z"></path>
<path fill="#515262" d="M14.853 4.68l-1.356 1.356c-0.129 0.129-0.129 0.338 0 0.467 0.064 0.064 0.149 0.097 0.233 0.097s0.169-0.032 0.233-0.097l1.356-1.356c-0.148-0.163-0.304-0.318-0.467-0.467z"></path>
<path fill="#515262" d="M17.197 9.67h-1.921c-0.182 0-0.33 0.148-0.33 0.33s0.148 0.33 0.33 0.33h1.921c0.005-0.109 0.008-0.219 0.008-0.33s-0.003-0.221-0.008-0.33z"></path>
<path fill="#515262" d="M15.32 14.853l-1.356-1.356c-0.129-0.129-0.338-0.129-0.467 0s-0.129 0.338 0 0.467l1.356 1.356c0.162-0.148 0.318-0.304 0.467-0.467z"></path>
<path fill="#515262" d="M10 14.946c-0.182 0-0.33 0.148-0.33 0.33v1.921c0.109 0.005 0.219 0.008 0.33 0.008s0.221-0.003 0.33-0.008v-1.921c0-0.182-0.148-0.33-0.33-0.33z"></path>
<path fill="#515262" d="M6.036 13.497l-1.356 1.356c0.148 0.163 0.304 0.318 0.467 0.467l1.356-1.356c0.129-0.129 0.129-0.338 0-0.467s-0.338-0.129-0.467-0z"></path>
<path fill="#515262" d="M4.724 9.67h-1.921c-0.005 0.109-0.008 0.219-0.008 0.33s0.003 0.221 0.008 0.33h1.921c0.182 0 0.33-0.148 0.33-0.33s-0.148-0.33-0.33-0.33z"></path>
<path fill="#515262" d="M4.68 5.147l1.356 1.356c0.064 0.064 0.149 0.097 0.233 0.097s0.169-0.032 0.233-0.097c0.129-0.129 0.129-0.338 0-0.467l-1.356-1.356c-0.163 0.148-0.318 0.304-0.467 0.467z"></path>
<path fill="#515262" d="M11.783 12.443c-0.169 0-0.338-0.064-0.467-0.193l-1.783-1.783c-0.124-0.124-0.193-0.292-0.193-0.467v-3.322c0-0.364 0.295-0.66 0.66-0.66s0.66 0.295 0.66 0.66v3.048l1.59 1.59c0.258 0.258 0.258 0.675 0 0.933-0.129 0.129-0.298 0.193-0.467 0.193z"></path>
</svg>
