<!-- Generated by IcoMoon.io -->
<svg version="1.1" xmlns="http://www.w3.org/2000/svg" width="20" height="20" viewBox="0 0 20 20">
<title>time</title>
<path fill="#97b8bf" d="M3.912 2.181c0.164 3.051 2.823 7.925 6.088 7.925s5.924-4.875 6.089-7.925h-12.177z"></path>
<path fill="#aa2102" d="M5.582 4.056c0.12 1.884 2.050 4.893 4.418 4.893 2.369 0 4.299-3.010 4.418-4.893h-8.836z"></path>
<path fill="#1964db" d="M17.198 2.471c0 0.079-0.064 0.143-0.142 0.143h-14.111c-0.079 0-0.143-0.064-0.143-0.143v-2.328c0-0.079 0.064-0.143 0.143-0.143h14.111c0.078 0 0.142 0.063 0.142 0.143v2.328z"></path>
<path fill="#177add" d="M17.056 0h-14.111c-0.079 0-0.143 0.063-0.143 0.143v1.051c0 0.079 0.064 0.142 0.143 0.142h14.111c0.078 0 0.142-0.063 0.142-0.142v-1.051c0-0.079-0.064-0.143-0.142-0.143z"></path>
<path fill="#c63205" d="M5.703 4.774h8.596c0.064-0.251 0.106-0.493 0.12-0.718h-8.836c0.015 0.225 0.056 0.468 0.12 0.718z"></path>
<path fill="#97b8bf" d="M16.089 17.819c-0.165-3.051-2.824-7.925-6.089-7.925s-5.924 4.875-6.088 7.925h12.177z"></path>
<path fill="#aa2102" d="M14.757 17.54c-0.129-2.344-2.207-6.302-4.757-6.302s-4.628 3.958-4.757 6.302h9.514z"></path>
<path fill="#1964db" d="M2.802 17.53c0-0.079 0.064-0.143 0.143-0.143h14.111c0.078 0 0.142 0.064 0.142 0.143v2.327c0 0.079-0.064 0.143-0.142 0.143h-14.111c-0.079 0-0.143-0.063-0.143-0.143v-2.327z"></path>
<path fill="#177add" d="M2.945 20h14.111c0.078 0 0.142-0.063 0.142-0.143v-1.051c0-0.079-0.064-0.143-0.142-0.143h-14.111c-0.079 0-0.143 0.063-0.143 0.143v1.051c0 0.079 0.064 0.143 0.143 0.143z"></path>
<path fill="#87adb2" d="M5.556 15.944h8.888c-0.688-2.204-2.416-4.853-4.445-4.853s-3.756 2.65-4.444 4.853z"></path>
<path fill="#aa2102" d="M9.741 16.323c0 0.143 0.116 0.259 0.259 0.259v0c0.143 0 0.259-0.116 0.259-0.259v-7.619c0-0.143-0.116-0.259-0.259-0.259v0c-0.143 0-0.259 0.116-0.259 0.259v7.619z"></path>
</svg>
