<!-- Generated by IcoMoon.io -->
<svg version="1.1" xmlns="http://www.w3.org/2000/svg" width="20" height="20" viewBox="0 0 20 20">
<title>tips</title>
<path fill="#c6e2e7" d="M12.93 14.688v1.758l-1.23 1.211h-3.398l-1.23-1.211v-1.758z"></path>
<path fill="#a8d3d8" d="M10 14.688h2.93v1.758l-1.23 1.211h-1.699z"></path>
<path fill="#ffe470" d="M16.445 6.445c0 1.922-0.855 3.715-2.344 4.945v1.5l-4.102 1.211-4.102-1.211v-1.5c-1.488-1.23-2.344-3.023-2.344-4.945 0-3.551 2.894-6.445 6.445-6.445s6.445 2.894 6.445 6.445z"></path>
<path fill="#fdbf00" d="M16.445 6.445c0 1.922-0.855 3.715-2.344 4.945v1.5l-4.102 1.211v-14.102c3.551 0 6.445 2.894 6.445 6.445z"></path>
<path fill="#a8d3d8" d="M12.93 16.445v0.586c0 0.199-0.023 0.437-0.059 0.625-0.27 1.336-1.453 2.344-2.871 2.344s-2.601-1.008-2.871-2.344c-0.035-0.188-0.059-0.426-0.059-0.625v-0.586z"></path>
<path fill="#fdbf00" d="M8.242 6.445h1.172v7.031h-1.172z"></path>
<path fill="#ff9f00" d="M10.586 6.445h1.172v7.031h-1.172z"></path>
<path fill="#fdbf00" d="M7.656 8.203c-0.969 0-1.758-0.789-1.758-1.758s0.789-1.758 1.758-1.758 1.758 0.789 1.758 1.758-0.789 1.758-1.758 1.758zM7.656 5.859c-0.323 0-0.586 0.263-0.586 0.586s0.263 0.586 0.586 0.586 0.586-0.263 0.586-0.586-0.263-0.586-0.586-0.586z"></path>
<path fill="#ff9f00" d="M12.344 8.203c-0.969 0-1.758-0.789-1.758-1.758s0.789-1.758 1.758-1.758 1.758 0.789 1.758 1.758-0.789 1.758-1.758 1.758zM12.344 5.859c-0.323 0-0.586 0.263-0.586 0.586s0.263 0.586 0.586 0.586 0.586-0.263 0.586-0.586-0.263-0.586-0.586-0.586z"></path>
<path fill="#8ebac5" d="M10 16.445h2.93v0.586c0 0.199-0.023 0.437-0.059 0.625-0.27 1.336-1.453 2.344-2.871 2.344z"></path>
<path fill="#deecf1" d="M5.898 12.891h8.203v2.383h-8.203z"></path>
<path fill="#c6e2e7" d="M10 12.891h4.102v2.383h-4.102z"></path>
</svg>
