<!-- Generated by IcoMoon.io -->
<svg version="1.1" xmlns="http://www.w3.org/2000/svg" width="20" height="20" viewBox="0 0 20 20">
<title>top</title>
<path fill="#6ec2cb" d="M20 10c0 5.523-4.477 10-10 10s-10-4.477-10-10c0-5.523 4.477-10 10-10s10 4.477 10 10z"></path>
<path fill="#fff" d="M15.478 10.085c-1.515-1.515-3.030-3.030-4.546-4.546-0.458-0.458-1.221-0.445-1.675 0.009-1.515 1.515-3.030 3.030-4.546 4.546-1.079 1.079 0.602 2.748 1.684 1.666 1.234-1.234 2.469-2.469 3.704-3.704 1.238 1.237 2.475 2.475 3.713 3.713 1.079 1.079 2.748-0.602 1.666-1.684z"></path>
</svg>
