<!-- Generated by IcoMoon.io -->
<svg version="1.1" xmlns="http://www.w3.org/2000/svg" width="20" height="20" viewBox="0 0 20 20">
<title>trash</title>
<path fill="#46a824" d="M11.752 0h-3.504c-0.424 0-0.768 0.344-0.768 0.768v2.411h5.039v-2.411c0-0.424-0.344-0.768-0.768-0.768z"></path>
<path fill="#46a824" d="M3.475 3.179h13.049l-0.914 16.821h-11.222z"></path>
<path fill="#000" opacity="0.1" d="M16.525 3.179h-13.049l0.149 2.741h12.752z"></path>
<path fill="#97ac9f" d="M16.303 1.834h-12.606c-0.929 0-1.682 0.753-1.682 1.682v1.034h15.969v-1.034c0-0.929-0.753-1.682-1.682-1.682z"></path>
<path fill="#c7cfe2" d="M10 17.432c-0.505 0-0.914-0.409-0.914-0.914v-8.488c0-0.505 0.409-0.914 0.914-0.914s0.914 0.409 0.914 0.914v8.488c0 0.505-0.409 0.914-0.914 0.914z"></path>
<path fill="#c7cfe2" d="M6.802 17.432c-0.493 0-0.899-0.393-0.913-0.889l-0.228-8.488c-0.014-0.504 0.384-0.924 0.889-0.938s0.924 0.384 0.938 0.889l0.228 8.488c0.014 0.504-0.384 0.924-0.889 0.938-0.008 0-0.017 0-0.025 0z"></path>
<path fill="#c7cfe2" d="M13.198 17.432c-0.008 0-0.017-0-0.025-0-0.504-0.014-0.902-0.433-0.889-0.938l0.228-8.488c0.013-0.496 0.42-0.889 0.913-0.889 0.008 0 0.017 0 0.025 0 0.504 0.014 0.902 0.433 0.889 0.938l-0.228 8.488c-0.013 0.496-0.42 0.889-0.913 0.889z"></path>
</svg>
