<!-- Generated by IcoMoon.io -->
<svg version="1.1" xmlns="http://www.w3.org/2000/svg" width="20" height="20" viewBox="0 0 20 20">
<title>tree</title>
<path fill="#129b12" d="M18.956 9.396c0-1.398-0.85-2.598-2.062-3.11 0.214-0.414 0.336-0.883 0.336-1.381 0-1.663-1.348-3.010-3.010-3.010-0.474 0-0.922 0.11-1.32 0.305-0.354-1.268-1.517-2.199-2.899-2.199s-2.545 0.931-2.899 2.199c-0.399-0.195-0.847-0.305-1.32-0.305-1.663 0-3.010 1.348-3.010 3.010 0 0.498 0.122 0.967 0.336 1.381-1.212 0.512-2.062 1.712-2.062 3.11 0 1.812 1.429 3.289 3.221 3.37 0.25 0.905 1.215 1.58 2.368 1.58 0.654 0 1.246-0.217 1.683-0.57 0.437 0.352 1.030 0.57 1.683 0.57s1.246-0.217 1.683-0.57c0.437 0.352 1.030 0.57 1.683 0.57 1.153 0 2.118-0.675 2.368-1.58 1.792-0.081 3.221-1.557 3.221-3.37z"></path>
<path fill="#097c09" d="M9.819 0.006c-0.037 0.002-0.074 0.005-0.111 0.008-0.011 0.001-0.022 0.002-0.034 0.004-0.039 0.004-0.079 0.009-0.118 0.015-0.007 0.001-0.015 0.002-0.022 0.003-0.046 0.007-0.092 0.015-0.138 0.025-0 0-0 0-0 0 0.79 0.161 1.53 0.711 1.999 1.405 0.332 0.491 0.899 0.774 1.491 0.734 0.004-0 0.008-0.001 0.012-0.001-0.354-1.268-1.517-2.199-2.899-2.199-0.048 0-0.097 0.001-0.144 0.004-0.012 0.001-0.024 0.002-0.036 0.002z"></path>
<path fill="#097c09" d="M16.894 6.285c0.214-0.414 0.336-0.883 0.336-1.381 0-1.663-1.348-3.010-3.010-3.010-0.206 0-0.408 0.021-0.602 0.060 1.374 0.279 2.408 1.494 2.408 2.95 0 0.498-0.122 0.967-0.336 1.381 1.212 0.512 2.062 1.712 2.062 3.11 0 1.812-1.429 3.289-3.221 3.37-0.205 0.742-0.89 1.329-1.766 1.516 0.193 0.041 0.395 0.064 0.603 0.064 1.153 0 2.118-0.675 2.368-1.58 1.792-0.081 3.221-1.557 3.221-3.37 0-1.398-0.85-2.598-2.062-3.11z"></path>
<path fill="#009000" d="M7.845 13.277c-0.271 0.46-1.397 0.975-1.814 1.005 0.046 0.010 0.092 0.018 0.139 0.026 0.004 0.001 0.008 0.001 0.011 0.002 0.048 0.008 0.096 0.014 0.144 0.019 0.001 0 0.003 0 0.004 0 0.044 0.005 0.088 0.008 0.132 0.011 0.011 0.001 0.022 0.001 0.032 0.002 0.046 0.002 0.093 0.004 0.14 0.004v0c0.596 0 1.141-0.181 1.564-0.48l0.074-0.054-0.378-0.619-0.049 0.085z"></path>
<path fill="#bf6101" d="M11.505 14.046l1.29-2.035c0.102-0.161 0.071-0.372-0.073-0.497v0c-0.154-0.134-0.384-0.125-0.527 0.020l-0.95 0.962c-0.126 0.128-0.342 0.021-0.318-0.156l0.279-2.069c0.030-0.221-0.134-0.421-0.356-0.436l-0.262-0.018c-0.197-0.013-0.372 0.124-0.406 0.318l-0.499 2.833c-0.028 0.158-0.228 0.209-0.329 0.085l-1.561-1.92c-0.108-0.133-0.291-0.179-0.449-0.112l-0.273 0.115c-0.216 0.091-0.302 0.353-0.181 0.554l1.605 2.674c0.232 0.387 0.328 0.842 0.27 1.29-0.208 1.604-0.466 3.116-1.523 4.348h5.516c-1.132-1.319-1.411-2.959-1.56-4.689-0.038-0.444 0.069-0.889 0.308-1.265z"></path>
<path fill="#9a4d01" d="M12.795 12.011c0.102-0.161 0.071-0.372-0.073-0.497v0c-0.154-0.134-0.384-0.125-0.528 0.020l-0.95 0.962c-0.126 0.128-0.342 0.021-0.318-0.156l0.279-2.069c0.029-0.216-0.126-0.411-0.34-0.434l-0.785 4.881c-0.013 0.063-0.024 0.127-0.031 0.191v0 0c-0.015 0.133-0.017 0.269-0.005 0.404 0.15 1.73 0.429 3.37 1.561 4.689v0h1.152c-1.132-1.319-1.411-2.959-1.56-4.689-0.038-0.444 0.069-0.889 0.308-1.265l1.29-2.035z"></path>
<path fill="#28a528" d="M9.427 2.363c-0.845 0-1.572 0.501-1.901 1.222-0.34-0.241-0.756-0.382-1.204-0.382-1.154 0-2.090 0.936-2.090 2.090 0 0.381 0.102 0.738 0.28 1.045-1.002 0.154-1.77 1.020-1.77 2.065 0 1.154 0.936 2.090 2.090 2.090s6.685-4.886 6.685-6.040-0.936-2.090-2.090-2.090z"></path>
</svg>
