<!-- Generated by IcoMoon.io -->
<svg version="1.1" xmlns="http://www.w3.org/2000/svg" width="20" height="20" viewBox="0 0 20 20">
<title>undo</title>
<path fill="#26b99a" d="M8.199 6.131v-4.59l-7.66 7.6 7.66 7.673v-4.589c0 0 6.704-1.659 11.318 6.095 0 0 1.15-5.918-4.004-10.207 0-0-2.282-2.135-7.315-1.983z"></path>
<path fill="#26b99a" d="M19.701 19.373l-0.511-0.858c-3.891-6.538-9.295-6.172-10.61-5.973v5.194l-8.58-8.595 8.58-8.514v5.116c4.849-0.039 7.102 2.007 7.194 2.093 5.25 4.367 4.129 10.496 4.117 10.558l-0.19 0.98zM9.769 11.696c2.195 0 6.226 0.738 9.468 5.476 0.049-1.856-0.341-5.75-3.966-8.765-0.038-0.034-2.279-2.047-7.060-1.895l-0.392 0.011v-4.067l-6.74 6.687 6.74 6.752v-3.967l0.29-0.072c0.027-0.007 0.659-0.16 1.661-0.16z"></path>
</svg>
