<!-- Generated by IcoMoon.io -->
<svg version="1.1" xmlns="http://www.w3.org/2000/svg" width="20" height="20" viewBox="0 0 20 20">
<title>unlock</title>
<path fill="#424a60" d="M6.491 5.551v-1.129c0-1.676 1.515-3.018 3.333-3.018s3.333 1.341 3.333 3.018c0 0 0 4.351 0 4.351 0 0.387 0.314 0.702 0.702 0.702s0.702-0.314 0.702-0.702v-4.351c0-2.416-2.116-4.421-4.737-4.421s-4.737 2.006-4.737 4.421c0 0 0 1.129 0 1.129 0 0.387 0.314 0.702 0.702 0.702s0.702-0.314 0.702-0.702z"></path>
<path fill="#ebba16" d="M2.632 8.772h14.737v11.228h-14.737v-11.228z"></path>
<path fill="#424a60" d="M10 15.789c-0.579 0-1.053-0.474-1.053-1.053v-2.105c0-0.579 0.474-1.053 1.053-1.053s1.053 0.474 1.053 1.053v2.105c0 0.579-0.474 1.053-1.053 1.053z"></path>
<path fill="#38454f" d="M2.632 17.895h14.737v2.105h-14.737v-2.105z"></path>
</svg>
