<!-- Generated by IcoMoon.io -->
<svg version="1.1" xmlns="http://www.w3.org/2000/svg" width="20" height="20" viewBox="0 0 20 20">
<title>update</title>
<path fill="#ffcb5a" d="M11.425 20h-2.85l-1.147-2.422-0.968-0.401-2.524 0.902-2.016-2.016 0.902-2.524-0.401-0.968-2.422-1.147v-2.85l2.422-1.147 0.401-0.968-0.902-2.524 2.016-2.016 2.525 0.903 0.966-0.4 1.147-2.424h2.85l1.147 2.424 0.966 0.4 2.525-0.903 2.016 2.016-0.902 2.524 0.401 0.968 2.422 1.147v2.85l-2.422 1.147-0.401 0.968 0.902 2.524-2.016 2.016-2.524-0.902-0.968 0.401z"></path>
<path fill="#fff" d="M12.5 13.75h-5v-4.375h-2.609l5.109-5.96 5.109 5.96h-2.609z"></path>
<path fill="#fba61f" d="M11.25 15h1.25v1.25h-1.25z"></path>
<path fill="#fba61f" d="M7.5 15h1.25v1.25h-1.25z"></path>
</svg>
