<!-- Generated by IcoMoon.io -->
<svg version="1.1" xmlns="http://www.w3.org/2000/svg" width="20" height="20" viewBox="0 0 20 20">
<title>USA</title>
<path fill="#cc0001" d="M18.315 4.444h-16.63c-0.459 0.685-0.834 1.431-1.114 2.222h18.858c-0.28-0.791-0.655-1.537-1.114-2.222z"></path>
<path fill="#fff" d="M19.429 6.667h-18.858c-0.25 0.708-0.423 1.452-0.508 2.222h19.874c-0.085-0.771-0.258-1.514-0.508-2.222z"></path>
<path fill="#cc0001" d="M10 0c-2.381 0-4.566 0.833-6.283 2.222h12.566c-1.717-1.389-3.902-2.222-6.283-2.222z"></path>
<path fill="#fff" d="M16.283 2.222h-12.566c-0.783 0.634-1.47 1.383-2.032 2.222h16.63c-0.562-0.839-1.248-1.588-2.032-2.222z"></path>
<path fill="#cc0001" d="M20 10c0-0.376-0.023-0.746-0.063-1.111h-19.874c-0.040 0.365-0.063 0.735-0.063 1.111s0.023 0.746 0.063 1.111h19.874c0.040-0.365 0.063-0.735 0.063-1.111z"></path>
<path fill="#fff" d="M19.937 11.111h-19.874c0.085 0.771 0.258 1.514 0.508 2.222h18.858c0.25-0.708 0.423-1.452 0.508-2.222z"></path>
<path fill="#cc0001" d="M19.429 13.333h-18.858c0.28 0.791 0.655 1.537 1.114 2.222h16.63c0.459-0.685 0.834-1.431 1.114-2.222z"></path>
<path fill="#fff" d="M18.315 15.555h-16.63c0.563 0.839 1.249 1.588 2.032 2.222h12.566c0.783-0.633 1.47-1.382 2.032-2.222z"></path>
<path fill="#cc0001" d="M3.717 17.778c1.717 1.389 3.902 2.222 6.283 2.222s4.566-0.833 6.283-2.222h-12.566z"></path>
<path fill="#030389" d="M11.111 0.063c-0.365-0.040-0.735-0.063-1.111-0.063-5.523 0-10 4.477-10 10 0 0.376 0.023 0.746 0.063 1.111h11.048l0-11.048z"></path>
<path fill="#fff" d="M9.912 9.506l-0.233-0.717-0.233 0.717h-0.754l0.61 0.443-0.233 0.717 0.611-0.443 0.61 0.443-0.233-0.717 0.61-0.443z"></path>
<path fill="#fff" d="M7.938 8.072l-0.234-0.718-0.233 0.718h-0.755l0.61 0.443-0.233 0.718 0.61-0.444 0.61 0.444-0.233-0.718 0.61-0.443z"></path>
<path fill="#fff" d="M5.497 9.506l0.233-0.717 0.233 0.717h0.754l-0.61 0.443 0.233 0.717-0.61-0.443-0.611 0.443 0.233-0.717-0.61-0.443z"></path>
<path fill="#fff" d="M3.523 8.072l0.233-0.718 0.233 0.718h0.754l-0.61 0.443 0.233 0.718-0.611-0.444-0.61 0.444 0.233-0.718-0.611-0.443z"></path>
<path fill="#fff" d="M7.938 5.203l-0.234-0.717-0.233 0.717h-0.755l0.61 0.443-0.233 0.718 0.61-0.444 0.61 0.444-0.233-0.718 0.61-0.443z"></path>
<path fill="#fff" d="M3.523 5.203l0.233-0.718 0.233 0.718h0.754l-0.61 0.443 0.233 0.718-0.611-0.444-0.61 0.444 0.233-0.718-0.611-0.443z"></path>
<path fill="#fff" d="M7.938 2.335l-0.234-0.718-0.233 0.718-0.755-0 0.61 0.443-0.233 0.718 0.61-0.444 0.61 0.444-0.233-0.718 0.61-0.443z"></path>
<path fill="#fff" d="M2.015 9.506l-0.233-0.717-0.233 0.717h-0.754l0.61 0.443-0.233 0.717 0.61-0.443 0.611 0.443-0.233-0.717 0.61-0.443z"></path>
<path fill="#fff" d="M9.912 6.638l-0.233-0.717-0.233 0.717h-0.754l0.61 0.443-0.233 0.718 0.61-0.444 0.61 0.444-0.233-0.718 0.61-0.443z"></path>
<path fill="#fff" d="M5.497 6.638l0.233-0.717 0.233 0.717h0.754l-0.61 0.443 0.233 0.718-0.61-0.444-0.611 0.444 0.233-0.718-0.61-0.443z"></path>
<path fill="#fff" d="M2.015 6.638l-0.233-0.717-0.233 0.717h-0.754l0.61 0.443-0.233 0.718 0.61-0.444 0.611 0.444-0.233-0.718 0.61-0.443z"></path>
<path fill="#fff" d="M9.912 3.769l-0.233-0.717-0.233 0.717h-0.754l0.61 0.443-0.233 0.718 0.61-0.443 0.61 0.443-0.233-0.718 0.61-0.443z"></path>
<path fill="#fff" d="M5.497 3.769l0.233-0.717 0.233 0.717h0.754l-0.61 0.443 0.233 0.718-0.61-0.443-0.611 0.443 0.233-0.718-0.61-0.443z"></path>
<path fill="#fff" d="M9.912 0.9l-0.233-0.717-0.233 0.717-0.754-0 0.61 0.444-0.233 0.717 0.61-0.443 0.61 0.443-0.233-0.717 0.61-0.443z"></path>
<path fill="#fff" d="M3.146 3.518l0.61-0.443 0.61 0.443-0.233-0.718 0.61-0.443h-0.754l-0.090-0.277c-0.242 0.187-0.475 0.383-0.699 0.591l0.178 0.129-0.233 0.718z"></path>
<path fill="#fff" d="M2.392 4.778l-0.233-0.718 0.61-0.443h-0.466c-0.199 0.24-0.387 0.489-0.563 0.747l0.041-0.030 0.611 0.444z"></path>
<path fill="#fff" d="M5.12 2.084l0.612-0.444 0.61 0.444-0.233-0.718 0.61-0.443-0.754 0-0.021-0.062c-0.261 0.116-0.517 0.241-0.765 0.378l0.175 0.127-0.233 0.718z"></path>
<path fill="#666" d="M10 20c-5.514 0-10-4.486-10-10s4.486-10 10-10 10 4.486 10 10-4.486 10-10 10zM10 0.4c-5.293 0-9.6 4.307-9.6 9.6s4.307 9.6 9.6 9.6 9.6-4.307 9.6-9.6-4.307-9.6-9.6-9.6z"></path>
</svg>
