<!-- Generated by IcoMoon.io -->
<svg version="1.1" xmlns="http://www.w3.org/2000/svg" width="19" height="20" viewBox="0 0 19 20">
<title>virtual-database</title>
<path fill="#424a60" d="M18.048 3.255c-0.267-1.627-4.074-2.917-8.734-2.917s-8.467 1.29-8.734 2.917h-0.016v13.49h0.016c0.267 1.626 4.074 2.917 8.734 2.917s8.467-1.29 8.734-2.917h0.016v-13.49h-0.016z"></path>
<path fill="#848faa" d="M9.315 15.286c-4.833 0-8.75-1.388-8.75-3.099v4.557h0.016c0.267 1.626 4.074 2.917 8.734 2.917s8.467-1.29 8.734-2.917h0.016v-4.557c0 1.711-3.917 3.099-8.75 3.099z"></path>
<path fill="#00044e" d="M17.882 12.187h0.365v4.74h-0.054c-0.184 0.638-0.862 1.237-1.918 1.713-1.619 0.731-4.135 1.203-6.961 1.203s-5.342-0.473-6.961-1.203c-1.055-0.477-1.733-1.076-1.918-1.713h-0.054v-4.74h0.365c0 0.3 0.143 0.585 0.397 0.855 0.277 0.294 0.681 0.566 1.189 0.812 1.574 0.761 4.116 1.251 6.982 1.251s5.408-0.49 6.983-1.251c0.507-0.245 0.912-0.517 1.189-0.812 0.253-0.269 0.397-0.555 0.397-0.855zM0.747 13.141v3.489l0.014 0.085c0.048 0.29 0.226 0.564 0.507 0.824 0.303 0.279 0.722 0.537 1.236 0.769 1.584 0.715 4.046 1.171 6.811 1.171s5.227-0.456 6.811-1.171c0.513-0.232 0.933-0.49 1.236-0.769 0.281-0.259 0.459-0.534 0.507-0.824l0.014-0.085v-3.489c-0.040 0.051-0.084 0.101-0.131 0.151-0.302 0.322-0.742 0.622-1.296 0.89-1.61 0.778-4.209 1.287-7.141 1.287s-5.531-0.509-7.141-1.287c-0.554-0.268-0.994-0.568-1.296-0.89-0.047-0.050-0.090-0.1-0.131-0.151z"></path>
<path fill="#424a60" d="M0.565 12.005v0.182c0-0.061 0.007-0.122 0.016-0.182h-0.016z"></path>
<path fill="#424a60" d="M18.048 12.005c0.010 0.061 0.016 0.121 0.016 0.182v-0.182h-0.016z"></path>
<path fill="#a0a8c0" d="M9.315 10.911c-4.833 0-8.75-1.388-8.75-3.099v4.557h0.016c0.267 1.626 4.074 2.917 8.734 2.917s8.467-1.29 8.734-2.917h0.016v-4.557c0 1.711-3.917 3.099-8.75 3.099z"></path>
<path fill="#00044e" d="M17.882 7.813h0.365v4.74h-0.054c-0.184 0.638-0.862 1.237-1.918 1.713-1.619 0.731-4.135 1.203-6.961 1.203s-5.342-0.473-6.961-1.203c-1.055-0.477-1.733-1.076-1.918-1.713h-0.054v-4.74h0.365c0 0.3 0.143 0.585 0.397 0.855 0.277 0.294 0.681 0.566 1.189 0.812 1.574 0.761 4.116 1.251 6.982 1.251s5.408-0.49 6.983-1.251c0.507-0.245 0.912-0.517 1.189-0.812 0.253-0.269 0.397-0.555 0.397-0.855zM17.882 8.766c-0.040 0.051-0.084 0.101-0.131 0.151-0.302 0.322-0.742 0.622-1.296 0.89-1.61 0.778-4.209 1.287-7.141 1.287s-5.531-0.509-7.141-1.287c-0.554-0.268-0.994-0.568-1.296-0.89-0.047-0.050-0.090-0.1-0.131-0.151v3.489l0.014 0.085c0.048 0.29 0.226 0.564 0.507 0.824 0.303 0.279 0.722 0.537 1.236 0.769 1.584 0.715 4.046 1.171 6.811 1.171s5.227-0.456 6.811-1.171c0.513-0.232 0.933-0.49 1.236-0.769 0.281-0.259 0.459-0.534 0.507-0.824l0.014-0.085v-3.489z"></path>
<path fill="#556080" d="M0.565 7.63v0.182c0-0.061 0.007-0.122 0.016-0.182h-0.016z"></path>
<path fill="#556080" d="M18.048 7.63c0.010 0.061 0.016 0.121 0.016 0.182v-0.182h-0.016z"></path>
<path fill="#ccddf0" d="M18.065 3.438c0 1.711-3.918 3.099-8.75 3.099s-8.75-1.387-8.75-3.099c0-1.711 3.918-3.099 8.75-3.099s8.75 1.387 8.75 3.099z"></path>
<path fill="#00044e" d="M9.315 0.156c-2.931 0-5.529 0.509-7.14 1.287-0.555 0.268-0.994 0.569-1.296 0.89-0.326 0.346-0.496 0.719-0.496 1.104s0.17 0.758 0.496 1.104c0.302 0.321 0.742 0.622 1.296 0.89 1.611 0.778 4.209 1.287 7.14 1.287s5.529-0.509 7.14-1.287c0.555-0.268 0.994-0.569 1.296-0.89 0.326-0.346 0.496-0.719 0.496-1.104s-0.17-0.758-0.496-1.104c-0.302-0.321-0.742-0.622-1.296-0.89-1.611-0.778-4.209-1.287-7.14-1.287zM9.315 0.521c2.865 0 5.407 0.49 6.981 1.251 0.508 0.245 0.913 0.517 1.189 0.811 0.254 0.269 0.397 0.555 0.397 0.854s-0.143 0.585-0.397 0.854c-0.277 0.294-0.681 0.566-1.189 0.811-1.575 0.761-4.117 1.251-6.981 1.251s-5.407-0.49-6.981-1.251c-0.508-0.245-0.913-0.517-1.189-0.811-0.254-0.269-0.397-0.555-0.397-0.854s0.143-0.585 0.397-0.854c0.277-0.294 0.681-0.566 1.189-0.811 1.575-0.761 4.117-1.251 6.981-1.251z"></path>
<path fill="#b8c0de" d="M9.315 6.536c-4.833 0-8.75-1.388-8.75-3.099v4.557h0.016c0.267 1.626 4.074 2.917 8.734 2.917s8.467-1.29 8.734-2.917h0.016v-4.557c0 1.711-3.917 3.099-8.75 3.099z"></path>
<path fill="#00044e" d="M17.882 3.438h0.365v4.74h-0.054c-0.184 0.638-0.862 1.237-1.918 1.713-1.619 0.731-4.135 1.203-6.961 1.203s-5.342-0.473-6.961-1.203c-1.055-0.477-1.733-1.076-1.918-1.713h-0.054v-4.74h0.365c0 0.3 0.143 0.585 0.397 0.855 0.277 0.294 0.681 0.566 1.189 0.812 1.574 0.761 4.116 1.251 6.982 1.251s5.408-0.49 6.983-1.251c0.507-0.245 0.912-0.517 1.189-0.812 0.253-0.269 0.397-0.555 0.397-0.855zM17.882 4.391c-0.040 0.051-0.084 0.101-0.131 0.151-0.302 0.322-0.742 0.622-1.296 0.89-1.61 0.778-4.209 1.287-7.141 1.287s-5.531-0.509-7.141-1.287c-0.554-0.268-0.994-0.568-1.296-0.89-0.047-0.050-0.090-0.1-0.131-0.151v3.489l0.014 0.085c0.048 0.29 0.226 0.564 0.507 0.824 0.303 0.279 0.722 0.537 1.236 0.769 1.584 0.715 4.046 1.171 6.811 1.171s5.227-0.456 6.811-1.171c0.513-0.232 0.933-0.49 1.236-0.769 0.281-0.259 0.459-0.534 0.507-0.824l0.014-0.085v-3.489z"></path>
<path fill="#7383bf" d="M0.565 3.255v0.182c0-0.061 0.007-0.122 0.016-0.182h-0.016z"></path>
<path fill="#7383bf" d="M18.048 3.255c0.010 0.061 0.016 0.121 0.016 0.182v-0.182h-0.016z"></path>
</svg>
