<!-- Generated by IcoMoon.io -->
<svg version="1.1" xmlns="http://www.w3.org/2000/svg" width="21" height="20" viewBox="0 0 21 20">
<title>warning-icon</title>
<path fill="#ffd42a" d="M1 16.995c-0.133 0.256-0.29 0.496-0.29 0.778l0.001 0.118c0 0.608 0.476 0.975 1.022 0.975h17.668c0.547 0 1.018-0.455 1.018-1.063l-0.006-0.118c0-0.282-0.138-0.526-0.29-0.778l-8.75-15.696c-0.387-0.43-1.013-0.43-1.4 0l-8.974 15.785z"></path>
<path fill="#000" d="M20.911 17.669l0.006 0.134c0 0.898-0.707 1.56-1.515 1.56h-17.668c-0.819 0-1.52-0.562-1.52-1.467 0 0-0.001-0.118-0.001-0.123 0-0.361 0.175-0.678 0.35-1.015l9.005-15.84 0.036-0.040c0.591-0.657 1.549-0.657 2.14 0l0.038 0.042 8.774 15.74c0.195 0.325 0.352 0.648 0.356 1.010zM10.972 1.51c-0.173-0.159-0.424-0.159-0.597 0.001l-8.94 15.726c-0.095 0.179-0.227 0.338-0.227 0.53 0 0 0.001 0.118 0.001 0.123 0 0.305 0.25 0.477 0.525 0.477 0 0 17.668 0 17.668 0 0.283 0 0.517-0.244 0.52-0.558l-0.006-0.126c0-0.192-0.115-0.35-0.223-0.528l-8.722-15.646z"></path>
<path fill="#000" d="M12.168 15.427c0 0.77-0.624 1.394-1.394 1.394s-1.394-0.624-1.394-1.394c0-0.77 0.624-1.394 1.394-1.394s1.394 0.624 1.394 1.394z"></path>
<path fill="#000" d="M10.765 5.741c0.548 0 1.398 0.437 1.398 0.979l-0.409 5.633c0 0.542-0.441 0.979-0.989 0.979s-0.988-0.437-0.988-0.979l-0.477-5.633c0-0.542 0.918-0.979 1.466-0.979z"></path>
</svg>
