<!-- Generated by IcoMoon.io -->
<svg version="1.1" xmlns="http://www.w3.org/2000/svg" width="20" height="20" viewBox="0 0 20 20">
<title>wrench</title>
<path d="M19.375 16.75l-9.75-9.75c0.25-0.625 0.375-1.25 0.375-2 0-2.75-2.25-5-5-5-0.75 0-1.375 0.125-2 0.375l3.625 3.625-2.625 2.625-3.625-3.625c-0.25 0.625-0.375 1.25-0.375 2 0 2.75 2.25 5 5 5 0.75 0 1.375-0.125 2-0.375l9.75 9.75c0.75 0.75 1.875 0.75 2.625 0s0.75-1.875 0-2.625zM8.5 9.5l-1.75-1.75 1.125-1.125 1.75 1.75-1.125 1.125zM17.75 18.75c-0.5 0-1-0.375-1-1 0-0.5 0.375-1 1-1s1 0.375 1 1c0 0.625-0.375 1-1 1z"></path>
</svg>
