<?xml version="1.0" encoding="UTF-8" standalone="no"?><!DOCTYPE svg PUBLIC "-//W3C//DTD SVG 1.1//EN" "http://www.w3.org/Graphics/SVG/1.1/DTD/svg11.dtd"><svg width="100%" height="100%" viewBox="0 0 360 200" version="1.1" xmlns="http://www.w3.org/2000/svg" xmlns:xlink="http://www.w3.org/1999/xlink" xml:space="preserve" xmlns:serif="http://www.serif.com/" style="fill-rule:evenodd;clip-rule:evenodd;stroke-linecap:round;stroke-linejoin:round;stroke-miterlimit:1.5;"><g><g><g><path d="M110.107,193.19c-6.407,0 -11.649,-5.242 -11.649,-11.648l0,-163.084c0,-6.406 5.242,-11.648 11.649,-11.648l93.191,-0c3.215,-0 7.688,1.864 9.936,4.112l44.195,44.195c2.272,2.272 4.113,6.669 4.113,9.931l-0,116.494c-0,6.406 -5.242,11.648 -11.649,11.648l-139.786,0Z" style="fill:#e6e6e6;"/><path d="M110.107,193.19c-6.407,0 -11.649,-5.242 -11.649,-11.648l0,-163.084c0,-6.406 5.242,-11.648 11.649,-11.648l93.191,-0c3.215,-0 7.688,1.864 9.936,4.112l44.195,44.195c2.272,2.272 4.113,6.669 4.113,9.931l-0,116.494c-0,6.406 -5.242,11.648 -11.649,11.648l-139.786,0Zm0,-8.736c-1.601,-0 -2.912,-1.311 -2.912,-2.912l0,-163.084c0,-1.601 1.311,-2.912 2.912,-2.912l93.191,0c1.217,0 2.906,0.705 3.756,1.555l44.196,44.196c0.862,0.856 1.555,2.516 1.555,3.751l-0,116.494c-0,1.601 -1.311,2.912 -2.912,2.912l-139.786,-0Z" style="fill:#b3b3b3;"/></g><g><g><path d="M151.95,67.703l-0,64.593" style="fill:none;stroke:#000;stroke-width:7.08px;"/></g><g><path d="M208.05,89.432l-56.1,42.865" style="fill:none;stroke:#000;stroke-width:7.08px;"/></g><g><g><ellipse cx="151.95" cy="67.703" rx="19.091" ry="18.597" style="fill:#0431fa;"/></g><g><ellipse cx="151.95" cy="67.703" rx="10.834" ry="10.554" style="fill:#15afe9;"/></g></g><g><g><ellipse cx="151.95" cy="132.296" rx="19.091" ry="18.597" style="fill:#0431fa;"/></g><g><ellipse cx="151.95" cy="132.296" rx="10.834" ry="10.554" style="fill:#15afe9;"/></g></g><g><g><ellipse cx="208.05" cy="89.432" rx="19.091" ry="18.597" style="fill:#0431fa;"/></g><g><ellipse cx="208.05" cy="89.432" rx="10.834" ry="10.554" style="fill:#15afe9;"/></g></g></g></g></g></svg>