<?xml version="1.0" encoding="UTF-8" standalone="no"?>
<!DOCTYPE svg PUBLIC "-//W3C//DTD SVG 1.1//EN" "http://www.w3.org/Graphics/SVG/1.1/DTD/svg11.dtd">
<svg width="100%" height="100%" viewBox="0 0 28 37" version="1.1" xmlns="http://www.w3.org/2000/svg" xmlns:xlink="http://www.w3.org/1999/xlink" xml:space="preserve" xmlns:serif="http://www.serif.com/" style="fill-rule:evenodd;clip-rule:evenodd;stroke-linecap:round;stroke-linejoin:round;stroke-miterlimit:1.5;">
    <g transform="matrix(0.16477,0,0,0.16477,0,0)">
        <g transform="matrix(4.72039,0,0,4.78104,-66.22,-43.6696)">
            <path d="M39.465,9.647L49.459,19.629L40.969,21.906C40.969,21.906 37.844,16.531 37.907,16.344C37.97,16.157 39.465,9.647 39.465,9.647Z" style="fill:rgb(217,220,225);fill-rule:nonzero;"/>
            <path d="M39.465,9.647L49.459,19.629L40.969,21.906C40.969,21.906 37.844,16.531 37.907,16.344C37.97,16.157 39.465,9.647 39.465,9.647ZM39.386,16.219C39.583,15.391 39.952,13.804 40.269,12.434L40.269,12.434L46.753,18.91C46.753,18.91 41.653,20.278 41.653,20.278C40.971,19.095 39.834,17.106 39.386,16.219Z" style="fill:rgb(217,220,225);"/>
        </g>
        <g transform="matrix(4.72039,0,0,4.78104,-66.0855,-43.0294)">
            <path d="M48,19L42,19C40.895,19 40,18.105 40,17L40,11C40,9.895 39.105,9 38,9L16,9C14.895,9 14,9.895 14,11L14,53C14,54.105 14.895,55 16,55L48,55C49.105,55 50,54.105 50,53L50,21C50,19.895 49.105,19 48,19Z" style="fill:rgb(246,246,246);fill-rule:nonzero;"/>
            <path d="M48,19L42,19C40.895,19 40,18.105 40,17L40,11C40,9.895 39.105,9 38,9L16,9C14.895,9 14,9.895 14,11L14,53C14,54.105 14.895,55 16,55L48,55C49.105,55 50,54.105 50,53L50,21C50,19.895 49.105,19 48,19ZM48,20.394C48.33,20.394 48.588,20.67 48.588,21L48.588,53C48.588,53.33 48.33,53.606 48,53.606C48,53.606 16,53.606 16,53.606C15.67,53.606 15.412,53.33 15.412,53L15.412,11C15.412,10.67 15.67,10.394 16,10.394L38,10.394C38.33,10.394 38.588,10.67 38.588,11C38.588,11 38.588,17 38.588,17C38.588,18.88 40.12,20.394 42,20.394L48,20.394Z" style="fill:rgb(217,220,225);"/>
        </g>
        <g>
            <g transform="matrix(1,0,0,1,-42.0431,-17.9058)">
                <path d="M95.67,93.104L95.67,166.087" style="fill:none;stroke:black;stroke-width:8px;"/>
            </g>
            <g transform="matrix(1,0,0,1,18.4416,43.1526)">
                <path d="M98.572,56.596L35.186,105.029" style="fill:none;stroke:black;stroke-width:8px;"/>
            </g>
            <g transform="matrix(1,0,0,1,-42.0431,-17.9058)">
                <g transform="matrix(1.24708,0,0,1.2986,-23.3183,-27.9026)">
                    <ellipse cx="95.414" cy="93.182" rx="17.297" ry="16.181" style="fill:rgb(4,49,250);"/>
                </g>
                <g transform="matrix(0.707723,0,0,0.736962,28.1437,24.432)">
                    <ellipse cx="95.414" cy="93.182" rx="17.297" ry="16.181" style="fill:rgb(21,175,233);"/>
                </g>
            </g>
            <g transform="matrix(1,0,0,1,-42.0431,55.0776)">
                <g transform="matrix(1.24708,0,0,1.2986,-23.3183,-27.9026)">
                    <ellipse cx="95.414" cy="93.182" rx="17.297" ry="16.181" style="fill:rgb(4,49,250);"/>
                </g>
                <g transform="matrix(0.707723,0,0,0.736962,28.1437,24.432)">
                    <ellipse cx="95.414" cy="93.182" rx="17.297" ry="16.181" style="fill:rgb(21,175,233);"/>
                </g>
            </g>
            <g transform="matrix(1,0,0,1,21.3431,6.64522)">
                <g transform="matrix(1.24708,0,0,1.2986,-23.3183,-27.9026)">
                    <ellipse cx="95.414" cy="93.182" rx="17.297" ry="16.181" style="fill:rgb(4,49,250);"/>
                </g>
                <g transform="matrix(0.707723,0,0,0.736962,28.1437,24.432)">
                    <ellipse cx="95.414" cy="93.182" rx="17.297" ry="16.181" style="fill:rgb(21,175,233);"/>
                </g>
            </g>
        </g>
    </g>
</svg>
