<!-- Generated by IcoMoon.io -->
<svg version="1.1" xmlns="http://www.w3.org/2000/svg" width="20" height="20" viewBox="0 0 20 20">
<title>zoom-default-monitor</title>
<path fill="#fff" d="M2.722 12.711h14.803v1.147h-14.803v-1.147z"></path>
<path fill="#fff" d="M2.765 14.853h9.571c0.023 0 0.042 0.011 0.042 0.025v1.072c0 0.014-0.019 0.025-0.042 0.025h-9.571c-0.023 0-0.042-0.011-0.042-0.025v-1.072c0-0.014 0.019-0.025 0.042-0.025z"></path>
<path fill="#fff" d="M2.68 16.97h11.91v1.122h-11.91v-1.122z"></path>
<path fill="#32bea6" d="M18.445 10.953h-16.904c-0.845 0-1.537 0.411-1.537 0.914v6.397c0 0.503 0.691 0.914 1.537 0.914l16.904-0c0.845 0 1.537-0.411 1.537-0.914v-6.397c0-0.503-0.691-0.914-1.537-0.914z"></path>
<path fill="#fff" d="M2.632 12.383h14.848v1.162h-14.848v-1.162z"></path>
<path fill="#fff" d="M2.675 14.553h9.6c0.023 0 0.042 0.011 0.042 0.025v1.086c0 0.014-0.019 0.025-0.042 0.025h-9.6c-0.023 0-0.042-0.011-0.042-0.025v-1.086c0-0.014 0.019-0.025 0.042-0.025z"></path>
<path fill="#fff" d="M2.59 16.698h11.946v1.137h-11.946v-1.137z"></path>
<path fill="#6790bf" d="M0 7.826c0 4.315 3.511 7.826 7.826 7.826l0.87-7.826-0.87-7.826c-4.315 0-7.826 3.511-7.826 7.826z"></path>
<path fill="#324860" d="M12.973 11.129l7.027 7.027-1.845 1.845-7.027-7.027 1.845-1.845z"></path>
<path fill="#446080" d="M7.826 0v15.652c4.315 0 7.826-3.511 7.826-7.826s-3.511-7.826-7.826-7.826z"></path>
<path fill="#fff" d="M1.739 7.826c0 3.356 2.731 6.087 6.087 6.087l0.87-6.087-0.87-6.087c-3.356 0-6.087 2.731-6.087 6.087z"></path>
<path fill="#bfdcff" d="M7.826 1.739v12.174c3.356 0 6.087-2.731 6.087-6.087s-2.731-6.087-6.087-6.087z"></path>
</svg>
