<!-- Generated by IcoMoon.io -->
<svg version="1.1" xmlns="http://www.w3.org/2000/svg" width="25" height="20" viewBox="0 0 25 20">
<title>zoom-edit</title>
<path fill="#6790bf" d="M0.376 7.908c0 4.153 3.379 7.532 7.532 7.532l0.837-7.532-0.837-7.532c-4.153 0-7.532 3.379-7.532 7.532z"></path>
<path fill="#324860" d="M12.862 11.086l6.762 6.762-1.775 1.775-6.762-6.762 1.775-1.775z"></path>
<path fill="#446080" d="M7.908 0.376v15.064c4.153 0 7.532-3.379 7.532-7.532s-3.379-7.532-7.532-7.532z"></path>
<path fill="#fff" d="M2.050 7.908c0 3.23 2.628 5.858 5.858 5.858l0.837-5.858-0.837-5.858c-3.23 0-5.858 2.628-5.858 5.858z"></path>
<path fill="#bfdcff" d="M7.908 2.050v11.716c3.23 0 5.858-2.628 5.858-5.858s-2.628-5.858-5.858-5.858z"></path>
<path fill="#4a6b8c" d="M20.677 0.451h1.88v15.038h-1.88v-15.038z"></path>
<path fill="#4a6b8c" d="M18.797 0.451h5.639v1.88h-5.639v-1.88z"></path>
<path fill="#4a6b8c" d="M18.797 13.684h5.639v1.88h-5.639v-1.88z"></path>
</svg>
