<!-- Generated by IcoMoon.io -->
<svg version="1.1" xmlns="http://www.w3.org/2000/svg" width="25" height="20" viewBox="0 0 25 20">
<title>zoom-edit-monitor</title>
<path fill="#fff" d="M2.996 12.609h14.247v1.104h-14.247v-1.104z"></path>
<path fill="#fff" d="M3.037 14.671h9.211c0.022 0 0.041 0.011 0.041 0.024v1.032c0 0.013-0.018 0.024-0.041 0.024h-9.211c-0.022 0-0.041-0.011-0.041-0.024v-1.032c0-0.013 0.018-0.024 0.041-0.024z"></path>
<path fill="#fff" d="M2.955 16.709h11.462v1.080h-11.462v-1.080z"></path>
<path fill="#32bea6" d="M18.127 10.917h-16.269c-0.813 0-1.479 0.396-1.479 0.88v6.157c0 0.484 0.665 0.879 1.479 0.879l16.269-0c0.813 0 1.479-0.396 1.479-0.88v-6.157c0-0.484-0.665-0.88-1.479-0.88z"></path>
<path fill="#fff" d="M2.909 12.294h14.29v1.118h-14.29v-1.118z"></path>
<path fill="#fff" d="M2.95 14.382h9.239c0.023 0 0.041 0.011 0.041 0.024v1.046c0 0.013-0.018 0.024-0.041 0.024h-9.239c-0.022 0-0.041-0.011-0.041-0.024v-1.046c0-0.013 0.018-0.024 0.041-0.024z"></path>
<path fill="#fff" d="M2.868 16.447h11.497v1.094h-11.497v-1.094z"></path>
<path fill="#6790bf" d="M0.376 7.908c0 4.153 3.379 7.532 7.532 7.532l0.837-7.532-0.837-7.532c-4.153 0-7.532 3.379-7.532 7.532z"></path>
<path fill="#324860" d="M12.862 11.086l6.762 6.762-1.775 1.775-6.762-6.762 1.775-1.775z"></path>
<path fill="#446080" d="M7.908 0.376v15.064c4.153 0 7.532-3.379 7.532-7.532s-3.379-7.532-7.532-7.532z"></path>
<path fill="#fff" d="M2.050 7.908c0 3.23 2.628 5.858 5.858 5.858l0.837-5.858-0.837-5.858c-3.23 0-5.858 2.628-5.858 5.858z"></path>
<path fill="#bfdcff" d="M7.908 2.050v11.716c3.23 0 5.858-2.628 5.858-5.858s-2.628-5.858-5.858-5.858z"></path>
<path fill="#4a6b8c" d="M20.677 0.451h1.88v15.038h-1.88v-15.038z"></path>
<path fill="#4a6b8c" d="M18.797 0.451h5.639v1.88h-5.639v-1.88z"></path>
<path fill="#4a6b8c" d="M18.797 13.684h5.639v1.88h-5.639v-1.88z"></path>
</svg>
