<!-- Generated by IcoMoon.io -->
<svg version="1.1" xmlns="http://www.w3.org/2000/svg" width="20" height="20" viewBox="0 0 20 20">
<title>zoom-default</title>
<path fill="#6790bf" d="M0 7.826c0 4.315 3.511 7.826 7.826 7.826l0.87-7.826-0.87-7.826c-4.315 0-7.826 3.511-7.826 7.826z"></path>
<path fill="#324860" d="M12.973 11.129l7.027 7.027-1.845 1.845-7.027-7.027 1.845-1.845z"></path>
<path fill="#446080" d="M7.826 0v15.652c4.315 0 7.826-3.511 7.826-7.826s-3.511-7.826-7.826-7.826z"></path>
<path fill="#fff" d="M1.739 7.826c0 3.356 2.731 6.087 6.087 6.087l0.87-6.087-0.87-6.087c-3.356 0-6.087 2.731-6.087 6.087z"></path>
<path fill="#bfdcff" d="M7.826 1.739v12.174c3.356 0 6.087-2.731 6.087-6.087s-2.731-6.087-6.087-6.087z"></path>
</svg>
